<svg version="1" xmlns="http://www.w3.org/2000/svg" width="2880" height="2880" viewBox="0 0 2160.000000 2160.000000"><path d="M1882.7 410.1c-1.7 1-1.7 1.2-.2 2.9.9 1 1.7 2.8 1.7 4.1.4 6.1-.3 10.9-1.8 12.4-1.5 1.4-1.9 1.3-5.1-2-2.9-3-3.9-3.4-7-3.1-2 .3-4.1 1-4.6 1.5-.6.6-1.8 1.1-2.6 1.1-4.2.1-5.7 3.8-3.4 8.3.8 1.7 1.2 4.1.8 6-.3 1.8-.7 5.5-.9 8.4-.1 3.3-.9 6-2 7.2-1 1.1-2 4.2-2.3 7.3-.5 4.9-.3 5.7 2.1 8.3 3.6 3.9 3.4 9.8-.3 10.3-1.5.3-2.8-.3-3.4-1.3-.8-1.5-1.1-1.5-3.3.6-1.3 1.2-2.1 2.5-1.9 3 .3.4-.4 1-1.5 1.4-2.3.7-2.7 4.4-.9 7.7 2 3.7 6.2 7.8 8 7.8.9 0 2 .8 2.4 1.7.5 1.3-.7 3.1-4.8 6.8-3 2.7-6.3 6.5-7.3 8.3l-1.9 3.3 3.2 2.7c8.3 6.9 10.1 13.1 6.1 20.3-3.4 5.9-9 7.7-19.9 6.5-4.5-.5-4.5-.5-5.9 3.2-.7 2-1.5 7.4-1.6 11.9-.1 4.5-.6 8.8-1.1 9.5-.4.7-.9 7.6-.9 15.3-.1 7.7-.3 14.9-.5 16-.3 1.6.2 2.1 2.4 2.3 1.5.2 2.8.8 2.8 1.3.1.5.2 1.5.3 2.1.1.7-.5 2.2-1.5 3.3-.9 1.1-2 3.4-2.4 5.2-.9 4.3-2.7 5.6-7.9 5.5-6.2-.2-9.1 3.2-9.2 10.8-.1 3-.3 6.4-.6 7.5-1.4 5.6-2.1 7.5-2.8 7.5-.4 0-.7 2-.8 4.4 0 3.3.8 5.7 2.9 9 2.5 4.1 2.7 4.6 1 4.6-4 0-5.1 5.8-2.5 12.7 2.2 5.6 1.1 7-5.5 6.7-3.5-.2-5.1.2-5.5 1.2-.8 2.2 2.1 15.9 4 18.9.9 1.4 1.4 2.8 1.1 3.2-.4.3-.2 1.4.3 2.4.7 1.2.5 4.2-.6 9.4-.9 4.1-1.7 8.9-1.8 10.5-.1 1.6-.5 3.2-.9 3.6-.3.4.5 2 1.8 3.6 1.4 1.6 2.5 3.5 2.5 4.2 0 1.9 3.2 4.5 6.1 4.9 2.9.5 3.8 3.4 1.2 4.4-1 .3-3.7 2-6 3.6-5 3.5-8.7 3.2-10.6-1.1-2.9-6.5-7.6-5.8-7.5 1.3.1 8.9.2 8.6-6.5 14.2-2.1 1.8-2.5 2.9-2.2 6.1.4 5.1 2.3 8.6 7.3 14 4.2 4.5 4.5 5.9 2.3 8.6-2.3 2.7-7 1.9-11.7-1.9-4.9-4.1-6.3-4.3-6.6-1.3 0 1.3-.2 3-.2 3.8-.2 2.1 2.9 9.1 4.5 10.1 1 .6 1 1 0 2.3-1.8 2.2.3 7.4 3.2 7.8 2.6.4 3.2 2.1 1.4 3.9-1.7 1.8-5 6.9-5.4 8.3-.1.6-.8 3.3-1.5 5.9-1 4.3-.9 5.2 1.1 9.4l2.2 4.6-2.6 3.6c-1.4 2.1-2.5 4.2-2.5 4.9 0 .6-1.8 2.6-4 4.3-2.2 1.8-4 3.8-4 4.4 0 .6 1.3 2.6 3 4.5 2.7 3.1 5.8 12.2 5.2 16-.4 3.5-.4 5.8.2 9.9.7 4.8-1.1 8.1-4.5 8.1-2.8 0-6.9 4.2-6.9 7 .1 1.4.1 3.8.1 5.5.2 9.4-1.1 25.6-2.4 29.5-1.3 4.3-1.5 10.7-.3 15.8.4 1.7-.4 3.4-2.9 6.1-1.9 2.1-3.5 4.6-3.5 5.5 0 1-1 3.2-2.3 4.9-3.4 4.6-4.8 10.2-3.2 12.4 1.1 1.5.9 2.3-1.1 5.2-1.3 2-2.4 4.1-2.4 4.6 0 .6-1.3 2.4-3 4-2.2 2.1-2.9 3.5-2.6 5.4.3 1.4.7 4.8 1.1 7.6.9 7.4 2.4 9.7 7 11 3.9 1 4 1.2 4.1 5.5.1 4.2-2.7 12-4.4 12-1.9 0-5.2 6.9-5.3 11.1-.1 2.4-.5 5.1-1 6-1.9 3.8 2.7 5.8 11.9 5 .7 0 1.8-1.5 2.4-3.2 1-2.9 1.3-3 4.6-2.4 5.4 1 9.1 3.3 9.8 6 .3 1.3.3 2.8 0 3.3-.9 1.5-4.9.8-8.9-1.7-4.1-2.5-6.7-2.2-6.7.7 0 1-1.4 2.8-3.1 4.1-3.3 2.5-3.2 1.1-1.2 17.1.3 2.5 1.1 5.9 1.8 7.7 1.5 3.4.7 8.4-1.9 13.3-4.2 7.7-2.5 13.3 4.3 14.5 4.7.8 6.2 2.2 5.1 5.1-.8 2-1.4 2.2-6.8 1.8-6-.4-6.1-.4-11.5 4.3-4.9 4.3-5.4 5-4.5 7.2.5 1.4 1 4.8 1 7.5.1 2.8.5 5.3.8 5.6.3.3 1.5 1.8 2.7 3.3l2.2 2.9-2.1 2.8c-2.5 3.4-3.3 15.3-1.2 17.1.7.6 1.2 3.2 1.2 6.4-.1 3.8.4 5.8 1.6 7 2.1 2.1 1.7 3.6-1.3 5.1-4.4 2.2-7.1 5.6-7.1 9 0 1.8.4 3.5.8 3.8 1.1.7 3.4 10.9 3.7 16.1.2 5.2 1.5 9 6 19 .8 1.6 1.9 4.9 2.5 7.2.6 2.5 1.9 4.7 3.2 5.4 3.3 1.8 8.8 7.7 8.8 9.5 0 1.4-.7 1.5-4.1 1-4.5-.7-10.3.7-13.2 3.2-1.6 1.4-1.6 1.7-.1 4.1.9 1.4 2.8 3.8 4.1 5.3 1.6 1.7 2.6 3.9 2.7 6.1.2 5 3 7.7 8 7.7 4 0 4.1-.1 7.1-6.2 1.7-3.4 3.5-6.4 4.2-6.6 1.1-.3 4.6 5 4.8 7.3.1.5-1.1 2.2-2.7 3.7-3.4 3.3-3.5 4.2-.3 8 3.1 3.7 3.1 3.9-.4 7-3.3 3-7.1 5.2-7.1 4.2 0-.4-.8 0-1.7.8-1 .8-3.4 1.5-5.3 1.7-4 .2-5.3 1.7-3.7 4.5.6 1.2 1.2 4.3 1.4 7.1.5 10.1 1.4 13.2 5 16.9 3 3.1 3.9 4.7 4.2 7.8.1.3 1.2 2 2.6 3.7 1.4 1.6 3.7 6.2 5 10 2.3 7 2.3 7.1.4 8.1-1.5.8-1.8 1.7-1.2 3.8.3 1.5.6 3.3.6 4.2 0 .8.6 2.3 1.5 3.2 1.3 1.6 1.3 2-.2 4.3-1.2 1.9-2.5 2.6-4.4 2.5-5-.4-6.2 0-6.2 1.8 0 1 .3 2.2.7 2.5.3.4.7 2.7.8 5.1.2 3.5.9 5.1 3.3 7.4 1.7 1.7 4 3.3 5 3.6 1.1.4 3.2 1.8 4.8 3.1 1.6 1.4 3.7 2.6 4.7 2.6.9.1 2.7.2 4 .3 7.5.7 11.4-8.5 5.6-13.5l-2.2-1.9 2.1-2.9c1.8-2.4 1.9-3.4 1.1-6.5-.5-1.9-1.4-3.8-1.9-4.1-.6-.4-1-1.7-1-3 0-1.6-1.6-3.6-5.2-6.5-2.9-2.3-5.2-4.6-5.1-5 .1-.5-.4-1.4-1.2-2-2-1.7-1.9-3.2.4-5.2 3.1-2.6 5.4-3.6 7.9-3.2 2.4.4 6.1 4 6.2 5.9.2 2.6 5.4 6.9 8.6 7 3.4.2 5.9-1.8 9.9-7.9 1.6-2.4 1.6-2.8.3-4.4-2.2-2.4-4.8-7.8-4.8-9.8 0-.9 1.2-3 2.6-4.7 2.5-3 2.6-3.4 1.9-12.7-.5-7.7-1.1-10.1-3.1-13-1.5-2.2-2-3.8-1.4-4.4 1.4-1.4 1.2-6.7-.4-9.5-.8-1.4-1.2-3.1-.9-3.9.3-.7-.5-2.4-1.7-3.7-1.3-1.3-2-3.1-1.7-3.9.4-.9-.2-2.1-1.3-2.9-2.5-1.7-2.3-6.6.2-8.5 1.7-1.2 1.5-1.6-2.4-4.6-2.4-1.8-4.2-3.9-4-4.6.1-.6.4-2.5.6-4.1.2-1.6 1.5-4.1 2.9-5.5 1.4-1.4 3.5-4.6 4.7-7.2 1.2-2.6 2.7-5.3 3.3-6 .6-.8 1.2-3.8 1.3-6.7.2-3.7.9-6.3 2.4-8.3 2-2.6 2.1-3.5 1.1-6.3-1.5-4.3-1.3-10 .3-12.2.7-.9 2.6-1.7 4.3-1.7 1.9 0 3.8-1 5.5-2.8 2.9-3 5.3-7.3 5-8.5-.1-.4.4-1.8 1.3-3 2.2-3.1 1.9-4.9-.7-4.6-3 .4-6.8-1.7-6.8-3.7 0-.8 1.1-3.1 2.5-5.1 1.6-2.4 2.1-4.1 1.6-5.2-.5-.9-.6-2.9-.4-4.5.2-1.7-.3-4.9-1.2-7.3-2.1-5.5-1.4-8.7 2.4-10.3 3.6-1.5 4.7-4.8 2.2-6.9-1.3-1.1-1.7-2.5-1.4-4.8.3-1.8 0-4.7-.7-6.5-.6-1.8-1.4-4.4-1.6-5.8-.3-1.4-1.2-3.8-2-5.4-.8-1.6-1.4-3.7-1.4-4.6 0-2.3 3.7-6 7.6-7.6 4-1.7 4.4-4.2 1.3-8.6-1.9-2.6-2.1-4.3-2.1-14.4 0-6.4.2-11.8.5-12 .8-.9 3.7.8 3.7 2.2 0 2.1 2.5 2.8 4.9 1.4 2.1-1.1 2.1-1.2.5-4-1-1.6-2.6-3.1-3.6-3.3-2.3-.6-2.5-7.8-.3-10.1.8-.8 1.5-2.5 1.5-3.9 0-1.3.4-3.7 1-5.3 1.8-5.8 1.9-9.5.2-10.1-.9-.4-1.8-.1-2 .5-.5 1.7-3.1 4.2-4.2 4.2-.5 0-1.7-1.1-2.5-2.4-1.3-1.9-1.4-2.9-.5-4.5.6-1.2 1.6-2.1 2.4-2.1.7 0 2.6-1.6 4.3-3.5 1.7-1.9 3.8-3.5 4.7-3.5 2.1 0 4-3.8 2.8-5.3-.5-.7-1.2-3-1.5-5.2-.3-2.2-1.1-5.3-1.7-6.9-1.2-3.2-.2-5.1 2.7-5.1 2.8 0 3.3-4.8 1.2-11.5-2.2-7.2-1.8-9.3 1.7-7.9 3.7 1.3 8-1.2 8.8-5.2.3-1.8.2-3.7-.3-4.3-.5-.6-1.2-2.5-1.5-4.2-.4-1.7-2.2-4.6-4.1-6.4-3.4-3.2-3.5-3.7-3.5-10.5 0-4.6-.7-9.3-2-13.1-3.3-9.5-3.3-10.2.3-12 4.2-2.2 4.6-2.9 3.6-7.3-1.4-5.9-1.1-6.9 2.5-8.6 4.8-2.3 6.2-5.4 4.2-9.3-2-3.9-2-5.6 0-8.7 2.3-3.6 4.5-12.6 3.8-16.2-.4-1.9 0-4.4 1.1-6.7 1.4-2.9 1.5-4.2.6-6.7-.6-1.8-1.1-5.2-1.1-7.7v-4.4l5.6.6c3.1.3 6 .8 6.4 1.1 1.4.9 3.1-3.3 2.4-6-.3-1.4-1.9-3.6-3.4-4.8-3.4-2.9-5-5.8-5-9 0-2.9 1.4-4.3 5.3-5.2 1.5-.4 2.8-1 2.8-1.4.7-4 .5-6.1-.6-7.1-.9-.8-1.2-2.6-.8-6.3.3-2.9.6-7.3.6-9.8 0-3.9.3-4.7 2.8-6.2 2.2-1.2 2.9-2.4 2.9-4.6 0-1.6-.5-3.1-1.2-3.3-2.8-1-.8-11.4 2.5-12.3 2.7-.9 7.7-5.4 7.7-7.2 0-.7-.7-3.2-1.4-5.5-.8-2.4-1.7-5.6-2-7.1-.5-2.9 1.1-7.7 2.6-7.7.4 0 .8-2 .8-4.4 0-4.2.4-4.8 5.6-9.3 5-4.4 5.5-5.1 5-8.2-.4-3.4-1.9-5-4.6-5.1-.8 0-2.6-.9-3.9-1.9-2.2-1.6-2.3-2.3-1.8-8.2.6-7.7 1-9.2 3.6-14.6 1.2-2.3 2.1-5.1 2.1-6.2 0-3.1 4.5-5.1 8.8-3.9 1.8.5 4 .7 4.7.5 2.1-.8 1.2-5-1.3-6.3-1.3-.6-3.2-2.1-4.3-3.3-1.1-1.1-3.1-2.4-4.4-2.7-1.4-.3-2.5-.9-2.6-1.3 0-.3-.2-1.4-.4-2.4-.2-1.1 1.3-3.5 3.8-6 2.7-2.7 4.1-4.9 3.8-6.1-.1-1.1.3-3.7 1-5.9 1.3-4.1 1.4-4-3-6.6-1.2-.7-.8-1.5 1.9-3.7 6.6-5.6 7.1-6.5 6.4-11-.6-4-.4-4.3 3.6-7.1 4-2.7 4.3-3.2 4.6-8.4.2-2.9.5-7.1.7-9.1.3-2.2 0-3.8-.7-4.1-1.2-.5-1.3-5.3-.2-10.3 1.7-7.5 1.5-9-1.5-12.5-3.3-3.8-3.5-3.2 3.5-8.3 2.6-1.9 5.6-6.8 5.6-9.1 0-.7.7-1.8 1.5-2.5s1.3-1.6 1-2c-.9-1.5 2.5-12.3 5.1-16.3 2.1-3.3 2.5-4.8 2.2-9.1-.3-2.8-.8-5.8-1.2-6.7-.4-1 .1-1.9 1.7-2.8 4.4-2.3 5.1-4.8 5.5-18.6.3-11.4.6-13.3 2.4-15.2 1.1-1.2 1.7-2.7 1.3-3.3-.4-.6.6-4.6 2.3-8.8 1.6-4.2 3.3-9 3.7-10.6.3-1.7 1.5-4.2 2.6-5.7 1-1.5 1.9-3.9 1.9-5.3 0-1.5.7-2.9 1.5-3.2.8-.4 2.2-2.9 3-5.6 2-7 2.8-7.7 7.1-6.8 4.9 1.1 8.6-.4 10.6-4.3 2.7-5 3.1-9.7 1.4-14.6-.9-2.4-1.6-6.7-1.6-9.6 0-4.3-.5-5.9-3-9-1.6-2.1-3-4.1-3-4.5 0-1.9-5.5-5.9-9.7-6.9-5.9-1.5-8.9-3.1-13.3-7-1.9-1.7-6.2-4.7-9.4-6.7l-5.9-3.7-8.2 1.1c-5.2.7-9.6.7-12.1.2-5.2-1.2-9.5-1.2-11.7.1zm2.1 27.8c2.6 2.2 2.9 6.3.6 8.5-1.4 1.4-1.9 1.4-5.4-.4-3.9-2-4.3-3.5-2.5-8.8.6-1.8 4.7-1.4 7.3.7zM1842.3 594c-.3 1.1-.9 2-1.4 2-.5 0-.9-.9-.9-2s.6-2 1.4-2c.9 0 1.2.7.9 2zm-12.6 91.6c.1.5-.6 2-1.7 3.4-1.9 2.5-1.9 2.5-3.4.5-1.4-1.8-1.4-2.2.6-3.8 2.1-1.8 3.9-1.8 4.5-.1zm2.8 59.4c.3.5.2 1-.4 1-.5 0-1.3-.5-1.6-1-.3-.6-.2-1 .4-1 .5 0 1.3.4 1.6 1zm24.2 21.3c.3.3.3 1.7-.1 3.1-.6 2.5-2.3 2.7-5.2.4-2.1-1.6-.5-4.6 2.2-4.3 1.4.1 2.7.5 3.1.8zm-51.1 295c1.6 3.6.8 4.7-2.6 3.6-4.6-1.7-5.1-5.9-.7-5.9 1.3 0 2.6.9 3.3 2.3zm-5.2 59.7c2.9 1.1 3.4 3.5 1 4.8-2.9 1.6-5.4.3-5.4-2.9 0-3.2.6-3.4 4.4-1.9zm4.8 75.3c.5 1 .5 1.7.1 1.8-.4 0-1.6.2-2.5.4-2.2.4-5.3-1.9-4.4-3.3.9-1.6 5.7-.8 6.8 1.1zm-49 25.3c2.4 2.1 4.2 4.2 4.1 4.6-.1.3.4 2.7 1.1 5.2.8 2.6 1.3 5.3 1.2 6.1-.3 1.9-4.7 6.6-5.6 6-.4-.2-1.6.2-2.7 1-1.8 1.3-2 2.3-1.7 7.5.4 6.9-1 7.9-4.6 3.3-1.7-2.2-2-3.6-1.6-8.4.4-4.3.2-6-.9-6.9-1.1-.9-1.4-3.2-1.3-8.6.1-4.1-.1-7.6-.4-8-.3-.3 0-1.7.8-3.2 2-4 6.2-3.5 11.6 1.4zm16.4 119.5c1 1.7-1.3 3.6-2.7 2.2-1.2-1.2-.4-3.3 1.1-3.3.5 0 1.2.5 1.6 1.1zm9.5 7.9c1.5 0 1 4.6-.6 6-2.1 1.7-3.5.4-3.5-3.4 0-3.6 2.3-6.9 2.8-4.2.2.9.8 1.6 1.3 1.6z"/><path d="M1869 415.5c-1.7 2.1-.1 4.6 2.9 4.3 1.8-.2 2.7-1 2.9-2.6.2-1.2 0-2.2-.5-2.3-.4 0-1.6-.2-2.5-.4-.9-.2-2.2.3-2.8 1zM1647.1 477.9c-1.2.9-2.3 2.4-2.4 3.2-.2.8-1.3 2.5-2.5 3.7-1.2 1.2-2.2 3.1-2.2 4.3 0 1.1-.5 3-1.1 4.1-.6 1.1-1.1 3.6-1.1 5.4 0 1.9-.4 3.4-.8 3.4-3 0-3.6 3-3.4 17.1.4 27.4 1.2 32.8 5.1 36.7 1.6 1.7 1.7 4.6.1 7.5-1.3 2.6-2.1 19.6-.9 21.1 2 2.7 1.8 5.7-.6 9.3-1.5 2.1-2.6 5.1-2.6 6.8-.1 4.5 1.4 13.8 2.4 15.7.5.9.9 5 .9 9 0 4.1.5 7.9 1.1 8.5.8.8.7 2-.5 4.4-2.2 4.4-2 7 .9 11.3 3.1 4.5 3.1 4.4 0 9.7-2.8 5-3.2 10.1-.9 12 1.3 1 1.5 2.8 1.2 8.4-.3 6.6-.6 7.3-5.1 13.1-2.7 3.4-4.7 6.8-4.6 7.5.7 3.3-1.5 11.8-4.3 16.8-2.2 4-2.8 6-2.3 8 1.7 6.1 2.1 10.8 2.7 30.1.3 6.8 0 8-2.7 12.5-2.7 4.4-3 5.9-3.1 13.5-.2 12.4-1.5 27.4-2.5 28.5-1.2 1.2-1.2 11.2 0 11.9 2.1 1.3 1.8 4.8-.7 7.7-2.1 2.5-2.5 4.1-2.4 8.3.2 10-.7 13.5-4.7 18-4.7 5.1-5.8 9.6-3.1 12.1 1.5 1.3 2 3.1 2 6.7 0 2.6-.4 4.8-.9 4.8-1.3 0-4.4 8.5-4.5 12.4-.1 1.8-.6 3.9-1.3 4.7-1.1 1.4-1.8 4.3-2.9 13.4-.3 2.7-1.2 7-1.9 9.5s-1.6 8.4-2 13.2c-.5 7.2-.3 9.2 1.1 11.3 1.4 2.1 1.6 5.1 1.6 16.7 0 13.6-.1 14.2-2.4 16-1.2.9-2.8 1.8-3.5 1.8-1.8 0-2.3 1.3-3.4 8.1-.5 3.4-1.7 7.5-2.5 9.1-1.1 2-1.3 4.2-.8 7.4.4 3 .2 4.9-.7 6-.7.8-1.4 2.7-1.6 4.2-.1 1.5-.3 3.1-.4 3.7 0 .5.2 3.1.6 5.7.6 3.4.4 4.8-.4 4.8-1.7 0-6 10.1-6.6 15.6-.4 2.6-1 5.5-1.5 6.3-1.2 2.3-2.4 9.1-2.2 13.1.1 4-.9 5.3-9.3 12.3-6.6 5.6-7.3 7.5-3.9 12.2 1.2 1.6 2.2 3.7 2.2 4.5.1.8.4 6.4.7 12.3.7 10.4.6 10.9-1.4 11.4-1.2.3-2.4 1.7-2.7 3.2-.4 1.4-1 3.1-1.5 3.6-.4.6.4 3.4 1.8 6.3 2.4 5.1 2.4 5.4.7 7.9-.9 1.5-1.8 5.1-2 8.1-.2 3-.8 6-1.3 6.6-.5.6-.9 5.3-1 10.5-.1 5.2-.4 9.7-.6 10.1-.4.7-1.5 5.9-1.9 9.6-.2 1.1-.6 2.6-.9 3.1-.8 1.3 3.7 6.3 5.8 6.3 2.7 0 1.6 3.5-2.5 8.1-2.2 2.4-4.3 5.5-4.6 6.9-.3 1.4-1 3.6-1.6 5-1.5 3.2-1.5 3.3.5 11.7 1.9 8.1 2 23.4.2 26.9-1 2-1.4 23-.4 25.9.6 2.1-1.2 5.2-3.9 6.4-10.3 4.7-10.3 4.8-10.4 12.1 0 1.9 1.6 8.3 3.6 14 2 5.8 3.6 12.5 3.6 14.9 0 2.3.5 5.1 1 6.2 1.1 2 0 4.8-3.9 9.9-2.2 2.8-3 6.8-3.6 18.3-.3 4.3-.7 8.3-1.1 8.8-.3.5.3 2.4 1.4 4.2 2.4 4 2.1 9.1-.9 12.3-1.7 1.9-2.1 3.1-1.6 6.1.6 3.3.2 4.2-2.5 7-3.8 3.9-3.8 5.9 0 14.9 3.4 8.2 3.3 10.8-.9 15.3-1.8 2-2.9 4.4-3 6.4-.1 1.8-.3 4.5-.4 6.2-.1 1.6.5 4.2 1.3 5.7 1.2 2.1 1.3 3.2.5 5.1-.7 1.5-.8 2.9-.2 4 .6 1.1.6 2.4 0 3.6-.8 1.4-.4 2.8 2 6.5 2.7 4 3 5.1 2.5 9.7-.3 2.8-1 5.6-1.5 6.3-.5.6-1.2 3.5-1.5 6.4-.3 3-.9 5.8-1.2 6.3-.3.5-.7 2.8-1 5.1-.2 2.3-1.3 6.8-2.4 10-2.2 6.3-2 7.1 2.3 13 2.3 3.1 1.5 4.8-3.2 7.1-2.6 1.2-2.6 1.4-2.3 10.7.3 8.6.2 9.7-1.8 11.7-1.6 1.8-1.9 2.7-1 4.2.7 1.4.7 2.2-.1 2.6-.6.4-.8 1.4-.4 2.3.3.8-.2 3.7-1.1 6.5-2.1 6.4-1.4 11 2.5 14.2 3.8 3.3 4.5 6.7 2.6 13.9-.9 3.5-1.2 6.3-.6 7 .4.6 1.2 4 1.6 7.6.4 3.6.8 7.3.9 8.3.1.9 1.4 3 2.9 4.5 3.4 3.5 3.4 4.5-.2 7.5-3.8 3.2-4.3 8.1-1.4 12.7 1.2 1.9 1.8 3.7 1.4 4-1.6 1-3.1 4.9-2.5 6.4 1.1 2.9 7.6 6 12.5 6.1 7.3 0 7.9 1.1 7.6 12.5-.2 9.5-.3 10-3.2 13-2.8 2.9-3 3.6-2.8 9.8.3 6.3.5 6.9 3.8 9.7 1.9 1.6 3.5 3.5 3.5 4.2 0 .6-1.2 2.5-2.6 4.2-2.3 2.8-2.5 3.4-1.4 6.6.7 2 3.4 5.8 6.1 8.5 3.2 3.2 4.9 5.8 4.9 7.3 0 2.1.9 2.8 6 4.6 3.5 1.3 6.7 3.3 7.9 4.9 4.7 6.2 8.5 9.2 11.9 9.2 1.8 0 4.3-.6 5.5-1.4 1.7-1.1 3.3-1.2 7.2-.4 7.6 1.4 12.2 1 15-1.4 1.4-1.2 2.5-2.7 2.5-3.3 0-.6 1.4-3 3.1-5.3 2.4-3.2 3.7-4.2 6-4.2 4.4 0 9.7-2.9 10.2-5.6.2-1.3-.2-3.6-1.1-5.1-.8-1.6-1.4-4.9-1.3-7.5.2-4.2-.1-4.9-2.4-6-2.6-1.2-3.4-4.5-1.2-5.3 1-.4 5-1.1 7.9-1.4.4-.1 1.9-1.3 3.3-2.9 2.3-2.5 2.5-3.4 2.4-11.2 0-4.7.2-9.2.6-10.1.8-2.1-1.2-3.6-5.5-4.2-4.6-.7-7.3-1.8-8.3-3.4-.5-.8-1.6-1.1-2.6-.8-2.8.9-5.3-1.7-5.4-5.8-.1-5 2-6.9 7.8-7.2 2.6-.1 5-.7 5.5-1.4 1.4-2.4-.8-8.5-4.2-11.4-10.3-8.7-13.6-14.1-11.8-19.4.9-2.5 1.6-2.9 5-3 5.5-.1 9-2.6 9-6.3 0-3.2-3.3-7.3-6.6-8.4-1.1-.3-3.1-2-4.3-3.7-2.1-2.9-2.2-3.2-.6-4.9 1.5-1.6 2-1.7 4.8-.5 1.8.7 3.8 1 4.5.8 1.7-.7 1.5-3-.4-4.1-1-.6-1.7-2.5-1.9-5.1-.2-2.5-1.1-5.2-2.3-6.4-1.9-2.1-2-2.9-.8-9.2 1.3-7.4 1.8-9.1 3.2-10.6 1.2-1.4 1.2-2.1-.1-5.9-.8-2.4-2-4.9-2.6-5.6-.5-.6-.9-2.9-.7-4.9.2-2.9-.3-4.2-2.1-5.6-3.2-2.6-3.3-9.3-.3-11.4 1.1-.9 2.1-2.9 2.4-5 .4-3.1-.2-4.2-4.3-8.7-3.9-4.3-4.6-5.5-3.9-7.4 1.3-3.4.1-6.3-3.6-8-4.3-2-4.4-4.8-.4-7.3 1.6-1 2.8-2 2.6-2.2-.2-.2-.6-2-.9-3.9-.5-4.7 4.1-11 8.2-11 1.5 0 3.3-.6 4-1.3.6-.6 2-1.2 2.9-1.3 5.3-.3 6.8-4.2 3.2-8.4-2.6-3-2.5-3.1 1-5.5 3.2-2.2 4-3.9 3-7-.9-2.7 1.6-8.6 4-9.2 1.1-.3 2-1.1 2-1.8s.6-1.8 1.4-2.4c1.3-1.1 1.3-1.9.1-5.8-1.3-4.3-1.1-7.3.5-7.3 1.3 0 4.3-8.3 4.5-12.5.2-3.3-.3-4.5-3-7.1-2.8-2.8-3.2-3.9-3.4-9.2-.1-3.4.3-6.3.9-6.7.6-.3 1.9-2.4 3-4.5 2.2-4.3 1.9-8.1-1.1-14.2-2.2-4.3-1.5-7.1 2.5-11.1 1.7-1.7 2.4-3.3 2.1-4.9-.6-2.8-7.1-8.7-9.4-8.3-.9.1-1.9-.7-2.2-1.9-.8-2.9 1.7-7.6 4.1-7.6 2.4 0 3-1 3.2-5.8.1-2.7-.6-4.8-2-6.7-1.7-2.2-2.2-4.1-2.2-8.9 0-5.4.3-6.2 2.3-7.1 2-.9 2.2-1.8 2.5-8.5.2-5.8 0-7.7-1.2-8.6-.9-.6-2.2-3.5-3-6.5-1.4-5.4-3.4-8.5-9-14l-2.9-2.8 3.1-4.6c2.7-4.1 2.9-4.9 2-8.3-.6-2-1.6-4.1-2.4-4.5-3.5-2 .3-6.7 5.1-6.1 2.2.2 3.7-.4 5.7-2.3 3.5-3.4 9.5-5.5 11.9-4.3 1.2.7 2.4.4 4.3-1.1 2.5-2 2.6-2.1 1-4.8-1.2-2.1-2.2-2.7-4-2.3-2.7.5-7.1-3.2-7.5-6.3-.3-2.4 1.1-9.5 1.9-9.5.3 0 1.9 1.1 3.6 2.4 3.4 2.5 8.5 3.1 9.2 1.1.3-.7-1.1-3.4-3-6-2.6-3.4-3.4-5.1-2.7-6.3 1-2 .6-5.1-.8-6.5-.6-.6-1.1-1.8-1.1-2.7 0-.8-1.1-2.7-2.5-4.2-3-3.3-3.2-6.9-.5-8.6 1.1-.7 2-1.8 2-2.5 0-.8.8-3.1 1.9-5.2 1.7-3.6 1.8-4.1.3-6.5-.9-1.4-2.5-3.1-3.5-3.8-1.7-1.3-1.6-1.5.3-3.9 1.1-1.4 2-3.1 2-3.7 0-.6 1.4-2.3 3-3.8 3.2-2.8 4.2-7.8 1.6-7.8-2.7 0-3.5-2.4-2.5-7s4.8-9 7.8-9c1.6 0 6.1 2.6 7.2 4.2 1 1.5 3.8-.3 4.1-2.5.2-1.2-.7-4.1-2-6.4-2.9-5.2-2.7-9.7.5-10.1 2.6-.4 3.3-2 2.2-5-1.2-3.1-5.4-4.5-11.6-3.8-4 .5-5.5.2-6.8-1-1.5-1.5-1.2-1.8 4.2-4 7.3-3 11.6-3.3 14.1-1.1 1 .9 2.6 1.7 3.5 1.7 1.8 0 4.7-4.8 4.7-7.6 0-1 .9-2.8 2.1-4 2.8-3 3-6.8.7-14.4-1.8-5.7-1.9-7-.8-11 .7-2.5 1.3-6.1 1.4-8.1.1-2.3 1.1-4.7 2.9-6.9 2-2.3 2.7-4 2.2-5.4-1.7-5.5-1.7-10.5-.1-12.7 1.1-1.6 1.6-4.5 1.6-8.9 0-6.2-.2-6.8-3.3-9.8-3.3-3.2-6.2-4.1-6.9-2.1-.4 1.2-3.8.1-3.8-1.2 0-2 4.5-6.9 6.3-6.9 1 0 2.6.9 3.5 2.1 3.6 4.3 7.3-1.6 6.8-10.8-.2-3.7-.9-5.2-3.5-7.5-1.7-1.5-4.1-2.8-5.4-2.8-4.5 0-5-1.6-1.2-3.9 2-1.1 3.4-2.5 3-3-1.7-2.8 6.5-3.7 10.6-1.2 3.5 2.1 4.9 1.9 9.5-1.5 2.6-1.9 3.1-3 3.2-6.8.2-4.5.2-4.5-4-5.7-2.4-.6-4.7-1.2-5.3-1.3-1.8-.3-3.5-1.7-3-2.6.3-.4-.3-1.4-1.2-2.1-1.5-1.3-4.8-7.8-4.1-8.4.2-.1 1.8-1 3.6-1.9 4.3-2.2 4.1-3.6-.6-3.6-4.7 0-7-2.3-6.6-6.4.3-3.3 1.8-4.6 5.4-4.6 6.2-.1 7.1-3.5 2.4-8.7-3.9-4.2-5.2-7.8-3.7-10.2 1.8-2.9 4.7-2.3 9.2 2 4.8 4.6 8.4 5.3 11.9 2.3 1.9-1.6 1.9-1.9.5-6.3-.8-2.5-1.6-6.2-1.8-8.1-.6-5.5-1.7-10-2.4-10-.4 0-1.7-.9-2.9-2-2.2-2.1-2-5 .3-5 .7 0 1.8-.6 2.5-1.4.6-.8 1.8-1.2 2.6-.9 2.3.9 1.6-2.5-.9-4.1-1.9-1.3-2.2-2.2-1.9-5.6.3-3.4.8-4.1 3.1-4.7 5-1.2 8-4.3 8.7-8.9.4-3 1.3-4.8 3-5.9 2.8-1.8 3.2-5.6.8-7.6-.9-.8-4.2-1.3-7.9-1.4-3.5 0-6.6-.3-7-.7-.9-.8.6-5.9 1.5-5.3.5.3 1.8-.5 3-1.7l2.1-2.3-2.5-.8c-2.7-.9-6.5-6.5-5.8-8.5.2-.8 2.5-1.2 6.4-1.2 5.4 0 6.3-.3 8.9-3.1 1.6-1.7 2.9-3.9 3-4.8 0-.9.2-2.4.4-3.3.2-.9-.1-3.6-.7-6-1.9-8.3-1.9-8.8.7-13.3 2.4-4.1 2.9-9.4 1.1-11.2-.2-.3 0-1.7.6-3.2.5-1.4 1.2-3.5 1.4-4.6.2-1.1.9-4.5 1.6-7.5 1.8-8.6 1.5-12-1.3-14.1-1.3-1-3.6-1.9-5-1.9-3.2 0-5.1-2.1-5.1-5.6 0-3.3 1.5-4.3 5.8-3.8 2.6.2 3.8-.3 5.4-2.3 1.1-1.4 2-3.6 2-4.9 0-1.3.8-3.1 1.8-4.1 1-1 2.3-3 3-4.6.6-1.5 1.6-2.7 2.1-2.7s1-1.7 1-3.8c-.1-2 .2-5.6.5-8 .6-4.7.3-5-5.2-5.5-5.5-.4-8.7-8.7-3.4-8.7 1 0 2.6-.8 3.4-1.8 2.2-2.4 1.4-13.1-1.2-18-2.5-4.6-2.5-7 0-9.7 1.3-1.4 2.1-3.9 2.4-7.5.2-3 1.1-7.1 1.9-9.1 1.5-3.4 1.5-3.8-.9-8.8-1.3-2.9-2.4-5.6-2.4-5.9 0-.4 1.8-1.8 4-3.2 3.6-2.2 4-2.8 4-6.6 0-2.6-.6-4.7-1.6-5.5-2.3-1.9-3.3-5.1-2.2-7.2.5-1 .5-3.7 0-6.8-.9-4.8-.8-5.3 2-8.4 2.8-3.3 2.9-3.7 2.7-12.7-.1-5.1-.3-11.6-.3-14.3-.1-3.5-.9-6.4-2.7-9.5-3.9-6.6-5.5-15.4-3.7-19.5.5-1.1 2.2-2.8 3.9-3.7 2.5-1.4 2.9-2.3 2.9-5.8 0-2.2-.4-4-.9-4s-1.5-1.7-2.1-3.8c-1.6-4.8-6.9-14.2-8.1-14.2-.5 0-.9-.6-.9-1.4 0-.7-1.5-2.5-3.2-4-2.9-2.4-3.9-2.6-7.5-2.1-2.4.3-4.3.2-4.3-.3s-1.5-1.7-3.4-2.7c-4.4-2.4-6-5.4-5.9-11 .1-3.6-.3-4.6-1.9-5.1-1.1-.3-3.8-2.5-6-4.7-3.4-3.6-4.6-4.1-7.9-4.1-2.2.1-4.2.4-4.5.6-1.4 1.4-1 4.8.7 6.4 2.1 1.9 2.4 3.5.8 5.1-1.7 1.7-13-1.2-15.2-4-4.8-5.8-5.7-6.6-7.1-6.1-.8.3-3.4-.3-5.8-1.4-6.3-2.8-12-3.3-14.7-1.3zm67.5 202.4c.4.4-.5.7-2 .7s-2.5-.4-2.2-.9c.7-1 3.1-.9 4.2.2zm.9 105.8c.9 1.4 1.2 7.8.4 9-.4.6-1.5.6-3.2 0-2.3-.9-2.7-1.6-2.7-5 0-3.8.5-4.4 4.2-5 .4 0 1 .4 1.3 1zM1683 970.4c0 .3-.4.8-1 1.1-.5.3-1 .1-1-.4 0-.6.5-1.1 1-1.1.6 0 1 .2 1 .4zm-25.6 93.3c.9 2.3-.7 3.5-3.5 2.8-3.6-.9-3.4-4.5.2-4.5 1.6 0 2.9.7 3.3 1.7zm-8.6 62.5c.7.7 1.2 1.8 1.2 2.5 0 1-.5 1-2.5.1-2.6-1.1-3-1.9-1.8-3.1.9-1 1.7-.9 3.1.5zm-20 282c1.8 1.8 1.5 2.5-1.3 3-2.6.5-2.9.1-1.9-2.6.7-1.9 1.6-2 3.2-.4zm-85.4 54.4c2.6 1 1.8 2.4-1.4 2.4-3 0-4.1-1.4-1.7-2.3.6-.3 1.3-.6 1.4-.6.1-.1.8.2 1.7.5zm62.5 90c-1.7 1.6-5.9.8-5.9-1.1 0-1.7 3-2.4 5.4-1.2 1.5.8 1.6 1.1.5 2.3zm15.3 141.1c.1 7.4-2 8.2-5.7 2.3-3.1-4.9-3.1-6.4-.3-8.4 2.1-1.5 2.4-1.4 4.1.2 1.1 1.2 1.8 3.4 1.9 5.9zm-31.4 35.5c.3 1.4-.4 1.8-3.2 1.8-3.6 0-5.2-1.2-4.1-3.1 1.1-1.7 6.9-.6 7.3 1.3zM1172.9 925.4c-.1.6-.3 2.1-.4 3.2-.4 3.7-1.5 4.4-6.4 4.4-6.1 0-8 1.8-6.4 6.1.6 1.6.8 3.1.3 3.4-1.1.7-4-.5-4-1.6 0-.7-3.8-.6-4.7.2-.4.2-2.1.6-3.6.8-.6 0-1.8 1.4-2.5 3.1-1.6 3.5-2.5 3.7-8.3 1-2.4-1.1-5.6-2-7.1-2-2.3 0-2.9.6-4 4.2-.7 2.4-2 4.9-3 5.6-1 .7-1.8 2-1.8 2.7 0 3.2-10.9 6-18.6 4.8-1.8-.3-4.8-2.1-6.8-3.9-2-1.9-4.6-3.4-5.9-3.5-7.1-.3-12.4-.8-14.2-1.2-2.5-.5-7 2.7-9.5 6.9-1.3 2.3-3.1 3.7-6 4.5-2.6.8-5.1 2.5-6.7 4.5l-2.5 3.3-4.9-3.1c-2.8-1.7-6.1-4.7-7.4-6.7-4.2-6.2-5.1-7.1-8.1-7.1-1.8 0-3.4-.7-4.2-2-1.1-1.9-1.4-1.9-3.6-.5-1.5 1-2.3 2.6-2.4 4.5 0 1.7-.4 3.9-.7 5-.3 1.1-.2 2 .3 2 1.2 0 6.2 7.9 6.2 9.9 0 3-5.4 7.3-8.6 6.9-2.4-.2-3.4-1.3-5.9-6.3l-3-6-6-.1c-5.6-.1-6.2.2-9.4 3.4-1.8 1.9-4.3 3.4-5.5 3.4-1.1 0-8.3-.1-15.9-.2-17.5-.2-18.7.3-20.2 9.3-.5 3.2-1 3.8-2.8 3.5-1.2-.2-2.3-1.2-2.5-2.3-.2-1.1-1-2.7-1.8-3.6-.8-.9-1.2-1.8-1-2 .3-.3.7-1.9 1-3.6.4-2.2 0-3.8-1.5-5.7-1.9-2.4-2.3-2.5-3.8-1.3-.9.8-4.6 3.1-8.2 5.1l-6.7 3.7.2 4.7c.1 6.2-2.6 8.9-9 8.7-4.8-.2-5.1.2-3 4.4 2.3 4.3.8 5.5-6.1 4.7-3.3-.4-6.7-.4-7.6 0-1.9.7-2.3 4.4-.7 6 .6.6.6 2.2 0 4.4-1.4 5-1.5 11.2-.1 13.8 1.2 2.3 1.1 8.8-.3 11-.6 1-1.1 1-2.2.1-.8-.6-1.4-1.6-1.4-2.2 0-.5-1.8-2.9-4-5.3-2.5-2.7-4-5.3-4-6.9 0-1.5-.6-2.5-1.4-2.5-2 0-3.4 2.2-3.1 5 .1 1.4-.1 3.4-.5 4.6-1.7 4.5-2.1 12-.7 13.2 1.1.9 1.2 2.5.4 7.7-.9 6.1-.8 6.8 1.3 9 1.3 1.4 3.9 2.6 6.7 3 2.6.4 5.2 1.3 6 2 .7.8 2.8 4.9 4.6 9.1 2.7 6.2 4 8.1 6.7 9.6 4 2.1 8.3 1.7 14.4-1.4 2.2-1.1 5.2-2 6.7-2 3-.1 11.7 4.6 12.6 6.8.3.8.9 1.2 1.3.9.5-.3 2.6-.2 4.7.3 2.1.4 4.5.7 5.3.5.9-.2 3.1-3.5 4.9-7.4 2.2-4.7 4.1-7.3 5.7-7.9 1.3-.5 2.4-1.4 2.4-2 0-.6.8-1 1.8-.9 2.5.3 7.4-1.9 8.9-4 .7-1 2.5-2.2 4-2.6 4.4-1 7.2-3.3 8.7-6.9l1.4-3.3 7.8 1.5c4.4.8 8.7 2.2 9.7 3 1.7 1.5 2.2.9 1.8-2.5-.1-.6.3-1.4.8-1.8.6-.3.8-1.9.4-3.6-.5-2.6-.3-2.8 1.3-2.3 1.1.4 3.1 1.6 4.6 2.6 2.3 1.6 3.3 1.7 7.2.7 2.7-.7 5.8-2.4 7.6-4.3 3-3 3.3-3.1 9.6-2.6 3.6.3 7 .2 7.6-.1 1.8-1.1 0-4-3-5.1-2.6-1-2.9-1.5-2.7-5.5 0-2.4.5-4.7 1.1-5.3 1.2-1.2 8.8-1.6 14.5-.7 5.8 1 8.1 3.3 7.7 7.8-.2 2.2.6 4.9 2.1 7.6 2.3 4.1 3 4.5 6.6 4.5 3.4 0 4.3-.3 6.8-2.7l2.5-2.6-2.3-4.7c-1.3-2.6-2.1-5.1-1.8-5.5.3-.4 3.4-.5 6.9-.2 6 .7 6.7.5 10-2s3.5-3 2.9-6.6l-.7-3.9 11 .3c9.6.3 11.2.6 13.2 2.5 1.3 1.2 3.1 2.2 4.1 2.2.9 0 3.4 2.2 5.5 4.9l3.7 5 2.6-1.9c1.5-1 2.7-2.9 2.9-4.4.3-3.6 10.1-16.6 12.5-16.6.5 0 2.4 1.6 4.1 3.5 3 3.4 3.4 3.5 11.6 4.1l8.5.5 2.8-4c1.6-2.3 3.2-4.1 3.6-4.1.4 0 2.2 1.4 4 3 3.4 3.3 4.2 3.2 7.8-1.1 1.3-1.4 3.7-3.2 5.5-3.9 1.8-.7 6.3-2.6 10-4.2 3.6-1.5 7.3-2.5 8.2-2.2 2.3.9 3 4.2 1.2 6-1.8 1.8-2.1 4.4-.6 4.4.6 0 2.3 1.2 3.8 2.7 2.6 2.6 6.9 3.7 10.4 2.7 1-.3 1.7-.8 1.6-1.2-.1-.4.2-1.8.6-3.2.7-2 .3-2.8-2.3-5l-3.1-2.7 2.2-1c1.3-.5 3-.9 4-.8 1.8.3 7.8 4.5 7.8 5.5 0 .4 1.7 2.5 3.8 4.8 2.7 2.9 4.7 4.2 6.5 4.2 1.5 0 2.7-.5 2.7-1.1 0-.6.7-.8 1.5-.5 2.6 1 4.1-3.7 2.6-8.2-.7-2.1-1.1-5.1-.9-6.7.3-2.9.4-3 6-3 6.4 0 7.2.5 7.3 4.3 0 4.5 4 4.1 11.3-1.4 6.1-4.5 6.3-4.6 8.2-2.9 1.6 1.4 2 3.1 2 8.1 0 3.6.5 6.6 1.1 7 .8.4.9 2.7.5 7-.6 5.9-.5 6.4 2.3 9.4 5.9 6.5 4.1 12.4-3.5 11.4-10.9-1.4-12.1-.9-15.2 6.4-3.3 7.7-3.4 11.7-.5 14.7 2.5 2.5 2.6 5.4.1 5.6-8.8.5-10 .8-14.5 4.1-4.9 3.5-6.8 7.7-4.4 10.1.6.6 1.1 1.7 1.1 2.5 0 1.3-4.6 8-6.3 9.3-.4.3-.5 2.3-.1 4.5.5 3.7.3 4.3-3.9 8.9-3.1 3.4-4.4 5.5-4.1 6.9 1.3 5.9 1.2 8.1-.3 9.8-.9 1-1.3 1.8-.9 1.8s-.3 1.3-1.7 3c-4 4.7-8.5 13.3-8.5 16 .1 3.6-3.9 12.4-6.7 15l-2.3 2.2-1.1-2.1c-.7-1.2-1.8-2.1-2.7-2.1-2.2 0-2.9 2.8-1.1 4.8.9.9 1.5 2.1 1.5 2.7 0 1.6-3.7 6.3-8.1 10.5-2.9 2.9-3.8 4.4-3.4 6 .7 2.9-1.1 9-2.8 9-1.7 0-5.8 5.6-5.2 7.3.2.6-.1 2.8-.8 4.7-.7 1.9-.9 4.4-.6 5.5 1.6 5-.1 8.8-4.8 11-3.6 1.6-3.9 2.1-4.6 6.8-1.3 8.3-1.2 16.9.1 17.4 1.8.7.4 5.1-2.3 6.8-2 1.3-2.3 2.2-1.8 4.3.4 1.5 1.3 3.1 2.1 3.5 1.7 1 1.8 3.8.2 6-1.2 1.6-1.7 1.5-6.8-1.3-3-1.6-7.2-3.7-9.2-4.6-2.1-.9-3.8-2.2-3.8-3 0-1.6-4.6-1.9-5.5-.4-.3.5-2.2 1-4.1 1-2.2 0-3.7.6-4 1.5-.4.8-1.5 1.5-2.5 1.5-1.4 0-1.9.7-1.9 2.5 0 1.4.4 2.5.9 2.5 1.2 0 3.1 5.6 3.1 9.1 0 2-.8 3.4-2.6 4.5-2.2 1.5-2.5 2.3-2.2 6.3.3 4.2.1 4.6-2 4.9-3.9.6-8.1-1.8-9.8-5.4-1.4-2.9-2.1-3.4-4.8-3.2-1.7.1-3.7.6-4.3 1.1-2 1.5-1.5 5.3 1 8.4 1.3 1.5 2.7 4.8 3.1 7.3.8 4.9 3 8 5.6 8 4 0 8.2 10.2 4.7 11.6-3.1 1.1-5.2 1.1-6.7-.1-.8-.7-3-1.5-4.9-1.9-1.9-.3-4.3-1.4-5.3-2.3-1-.9-1.8-1.3-1.8-.8 0 .4-.7.2-1.5-.5-1-.9-1.9-.9-2.7-.2-3.2 2.5-10.4-4.7-9.5-9.5.3-1.9-.4-3.4-2.9-6.1-3.9-4.2-5.3-8.8-3.1-10.5 2.6-2 2.8-5 .7-8.5-1.1-1.8-2.4-3.1-2.9-2.7-.5.3-3.9.7-7.5.9-3.6.3-7 .8-7.7 1.1-.6.4-1.9 2.6-2.9 5s-2.2 4.5-2.8 4.8c-.5.4-2.6-.6-4.7-2-2.7-1.8-5.5-2.7-9.9-3-3.4-.3-6.8-.9-7.6-1.3-.8-.4-3.5-1.1-6.1-1.5-4.2-.6-4.6-.5-5.7 2-.7 1.4-1.2 3.4-1.2 4.4 0 3.4-3 3.3-6.8-.4-2-1.9-5.2-4-6.9-4.6-1.8-.6-3.3-1.5-3.3-2 0-1.4-5.8-3.7-10.8-4.2-3.7-.5-4.3-.2-6.6 2.7-1.7 2.2-2.2 3.7-1.5 4.7.5.8.9 3.1.9 5.1 0 3.3-.3 3.8-2.2 3.8-1.5 0-3.1-1.2-4.6-3.3-2.1-3.1-2.1-3.6-.8-6.7 2.1-5.1 1.2-6.8-4.1-7.2-2.5-.2-5.9.2-7.5.9-1.7.7-3.3 1.1-3.8.8-1.3-.8-3.6 2.9-3.5 5.8.1 2.1-.5 2.9-2.4 3.4-1.3.3-3.2.1-4.2-.6-1-.6-2.7-1.1-3.6-1.1-1 0-3-.6-4.4-1.4-2.2-1.1-3.1-1.1-5.9 0-1.8.8-4.6 1.4-6.2 1.4-5.7 0-12.2 5.1-13.2 10.4-.6 3.4-.7 3.5-3.5 4.1-1.3.2-3.1.7-4.2 1-1.1.4-3 0-4.4-.9-1.3-.9-3.1-1.3-3.9-1-.9.3-1.6.1-1.6-.5 0-.7-.8-.7-2.6-.1-3 1.2-10 .3-11.8-1.5-1.8-1.8-8.5-1.6-11.5.3-5 3.1-7.9 6.3-7.4 8.3.6 2.2-3.3 4.1-5.8 2.8-.9-.4-1.8-.6-2.1-.4-.3.3-2.8.1-5.5-.4-5.3-1-10.3.2-10.3 2.5 0 1.8-6.1 6.9-8.3 6.9-1.5 0-2.3.7-2.5 2.1-.7 4.8-7.4 7.4-10.5 4-.9-1-3.3-2-5.2-2.1-4.1-.3-6.3 1.6-4 3.5 3.6 3 .8 8.2-5.2 9.5-2.4.5-3.3 1.2-3.3 2.7 0 1.5-.6 1.9-2.4 1.6-1.6-.2-3.7.9-6.5 3.5-3.1 2.8-5 3.7-7.6 3.7-1.9 0-3.5.4-3.5 1 0 .5-.8 1-1.8 1-2.3 0-5.2 2.1-5.6 4-1 4.9-3.2 6.3-5.5 3.6-.7-.8-2.1-1.3-3.2-1.1-1.2.3-2.7-.6-4.1-2.6-3-4-5.2-3.8-6.4.8-.8 3.4-1.3 3.8-4.1 4-2.1.1-4.5-.8-6.5-2.2-5.5-4-8.6-5.5-10.2-4.9-1.7.7-4.6 7.4-4.6 10.9 0 2.8-3.2 6.5-5.5 6.5-.9 0-2 1.1-2.6 2.4-1.2 2.5-4 4.4-7.6 5-1.2.3-3.2 1.1-4.5 2-1.3.8-3.6 1.7-5.2 2-1.6.3-3.1.8-3.4 1.1-1.2 1.2-4.2 10-3.4 10.3.4.1 2.3 1 4.2 2 2.8 1.3 3.5 2.3 3.6 4.7 0 1.6.3 3.7.6 4.5 1.8 4.4 2.5 9.9 1.5 10.9-1.3 1.3-3.7 1.5-3.7.3-.1-2.4-6-7-10.5-8.1-2.7-.7-6-1.8-7.3-2.4-2.9-1.4-4.1.2-4.3 5.3-.2 7.1-1 9.5-4.2 12.2-4.7 3.9-14.2 5.3-16.7 2.3-.7-.8-1.8-1.5-2.6-1.5-1.7 0-4.4-2.8-4.4-4.5 0-.7 1.2-2.8 2.6-4.5 1.5-1.7 2.4-3.4 2-3.7-.3-.4-.6-.3-.6.1s-.8.2-1.8-.3c-2.2-1.2-14.2-2.3-14.3-1.3-.4 4-1.2 6.9-2.5 8.6-.8 1.1-1.4 3.7-1.4 5.7v3.7l-10.6-.5c-9-.4-10.8-.2-12.5 1.2-1 1-1.6 2.1-1.3 2.6.2.5-.4 1.7-1.6 2.9-1.1 1.1-2 2.8-2 3.9 0 3.1-2.5 4.5-6.1 3.2-2.7-.9-3.5-.7-6.7 1.8s-4.6 2.9-10.5 3c-3.8.1-7.8.6-8.9 1.2-1.1.6-3.2.9-4.6.6-4-.8-11.7 6.2-13.7 12.4-1.9 5.6-2.8 6.3-11.1 7.9l-6.1 1.2-1.8 5.9c-1.5 4.9-2.2 5.9-4.1 5.9-1.2 0-2.4.6-2.7 1.4-.4 1-1.7 1.1-5.6.5-4.5-.7-5.4-.5-7.5 1.4-2 1.9-3.4 5.4-3.8 9.5-.1.7-1.8 3.2-3.8 5.5-3.7 4.1-3.7 4.1-6.3 2.4-3-1.9-8.5-2.2-12-.6-2.3 1-2.4 1.4-1.5 5.5.7 3.3.6 4.9-.2 5.9-1.7 2-8.2 1.9-12.8-.2-2-.9-4.6-1.8-5.7-1.9-2.1-.2-10.3 2.2-12 3.6-3.1 2.5-14.9 8-18.4 8.6-5.9.9-7 5.5-3.1 11.9 2.5 4.1 2.2 9.1-.5 8.6-1.1-.2-5.7-.3-10.2-.2-5.2 0-9.2-.5-10.9-1.4-2.4-1.2-3-1.2-4.9.3-1.9 1.4-2.1 2.1-1.2 4.2.6 1.4 1.4 2.9 1.8 3.4.4.5.3 1.9-.3 3.2-1.4 3-4.5 3.1-11.6.4l-5.3-2-1.9 2.2c-1.1 1.3-1.9 3.5-2 5 0 1.9-.9 3.2-3.6 4.8-1.9 1.2-4.3 3.4-5.2 4.9-.9 1.4-2.2 3-2.9 3.4-1.9 1.2-1.6 4.5.6 5.6 1 .6 2 .8 2.3.6.3-.3 1.3.4 2.3 1.5 1.7 1.9 1.7 2.2.3 3.7-1.5 1.4-2.2 1.3-8.8-2.1-9.5-4.8-11.1-4.7-17 1.2-5.4 5.5-8.1 6-19.4 4.2-5.5-.9-6.3-.8-9.3 1.3-2.9 2-3.3 2.7-3.3 6.9 0 3.7-.5 5-2.2 6.2-2.5 1.8-10.3 2.2-11.3.6-1-1.5-7.1-1.2-8.5.5-.7.8-3 1.8-5.2 2.1-2.2.4-5.5 1.8-7.5 3.1-2 1.4-6 2.8-8.9 3.3-7.8 1.3-9.6 2.5-9.3 6.3.4 4.5-.8 6.3-2.9 4.4-3-2.4-8.4-3.4-13.2-2.2-3.6.8-4.5 1.4-4.6 3.2-.1 1.3.2 2.3.7 2.3 1.4 0 4 4.6 3.4 6.2-.5 1.1-2.3 1.3-9.6 1l-9-.4-5.4 6-5.5 6-7.5.7-7.4.7-1.7 4.7c-.9 2.5-1.8 5.1-1.9 5.8-.2.6-1.3.9-2.4.6-1.6-.4-2.1-.1-2.1 1.4 0 1.7.8 2 4.7 2.2 8.1.3 11 6 5.2 10.3-2.4 1.9-2.8 1.9-6.5.3-2.1-.8-5-3-6.4-4.7-2.4-2.8-2.8-3-5-1.8-3.7 2-6 5.3-4.8 6.8.6.6 2 1.2 3.2 1.2 3 0 6.6 2.7 6.6 5.1 0 1.1-.7 3.3-1.5 4.9-1.3 2.6-2.1 3-5.5 3-2.9 0-4.2-.5-5-2-.6-1.1-.8-2-.4-2 1.5 0-4.2-5.2-6.6-6.2-3.6-1.4-12.5-1.2-15.6.4-1.8.9-3.1 2.9-4.5 6.8-1.6 4.8-1.7 6.4-.7 12 .8 4.7.8 7.6 0 11-2.2 8.6-2.1 9.7.4 13.1 1.3 1.8 2.4 4.2 2.4 5.3 0 1 .7 2.6 1.5 3.5 3.3 3.5 6.5 7.9 6.5 9 0 .6.6 1.1 1.3 1.1 1.4 0 8.7 7.1 8.7 8.4 0 .5 1.5 2.8 3.4 5.1 3.1 3.7 3.9 4.2 7.5 4.1 2.7-.1 4.8-.9 6.6-2.6 3.6-3.4 5.7-3.4 11.5 0 2.7 1.6 5 2.7 5 2.5 0-.2 1-.1 2.2.4 1.2.4 3.6.2 5.9-.5 2-.7 4.8-1.1 6.1-.8 5.3 1.2 13.8 1.2 13.8 0 0-.7 1.3-2.5 2.9-4 3.1-3 4.1-3 15.2-1.1 3.1.6 4.1.2 7.1-2.4 1.9-1.6 4-4.8 4.8-7.1 1.3-4 3.5-6.8 4.6-5.7.3.3 3.5-.8 7-2.3 3.5-1.6 8.6-3.6 11.3-4.4 9.1-2.7 15.1-7.3 14.3-11.1-.7-3.8 1.6-3.9 10.4-.7 7.1 2.6 8.2 2.7 11 1.6 3.4-1.4 5.8-6.1 4.4-8.4-1.2-2-.3-3.3 5-7.4 2.7-2.1 5.2-4.6 5.5-5.7.5-1.4 1.6-1.9 4.5-1.9 2.1 0 4.2.4 4.5 1 .6 1 6.4.3 7.9-1 .4-.5-.4-2.8-1.8-5.3-2.1-3.5-2.4-4.6-1.4-5.5 1.4-1 9-2.3 17.1-2.7 3.4-.2 5.7-1 7.5-2.6 2.6-2.3 4.8-3.7 10.2-6.6 2.1-1.1 2.7-1.1 3.6.2.6.8 1.6 1.5 2.3 1.5 1 0 1.2-.5 1.5-3.7.3-2.9 4.7-7.2 8.2-7.9 4.3-.8 6.1.5 4.5 3.5-1 1.8-.6 2.4 3.1 5.2 2.4 1.7 4.8 3.3 5.4 3.6 1.9.7 8.1-5.9 9.4-10 .6-2.1 2.3-4.5 3.6-5.4 2.7-1.7 3.2-5.4.9-7.3-2.4-2-1.8-3.9 2.7-8.6 4.1-4.1 4.6-4.4 9.9-4.4 3.7 0 6.1.5 6.8 1.4 1.7 2 9.8 4.6 11.9 3.9 3.4-1.3 5.5-4.1 5-6.6-.9-4.4 2-6.7 8.5-6.8 3.1-.1 5.7-.5 5.7-.9 0-.5 2.4-2.5 5.3-4.6 6.6-4.9 7-5.3 8.2-8.8.6-1.6 1.9-3.4 3-4 1.1-.6 2.4-1.7 2.8-2.4.4-.6 1.5-1.2 2.3-1.2.8 0 2.2-.9 3.1-2 1-1.1 2.2-2 2.7-2s2.8-1.6 5.2-3.5c2.3-1.9 4.5-3.5 4.9-3.5.4 0 1.8.9 3.2 2 2.4 1.8 8.2 2.7 9.5 1.4.8-.7-1.3-7.4-2.4-7.4-.4 0-.7-1.2-.6-2.6.2-1.8-.6-3.2-2.5-4.6-2.8-2-3.6-5.3-1.4-6.1.6-.2 3 .5 5.1 1.6 4.2 2.2 13.9 3.1 16.9 1.5 2.1-1.1 2.2-4.6.2-8.4-1.7-3.3-.8-4.7 2.9-4.5 1.4.1 3.6.3 4.9.3 1.2.1 2.4.5 2.7.8 1.1 1.3 6.7 4.9 7.1 4.5.3-.2 1.8-.6 3.4-.9 3.3-.6 6.4-4.1 6.5-7.2 0-1.2.9-3.3 2.1-4.8 1.7-2.1 2.7-2.6 5.6-2.2 3.2.3 3.6 0 4.9-3 .8-1.9 2.2-3.5 3.2-3.5 3.1-.2 5.7.3 6.7 1.2 1.2 1.2 8.5 1.2 8.5-.1 0-.6.9-1 1.9-1 1.1 0 3.6-2 5.7-4.6 2.1-2.5 5.7-5.9 8.1-7.5 2.4-1.7 5.9-4.6 7.9-6.7 2.1-2.2 3.8-3.2 4.2-2.6.9 1.3 6.8 3.4 7.6 2.7.2-.3 1.7.3 3.3 1.4 2 1.3 3.8 1.7 6.4 1.3 3.2-.5 3.6-.8 3.4-3.5-.2-4.3-1.2-5.5-4.5-5.5-3.4 0-9-3-9-4.8 0-1.8 9.9-1.6 10.6.2 1 2.7 6.2 3.9 14.9 3.7 3.7-.1 4.2-.4 5.3-3.5 1-2.8.8-6.6-.3-6.6-.2 0-2 1-4 2.1-3 1.8-4 2-6.1 1-3.3-1.5-2.6-3.3 1.7-4.4 4.5-1.1 4.9-1.7 5.2-6.3l.2-3.9h4.5c4.7 0 11.5-3.5 12.5-6.5.8-2.6 6.7-5.2 10.5-4.5 1.8.3 3.6.7 3.9.9.3.2 2.4.7 4.5 1 3.4.6 4.3.3 6.8-2.1 1.5-1.5 2.8-3.7 2.8-4.9 0-2.3-2.4-3.9-4.2-2.7-.6.3-2.2.7-3.5.9l-2.3.2 2-2.8c1.1-1.5 2-3.3 2-3.8 0-1.9 3.8-2.3 6.7-.9 4.5 2.3 7.6 2.3 11.4-.1 2-1.2 4.6-2.2 5.8-2.2 5.7 0 13.1-5.6 13.3-10.1.3-5.6 7.2-9.8 21.1-12.8 5.4-1.2 12.1-3.4 15.2-5.1 3-1.6 6.4-3 7.6-3 1.1 0 2.2-.6 2.5-1.4.9-2.4 9.8-2.9 15.7-.9 2.8 1 5.5 2.2 5.8 2.6.9 1.2 4.1-.3 7.4-3.4 1.7-1.5 3.5-2.9 4-3.1 2.1-.6 1-6.9-1.8-10.4-1.6-1.9-2.7-3.9-2.5-4.5.3-.8 6.2-1.4 21.2-2 3.6-.1 6.5-3.4 6.4-7.2-.1-3.4 1.5-5.2 4.7-5.2 1.8-.1 3.8-1.7 7.2-6 2.9-3.5 5.8-6 7.3-6.3 3-.6 17.3-.4 21.3.2 2.2.4 3.6-.4 6.7-3.5 2.1-2.2 5.2-4.2 6.9-4.5 1.7-.4 3.6-1.3 4.2-2 .6-.8 1.8-1.4 2.5-1.4.8 0 1.4-.5 1.4-1.1 0-.5.3-.8.8-.6.4.3 1.8.1 3.1-.4 2.1-.8 2.3-1.4 1.7-4.8-.5-3.5-.3-4.1 1.6-4.7 3.3-1.1 3.3-1.1 9-1.3 3.8-.1 4.9-.4 4.1-1.2-1.7-1.7-.4-3.9 2.2-3.9 1.2 0 3.5.6 5.1 1.4 9.5 4.6 10.8 5 11.2 3.8.2-.7 1-1.2 1.9-1.2.8 0 3.8-2.3 6.6-5 2.8-2.8 5.5-5 5.9-5 .5 0 2.1-1.4 3.6-3 1.7-1.9 3.8-3.1 5.7-3.2 1.7-.1 3.6-.6 4.2-1.1.7-.5 3-1.1 5-1.4 6-.8 8.6-2.5 9.5-6.1.6-2.2 1.8-3.6 3.6-4.3 1.5-.6 6.5-3 11.2-5.3 7.1-3.5 9.4-4.2 13.8-4 4 .1 5.9.7 7.3 2.3 2.4 2.6 2.1 2.6 6.9.1 2.2-1.1 5.1-3.7 6.4-5.8 1.3-2 3.5-4.8 5-6.1 3.7-3.5 3.7-10-.1-13.6-1.5-1.4-3.1-2.5-3.5-2.5-.5 0-.8-1.3-.8-2.8 0-3.6 2.8-6.3 5.8-5.5 2.5.6 6.2 6 6.2 9.1 0 1.1.4 2.3.9 2.7.5.3 3.3 5.1 6.1 10.8l5.1 10.2-1.6 3.8c-.8 2-2.4 4.3-3.5 4.9-1.1.7-2 1.6-2 2 0 .3-2.3 4.6-5.2 9.3-3.2 5.4-6.2 9.2-7.7 9.9-4.4 1.9-13.6 11.6-13.8 14.5-.1 1.4-.4 4.4-.6 6.6-.4 3-.1 4.2 1.3 5.2 1.4 1 1.6 2 1.1 4.5-.4 1.8-.8 3.6-.9 4.1-.9 5.8-1.8 8-3.9 9.7-1.4 1.1-3.1 2-3.9 2-.7 0-1.4.5-1.6 1.2-.2.6-1.4 1.3-2.7 1.5-1.7.2-2.5-.4-3.4-2.9-.6-1.8-1.1-3.6-1-3.9.4-1.2-7.8-1.9-9.7-.9-1.4.8-2 2.1-2 4.5s-.6 3.7-2 4.5c-1.1.6-2 .8-2 .5 0-.3-1.3.1-3 1-3.8 2-4.8 6.6-2.5 12.3 1.4 3.4 2 4 3.1 3.1 1-.8 1.9-.7 3.5.5 2.9 2 1.1 2.8-4.9 2.2-3.4-.3-4.9.1-7.1 2-1.6 1.3-3.1 3.2-3.4 4.3-.6 2.4 3.6 6.6 7.6 7.5 1.5.3 2.7 1.3 2.7 2.1s.9 2.4 2 3.5 2 2.7 2 3.5c0 .8.5 1.5 1 1.5.6 0 1 1.1 1 2.4 0 1.3.7 3 1.6 3.7.9.8 2.5 3.2 3.4 5.4.9 2.2 2.5 4.6 3.4 5.4.9.7 1.6 2 1.6 2.8 0 .8.9 2.6 2 4s2 3.1 2 3.8c0 .6 1.3 2.4 3 3.8 2.6 2.3 2.8 3 2 5.3-.7 1.8-.7 2.9.3 3.8 2.4 2.4 5.6 3.6 9.6 3.6 3.3 0 4.3-.5 6.1-3 1.8-2.5 1.9-3.4 1-4.5-1-1.2-.9-1.6.1-1.9 5.8-1.7 10.9-3.9 10.9-4.8 0-.6 1.6-.7 4.1-.3 3.9.7 4.2.5 8.5-4.1 3.9-4.4 7.1-9.6 8.8-14.7.3-.9 3.6-3.2 7.3-5l6.8-3.2v-6c0-6.7 2.4-11.5 5.6-11.5 1.1 0 1.9-.4 1.9-.8 0-.5 1.8-1.6 4-2.5 3.6-1.4 4-1.9 4-5 0-4 1.3-5.4 6-6.2 2.2-.4 5.2-2.2 8-4.8 10.6-10 18-17.8 18.1-19.2.1-.8.2-1.8.3-2.3.5-1.9 1.9-12.8 1.8-13.3-.1-.4.8-1.5 1.8-2.4 1.1-1 2-2.4 2-3 0-2 4.9-3.4 14-4 4.7-.3 9-.6 9.6-.7.7-.1 1.5-1.9 1.8-4 .5-3.2 1.4-4.3 5.2-6.6 3.5-2.1 5.1-4 7.4-8.9 1.6-3.4 3.3-6.4 3.9-6.7.5-.3 1.2-2.9 1.6-5.8.4-2.9 1.3-6.1 1.9-7.1.9-1.5.7-2.2-1.2-3.7-1.2-1-2.7-2-3.2-2.2-.6-.2-1.7-2.8-2.5-5.8-2.6-9.6-1.6-12.5 2.3-7.5 1.1 1.4 3.6 3.2 5.6 4l3.5 1.5 5.3-5 5.2-5 .1-6.9c.1-3.9.4-7.3.8-7.7 1.5-1.5 8.3-1 10.7.8 1.6 1.1 3.3 1.5 4.8 1.1 2.3-.5 2.3-.9 2-9.4-.3-8.2-.1-8.9 2.2-10.9 1.9-1.6 2.4-3.2 2.6-7.3.1-2.9.2-5.8.3-6.5.1-1.6 3.6-1.6 4.9.1 1 1.2 4.4 1.9 10.7 2.1 2.6.1 3-.3 3.5-3.4.8-5-.2-8.5-2.5-8.6-1.1-.1-2.5-.2-3.1-.3-.6-.1-1.8-1.7-2.7-3.6-1.5-3.2-1.9-3.4-3.7-2.3-2.1 1.3-2.2 1.5-2.4 5-.2 3-1.7 3.2-5.7.5-3.6-2.4-4.8-6.2-3.1-9.3.7-1.2.4-2.7-.9-4.9-1.9-3.1-1.9-3.2 0-4.9 1.9-1.8 4.3-2.5 10.4-3.1 3.5-.3 3.7-.2 3.7 2.6 0 1.6-.7 4.7-1.6 6.9-1.8 4.5-1.2 6.1 1.4 4.2 3.3-2.4 4.1-2.3 7.5.2 3.9 3 7.3 3.3 10.6 1 1.9-1.4 2.2-2.2 1.6-4.8-1.5-6.8-1.4-7.5 1.7-9.8 1.7-1.1 3.9-4 4.9-6.2 1-2.3 3.4-5.1 5.3-6.4 1.9-1.3 3.9-3.7 4.5-5.3.5-1.6 1.5-2.9 2-2.9 1.4 0 7-11.2 6.7-13.3-.3-2.4-6-7.7-8.6-8.2-3.7-.7-6.5 2-6.2 5.9.2 1.9-.2 4.4-.8 5.6-1.1 2.1-1.2 2.1-3.1.4-1-.9-2.5-2.9-3.2-4.4-1.2-2.4-1.2-2.9.9-5.3 1.4-1.6 2.1-3.4 1.7-4.3-.4-1 .1-2 1-2.6 2.2-1.2 2.3-6.8.2-6.8-.8 0-1.5-.6-1.5-1.4 0-.8-.5-1.6-1.1-1.8-1.7-.6-.4-3.7 3-7.7 1.7-1.9 2.9-3.9 2.8-4.5-.1-.5 1.2-1.6 2.8-2.4 1.7-.8 3.2-1.8 3.5-2.1.9-1 3.9-.6 5.2.7 1.5 1.5 4.1 1.5 5.6 0 2-2 1.4-3.6-1.8-4.3-4.8-1-10.8-10.5-9.4-14.8.5-1.7 1.2-1.9 5-1.3l4.4.6 3.1-5c2.8-4.5 4.1-5.4 7.6-4.9.3 0 1-.7 1.5-1.6.7-1.1.3-2.6-1-4.9l-2-3.3 2.2-3.9c1.9-3.4 2.6-3.9 6.4-4.2 2.4-.2 4.9.2 5.8.8 1.2 1.1 1.1 1.7-.7 4.7l-2.1 3.4 4.4 5.2c3.1 3.7 4.5 6.2 4.6 8.7.2 1.9 1.1 4.3 2 5.3 1.8 1.7 1.9 1.7 4.4-.3 2.1-1.6 2.5-2.7 2.3-5.5-.2-1.9.1-3.5.6-3.5 1.2 0 1.1-3.1-.3-8.5-1-3.8-1-4.8.1-5.4.9-.6 1.1-1.8.8-3.3-.9-3.6.3-4.3 8-4.3 3.9 0 7.5-.3 7.8-.7 1.3-1.3.8-5.8-.8-7.6-1.7-1.9-1.5-6.5.5-8.9 1.9-2.3 1.8-22.1-.1-23.2-.9-.6-1.2-1.9-.9-3.6.4-1.7-.4-4.5-2.2-8l-2.8-5.4 3.4-4.8c1.8-2.6 3.9-5 4.6-5.4.7-.4 3.5-.1 6.3.6 2.7.7 5.3 1.1 5.7.8 1.9-1.1.7-9.4-1.8-13.3-3-4.6-2.4-6.4 2.6-7.4 3.8-.7 7.3-6 6.5-9.6-.3-1.4-2-4.4-3.6-6.8-2.5-3.4-2.9-4.9-2.3-7 .4-1.5.6-3.3.5-4-.1-.8.3-2 1-2.8.9-1.1.6-2.2-1.7-5.5-1.6-2.3-3.6-5.3-4.4-6.8-.9-1.6-3.5-4.6-5.8-6.8s-4.2-4.6-4.2-5.4c-.1-2-2.7-4.8-10-10.7-5.7-4.7-6.9-5.2-11.2-5.2-3.7 0-5.4-.5-7.2-2.3-1.2-1.2-3.8-3.1-5.8-4.1-3.5-1.9-3.6-1.9-7.7.2-8.4 4.4-10.6 3.6-16-5.6-2.7-4.6-7.7-7.5-11.5-6.8-4 .7-4.6 1.5-4.1 4.7.3 1.6.1 3.8-.5 4.9-2.2 4-13-.3-11.3-4.6.3-.8.2-3-.1-4.9-.6-3.3-.9-3.5-4.5-3.5-2.1 0-4.3.6-4.9 1.2-.7.9-3.8 1.3-9.7 1.2-7.7-.2-8.9 0-11.4 2.2-1.6 1.3-3.1 2.1-3.4 1.8-.2-.3-1.6-.6-2.9-.8-1.3-.1-2.9-.5-3.4-.9-.6-.3-2.8 1.2-4.9 3.3-2.3 2.4-4.8 4-6.2 4-1.3 0-2.3.4-2.3 1 0 2.1-4.1.8-9.7-3-4.6-3.2-6.8-4.1-10.5-4.2-2.5 0-5.2.3-5.9.8-.8.5-2.4.7-3.6.5-2.3-.2-3 1.4-1.5 3.4.4.6 4.3 2.8 8.7 4.9 9.9 4.8 10.8 5.5 9.5 7.1-1.6 1.9-21-1.9-23.2-4.6-2.4-2.9-4.7-2.9-7.6-.2-5.7 5.3-9.7.4-4.2-5.2 1.9-2 3-4 2.7-4.9-.3-.8.1-2 .9-2.7.8-.7 1.4-2.2 1.2-3.3-.3-2-1-2.1-11-2.2-7.2-.1-10.8.3-10.9 1zm-40.5 41.4c.5.3.1.9-.8 1.4-1.1.6-2.2.6-3.1-.2-2.9-2.4.1-3.3 3.9-1.2zm176.2 16c1.6.8 2 1.8 1.7 3.6-.7 3.6-2.3 4.5-6.3 3.7-4.1-.8-4.9-3-2.3-6.5 1.9-2.6 3.4-2.8 6.9-.8zm-143.2 23c.5.3-.1.9-1.4 1.4-2.5.9-4.7-.3-3.6-2.1.6-.9 2.6-.6 5 .7zm-39.4 4.6c0 1.8-1.6 2.9-3 2.1-1.3-.8-.1-3.5 1.6-3.5.8 0 1.4.6 1.4 1.4zm221 10.6c1.2.8 1.1 1-.7 1-1.3 0-2.3-.5-2.3-1 0-1.3 1.1-1.3 3 0zm-348.2 8.6c3 .8 2.8 3.2-.3 4-3.2.8-6-1.3-4.4-3.2 1.3-1.6 1.5-1.6 4.7-.8zm366.3 43.2c.7 1.7.5 2.4-.9 2.9-.9.4-2 1.1-2.3 1.6-.9 1.3-3.8.1-4.5-1.8-.7-1.8 3.3-5.7 5.4-5.3.8.2 1.9 1.3 2.3 2.6zm-76.5 108.2c.9 0 1.2.8 1 2.2-.3 1.3-.5 3.4-.5 4.8-.1 3.6-4.5 8-8.1 8-2.2 0-3.3-.7-4.4-2.9-2.1-3.9-1.6-6.9 1.6-10.4 2.4-2.4 3.3-2.8 5.9-2.3 1.8.3 3.8.6 4.5.6zm-81 54.4c1.9 1.9 1.8 4.5-.2 5.3-2.3.8-3.6-1-2.8-4.1.7-3 1-3.1 3-1.2zm41.3 39c2.4 2.4 2.4 2.6.5 3.2-1 .3-2.9 1-4.1 1.6-2.6 1.3-3.9.6-4.7-2.8-1.4-5.4 3.6-6.6 8.3-2zm-95.8 123.3c.7.8.7 1.8 0 3.1-.6 1.1-.7 2.2-.4 2.6.3.3.2.6-.4.6-1.5 0-4.3-3.4-4.8-5.8-.3-1.8.1-2.1 2.1-2 1.4.2 3 .8 3.5 1.5zM826 1418.5c1.6 2 .6 4.5-1.9 4.5-2.2 0-4.1-2.7-3.4-4.8.6-1.7 3.8-1.5 5.3.3zm245.5.5c.3.5.1 1-.4 1-.6 0-1.1-.5-1.1-1 0-.6.2-1 .4-1 .3 0 .8.4 1.1 1zm43.3 22.3c1 .8.9 1.4-.4 2.8-2.1 2.4-3.4 1.6-3.4-2.2 0-3 .5-3.1 3.8-.6zm-43.8 14.9c1.6 1.7 1.9 3 1.4 5.7-.4 2-1.4 4.4-2.2 5.4-1.6 1.7-1.7 1.7-2.9.1-.7-1-1.3-1.4-1.3-.9 0 1.5-1.1-.2-1.9-3.2-1-3.5 1-9.3 3.3-9.3.8 0 2.4 1 3.6 2.2zm-448.2 1c-.4 2.7-3.3 3.6-4.2 1.3-.8-2.2.1-3.5 2.5-3.5 1.5 0 2 .6 1.7 2.2zm-65.7 40.1c-1.3 1.3-2.6.3-1.6-1.2.3-.6 1.1-.8 1.7-.5.6.4.6 1-.1 1.7zm-218.4 106.2c0 .8-.6 1.6-1.2 1.9-1.8.7-3.6-.9-3-2.6.7-1.9 4.2-1.3 4.2.7z"/><path d="M1704.6 957.8c-.2.4-.1 1.4.4 2.2.7 1.1 1.1 1.1 2.4.1.9-.7 1.3-1.7 1-2.2-.7-1.1-3.1-1.2-3.8-.1zM1394.6 961.6c-1.9 1.9-2 2.6-.4 4.2s5.3 1.5 6.6-.1c1.3-1.5.5-3-2.5-4.5-1.7-1-2.5-.9-3.7.4zM1401 993.5c-1 1.3-.9 1.5.9 1.5 1.1 0 2.1-.4 2.1-.9 0-1.8-1.8-2.1-3-.6zM1115.2 1029.8c-.9.6-.6 1.4 1.3 3.2 2 1.9 2.8 2.1 3.7 1.2 2.5-2.5-2-6.3-5-4.4zM1327.7 1140.7c-1 .9-.9 6.3.1 6.3.9 0 3.2-4.4 3.2-6 0-1.1-2.3-1.3-3.3-.3zM1342.6 1146.7c-2.5 1.3-4.5 5.7-3.2 7 .9.9-2.5 4.3-4.3 4.3-.9 0-2.7.7-3.9 1.6-1.2.8-2.2 1.2-2.2.8 0-1.3-6.1 4.9-7.5 7.7-2.3 4.3-.8 16.8 2.1 17 .8.1 2 .2 2.7.3 4.6.7 16.6-6.1 15.1-8.6-.3-.5-.1-1.5.5-2.2.6-.7 1.1-2.4 1-3.7-.1-5.7 1-8.1 5.7-12.4 2.7-2.5 4.5-4.5 4.2-4.5-.4 0-.3-1.2.3-2.6 1.6-4.3.4-6-4-6-2.2 0-5.1.6-6.5 1.3zM1239.6 1332.6c-1.4 1-1.7 2.1-1.2 4.8.6 3.3 2.1 4.6 5.2 4.6 2 0 4.7-4.6 3.9-6.9-.8-2.7-5.6-4.2-7.9-2.5zM1746.1 1389.9c-.9.6-1.1 1.8-.7 3.5.5 2.2 1.2 2.6 4.1 2.6 2.5 0 3.5-.5 4-2.1.4-1.2.3-2.5-.2-2.9-1.4-1.4-5.7-2.1-7.2-1.1zM1150.6 1430.6c-.4 1-.1 2.4.8 3.3 1.4 1.3 1.6 1.3 2.2-.3.4-1 .1-2.4-.8-3.3-1.4-1.3-1.6-1.3-2.2.3zM1746.7 1434.7c-1.4 1.3-.6 3.3 1.2 3.3 1.4 0 1.8-.5 1.4-2-.5-2.1-1.5-2.5-2.6-1.3zM1042.5 1471.3c-1 .8-1.5 1.9-1.1 2.5.3.5-1 3.1-3 5.7-4.6 6.1-4.1 9.3 2 12.4 5.9 3.1 9 2.2 10.5-3 .7-2.2.9-4.8.6-5.9-.3-1 .1-3.3 1-5 1.6-3.2 1.2-4.9-2-7.2-1.6-1.2-6-.9-8 .5zM1064.3 1502.7c-1.3.2-2.3 1-2.3 1.8 0 1.8 4.7 2.5 6.1.9 1.1-1.3.4-3.5-.9-3.3-.4.1-1.7.4-2.9.6zM601.9 1571.1c-.9 1.8-.7 2.5 1.6 4.9 3.1 3.2 6.4 3.4 7.6.3.6-1.8.2-2.7-2.2-4.8-3.7-3.1-5.5-3.2-7-.4zM482.2 1643.7c.2 1 1.4 2 2.7 2.1 1.9.3 2.2 0 1.7-1.3-.3-.9-.6-1.9-.6-2.1 0-.2-.9-.4-2.1-.4-1.4 0-1.9.5-1.7 1.7z"/></svg>