<svg xmlns="http://www.w3.org/2000/svg" viewBox="0 0 3182.75 1080">
  <defs>
    <style>
      .cls-1 {
        fill: #3ca1ff;
      }

      .cls-2 {
        fill: #4d4d4d;
      }

      .cls-3 {
        opacity: 0;
      }
    </style>
  </defs>
  <title>derrida_VI_logo_full</title>
  <g id="_1" data-name="1">
    <g>
      <path class="cls-1" d="M526.12,615.62,524.46,614c.3-.28.59-.76.91-.78,1.27-.09,2.56,0,3.83,0,.19,1,1,1.52,1.58,2.18a1.54,1.54,0,0,1,2.36,0l2.06-2.06a1.46,1.46,0,0,1,.77-2.32,1.72,1.72,0,0,1,1.51.51c.76-.54.89-1.58,1.91-2,.81-.32.77-1.47,1.28-2.38a4.29,4.29,0,0,0,.94,0,1.22,1.22,0,0,0,.64-.42,8.83,8.83,0,0,0,.64-1.11c1.47,1.73,3.41.32,4.7,1.55.46.08.58-.36,1-.65.84,1,2,.57,3.12.66l.74-.74v-2.21l2.57-2.54a2,2,0,0,0,2.1-1.1h4c1.16,2,3.46,1.38,5.82,2,.07,0,.26-.57.68-.86a2,2,0,0,1,1.34.07l.19.89c.58-.25,1.14-.72,1.88-.45l.86.91c1.88.73,3.47-.87,5.16-.36a4.8,4.8,0,0,0,.83-3.52c1.6-1,2.12-3.15,5.17-3.61a12.09,12.09,0,0,0,6.23-1.64c.49.38.81,1,1.7,1.08a7.9,7.9,0,0,1,3.37,1.1c1.32.87,2.28.31,3.36-.34V593l1.55-1.36c.43,0,1.29.27,1.66,0,2.1-1.78,4.34-.43,6.54-.46.89,2-1.31,3.56-.88,5.52.28,1.05,1.78,1.29,1.66,2.64h2.74c-.16-1.81.46-3.67-.85-5.45.87-.85,1.72-1.52,1.71-2.46,2.68-.88,4.76.43,7,.83a.62.62,0,0,1,.42.28c.61,1.56,2.12,1.88,3.44,2.25,1.1.31,1.23,1.46,2,1.81s1.31,1.21,2.11,1.72a1.69,1.69,0,0,0,1.88-.89,4.48,4.48,0,0,1,1.43-4.13c1.57.7,3.55.24,5.07,1.38.71.53,1.39.24,2.08.31,1.58.17,3.19-.28,4.75.53a11.17,11.17,0,0,1,2.48,1.85c.49.46,1,.36,1.51.39a5,5,0,0,0,1.7-2.85c.38-1.28.73-2.34,2.33-2.52.88-.25,2,.18,2.91-.81,1.37,1.77,2.82-.66,4.2.3l1.75,2.77c-.15.53-.9.92-.24,1.69l-1.92,1.54c.28,2.82,2.05,4.45,3.85,6.13v3a5.52,5.52,0,0,0,4.33,3.78l1.2-1.12.79,1.36.66-.66c1.08,1.83,3.14,1.57,4.79,2.15a5.92,5.92,0,0,1,1.78,1.16h2.07l1.51-1.3c.14-1.31-1-2.16-.46-3.23a4.7,4.7,0,0,0-3.64-2.07c-1.9-1.49-2-3.61-1.94-5.84a6.72,6.72,0,0,1-2.8-4.56c.2-.81,1-1.09,1.39-1.69h2.84c1.23,1.27,1.44,3.41,3.36,4.25l.37-.3c.83.74,1.88.32,2.78.47.74-.52,1.32-1.33.84-1.89-.82-.94-.29-1.91-.52-2.79.77-1,2.16-1.08,2.8-2.53.2-1.65-.67-3.42-1.17-5.24-.06-.2-.59-.27-.93-.41a4.12,4.12,0,0,1-.07-1.84c.61-.53,1.43.08,2.08-.41l.15-1.37h3.42l1.13-1.13h1.78c.41.39.11.88.25,1.46,3.31,1,6,3.3,9.32,4.54,1.51-.32.87-2,1.68-2.72-.16-.83-.8-1.08-1.5-1.26-.22-1-1.26-1.81-.56-3,.69-.84,2-1,2.55-2.17l-.36-.36c-.16-.46.65-.58.26-1.39l-1-.46c0-2.18.06-3.93,0-5.66s1.24-3.06.44-4.58a5.25,5.25,0,0,1,3.34-1.75l1.76-1.9a17.89,17.89,0,0,0-.44-4.05c-.31-.94.54-2.26.87-3.41a1.36,1.36,0,0,0-.48-1.77c1.15-.76,1.61-2.05,2.48-3h1.1c1.37-1.75.7-3.79.91-5.91a21.3,21.3,0,0,0,5.44-6c.24-.4,0-1.07,0-1.86l-1.05-.73a1.71,1.71,0,0,1,.85-2,1.15,1.15,0,0,1,.73.23c.74.51.48,1.81,1.61,2a13.78,13.78,0,0,0,4.47-10.63c1.79-2.05,2.49-4.89,4.6-6.36.57-.59.23-1.08.39-1.51l1.08-1.08c-.19-.93.16-1.94-.26-3-.76-2-.28-3.18,1.51-4.38.9-.61,1.24-1.7,2.06-2.33s-.29-1.42.54-1.82c-1-.78-.37-1.86-.58-2.81,1.51-1,1.92-2.84,3.31-3.76V496.5l-1-1v-2.32a19,19,0,0,1,2.08-1.83c.78-.53,1.66-.87,2.44-1.45a3.27,3.27,0,0,1,2.42-.81,22.56,22.56,0,0,0,3.16,0,1.68,1.68,0,0,0,.85-2l-2.23-2.23a17.07,17.07,0,0,1,3.53-9.65c.92.29,1.94-.4,2.78.52.79-.89,1.52-.25,2.14.2l.72-.65c.49.79,1.29.48,2.2.56L755,474c.11-.65-1-1.52-.58-2.69-.6-.63-1-1.45-2-1.56-.33-1.26-1.24-2.55-.71-3.78a8.77,8.77,0,0,0,.46-3.57,3.41,3.41,0,0,1-1.07-2.39c.17-1.59-.45-3.25.3-4.62l-2.18-2.18c-2.67.92-4.32,3.77-7.27,4.83-.49-.26-1.3-.34-1.73-1.08-.27-.44.55-.37.37-.7.26-.83-1.09-.92-.49-1.65-2-1.28-4-.64-5.8-.82l-.73.73a9.18,9.18,0,0,0,1.1,6.14c-.48.93-.63,1.83-1.38,2.4-.44.06-.58-.66-1.12-.43s-.36.51-.4.91c-.75.38-1.59,0-2.5.26-.53-1.61-2.28-2.06-3.08-3.62-.71-1.4-2.24-2.39-3.42-3.57-1.48-.14-3-.27-4.39,1a12.46,12.46,0,0,1,2.94,2.5,2.47,2.47,0,0,1-.5,1.74c-.28.48.2,1.33-.67,1.74h-3.62l-2.6-2.61c-.44-.17-.94.16-1.4-.27l-.06-1.13,1.6-1.6c.34-1.51-.78-1.83-1.27-2.53a5.62,5.62,0,0,0-4,1.06,10,10,0,0,1-4,1.68,6.37,6.37,0,0,0-3.94,2.43,4.14,4.14,0,0,1-.36.4L699,462.6c-1.91,0-2.1-2.12-3.49-2.74a2.64,2.64,0,0,0-.82,0,1.19,1.19,0,0,0-.61.5c-.62,1.13-1.88,1.84-2.13,3.21-3,.53-5.87-.19-9-.54l-1.86-2.29L681,460c-.53-.34-1.09-.12-1.62-.19-1.29.3-1.36,1.85-2.54,2.39A3.88,3.88,0,0,0,675,465c-1.82.78-1.69,2.39-1.65,4-.95.63-1.41,2-2.85,2-1.24-1.48-2.1-3.22-3.51-4.47-2.13.05-3.12-1.61-4.41-2.75-.57,0-1.33-.23-1.63,0a2.84,2.84,0,0,1-3.08.4c-2-.89-3.92-.14-5.77-.49-.87,1.48.62,2.62.29,3.93l-2.65,2.33c-2.4,1-5-.69-7.67-.07a28.35,28.35,0,0,0,2.19,5.48c-1.51,1.81-3,3.15-5.33,2.59-2.25-.38-2.05-2.89-3.57-4,0-1-.33-2.11.51-3-.52-1-.82-2.17-2.2-2.79-1.27.4-2.61-.72-4.16-.6s-2.94,0-4.4,0L623.72,469v4.49a6,6,0,0,1,3.26,1.51v1.51c-2.43-.32-4.85.49-7.23-.6-1,0-.68,1.42-1.68,1.71-.7.21-1.23,1-1.83,1.57-1.4.05-2.6.83-3.92,1.18-1.67-.82-3-2.43-5.12-2.23-.13,1.07,1.21,1.81.19,2.84-.66.67.13,1.77-.39,2.56-.81.3-.94-.18-1-.85l-8.51-1.73a1.61,1.61,0,0,0-.85,1.3,4.28,4.28,0,0,1-2.88,3.42,29.67,29.67,0,0,1-3.13.88c-.29,2-2.58,1.87-3.7,3.12-.64.23-.81-.74-1.5-.52-.44.45-.44,1.29-1.18,1.62h-.9c-2.26,2.15-2.81,5.17-4.24,7.51-2.11.82-3.84-.62-5.86-.3-1.36-1.82-3.39-2.83-5.89-3.89a6.62,6.62,0,0,0-4.27,1.24,4.92,4.92,0,0,1-3.17,1,2.27,2.27,0,0,0-1.7.56,10.38,10.38,0,0,1-3.95-2.1c-.38-.78-.79-2.13-1.44-3.26a24.27,24.27,0,0,1-1.44-3.56c-.3-.79-1.14-1.37-1.75-2.06-1.56.24-2.86-1.16-4.4-.46l-2-2.28c-.55-2.2.57-4.53.53-6.94l-1-1a2.18,2.18,0,0,1-.13-.52,15.69,15.69,0,0,1,.46-3.93c.34-1.32,1-2.68.65-4.16-.22-.95.53-1.56.91-2.3a1.14,1.14,0,0,1,1.23.87c0,2.36,1.58,3.67,3,5.11a7.55,7.55,0,0,0,1,.74,1.73,1.73,0,0,0,.77,2.09,1.68,1.68,0,0,0,1.89-.81l-.5-.55c-.21-.58.45-.8.49-1.18a24.71,24.71,0,0,0,0-2.69c-2-2.23-1-6.28,0-9.37l-1.09-1.15c.05-.82-.24-1.7,1-2.46,2.16-.14,4.57,1.1,7.18.42.32-.65,0-1.48.15-2.3l-1.11-1.16v-1.23h4.68c.1-1.23,1.34-1.22,1.89-2v-4.31c1-1.54,3-1.52,4.1-2.64s3.17-1,3.85-2.85l2,2.42a5.9,5.9,0,0,1-.79,3.89c1.43.83,1.37,2.36,2,3.6.57.31,1.21.1,1.79.13,1-1.23.91-2.65.81-4.19l1.36-1.27a4,4,0,0,1,2.83-1.16c3.68,0,7.35,0,11,0,.28,0,.68-.12.81,0,1.08,1.14,2.1.12,3.15,0l.51-.09c.24-1.51,2.06-1.71,2.4-3.13h5.7c1.82,1.83,2,4.57,3.86,6.47h2.55l3.08-3.08c-.62-.44-.2-1.32-.35-2.13-1-.95-2.06-1.88-2.28-3.37-.24-.36-.78,0-.82-.1a1.07,1.07,0,0,1,.38-1.45q0-1.66,0-3.31a5.81,5.81,0,0,1,2.19-1.39l1.36,1.65h2.83c.17.41.24.94.44,1,1.13.34,1.16,1.63,2,2.19,0,1.63,1.31,2.09,2.34,2.93a40,40,0,0,0,4.21,2.45,3.52,3.52,0,0,1,.44-.93c2.07-2.38,2.1-2.55,4.69-3.17a3.36,3.36,0,0,0,2.54-2.14,3.13,3.13,0,0,1,2.1-2.43c.39-.14.66-.62,1-.94,1.65-.48,3.09.68,4.72.52s3.12,0,4.8,0c.13,1.05,1.54.76,1.91,1.86.26.76,1.26,1.15,2,1.67.87.66,2.1-.26,2.66.83,1.23-.93,2.66-.21,3.94-.52a11.52,11.52,0,0,0,3.6-1.41,7.34,7.34,0,0,0,1.12-2.24,2.42,2.42,0,0,0,1.52-1.08,6.89,6.89,0,0,1,1.2-4c2.91-.51,5,2,7.84,2.16,1.29-.73.76-2.79,2.92-3.43a1.07,1.07,0,0,0,1.23-.14c.56-.62,1.24-.06,2-.53l.76,1.23c.75.09,1.19.21,1.61,0a1.59,1.59,0,0,0-.26-1.73c-.37-.48-.18-1.2-.07-1.81l1.32-1.32c1,.19,2.17-.4,3.28.47.35,0,.51-.68,1-.46,1.19-1,.84-2.4.92-3.59.28-.28.47-.64.67-.64,3.19,0,6.38,0,9.72,0,.87.58.77,1.52.48,2.51l-.88.23V422l-2.83,2.83c0,.55,0,1.1,0,1.64.41.78,1.35.82,2,1.4.49-1.22,2.21-1.27,2.6-2.7H703l1.35,2.11c3.75.5,7.41,1.78,11.21,1.7a2,2,0,0,0,.2-1.43,4.48,4.48,0,0,0-1.31-.84c-2.22-.85-4.2-2.24-6.44-3.09-.38-.14-.87-.07-1.17-.54a5.65,5.65,0,0,0-1-1c0-.81.53-1,.76-1.33.85-.34,1.33,1,2.15.52.49-.2.32-.64.52-1H714c1.82,1.4,4.14,2.36,5.88,4.26h1.82l.5-1h2.09l3.82-4c1.25,1.35,3.15-.18,4.18,1.33,1.19-.78,1.72-2.11,3.07-2.36h8.25c1.3-1.23,2.87-1.24,4.49-1,1.28,1.78.59,3.82.78,5.64,1.11,1.87,3.25,1.07,4.75,1.9l1.31-1.24c-.07-1.26.31-2.56-.61-3.63,1.67-1.07,1.67-1.07,4.28-1.07,2.86.79,3.41,3.3,5.16,4.68l-.56.56,2.43,2.41h2.13c1.34-.49,2.32-1.31,3.53-1.84a3.14,3.14,0,0,1,3.39.51c1.31.9,2.76,1.69,3.57,3.06h5c2.72,2.25,5.62,4.24,8,6.89,0,2.19,1.58,3.6,3.19,4.6a3.66,3.66,0,0,1,1.85,3.16c1.46,1.41,3,2.76,3.65,5.09l-1.3.41.44.46c-.32.9.21,1.88-.52,2.84-.6.79-.06,2.08.52,2.69a17.54,17.54,0,0,1,2.68,4.08v1.86c-1.17,1.75-2.18,3.64-4.61,3.18l-1.56,1.5a13.29,13.29,0,0,0,2.87,3.72v4.48l-.88.8c-1.91-.51-3.86-1.39-6-1.06-1,1.88-2.67,3.37-3.64,5.59,1.61,1.09,1.06,3.55,2.8,4.53.25,1.28-1.05,2.11-.32,3.41.71.1,1.09.85,1.31,1.76l-.4.43c1.12,3.17.53,6.3-.1,9.44l-1,1v3.37c.92.43,1,1.55,1.67,2.29l-.71,1.65c-2.35,1.21-4.75.86-7.07.09-2,1-.84,2.44-.5,3.68l-1.1.45c0,.93-.28,1.93.4,2.91l-.39.45a3.92,3.92,0,0,1,1,3.43l-.82.32c-.27,1.49-.33,2.36.34,3l-2.23,1.94c-1,.9-1.1-.8-2.08-.92-.31-.91.36-2-.57-2.82.07-.31.59-.39.41-1.21-1.58-1.23-2.79-3.23-4.32-5-.24-1.53,1.5-2.11,1.68-3.63,0-.39-.58-.49-.73-.92H770.6l-1.78,2.05c.25.74-.83,1.36-.65,2.27.5,1.41,2.62,2.42,1,4.4H767c-1.88,1.28-2.06,3.43-3.26,4.83-1.44.79-2.59-.67-4.17-.29l-1.34,1.58a32.25,32.25,0,0,0,2.15,4.75c1.11,1.86,2.91,1.87,4.51,2.67a3.09,3.09,0,0,1,0,1,3.6,3.6,0,0,1-.7.88H761.8c-.35-.2-.2-.51-.25-.82-.73-.45-1.57-.12-2.5-.26-.57,1.45-2.56.88-3.35,2.27-.26.46-.1.88-.24,1.39a10,10,0,0,0-3.17,5.12c.11.31,1.18-.15,1.08.91,0,.5.83.83,1.51,1v2.37c-.36.61-1,.71-1.54,1-.11.65-.18,1.27.42,1.66a8.36,8.36,0,0,1-2.37,3c1.31,1.1,1.27,2.93,2.81,3.78.64.34,1.25.06,1.79-.64v-4.49l1.78-1.28h1.78c1.5.75,2.36,2.33,3.65,3.51a5.7,5.7,0,0,1-1.64,4.51c.1,2-2,2.44-2.78,3.93-.29,1.67-1,2.37-4.31,4.14v1.43c-1.24,1.88-2.3,3.74-4.43,4.5-.25,1.75.6,3.13.88,4.91a3.3,3.3,0,0,1-2.33,2.13c-2.59.68-4.06-1.16-5.58-2.74-1.05.34-1.44,1.26-2.2,1.75-.42-.1-.92.21-1.36-.33a13.4,13.4,0,0,0,1.69-6.6c-2.2-.9-4.22.56-6.21.34l-2,1.82,1.73,3.36c-.85,1.17-.78,2.5-.64,3.95l2.54,2.41a1.66,1.66,0,0,1,1.58.51l.69-.69V577.7c.49-.68,1.44-.14,1.5-1.19,1.55.86,1.74,2.18,2.07,3.51h2.83l.77.77v4.59l-.64.64c-2,.67-3.71-.85-5.67-.4-.51-1.28-1.88-1-2.94-1.71-1.22,2.17-.22,4.51-.69,6.79l-2.87,2.65c1.19,2.77.62,5.4.79,7.93-1.77,1.31-3,1.07-4.12-.84-1.67.14-3.47-.38-5.21.77V608c-1.17,2.54-4,2.81-4.76,5.21a8.77,8.77,0,0,1-3.8-1.5c-1.06-.7-1.27-2.33-2.9-2.44-.71,2.73.54,5.15,1.11,7.74l3.08,2c.44,1-.43,1.53-1.11,2.23.53,1.68-.66,3.23-.53,4.94a7.12,7.12,0,0,0-2.26,3.75c-.46,2.22-2.23,3.75-4.38,4.78a3.9,3.9,0,0,0-2.14,3.11,13.56,13.56,0,0,0,0,1.88c-1.78-.49-3.24.69-5,.54s-3.49,0-5.21,0a5.12,5.12,0,0,1-2.31,1.19c-.41.37,0,.87-.34,1.46l-1.36,1.35-1.36,9.07c-.88,1.08-2.34,1.95-3,3.52-1.81.92-2.87,2.77-4.49,3.83a10.56,10.56,0,0,0-3,3.15,5.76,5.76,0,0,1-.68.69,6.32,6.32,0,0,0-4.64,1.27c-.16,1.36.29,2.86-.83,4.15-1.05-.14-1.87,1-3,.69-.1.47.06.77-.41,1.06H669.6a9.23,9.23,0,0,1-2.27,3c-.12.72.3.87.5,1.15v4.39a4.43,4.43,0,0,1-2.65,1.63c-1.59.27-2.86,1.47-4.4,2.22-.23.77-.5,1.7-.77,2.57a15,15,0,0,1-2.31,3.72c-.76,1.1-1.92,1.8-2.65,3a2.26,2.26,0,0,1-3.23.58c-.35-.26-.68-.16-1.26-.26-1.46,2.08-3.94,2.35-6.27,2.92-.62.81.8,1.18.49,2l-1.83,2.7a7.24,7.24,0,0,1-7.18-2.11c-.43-1,1.16-2.1.47-3.63-1.28,0-1.58-1.86-3.09-2v-2.35l-1.7-1.26c0-.76,0-1.13,0-1.5l-2.15-2.14c.26-1-.93-1.74-.6-2.82l-2.17-2.07v-1.83c-1.55-.43-.57-3-2.74-3.1l-.1-1.91c-1.94-.88-4.26-1.17-5.47-3.46.13-.6.79-1.21.6-2,1.09-.21,1.61-1.12,2.45-1.86,1.56.12,3.27-.34,4.85.56a2.47,2.47,0,0,0,1-1.3c-1.11-.47-2-1.6-3.34-.31-1.26-2.36-2.72-4.58-.83-7.37a14.28,14.28,0,0,1,4.52-1.66v-3.47l2.08-1.31c.74.08,1.94.85,3.57.4-.37,1.62.81,2.53,1.12,3.88h2.41c.6-1.68,2.65-1.47,3.78-2.59,1.2-2.51,1.24-5.34,2-8.22l-1.77-1.42c-.57-.85,1.06-1.37.25-2.22-.59-.63.65-1.11.47-1.92a11.76,11.76,0,0,1,0-2.47c.84-1.34,2.46-1.72,3.46-2.92s1.47-2.68,3.35-2.39c.23-.92,1.35-1,1.72-1.68,1.09-2,2.3-4,3.58-6,.16-.24,0-.69,0-.84.36-.53.89-.13,1.09-.76v-.9A3.66,3.66,0,0,1,655,622c1.76-1.06,3.29-3.74,2.88-5.42a8,8,0,0,0-1.3-2.76,14.83,14.83,0,0,1-2.06-4.12,11.33,11.33,0,0,0-2.63-4v-2a7.11,7.11,0,0,1-1.8-3.09c-.65-.32-.93.07-1.24.4a1.6,1.6,0,0,0-1.64-.48l-1.14,1.61-.29-.28v2.86c1.36,0,1.69,1.71,3.07,1.9a1.46,1.46,0,0,1,.23.39c1.19,4.44.25,4.47-2.12,6.93-.43.44-1,.75-1.18,1.44-.66,2.68-3.27,3.12-5.13,4.4-.12.09-.36,0-.54,0-.5-.37-1.05-.7-1-1.45-2.17-1.32-4.56-.53-6.78-.78a47.93,47.93,0,0,1-10.6,5c-.44,1.08-1,2-.73,3l-1.4,1.4c-1.68-.47-3.23,1-4.91.5l-1.14,1.14c-.43,0-.88,0-1.34,0a3.78,3.78,0,0,0-3.87,2.21,1.72,1.72,0,0,1-2,1.1l-4.94,5h-1.15l-1,1c-1.72-1.61-4.34-1.53-6.14-3.19h-2.24c-.92.8-1.27,1.6,0,2.62h-6c-.53.79-1.66.56-1.93,1.52-.24,1.12,1,2.07.45,3.29-.7,1.54-3.06-.14-3.35,2l-.73-.73a5.63,5.63,0,0,1-4.43,2.25L571,649.55c-1.88-.22-3.86,0-5.95-.45a8.33,8.33,0,0,0-5.82.4c-.36.19-.9,0-1.45,0a62.29,62.29,0,0,0-4.89,6h-2.78l-.78.78v3.3c-.64.68-1.33,1.15-1.46,2-1.37,0-2.87-.33-4.1.09a9.29,9.29,0,0,1-3.66.43c-1.3-.07-2.69.49-3.86-.44a4,4,0,0,0-.77.77c-.12.21,0,.54,0,1.08,1.19.71,1.59,2.29,2.75,3.3v3.31c-.3.49-.81.21-1.53.34l-2.28,2.63c-.92.16-1.58-.23-1.92,1l-.74-1.4c-2.35.21-3.92-1.59-6.11-1.54-1,.71-2.33.33-3.72.42l-1.37,1.64h-1.9c-.58.41-.86,1.1-1.77,1.15a3.25,3.25,0,0,0-2.06,1,6,6,0,0,1-3.08,1.24c-2.43.63-4.92.89-7.34,1.54A4.59,4.59,0,0,0,502,679.5c-.44.52-1,.28-1.5.38L498,682.35c.62,2.76-1.14,4.43-3.37,5.48a7.38,7.38,0,0,1-4.61.81c-.6,1.13-2.07,1.13-2.62,2.18a6.07,6.07,0,0,1-4.58-1c-1.22-.92-1.4-.74-3.47.07.25,1.5-1,2.38-2.26,3.89,1.53-.37,2.43.19,3.4-.5s1.63,0,2.12.75c-.08,1.89-1.39,2.89-2.53,4-3,.08-5.83-.87-8.76-1.64-.34,1-1.27,1.26-2.2,1.67s-1,2-2,2.4a10.7,10.7,0,0,0-2.52,2h-4.93a1.26,1.26,0,0,0,.28,1.9c-.92.61-.35,1.66-.57,2.41-1.4.9-3,.77-4.29,1.39-.66,2.14,1.4,1.77,2.42,2.46l3.81-2.33.49,1.38c.65,1.37-1.52,2-.92,3.72h-6.8a4.92,4.92,0,0,0-2.21-1.09c-.25-.54-.35-1.19-1-1.55H446.5c-.33.34-.94.52-.86,1.35l3.88,1.95H452l.75.75v3.54h-4.18l-1.42-1.49h-2.67c-.78-.67-1.93-.7-2.33-1.81a36,36,0,0,1-7,6,7.09,7.09,0,0,0-2.49,2.53c-.52,1-1.81,1.25-1.71,2.28-.86.53-1.51.27-2.11.35-.4.21-.19.66-.45,1h-3.5c-1.14-1.24-2.69-1.06-4.26-1-1.25.63-1.51,2-1.88,3.23h-3.66l-2.46,2.46c.71.71.41,1.58.48,2.36l-1.1.39v1c-1.08,1.45-2.91.53-4.24,1.51-.53-1.42-2.7-.92-3.13-2.65-1.25-.29-2.69.34-3.64-.6-1-.16-1.42.62-2.18.67v1.84l1,1v2.81c-2.05,1.44-4.46.53-6.76.86-1.16-1.24-3.15-.9-4.06-2.32-1.66.45-1.66.45-1.83,1.89.81,1.43,2.59,1.84,3.24,3.38a1.51,1.51,0,0,0-.43,1.67c.14.39.58.2.9.4.06,1.19,1,2.22.56,3.73a13.85,13.85,0,0,1-3.77-.43c-1.17-.39-1.36-2.07-3-1.73-1.41,1.1-2.49,2.82-4.5,3.42-.78.23-1.32,1.23-2,1.94-.67.18-1.52.1-2,.9a1.57,1.57,0,0,1-1.82.86c-1.43,2.31-1.43,2.31-1.5,3.47-.63,1.13-2,1.55-2.65,2.61-1.48-.28-1.59,2-3.07,1.63-.66.36,0,1.49-1,1.65h-5.71c-.05,1-.88,1.38-1.38,2.12.29.74,1,1.48.45,2.68l-2.21,1.89c-1.65.47-3.59-.47-5.61-1.11l-1.51-1.62H345.5a4.76,4.76,0,0,0-2.66,2.19c-.64,1.13-2.08,1.28-2.47,2.52-.47,1.4,1,1.73,1.52,2.74v2.35l-1.36.12c-.54,1.52-2.35,2.51-1.84,4.43-.89,1.59-2.84,2.1-3.56,3.93a18.1,18.1,0,0,1-5.38-3.79c.35-1,1.35-2-.11-2.83-1.17-.72-2.13.57-3.33.41-1.39,1.22-2.8,2.46-2.55,4.64-.37.35-.58.94-1.15.9s-.5-.52-.52-.86a2.09,2.09,0,0,0-.45-.25,2.84,2.84,0,0,0-2.47.61,18.56,18.56,0,0,1-3.58,2.1,3.8,3.8,0,0,0-1.2,1c-.52.66-1.39,1.35-1.95,1.28-3.18-.41-6.24.86-9.2.56l-1.56,1.37c1.4,1.12,1.29,3.17,2.84,3.92-.52,2.06-2.55.75-3.26,1.89-.71-.07-.92-.66-1.44-1h-3.56c-1.08,2.89-4.23,3.87-6.09,6.3-.39.76.44,1.36.54,2,0,1.17-1.11,1.83-1.16,2.94-.41.57-1.14,0-1.71.51a2.29,2.29,0,0,1-2.54.07c-2.17-1.28-4.74-1.4-6.87-2.67l-.93.87v2.72l-2.34,2a.67.67,0,0,0-.6,0c-1.46,1.38-3.32,1.72-5.14,2.27-2.52.76-4.87,2-7.32,2.95-.73.29-1.41.06-2.21.39a35.76,35.76,0,0,1-1.78,4.37,7.53,7.53,0,0,1-3.74,3.21h-2c-1.31-1.14-1.31-1.14-5.41-1.09-1.42,1-2.83,1.94-3.21,3.91-2.14-.25-4.12.11-6.2-.52a6.34,6.34,0,0,0-5.31,1.08,2.85,2.85,0,0,0-2.48-.58c-1.19-1.45-3.21-1.46-4.43-2.79h-2.23L220.47,827h-4c-1.42-1.15-2-3.07-3.62-4.1V821.8l-3.54-3.55h-1.1c-.48-.33-.21-.84-.31-1.38-1.47-1.19-2.12-3.21-3.86-4.36a4,4,0,0,0-1.08-3.4c-1.39-1.52-1.37-3.34-.82-5.21a12.87,12.87,0,0,0,.78-6,12.65,12.65,0,0,0-1-3.81c.26-1.92,1.79-3.3,1.56-5.29a5.09,5.09,0,0,1,4.34-2c2,0,3.95-.26,6.12.79l2.11,2.18a5.8,5.8,0,0,0,.94,2.51h3.86c1.23-.63.5-2.52,2-2.95l-.49-.49c-.17-.46.65-.57.41-1.07-.41-1.12-1.88-1-2.37-2.1h-2.33l-.84-.88c-.06-1,1.39-1.22,1.19-2.22l2.46-1.19c1.29.64,1.8,2.25,3.12,3.08a7,7,0,0,0,4.54,1.16,4.42,4.42,0,0,0,1.94-4,7.16,7.16,0,0,0-2.46-2.06H224v-1.37a1.47,1.47,0,0,1,1.92.3l.77-.77c-.49-1.75.93-3.24,1.3-5.25,2.39.44,4.74-.95,7.23-.52,1.94-2,4-3.74,5.32-6.16,3,.33,6-.49,8.54.61.8,0,.87-.59,1.31-.71v-1.8L248.28,762v-2.23a9.15,9.15,0,0,0,3.85-.51c1.36-.38,2.54.78,4,.52l1.56,1.93.94-1.18v-3.69a9.67,9.67,0,0,1,4.87-1.47c1.79,0,3.59-1,5.27-2.64,2.27-.16,4.48-.56,6.19-2.29h2.74c1.36,1.46,3.13,1,4.78,1.1.9-.57,1.95-.91,2.61-2v-4.27l2.32-1.91a2.42,2.42,0,0,0,1.5-.63c.12,0,.27,0,.3,0,.79,1.12,2.1.13,3,.74a4,4,0,0,0,3.26.39,12.87,12.87,0,0,1,2.48,0c2.48-.94,3.55-3.51,5.64-4.95h2.57c2.35,1.5,4.55,3,7.2,3.39.71-.56,1.22-1.07.92-2.12l-1.6-1.29h-1.32c-1.11-.71-.91-1.63-.81-2.53,1.47-.27,1.7-1.54,2.26-2.69,1.51-.59,2.34-2.48,4.26-2.52v-2.86c.43-.72,1.31-1.07,1.31-1.94,1.25-.68,2.19.64,3.35.43,1.46,1.42,3.28,1.1,5,1.09l1.29-2.56-1-.36c0-.87.21-1.91-.83-2.64l1.82-1.61c1.41,0,2.42,1.1,3.63,1.5,2.14-1,4.61.23,6.74-.76,1.09.26,2.06,1.85,3.39.24-.63-.92-.33-2-.41-2.83-1.34-2.23-3.62-4.16-.83-7,2.47.24,4.66-.92,6.78-2.35,1.06-.72,2.4-.79,3.45-1.7a7,7,0,0,1,3.22-1.51,10.25,10.25,0,0,0,2.31-1.08c.53.77,1.38.2,2.1.48s1.12,1,2,1.28c1.87.6,3.72.36,5.48.47.91-.42.83-1.43,1.53-2.09-.94-.95-.29-2.48-1.29-3.5.24-.28.37-.6.58-.67a11.66,11.66,0,0,1,5.37-.87,4.6,4.6,0,0,0,2.66,1.58c.71-1,2-1.6,3-2.8s.35-3,1.72-4l-.52-.83c.22-1.54,2.24-1.41,2.35-2.78,1.1-.52,1.7.58,2.65.51s1.83-.51,2.44.53c.4-.47,1-.73.83-1.45.76-.62,2.11.33,2.68-1.19-.11-1.62,1.14-3.15,1.24-4.92,2.34-.66,4.73-.65,7.07-1.49a5.09,5.09,0,0,0,1.55-2.8c.7-2.88,2.67-4.46,4.93-5.93a6.77,6.77,0,0,0,1-1,2.29,2.29,0,0,0,2.95.27c1.39-1,2.86-.83,4.35-.85s2.76,0,4.27,0c1.09-.87,1.92-2.24,3.59-2.72l3,1.08a3.64,3.64,0,0,0,1.45-3.66c1.43-.43,1.6-1.51,1.7-2.76l1.47-1.33c1.76.27,3.78-.53,5.75.62,1.46-1.76,3.07.49,4.85-.2.17-1.85-.49-4.12,1.65-5.54v-2.9c.47-.27.6-.8,1.16-.81a26.54,26.54,0,0,1,7.85,1.28,6.88,6.88,0,0,0-2.77,4.07c.56.55.51,1.84,2,1.91.82,0,1.55,1.14,2.42,1.39a15,15,0,0,0,3.24.19c1,0,1.73-1.06,2.83-.42a8.11,8.11,0,0,1,3-2.31c.16-2.53,1.17-4.91.66-6.93l.78-1.39c1,0,1.21.79,1.54,1,2.19-.46,3.76,1.09,5.69,1.29a13.43,13.43,0,0,1,3.17,3.73,1.71,1.71,0,0,0,2.06-.81c.25-1.56-1-3.11-.45-4.9L472.39,652c1.19-1.13.8-2.25.05-3.43l-3.83-1.48a38.06,38.06,0,0,0,1.66-5.06c2.26-.42,4.37-.67,5.95-2.42,2.12.19,3.9-.32,4.89-2.59a1.89,1.89,0,0,1,1.92-1.27c.88.09,1-1,1.62-1.17.47-2.39.57-4.76,2-6.94l1.32-.67c.4-.1.51.24.74.34a10,10,0,0,1,3,2,4.8,4.8,0,0,0,4.07,1.53,13.32,13.32,0,0,1,1.4,0c.32-1.25,1-2.4.74-3.81l1.62-.09c.44.51,1.06,1.18,1.62,1.88a2.52,2.52,0,0,1,.23.83h2.86c.42.59.47,1.27,1,1.62l1.35-.6c.38-.93.95-1.84.68-2.84.64-.85,1.57-1,2.33-1.46l.54.41,1.42-1.47h2.62c2.49-.61,2.79-2.89,4.42-3.81.39.6,1,.57,1.66.46l.78-.78v-1.31c1.31.15,2.45-.59,3.73-.77A4,4,0,0,0,526.12,615.62Zm167.07-14.06a.38.38,0,0,0-.49.33s.12.17.16.16a.39.39,0,0,0,.33-.49.38.38,0,0,0,.49-.33s-.12-.17-.16-.16A.39.39,0,0,0,693.19,601.56ZM743.74,545a4.21,4.21,0,0,0-3.09,3.63,4.13,4.13,0,0,0,2,4.41c1.33.27,2.27-.62,3.4-.65.09-1.23,1.39-1.59,1.73-2.38.11-.66-.32-.79-.49-1,.93-1.12.37-2.36.56-3.82C746.18,545.83,745.11,544.3,743.74,545ZM639.12,687.33a5.64,5.64,0,0,1,.71-3.07c-.46-.83-1.47-1.2-1.37-2.3-1,.58-1.53-.67-2.64-.34-.59,2-1.92,4.13-.28,6.47,1-.18,1.14,1.09,2.18,1.17ZM756.88,445.52h-2.19c-2.28,2.32-2.38,2.68-1.16,4.4,1,.09,2.24-.31,3.15.79l1.55-1.67V446.9Zm-30.78,145c-1.12.16-2.32-.44-3.06.78a4.8,4.8,0,0,0,.71,3.46,1.69,1.69,0,0,0,2.23-.48c.8-.74,1.8,0,2.56-.74C728.21,592.23,726.9,591.72,726.1,590.51ZM785.68,493c.39-1.49-.6-2.29-.5-3.36h-1.57l-2.19,1.92c-.18,1.43.85,1.87,1.65,2.64C783.95,493.6,784.42,492.45,785.68,493ZM679.05,657.38c.58-.75.08-1.55.4-2a2.29,2.29,0,0,0,.5-1.74l-.76-.75h-2.47v2.46l.36-.38ZM516.69,666c.37-1.51-.73-1.94-1.35-2.65-.61.09-1.26-.22-1.83.2a1.26,1.26,0,0,1-.57,1.14c.66.54.47,1.73,1.57,2A4.41,4.41,0,0,1,516.69,666Zm85.91-194c.28-.73,1.36-.91,1.26-2.15-1,.29-1.67-.59-2.64-.64-.5.55-1.59.22-1.87,1.35l1.79,1.44ZM706.7,575.64a2.19,2.19,0,0,0,.73-2.6c-.66-.35-.85-1.44-1.89-1.23a3.28,3.28,0,0,1-1.05,2.14l1.4,1.39.23-.23.19.15ZM413.3,682.06a1.38,1.38,0,1,0,1.45,1.24A1.37,1.37,0,0,0,413.3,682.06Zm248.16-5.75c-1.18-.68-1.55-1.92-2.89-2v3.27H660C660,676.84,660.47,676.51,661.45,676.32ZM272.39,757.49c-.09-2-.13-2-1.95-1.93l-.62,1.3C270.49,757.91,271.45,757.63,272.39,757.49ZM685.19,457.1c-.74.12-1.66-.22-2.47.23-.08.85.53,1,.84,1.43h1l1.54-.74Zm-17.38-17.45c.36-.89,1.68-.29,1.7-1.57l-2.61-.84C666.41,438.35,666.93,438.93,667.81,439.65Zm-1.75,19.74c-1.19-.29-1.84.11-2.11,1.1a1.7,1.7,0,0,0,1.18,1C666.08,461.17,666.36,460.47,666.06,459.39Zm111.18,6.49-1-1c-.49,0-1-.32-1.44.24,0,.25-.1.55.26.76ZM380,703.29l1.5.74.71-.77c-.42-.27-.56-.82-1.14-.8S380.41,703,380,703.29ZM638.2,665c.37-.06.67.09.87-.23a.65.65,0,0,0-.15-.86C638.11,663.75,637.92,664.09,638.2,665Z"/>
      <path class="cls-1" d="M958,375.57c-.12.8-.91,1.35-.68,2.38l.56.64c1.25.79,2.35-.73,3.3-.27,1.16.57,2.26.37,3.67.53l.9,1.44.3-.24v1.75a3.87,3.87,0,0,1-2.06,1.58c-.92.85-.2,2.48-1.19,3.47a1.66,1.66,0,0,1-1,2c-1,.46-1.62,1.76-3,1.5-.68-.13-1,.32-1.45.76v4a3.25,3.25,0,0,1,2.19,2c-.59.86-1.44.13-1.64.25-.73.41-.59.72-.66,1.09-.9.35-2.47.11-2.11,2.06.41,1,1.68,1.26,2.68,2.19a4,4,0,0,0,.57,2.58,2.54,2.54,0,0,1-.15,3.41c1.86,1.22,1.05,3.48,2,4.76l-1.22,1.22c-.33.84-1.21.21-2,.85-.35.3-1.09-.72-1.72-.31l-3.83-3.83h-2.34a4.51,4.51,0,0,0-.73,3.39,18.67,18.67,0,0,0,3.74,4.41c.5,1.3-.56,1.8-1.25,2.59-1.31.13-2.8-.28-4.05.77-.46,1,.36,2.3-.56,3.35l1.37,1.08-.23.42h4.41c-.55,1.9-2.07,1.92-3.52,2.36.75,1.34.44,3.05,1.73,4.18-.19.92,1.32.2,1.1,1.15-.14.61.16,1,.73,1.49a18.89,18.89,0,0,1,5.32,1.45V442c-1.41,1.38-2.73,3-5,3.13-1.37-1.19-2.7-2.38-4.8-1.34-.1-.06-.22-.5-.68-.42a1.46,1.46,0,0,0-1.09,1.69c-.49,1.75-2.4,1.22-3.28,2.49,1.54,1.36,3.85.72,5.21,2.13,2.83,2.89,1.61,6.17.71,9.58-.22.27-1,0-1.18.56l-1.37-.67-.16-1.36h-2.49c-.54.29-.62,1-.92,1.48a1.74,1.74,0,0,1-1.32.78c-.7,1.8,1,1.91,1.89,2.54.23-.14.16-.43.18-.74.61-.52,1.32-.22,2-.22l3,3c0,1.62-.07,3.27,0,4.92a4.43,4.43,0,0,1-1.55,3.77,13.67,13.67,0,0,0,1,5.65c-.25,1.66-1.63,2.61-2.79,3.87a16.06,16.06,0,0,0,0,2.06,7,7,0,0,1-.6,3.62,6,6,0,0,0,.25,5.53c.12.23.34.37.35.69.06,1.68.93,3.28.51,5a6.75,6.75,0,0,1-2.11,2.86c-.15,1.87-.46,3.58-2,4.74-1.41.33-1.83-1-2.75-1.65-.54,0-1.17,0-1.81,0a5.57,5.57,0,0,0-3.51.87,19.33,19.33,0,0,1-3.73,1.53v1.21c.6.51,1.63,0,2.09.82,2.38-.86,6.12-1.2,7.83,1.37,0,.55,0,1.1,0,1.55-.5,1.29-2.11.57-2.76,1.87.17,1.53.22,3.24,1.45,4.68a4.29,4.29,0,0,1,.72,3.52c-.37.38-1.08.19-1.34.8a8.29,8.29,0,0,0-4.82-2.82c-1.13.72-1.61,2.11-3.21,2.39.53,1.76-.94,3.33-.45,5.17.77.13,1.22,1,2,.8a4.21,4.21,0,0,1-.81,3.76l-1.79.82c.18,1.84-1.5,2.89-2.15,4.56.36.72,1.15.79,1.92.84.07.09.19.17.18.22-.31,1.1.64,1.59,1.12,2.23-.25,1.79-1.55,3.14-1.74,5l-2.09,2.08v2.23a5.67,5.67,0,0,1,1.91,1.8,4.08,4.08,0,0,1,.82,2.64l1,1c.05,1,.26,2.13-.49,3,.55,2.09,2.38,3.36,3.5,5l-1,1h-2.9c-.37-1.48-2.23-1.37-2.54-2.85-.3.3-.44.43-.56.57s-.43.31-.41.66c.08,1.6-1.06,3.07-.43,4.83l2.34,2.34h2.87c0,1.11,1.15,1.4,1.34,2.31a4.28,4.28,0,0,1-2.46,2c-.39.1-.54-.53-1-.39a1,1,0,0,1-1.19-.54L925,575.65h-1.64c-1.24,1.16-2.25,2.58-3.92,3.23-.75-.9-1.8-.32-2.69-.48a3.83,3.83,0,0,0-1.39,2.88c.29.65,1.42.42,1.55,1.17.23,1.29,1,2.48.56,4-1,1-1.43,2.49-2.63,3.24-.27,2.3,2.23,2,2.79,3.39s1.75,2.24,2.74,3.32c-.44,2.1,1,3.79,1.22,5.74H923v7.57c-.63.77-1.61.94-2.54,1.39v6.15l2.1,2.93v3.54c-.47,1.46-1.7.83-2.54,1.08-1.33,1.9-1.33,1.9-1.2,4.82h2.3a13.39,13.39,0,0,0,1.67,1.64c2,1.39,2.46,2.16,1.41,4.79a4.67,4.67,0,0,0-2.18,1.71c.43.89-.67,1.42-.51,2.44a11.65,11.65,0,0,1,2.17,7.27c-.86,1.48-1.32,3.07-2.75,3.94,0,1.15,0,2.26,0,3.36,0,2.23.55,4.17,2.87,5.11.16.06.26.25.44.43a29.1,29.1,0,0,1,0,3.52c-.14,1.18-.88,2.19-1.13,3.4s-1.62,1.63-2.27,2.75c.57,1.68,1.74,3.29,1.05,5.45-.26.37-1.2.57-.94,1.41-.37.5-.79.16-1.62.66l-.77,1.37c-.1.67-.75,1.52-.87,2.46s.92,1.55.47,2.53c-.66,1.43-2.23,1.92-3.37,3,.42,1.2,1.62,1.71,2.29,2.83v1.53l-1.48,1.33h-2l-1.19,1.14h-2.66c-1.38.9-1.59,2.7-2.94,3.34-.65,1.71.67,3.06.41,4.58a3,3,0,0,1-2,1c-.11.77-1,1.27-.48,2.6l1.48,1.18h1.34a4.48,4.48,0,0,1,.13,5c1.38,1.88,3.45,3,4.48,5.24v2.87l-2.21,1.84a2,2,0,0,1-.51,2c0,.71,1,1.15.47,2.13l2.32,1.91v4.14c1.26,1.32,1.7,3,2.18,5.09,0,.35-1.22.49-1.07,1.29s-.83,1.23-.57,2-.53,1.28-.58,2l.5.6a4.91,4.91,0,0,0-1,3.92,7.92,7.92,0,0,1,2.16,2.69v3.25a3.07,3.07,0,0,0,1.66,1.22v1.25a4.29,4.29,0,0,1-4.09-.94l-2,1.91c.1,1.3,1.83,1.53,1.79,2.84,1,.41,1.93.78,2.86,1.19s.74,1.81,2,1.91v2.84l-2.16,1.9h-4c-1.87,2.32-1,5.09,1.1,7.81A10.81,10.81,0,0,0,914,777a6.78,6.78,0,0,1,3,3.7c-.22.88.63,2.27-.77,3.28h-4.41c-.45.5-1.16,1-1.34,1.57a6.45,6.45,0,0,1-.73,1.85c.89.6.62,1.64.65,2.26.54,1,1.5.8,1.88,1.55l1.18-1.11c.31.42.95.63.78,1.46a14.64,14.64,0,0,0,5.86,1.28l1.24,1.44a9.07,9.07,0,0,0-.48,4.69c.14,1.73,0,3.48,0,5.19-1.14,1.08-2,2.35-3.83,3h-2.89a1.59,1.59,0,0,0-.92,2c.78.85,2.11,1,2.67,2.28-.07,1.08.35,2.39-.58,3.42a6.33,6.33,0,0,0,1.67,2.42v2.79c-.65,1.11-2.11,1.06-3,1.94h-3.24c-1.64,1.28-2.19,3.33-3.62,4.72l.39.39-2.68,2.67c-.74.23-2-.61-3,.49a3.59,3.59,0,0,0-3.13-1.09,2.18,2.18,0,0,1-2-.56,5.48,5.48,0,0,0-2.58,1.63c-3.24.4-5.31-1.37-6.89-3.76a8.76,8.76,0,0,0-6.19-3.88,2.39,2.39,0,0,1-1.54-.87c.42-2.11-1.06-3.51-2.59-4.72a7.68,7.68,0,0,1-3.07-4.77c0-.23-.46-.31-.31-1.06a8.68,8.68,0,0,0,2.74-4.37c-1.5-.56-2.32-2.07-3.94-2.7a13.86,13.86,0,0,0-.07-3.72c-.35-1.23.29-2.29.07-3.44.62-.47,1-1.18,1.84-1.49.43-.15.63-1.09,1.43-1.21.32-1.61-1-3.09-.49-4.68a13.49,13.49,0,0,0,.52-4.75c-.47-.62-1.26-1-1.33-1.92-1.11-.23-2.36.34-3.42-.48-.42.67-1.21.39-2.06.45-1.08-1.12-2.82-1.63-3.67-3.2-.13-1.47.89-2.4,2-3.5-1.4-.8-1.45-2.34-2.75-3.07,1.12-1.2.67-2.51.76-3.73,1.18-.36,1.84-1.37,2.72-2.18v-1.5l-2.71-2.52c.33-2.5-1-5.15-.47-8l-1.28-1.42c.48-1.7,1.07-3.31,1.46-5,.12-.5.45-1.29.21-1.46-.86-.6-.17-1.75-1.1-2.37a19.55,19.55,0,0,1-2.69-2.6,2,2,0,0,0,0-.38c-.6-2.35-.66-2.37.38-4.9.23-.57.06-1.15.48-1.75.55-.77.34-1-.28-2.43l1.15-.41c-.35-.75-.43-1.6-1.14-2.22l2-1.88c.57-3.22-.24-6.13-.5-9.35.4-.32.88-.73,1.39-1.11s1.44.17,1.4-.4c-.08-1.07,1-.54,1.17-1.15.15-1-.47-1.65-.85-2.4s-1.36-.87-1.31-1.64-.76-1.23-.53-2.32a20.19,20.19,0,0,0,2.2-8.11,5,5,0,0,1,.57-2.2c.54-.86.09-1.65.33-2.45a13.65,13.65,0,0,0,.2-2.92l1.22-.65c-.62-2.08.85-3.6.29-5.31-.4-1.62-2-2.54-2.45-4.17-.19-.65-.42-1.18.12-1.69.24-.23.17-.49.22-.74.14-.85-1.2-1.49-.35-2.44.71-.79.2-1.73.35-2.55l-1-1a22.53,22.53,0,0,1,.65-7.87c1-.22,1.59-1.29,2.41-2,.48-.76-.35-1.78.65-2.27-.68-1.68-1.37-3.3-2-4.95a17.3,17.3,0,0,0-.88-2.38c-.92-1.62-.08-2.7.73-3.79a23.64,23.64,0,0,1,2.34-2.38c-1-1.14-.63-2.43-.7-3.68.71-.88,1.8-1.48,2.16-2.69v-3.42a7.38,7.38,0,0,1-1.43-2,1.09,1.09,0,0,1-.14-1c1-1.8.33-3.72.52-5.58a56.54,56.54,0,0,1,1.19-7.48,11.09,11.09,0,0,0,3.24-4.6L874,617.62a15.49,15.49,0,0,1,0-1.69c.25-2.54-.66-4.79-1.65-7a20.25,20.25,0,0,1-1.6-5.66c-.11-.89-.91-1.52-.65-2.53.22-.83,1-1.55.48-2.59a5.81,5.81,0,0,1,3.5-2.13,4.22,4.22,0,0,0,3.81-3.61,5.56,5.56,0,0,1-.61-3.16c.06-2.2,0-4.41,0-6.62,0-1.49-.28-3.06.93-4.3.37-.38.15-.87.16-1.31,0-1.84-.13-3.69,0-5.51.29-2.9-.87-5.55-1.23-8.33-1.2-1.49,0-2.58.64-4v-2c1-.44,1-1.68,1.76-2.25s.82-1.49,1.66-1.85c1-.43,1-1.52,1.6-2.34-1-1.46-3.2-1.22-3.82-3.05-1-1,1.28-2,0-3.06.83-.87.6-2.11.88-3.13s.94-2.28.73-3.6a22.62,22.62,0,0,1,0-3.58v-3.54c1.76-2,.87-4.31,1.16-6.7a5,5,0,0,0,1.54-2.16c.23-.43,0-1.08,0-1.68-1.53-.85-.91-2.94-2.28-3.89.44-.89,1.12-1.64,1.14-2.41,0-1.58,1.08-1.62,2.13-1.81.49-1.06-.38-2.36.58-3.34-1-.82.16-2.32-1.05-3,1.53-2.23-.81-4.36.18-6.44-1-.59-1.14-1.89-2.3-2.18v-2.74a45.8,45.8,0,0,0,7.63-6.67,2.74,2.74,0,0,0-.5-2.47,13.9,13.9,0,0,0,1.15-5.3,4.77,4.77,0,0,0,1.11-2.88c.47-3.35,1.15-6.68,3.86-9.26-.06-.91.16-2-.27-2.83a2.8,2.8,0,0,1-.24-2.56c.73-1,.22-1.94.53-2.92l1-1c-.16-1.09.25-2.28-.5-3.5-.35-.57,0-1.48.46-2.24a12.36,12.36,0,0,0,1.65-6.19,8.1,8.1,0,0,1,.75-2.57,5,5,0,0,0,3.69-2.06V428a4.94,4.94,0,0,0-1.59-2.56c-.11-.54.25-.75.24-.92-.06-.81-.73-1.77-.23-2.39a3.31,3.31,0,0,0,.48-2.3c0-.92,0-1.84,0-2.76,0-1.59,1-2.9,1.26-4.46,0-.34.48-.73.39-1.2-.39-2,.54-3.87.64-5.83a4,4,0,0,1,1.59-3.33,14.54,14.54,0,0,1,1.64-7.71c.18-.4.62-.25,1-.44v-4.65l-2.06-2.06c.79-.81.4-1.84.51-2.81l3.73-3.68c0-1.14.82-2.08.7-3.29s.24-2.47-.1-3.56.32-2.11.06-3.18c.85-1.11,2.19-1.85,2.59-3.46l-1.47-2.87v-4.22a4,4,0,0,0,1.11-3.4c-.05-.92.07-1.85,0-2.75-.18-1.72.51-3.31.73-5a9.61,9.61,0,0,0-.1-4.85,16.33,16.33,0,0,1,0-3.21c1.09-1.7,2.41-3.15,2.93-5.2a8.4,8.4,0,0,0,.1-4.44,7.12,7.12,0,0,1-.3-1.79c0-1.47.07-2.95,0-4.41s.43-2.68-.35-4c-.64-1.07.21-2.42-.66-3.6-.4-.53-.07-1.6-.07-2.52a16.44,16.44,0,0,0,3.31-11c1.56-1.75,2.37-4.12,4.24-5.4,1.09-2.7.61-5.33.73-7.94l-1.61-1.53v-2.93c1.44-.89,1.32-3,2.81-4-.41-2-1.78-3.19-2.78-4.92v-2.21c1.23-.46.86-1.94,1.58-2.82,0-.66-.63-.83-1-1.44v-7.69a2.38,2.38,0,0,1-1.12-1.8c.14-2.72-1.19-5.31-.46-8.32a8.49,8.49,0,0,0,2.41-3.72c-.72-.55-.17-1.53-.44-2.22-.25-.47-.81,0-1-.74.23-1.3-.22-2.85.44-4.49a4.09,4.09,0,0,0-.57-4,4.42,4.42,0,0,0,1.59-4.83c-.2-.47-1.08-1-1.59-1.84a5.94,5.94,0,0,1-1-3.74c.36-3.18-.78-6.24-.6-9.42s0-6.25,0-9.37v-1.88l2.13-1.36v-3.1c.76-1.59,1.59-2.72,1.36-4.43l2-1.83c-.27-2.1,1.47-2.42,2.81-3.34.67.85,1.68.66,2.64.66a3.78,3.78,0,0,1,2.27.53,5.74,5.74,0,0,0,4.63,1.05c1.15,1.2,2.4,2.13,2.66,3.88a45.35,45.35,0,0,0,7.14,1.74c1.26-.65,1-1.54,1-2.47l-1.64-1.34c0-1.21-.36-2.21,1.07-2.81,1.07.17,2.53-.43,3.85.51.18.13.56.17.65.39.89,2.24,3.13,2.93,4.9,4.17,0,1.08,0,2.08,0,3.08a3.93,3.93,0,0,0,2.38,4,20.25,20.25,0,0,1,3,2.2c1.19-.1,2.29-1,4-.34.41.23.85,1.26,2.08,1.66.55.75.47,2.39,2.31,2.65-.2.95.36,1.57,1,2.28a11.82,11.82,0,0,1,1.14,2.27,8.17,8.17,0,0,1,.77,2.18c.13.67.42,1.8,1.48,2v3.59l-1.37,1c-.31.45-1,0-1.35.53a4.12,4.12,0,0,0-1.11,3.41c0,1.5.69,5.27,1.66,6.76.79,1.22,1.51,2.49,2.25,3.71-1.24,2.3-.2,4.53-.06,6.77s0,4.59,0,6.91l-2.79,2.73c.21,1.38-.28,2.79.52,4.19a2,2,0,0,1-.14,2.08c-.69.83-.18,1.75-.36,2.57l2.2,2.2v4c-1.51-.14-1.76,2.2-3.54,1.8-.55.27-.11,1.12-.92,1.35,1.69,1.34,1.93,3.41,2.85,5.23-.77,1.06-.62,2.61-1.63,3.58-.31,2.54.73,5.42-2.19,7.27a5.81,5.81,0,0,0,1.33,4.79c.68.83.68,2.3.78,3.49.12,1.45,0,2.93,0,4.38a1.53,1.53,0,0,0-1.38,1.34h-1.65c-1,1-1.23,1.48-.45,2.23.62.59.58,1.52,1.51,2.07H973l.89,1.06c.14,2.22-1.12,4.54-.4,7.1l-1.84,1.47c.26,1.94-1.51,2.31-2.19,3.6a4.56,4.56,0,0,1-2,4.53h-3.82l-.8.8v2.83l1.5,1.3h2.5c.66.35.9,1.24,1.78,1.13.09.16.24.31.25.46,0,.36-.15.89,0,1.08,1.24,1.27-.09,2.48-.06,3.7,0,.2-.52.43-.49.59.37,1.92-.94,3.64-.62,5.14-.58,1.6-1.86,2.71-.53,4.16,0,1.76.42,3.65-1.14,5-.53.46-.31,1.25-1,1.55a6.42,6.42,0,0,0,.46,3.87c.91,2,.44,4.07.57,6.09-.38.42-.89.76-1.09,1.23a3.78,3.78,0,0,1-4,2.41c-1.37,0-2.74,0-4.06,0-1.29,1.8,1.27,2.66.9,4.19a5.57,5.57,0,0,0,2.82.84A2.59,2.59,0,0,1,958,375.57ZM911.77,797.85h-.47l-2,1.44c.18,2.39,2.21,5.73,3.68,5.73l.75-1.48v-3.77ZM957.94,348v3.78c.79.36,1.55.74,2.34,1.06.21.08.5,0,.68-.06l.64-1.36c-.9-1-.15-2.29-.51-3.26C960.09,346.6,959.06,347.75,957.94,348ZM894.59,820.36h3c.38-.42.85-.65.7-1.28l-.74-.78h-2.89c-.26.41-.82.55-.74,1.28ZM928.71,488c.45,0,.8,0,1.14,0s.58.7,1.21.51a1.55,1.55,0,0,0,.85-1.92l-.75-.75h-2.45Zm-22.83,241.6h-2.45c-.37.43-.86.64-.7,1.27l.75.79h2.39c.18-.43.77-.55.68-1.28Zm9.51-69.11h2.71v-1.38c-.74,0-1.1-.86-1.93-.73a4.89,4.89,0,0,0-.76,1A3.18,3.18,0,0,0,915.4,660.47Zm-43,26.93c3,.26,3,.26,3.26-.21.09-.67-.54-.86-.83-1.26-.61.07-1.24-.16-1.81.15C872.78,686.43,872.28,686.61,872.44,687.4Zm55.63-168.8c-.58-.47-.92-1.31-1.81-1.43-.4.4-1,.61-.94,1.26.69.66,2.51,1.52,2.75,1.28ZM957.9,295.45h2.66v-.92H957.9Zm-13.55,144c-.71-.08-1,.39-1.34.9a1.44,1.44,0,0,0,1.51,0A.68.68,0,0,0,944.35,439.46Z"/>
      <path class="cls-1" d="M1000.37,325a1.23,1.23,0,0,0,.5-1.09c-.32-3,1.35-5.68,1.09-8.64,1.38-1.13-.19-2.26,0-3.41s-.63-2.08-1.24-3.07a8.17,8.17,0,0,1-.91-3.19c-.16-1.22,0-2.45-.54-3.65a1.49,1.49,0,0,1,.86-2h4.75l1.09-.92c-.81-1.16-.7-2.68-1.75-3.79v-3.71c.41-1.55,1.9-.64,3-1.31-1.6-1.15-1.66-3.14-3.06-4.37.2-.88-.43-2,.56-2.74-.64-.42-.61-1-.5-1.74l.78-.28a20.7,20.7,0,0,0,1.28-9.95c1-.83,1.19-2.28,2.54-2.62h4.39c1.36-1.05,1.56-2.69,1.92-4.15.25-1,.84-1.24,1.64-1.54v-2.39l-.61-.61c-.54-.33-1.19-.07-1.81-.15l-.58-.58c-.23-.13-.26-.26-.09-.39s.18-.13.19-.19c.14-2.48,1.24-5,.68-7.38a28.67,28.67,0,0,1-.45-5.58,5.08,5.08,0,0,1,.48-2.28c.95-2.19.62-4.59.61-6.91,0-2.16.93-4,1.73-6,1.26.38,2.35-.14,3.56.54a4.55,4.55,0,0,0,3.44-.06c1.6-.59,3.53-.56,4.53-2.45v-1c.19-.31.47-.28.73-.27,1-1.58.94-3.34.9-5.24-1.34-1.75-2.49-3.8-4.52-5.12a1.75,1.75,0,0,1-.93-2.11c.14-.2.39-.24.87-.17.63-3.62,4.72-4.26,6.36-7.37-.76-.61-1.15-1.79-2.56-1.49a14.35,14.35,0,0,1-3.56-4.49v-2.43c.39-.64,1.06-.72,1.59-1.05v-1.08c.85-.13,1.06-.93,1.54-1.44.77,0,1,.77,1.52,1.11h2.17c.87-.78.87-.78.24-4.38l-1.72-1.38c-1.09-2.26-.16-4.41.29-6.92l1.47-1.18c.05-2.39-.12-4.53.51-6.65a10.3,10.3,0,0,0,0-2.91l-1-1V169.5c1.34-1.57,3.57-1.06,4.57-2.33.68-.19.78.14,1.08.36,1.15-1.09,2.21-.22,3.09.44a13.26,13.26,0,0,1,2,2.43c.95.07,1.14-1,1.82-1.29.17-1.49-.06-2.87.49-4.31.45-1.18-.33-2.52-1.11-3.6-.21-.29-.6-.46-.38-1a4.8,4.8,0,0,1,4.86-.51c.9.35,2-.12,2.74.76a1.13,1.13,0,0,0,1.06,0c1.25-.77,2.74-.14,3.89-.61,1.44-.59,2.81-.33,4.17-.49,1.55,1.36,3.43,2.11,5.08,3.24a24.5,24.5,0,0,1,2.81,2.46,10.13,10.13,0,0,0,4.74,2.55c4,.89,4.28.92,6.24,4.05a11.47,11.47,0,0,0,1.61,2.07,4.27,4.27,0,0,1,1.36,3.31,19,19,0,0,0,.44,5.31c.28,1.12,1,2,1.23,3.31a4.51,4.51,0,0,0-.56,3.14,5.74,5.74,0,0,0-1.75,2.89,6.76,6.76,0,0,1-6.08.21c-2.39,1.17-1.77,3.78-2.61,5.73l-1.73,1.45v2.48a8.48,8.48,0,0,0-2.66,5.49c-.21,2.08-2,3.49-1.78,5.56l-1,1a3,3,0,0,0,.49,2.24c-.72.88-1.83,1.46-2.19,2.69q0,4.95,0,9.89c0,3-1,4.64-3.92,6.17a4.89,4.89,0,0,0,1.16,2.21v4.36l-3.34,5.12c.51,1.81-.92,3.53-.48,5.38l-1.09,1.09v1.74l-1.07.7c-.4.53.21,1.22-.25,1.65-.52.86-2.17.63-2.09,2.09-.39.41-.88.12-1.34.23l-1.27,1.33c.48,1.39,1.63,2.28,2.62,3.3,0,1.14.31,2.32-.62,3.2l.64.71a4.06,4.06,0,0,0-.75,4.32c.09.43-.54.61-.25,1.3l1,.78c.21,2.91-1.06,5.69-.46,8.43-1.19,1.16-2.13,2.41-3.74,2.58-.25,1.08-1.34,1.95-.24,3.18.36.4.06,1.4.06,1.92a26,26,0,0,1-4.93,4.38c.52,1.33,2.11,1.35,2.77,2.47-.42.68-.49,1.51-1.13,2.06V303c-1.5,1-3.14,1.94-3.86,4.2v1.94c1.3,0,2.3.92,3.69,1.39.07,1.93,2.38,1.48,3.35,2.79.29.52.07,1.16.1,1.78l-.92.92c-.82-1-2.32-.21-3.29-1.25l-2.74,1.07a24.63,24.63,0,0,1-2.9,7.58l.4.38c-1.66,2.27-.78,4.88-1,7.2.71,1,1.91,1,2.44,2h2.33c.78,1.17.78,1.17.78,4.13a32,32,0,0,0-5.5,5.06V346c-2.57,1.29-1.35,3.65-1.66,5.34,1,1.92,1.82,3.64,1.64,5.7l-3.09,3.06c-1.26-.33-1.71.77-2.38,1.37-.22.89.39,1.87-.46,2.65.53.91.26,2.26,1.51,2.75v2.08c-.5,1.72-2.4,1.21-3.17,2.31,1.43,3.19-.74,6.31,0,9.66l.88.77v3c-1,1.32-3.12.39-4.28,2.23a5.17,5.17,0,0,0,1.85,5.13c1.38,1.22,2.95,2.4,2.47,4.85l-1,1.17c-1.86-.91-4.05-.25-6.2-1.25.16,2.94-.47,5.64,1,8.13-.51,1.29-1.69,2.37-1.56,3.94.06.77-.4,1.69.65,2.19-1.28,2.5-.75,5.65-3.33,7.87v1.61c.31,1.78,2.13,2.47,1.44,4.35l-2.56,2.39a1.61,1.61,0,0,0-1.66.83c-.47,1.88,1,3.61.37,5.71-.63,1-2.27.88-3.09,2-.57,1.48.17,2.83.66,4.06a17.4,17.4,0,0,1,1.47,7.94,15.6,15.6,0,0,0,.08,2.95c.23,1.9,2.34,2.07,3.14,3.65s.46,3.31,1.89,4.4c-.39,1.06-1,1.91-.63,2.95l-2.71,1.39c-1.14.18-1.67-.92-2.71-.42l-.7.82c.75,1.93.79,4.23,2.3,6.22a2.94,2.94,0,0,0-.65,2.57c-.69.4-1.34.14-2,.24l-1.32,1.32a9.78,9.78,0,0,1,1.58,6.56l1.09,1.24c.18.8-.87.94-.5,1.64-.76.15-1.33.7-2.13.88a3.09,3.09,0,0,0-1.69,1.47,2.75,2.75,0,0,1-2.37,1.8c-.93.06-.82,1.26-1.55,1.92,1.22.54.91,2.73,3,2.43,1.21-.48,1.3-2,2.32-2.72l.79.79a10.24,10.24,0,0,1-.87,4.87,4.55,4.55,0,0,0-.28,3.41l-1.58,1.69v3.85l.8.8h1.18c0,1.19,1.77,1.56,1.19,3.2a4.87,4.87,0,0,0-2.1.73,1.83,1.83,0,0,1-1.14-2c-.43-.31-1-.24-1.34-.76l-.8.8v11.62c1.28,1.17,2.51,2.45,2.1,4.72-2,.66-4.1,1.49-5.42,3.91a4,4,0,0,0,.53,2.62,6.22,6.22,0,0,1,1.09,4.68l1.08,1.08c.2.8-.25,1.8.61,2.41,0,.15,0,.29,0,.33-.74.62-.51,1.47-.56,2.52l1.65,1.33c.27,2.95-3,2.07-3.77,4.27v3c1.05.52,1,1.89,1.55,3a1,1,0,0,1-.31,1.23,1,1,0,0,0-.17,1.26c1.23,1.75.2,3-.88,4.18-.24.27-.52.52-.79.8v1.72l1.62,1.38h2.58c1,1.59-1.32,2-1,3.46.27,1.11-1,1.88-1.36,3s-1.7,1.86-2.7,2.87h-2.75a3.91,3.91,0,0,0-1.4,2.6,10.47,10.47,0,0,0,1.06,5.91,6.79,6.79,0,0,1-2,2.64c-.44,1,.44,2.28-.81,3a3,3,0,0,1,.45,2.9,8.4,8.4,0,0,0-2.18,3.7c-.46,1.5-1.84,2.72-2.81,4.06-1.39-.3-.39,1.54-1.36,1.38-.13.64.25.82.57,1.21-.29.8-1,1.63-.41,2.72,1.5.41,2,2.37,4.07,2.79l-2,1.34v3.05l1.58,1.1v2.15l1.53,1.44a3.87,3.87,0,0,1,.13.59,6.32,6.32,0,0,0,.49,2.56,6.7,6.7,0,0,1,.55,4.26l-1.06,1.12c1.31.75,1.63,2.33,2.78,3.25,0,1.55-.37,3.24.1,4.64.55,1.63.27,3.18.43,4.35-.53,1.82-1.76,2.64-2.76,3.74a9.74,9.74,0,0,0,3.39,6.58l-4.08,5.2h-3.4a20.77,20.77,0,0,1-2.45-3.28,10.65,10.65,0,0,0-2.56-3.3h-2.71l-3.12,2.65c-.8,1.27,2,1.72,1.1,3.24,2.2,1.13,3.68,2.93,5.56,4.21v2.23c.38.4,1.07.8,1.06,1.19,0,1.1.93,2,.59,3.08s-2.05,1.38-1.59,3l2.11,2v3.5c-.64.89-1.84.9-2.35,1.9-.45,0-.9,0-1.34,0a5.57,5.57,0,0,1-5.23-2.06,4.57,4.57,0,0,0-2.65-1.23l-3.27-3.27v-4.21l-1-1c-.06-.54,1-.62.22-1.42h4.23l1.5-1.42v-1.69l-1-1c-.29-1.24.35-2.67-.84-3.87l1.75-1.4c.45-1.4-.76-2.11-.49-3.14-1.07-1-.68-2.5-1.4-3.55a26.26,26.26,0,0,0-2.25-3,2.61,2.61,0,0,1-.66-2.67c-1.26-1.59-3.05-2.65-3.9-4.76.42-1.23-.66-2.49-.58-3.93a38.28,38.28,0,0,0-.06-4.12c-.26-1.12-2-2.05-.25-3.51h4l.39-1.11h1.72c1.15-1.41,2.95-2.14,4-3.88-.38-1.12-1.54-2-2.55-3v-1.61l2.72-2.29c.08-1.89-1.22-3.17-1.91-4.82a7,7,0,0,0-2.22,1.84c-.67,1.9-1.73,3.21-1.72,4.86h-4.32l-1.9-2.22v-2.5c-1-2.55-3.69-3.74-4-6.44,2.62-1.7,5.27-2.81,8.19-1.42a1.58,1.58,0,0,0,1.26-1.94c-.7-1.08-2.33-1.14-2.79-2.63s-2.29-1.13-3.1-2.2c-.55-2.06-.41-4.36-2.14-6-.65-.61.23-1.67-.59-2.23s-.55-1.25-.8-1.88a16.73,16.73,0,0,1-1-7.28c-.93-.79-.18-2.09-.88-2.94-.47-.58-.13-1.23-.23-1.87l-1.08-1.14v-2.72l2.57-3,1.66-.09c0-.79,1-1.25.79-1.82l-1.69-1.68v-5.58l-1.14-.82v-6.31c1-.76,1.19-2.14,2.44-2.95-1.15-1.15-1.63-2.65-3-3.58-.19-2.42.44-5-1.08-7.24.57-1.19,2.16-1.28,2.75-2.35s1.66-1.44,2.43-2.38c2,.1,4-.31,6,.72.47-1.36,1.78-2.52,0-4-1.79,0-3.71-.17-5.14-1.86a8.1,8.1,0,0,1,1-5.23c.62-1.23,1.45-2.42,1.13-3.95-.12-.55.89-.74.59-1.44a16.72,16.72,0,0,1-1.75-6.47c-.13-2.22-.78-4.41-.44-6.68,1-.24,1.48-1.38,2.61-1.56.27-.87-.37-2.1,1.06-2.57,1.29.43,2.81.7,3.6,2.16h2.79c1.93-1.12.28-2.23.17-3.21-1.84-1.53-3.95-1.7-5.81-2.34-1.74.52-.71,3-2.52,3.37a23.81,23.81,0,0,0-3,0c-1.06.14-1.83-.48-2.84-.78,0-.41-.16-.94,0-1.29a7.11,7.11,0,0,0,.51-3.92c-.11-2.17,1.31-3.58,2.55-5,.38-.43,1-.66,1.35-1.36a9.15,9.15,0,0,0,1.06-3.14c.07-1.19,0-2.39,0-3.58-1.07-1.36-2.82-.68-4.33-1.68a11.69,11.69,0,0,1-1.21-4.62c0-1.77-1-3.46-.4-5.39.79-1.11,2.33-1.78,2.81-3.37a5.2,5.2,0,0,1,2-3.07c.33-1.23-.48-1.67-1.1-2.35.73-1.14.68-2.56,1.13-3.87s2-1.82,2.24-3.21V444.7l3.25-3.2c.48-2.29-.84-4.3-.52-6.5a15.06,15.06,0,0,1,.55-2.81,18.54,18.54,0,0,0,1.16-7.25,20.44,20.44,0,0,1,.07-5.22c.21-1,.82-2.25.37-3-.57-1-.33-1.91-.46-2.86a3.73,3.73,0,0,1,0-.51l1.93-1.92c1.61-.27,3.13-.61,4.14-2-.07-1.41.22-2.83-.51-4.21a3.22,3.22,0,0,1,0-1.9c.2-1.06,1-1.92.12-3.21-.57-.82-.16-2.17-.64-3.29a8.49,8.49,0,0,0-2.71-3.8,3,3,0,0,1-.63-.84c-.08-.14,0-.36,0-.84,1.27-1.8,4.51-2.41,4.41-5.54.76-.86,1.8-1.5,2-3a14.85,14.85,0,0,0-1.56-3.06,2.55,2.55,0,0,1-.43-2.29,44.88,44.88,0,0,1,1.38-4.66,8.94,8.94,0,0,1,2.92-4v-2l-1.91-.11c-.82-.63-.89-1.66-1.27-2.14-.26-1.33,1.16-1.43,1-2.37-.13-.7-1.07-.15-1.25-.82,0-.15-.36-.27-.36-.39,0-1.12-.82-1.91-1.07-2.86a15.18,15.18,0,0,1-.08-3.78c.4-.49.9-.18,1.4-.3,1,1.39,2.54,2.17,3.92,3.31H994l1.31-1.45v-1.52c-1.11-1.14-1.6-3-3.4-3.47-.75-1.71-2.19-3.14-2.09-5.2,0-.73,0-1.47,0-2.29a11.7,11.7,0,0,1,2.89-2.55,3.49,3.49,0,0,0,1.52-2.88c0-1.55,0-3.11,0-4.6L995.6,332c.56.4,1,1.19,1.79,1.19a5.4,5.4,0,0,0,1.45,3.11h2.92a19.65,19.65,0,0,1,5.11-3.34,4.35,4.35,0,0,0-.11-2h-2.28l-2-2C1002.88,327.11,1000.91,326.49,1000.37,325ZM980,583.53c-.82-.81-.68-1.89-.68-2.94s0-2.15,0-3.08a5.12,5.12,0,0,1,2.67-.84l2.18-2.06c.88-2.77-1.48-5-1-7.66-2.09-.52-2.89-2.29-4-3.33h-3.78c.36,1.18-.38,1.76-1.07,2.39,1.62.93,0,2.26.48,3.47s.11,2.86.11,4.74l1.58,1.58a1.58,1.58,0,0,0,0,2.36c-1.08,1.19-.23,2.59-.46,3.49l1.87,2.28C978.68,583.8,979.35,584.18,980,583.53Zm64.06-411c-.55.23-1.21-.18-2,.38-.75.07-.21,1.27-.92,1.56V177c1.37.58,2.42,1.76,4,1.7l1.37-1.37V175Zm-40.61,345.58c.22-.46,1.16-.69,1.25-1.59-.59-1.42-2.08-1.36-3.13-2-1.13.65-.66,1.75-.73,2.69,0,.15.13.3.24.55C1001.85,517.47,1002.19,518.61,1003.48,518.11Zm2-30.18a1.35,1.35,0,0,0,.49-2.1l-1-1.75c-.83.1-1.38-.11-1.81.16a1.5,1.5,0,0,0-.63,1.9C1003.33,487.08,1004.62,487.09,1005.52,487.93Zm-14,143.1c.73.54.42,2.05,1.83,2a3.5,3.5,0,0,0,1.33-2.05l-.41-.41.53-.58-1-1c-.28-.28.09-1-.66-1C991.19,628.25,992.7,630.37,991.52,631ZM1031,340.81c.21-1.21,1.65-2.3-.1-3.28h-2.64c.64.87-.58,1-.4,1.73A5.17,5.17,0,0,0,1031,340.81Zm-12.89-42.37c-.6-.19.12-1.21-.5-1.88-.87.78-2.5.24-3.1,2,.9.4.56,1.82,1.58,2ZM1005.85,554.1c-.15-1.27-.15-1.27-.73-2h-3c-.59,1,0,1.5.59,2Zm-18.18,72.79c1.23.18,1.94-.14,2.18-1.19-.91-.86-.91-.86-2.18-.78Zm35.56-373.75c1.2-.21.88-1.36,1.32-2.15-.58.09-1.07-.35-1.67.18C1023.14,251.74,1022.56,252.46,1023.24,253.14Zm-5.31,73.28a1.53,1.53,0,0,0,1.2,1.67c.56-.12.5-.49.48-.86Z"/>
      <path class="cls-1" d="M774.37,536.84c1,1.19-.56,2.27-.15,3.47s-1,2.31-.48,3.5l-2.55,2.51c-2.43.51-4.76,2.24-7.32.44a4.7,4.7,0,0,0-.67-2.09l.63-.94c-1-1.27-.48-2.75-.61-4a18.38,18.38,0,0,1,4.19-4.85l.47.47a4.59,4.59,0,0,1,3.91-1.59l1.24-1.5c-1.11-1.27-.08-2.37.42-3.54,1.84-1.65,4.06-.85,6.07-1.09.86,1.67-.56,3-.3,4.51-.46,1.19-2,1.29-2.49,2.24S774.85,535.63,774.37,536.84Z"/>
      <path class="cls-1" d="M628.52,696.13c1.14,1.71-.84,3.34-.38,5-.55.45-1.13.13-1.62.28a7.88,7.88,0,0,0-1.24.63c-1.07-1.32-2.86-1.4-4.2-2.53a4.07,4.07,0,0,0-.67-2c.76-2.34,3.63-3.5,3.34-6.36a4.06,4.06,0,0,1,3.27-1.33c1.21.17,1.75,1.36,2.76,2C630.12,693.39,628,694.26,628.52,696.13Z"/>
      <path class="cls-1" d="M722.37,625a3.28,3.28,0,0,0-.65-2.71l2-1.86c.37.15.9.73,1.72.43l1.3,1.41c.77,1.51-.95,2.23-1.19,3.46C724.34,626.21,723.41,625.46,722.37,625Z"/>
      <path class="cls-1" d="M408.68,741.93c.17,1-.48,1.63-.79,2.41-.57.22-.82-.23-1.13-.51l-.45.4-2.59-2.46c-.17-1,.58-1.57.83-2.33C406.68,739.06,407.27,741.16,408.68,741.93Z"/>
      <path class="cls-1" d="M979.15,652.78h-2.94c-.13-.82-.92-1.37-.68-2.41l.59-.67c1.42-.7,2.49.53,3.7.46C980.21,651.3,979.4,651.94,979.15,652.78Z"/>
      <path class="cls-1" d="M801.36,435c1,.65,2.1.94,2.55,2.09l-1.37,1.22h-1.61l-1.42-1.52A3.34,3.34,0,0,1,801.36,435Z"/>
      <path class="cls-1" d="M1039.72,164.85h-1.64a1.71,1.71,0,0,1-.81-2l.79-.72h1.72C1040.82,163,1040.89,163.87,1039.72,164.85Z"/>
      <path class="cls-1" d="M660,470.08l1.69-.86c.83.08,1,1,1.64,1.24v1.87c-.46.35-.92.15-.71.13Z"/>
      <path class="cls-1" d="M636.64,705.68l.84,1c.11.7-.42.86-.71,1.27h-2.38c-.41-.38-.18-.9-.11-1.4C635,706,636.14,706.87,636.64,705.68Z"/>
      <path class="cls-1" d="M766.57,528.4v-2.66a1.72,1.72,0,0,1,2.22-.71C767.78,526,768.45,527.78,766.57,528.4Z"/>
      <path class="cls-1" d="M343.66,776.48c1.59-.91,1.59-.91,2.71.37-.06.61-.53.87-1.1,1.22A4.12,4.12,0,0,1,343.66,776.48Z"/>
      <path class="cls-1" d="M678.84,669.45,680,671c.13.56-.62.69-.81,1.21l-1.34-1.36Z"/>
      <path class="cls-1" d="M977.89,673.74h-1.62c-.44-.43-.06-.92-.26-1.29.48-.54,1-.3,1.52-.23C977.92,672.61,977.55,673.1,977.89,673.74Z"/>
      <path class="cls-1" d="M955.12,434.19c.38-.24.53-.77.93-.8.7-.06.79.57,1.4.76l-.9.87C955.7,435.12,955.48,434.55,955.12,434.19Z"/>
      <path class="cls-1" d="M802.77,452a2.41,2.41,0,0,1,2.31-.74V452A3.59,3.59,0,0,1,802.77,452Z"/>
    </g>
    <path class="cls-2" d="M1766.58,496.82h13c13.52,0,23.18,0,23.18-15.94V345.16c0-15-17.87-17.87-25.12-21.74v-7.24c35.26-15,54.58-27.53,58.93-27.53,2.9,0,4.35,1.45,4.35,6.28V338.4h1c12.08-18.84,32.36-49.75,61.82-49.75,12.08,0,27.53,8.21,27.53,25.6,0,13-9.18,24.63-22.7,24.63-15,0-15-11.59-31.88-11.59-8.21,0-35.26,11.11-35.26,40.09V480.89c0,15.94,9.66,15.94,23.18,15.94h27v12.56c-26.57-.48-46.85-1-67.62-1-19.8,0-40.09.48-57.48,1Z"/>
    <path class="cls-2" d="M1954.47,496.82h13c13.52,0,23.18,0,23.18-15.94V345.16c0-15-17.87-17.87-25.12-21.74v-7.24c35.26-15,54.58-27.53,58.93-27.53,2.9,0,4.35,1.45,4.35,6.28V338.4h1c12.08-18.84,32.36-49.75,61.82-49.75,12.08,0,27.53,8.21,27.53,25.6,0,13-9.18,24.63-22.7,24.63-15,0-15-11.59-31.88-11.59-8.21,0-35.26,11.11-35.26,40.09V480.89c0,15.94,9.66,15.94,23.18,15.94h27v12.56c-26.57-.48-46.85-1-67.62-1-19.8,0-40.09.48-57.48,1Z"/>
    <path class="cls-2" d="M2146.22,496.82h9.18c13.52,0,23.18,0,23.18-15.94V350c0-21.25-7.24-24.15-25.12-33.81v-7.73c22.7-6.76,49.75-15.94,51.68-17.39a17,17,0,0,1,8.69-2.41c2.41,0,3.38,2.9,3.38,6.76V480.89c0,15.94,10.63,15.94,24.15,15.94h8.21v12.56c-16.42,0-33.33-1-50.72-1s-34.78.48-52.65,1Zm51.68-282.56c-12.56,0-23.67-11.59-23.67-24.15,0-12.08,11.59-23.19,23.67-23.19,12.56,0,23.67,10.14,23.67,23.19S2210.94,214.27,2197.9,214.27Z"/>
    <path class="cls-2" d="M2758.19,490.55c-13.52,12.56-28.5,26.08-47.82,26.08-19.8,0-29-18.36-29.95-35.74-22.7,20.77-44.44,35.74-74.38,35.74-30.91,0-52.17-21.25-52.17-46.85,1.93-38.64,21.74-45.89,126.07-81.63V356.27c0-27-15.94-41.54-46.85-41.54-21.25,0-35.74,12.08-36.71,33.81,0,13.52-15.46,20.29-27,20.29-7.24,0-8.69-6.28-8.69-9.66,0-25.6,21.73-37.67,55.55-55.06,16.91-8.69,25.12-15.46,43.47-15.46,21.74,0,58.93,14,58.93,40.57V463c0,19.8,6.76,27.53,17.39,27.53a23.93,23.93,0,0,0,17.87-8.21Zm-78.25-88.39c-24.63,9.66-87.43,20.77-87.43,57,0,18.84,15.46,34.78,34.29,34.78,22.7,0,37.19-14,53.13-28Z"/>
    <path class="cls-2" d="M2767.78,290.1c22.22-7.25,46.37-20.77,46.37-47.34,0-19.32-12.08-20.29-24.15-20.29-12.56,0-24.63-2.9-24.63-25.12,0-17.87,13.52-25.12,29.46-25.12,29.95,0,44.92,26.08,44.92,53.13,0,41.06-30.43,65.69-67.14,76.32Z"/>
    <path class="cls-2" d="M2844,442.24c6.28,31.88,25.6,58.93,60.86,58.93,28.5,0,39.12-17.39,39.12-34.29,0-57-105.3-38.64-105.3-116.4,0-27,21.74-61.82,74.87-61.82,15.46,0,36.23,4.35,55.06,14l3.38,49.27h-11.11c-4.83-30.43-21.74-47.82-52.65-47.82-19.32,0-37.67,11.11-37.67,31.88,0,56.51,112.06,39.12,112.06,115,0,31.88-25.6,65.69-83.08,65.69-19.32,0-42-6.76-58.93-16.42l-5.31-55.54Z"/>
    <path class="cls-2" d="M1641.21,538.5c.61-9.32,1-14.69,4.49-18.14,2.73-2.73,7.93-3.81,10.07-4,36.12-2.6,61.83-26.54,82.8-54.35l-6.76-6.76c-17.87,17.87-38.64,32.36-65.21,32.36-38.64,0-68.1-37.67-71-83.56-1-16.42-1-23.67,0-28h135.73l4.35-2.9a52.53,52.53,0,0,0,.48-8.69c-.48-51.2-42.5-75.83-81.63-75.83-33.81,0-97.57,28-97.57,122.68,0,22.18,8,66.75,40.84,90.16L1463,765.52,1398.24,497c96.13-31.9,114.29-117.25,114.29-155.73,0-85.49-68.1-169.05-193.2-169.05-35.74,0-63.27,1-83.56,1-18.84,0-38.16,0-57-1V184.8c21.73.48,44.44-2.42,44.44,41.06V460.12c-1.45,32.84-15.46,33.81-44.44,36.71v12.56c21.73-.48,43-1,64.72-1,22.7,0,45.4,1,70,1,7.92,0,13.66-.42,22.84,1s16.45,7.93,21.32,21.39l-59.89,239.57c-10.63,42-19.32,46.37-46.37,46.37h-5.31l-2.41,12.56c21.74-.48,44-1,65.69-1,14,0,28,1,42,1l2.41-12.56H1334.5c-15.94,0-19.32-7.73-19.32-18.84,0-4.35,1.45-9.18,2.41-14l52.65-224.11h1L1435,830.24h16.42l146.83-286.42h1l-17.87,240.05c-2.41,29.95-13,33.81-41.06,33.81h-5.8L1532,830.24c23.18-.48,46.37-1,69.55-1,20.77,0,42,1,62.79,1l2.41-12.56h-7.73c-26.08,0-34.78-8.69-33.33-34.78Zm11.39-234.4c27,0,42,19.8,42,44.44,0,5.8-1.45,12.08-13.52,12.08h-84C1602.84,325.84,1623.13,304.11,1652.6,304.11ZM1270.53,452.39V189.63c8.69-.48,17.87-1.93,37.67-1.93,93.22,0,151.18,65.21,151.18,155.53,0,70.47-32.89,147.42-132.22,150.58-5.78-.14-17.39-.3-17.39-.3C1289.58,491.82,1270.53,483.88,1270.53,452.39Z"/>
    <path class="cls-2" d="M1892.85,610c1.93-3.38,4.83-9.66,10.63-9.66h10.14c2.9,0,4.35,1,4.35,2.41,0,1-.48,1.93-1,3.86l-47.82,171.47a33.34,33.34,0,0,0-1.93,12.08c0,3.38,1.45,6.76,5.8,6.76,14,0,26.57-20.29,35.74-28.5l7.73,6.28c-18.84,19.8-46.85,62.79-77.28,62.79-7.25,0-16.42-3.86-16.42-13.52,0-8.21,3.86-21.74,8.21-35.26l13.52-42.5-.48-1.45c-24.63,37.19-69.55,92.74-108.19,92.74-29.46,0-36.71-22.7-36.71-40.09,0-76.8,94.19-187.89,156.49-187.89,12.08,0,23.18,6.76,30.43,15.94ZM1759.54,801.74c46.85,0,106.74-101.92,106.74-144.9,0-12.08-11.59-24.63-24.15-24.63-52.16,0-107.23,88.39-107.23,136.21C1734.91,784.84,1740.7,801.74,1759.54,801.74Z"/>
    <path class="cls-2" d="M1947.91,674.23c12.08-17.87,49.27-64.72,72.93-64.72,12.08,0,19.8,5.31,19.8,18.35,0,5.31-1.93,14.49-4.83,25.12l-18.35,66.17h1c13-24.63,58.44-109.64,88.87-109.64,10.14,0,15,5.8,15,16.42,0,11.11-5.31,35.74-20.29,35.74-5.8,0-12.08-1.93-17.87-1.93-33.33,0-67.62,93.7-83.56,143l-8.69,30.91c-1,3.38-8.69,3.86-17.39,3.86-6.28,0-15.46-4.35-15.46-8.69a14.13,14.13,0,0,1,1-4.35l38.16-133.31c2.41-7.73,5.8-21.25,5.8-28.5,0-5.31-2.9-12.56-9.18-12.56-13,0-32.84,22.7-40.57,32.36Z"/>
    <path class="cls-2" d="M2283.12,823.48c22.22,12.08,37.67,20.29,37.67,48.3,0,48.78-68.59,68.59-107.71,68.59-34.29,0-99.5-8.69-99.5-55.55,0-35.26,48.78-55.06,75.83-65.69-9.18-5.8-27-13-27-26.56,0-18.35,26.08-32.84,39.12-41.54-26.08-14.49-41.06-29.46-41.06-60.38,0-45.4,48.78-81.14,94.19-81.14,28.5,0,39.12,8.69,63.76,15,3.38,1,7.24,2.41,10.14,2.41,5.8,0,11.11-2.9,15.94-5.8s9.66-5.8,15-5.8c6.28,0,7.73,7.25,7.73,14,0,8.69-3.86,17.87-11.59,17.87-10.14,0-19.8-10.63-38.16-12.56,10.63,11.59,15.46,25.6,15.46,40.57,0,50.72-50.23,83.08-97.57,83.08a171.75,171.75,0,0,1-22.22-1.45c-4.35,1.45-15,12.08-15,16.91,0,6.28,4.35,8.21,9.18,10.63Zm-79.21,1.93c-9.66,3.38-58.44,24.63-58.44,51.68,0,36.23,44,47.82,73.42,47.82,23.19,0,70-7.73,70-39.12,0-13-11.11-22.7-23.67-29Zm56-203.35c-39.12-1.93-60.86,48.78-60.86,80.66,0,23.19,8.69,43,35.26,43,38.64,0,59.89-49.75,59.89-82.59C2294.23,642.83,2285.05,622.06,2259.93,622.06Z"/>
    <path class="cls-2" d="M2512.34,487.65c-18.84,0-23.67,0-23.67-19.8V147.13c0-3.86-1-6.76-3.86-6.76-1.45,0-5.31,2.41-10.63,5.31-10.14,5.8-30.43,14.49-49.75,20.77v7.73c18.35,5.31,25.6,6.28,25.6,37.67v85.49a120.55,120.55,0,0,0-45.4-8.69c-66.65,0-119.3,58-119.3,123.17,0,54.1,31.88,104.81,89.84,104.81,29.46,0,56.51-17.39,73.9-35.26h1v22.22c0,3.45.42,14,.42,16.08,0,11.11,10.63,21.73,22.22,21.73s22.22-10.63,22.22-21.73c0-7.93,1.25-16.55,9-18.88a156.68,156.68,0,0,1,16.18-3.48h.48v-9.66ZM2450,459.15c0,17.87-32.36,28.5-46.85,28.5-44,0-76.32-39.61-76.32-92.74,0-65.21,37.67-90.81,72-90.81,21.25,0,51.2,8.69,51.2,44.44Z"/>
    <path class="cls-2" d="M2472,648.63c2.41-7.25,6.76-19.8,6.76-27s-3.38-12.07-15-12.07c-27.53,0-62.31,41.54-76.32,62.79l6.76,6.76c5.8-7.73,24.15-30.91,34.29-30.91,3.86,0,5.8,2.42,5.8,5.8,0,4.35-1.93,11.11-4.35,17.87L2388.42,794.5c-2.9,9.66-5.31,17.87-5.31,23.67,0,11.11,4.35,19.32,18.35,19.32,27.53,0,61.82-43.47,76.8-63.76l-7.73-6.28c-4.83,5.31-29.95,31.39-36.71,31.39-4.83,0-6.28-2.41-6.28-7.24,0-4.35,1.93-11.11,4.83-20.29Z"/>
    <path class="cls-2" d="M2512.55,670.36c18.35-22.7,52.16-60.86,84-60.86,11.59,0,16.42,7.24,16.42,16.42,0,8.21-3.38,17.39-5.31,23.18L2582.59,722h1c23.18-33.33,94.67-113,142-112.54,15,0,19.32,9.18,19.32,19.8,0,7.73-2.42,16.91-4.83,23.67L2701.4,759.24c-4.35,11.59-7.24,19.32-7.24,25.12s1.93,10.14,8.69,10.14c13,0,34.29-22.7,41.54-33.81l8.21,6.28-17.39,21.25c-16.91,20.77-40.57,42-67.14,42-12.56,0-18.35-7.25-18.35-15.94,0-7.73,1.45-15.94,6.76-29.95l37.68-102.88c1.45-4.35,6.28-17.39,6.28-24.15,0-6.28-5.8-9.18-11.11-9.18-27,0-54.58,32.36-70.52,50.23a284.32,284.32,0,0,0-60.38,98.53l-9.66,27.53c-1.45,3.86-12.08,5.31-17.87,5.31-4.83,0-13-2.9-15.46-6.28L2562.78,681c2.9-9.18,5.8-18.35,5.8-24.15,0-4.83-1.93-8.69-7.73-8.69-10.14,0-19.32,7.73-28,16.42l-13,14.49Z"/>
    <path class="cls-2" d="M2790.76,769.86c4.83,27.53,36.23,38.64,61.34,38.64,13.52,0,43-3.38,43-21.74,0-33.33-70.52-54.1-84.53-85.49-3.38-6.76-4.35-15-4.35-22.22,0-25.12,33.81-46.85,52.65-58.93,13-8.21,20.29-10.62,35.74-10.62,19.8,0,42,5.31,42,29,0,5.8-4.35,21.73-10.14,21.73h-5.8c-3.86,0-4.83-3.38-6.76-7.25-4.35-9.18-23.67-17.39-39.61-17.39-16.42,0-36.23,8.69-36.23,27.53,0,39.61,85.49,50.23,85.49,100.47,0,18.84-18.84,39.61-31.4,51.68-15.94,15.94-35.26,22.22-57.48,22.22-23.18,0-61.34-6.76-61.34-37.67,0-11.11,5.8-20.29,11.11-29.95Z"/>
    <g class="cls-3">
      <rect class="cls-1" x="-0.25" y="880" width="200" height="200"/>
      <rect class="cls-1" x="-0.25" width="200" height="200"/>
      <rect class="cls-1" x="2982.75" y="880" width="200" height="200"/>
      <rect class="cls-1" x="2982.75" width="200" height="200"/>
    </g>
  </g>
</svg>
