<svg xmlns="http://www.w3.org/2000/svg" viewBox="0 0 1080 1080"><title>derrida_VI_logo_arrow</title><g id="_1" data-name="1"><path d="M423.124,660.794l-1.66-1.659c.305-.276.591-.761.91-.784,1.273-.091,2.556-.038,3.825-.038.187,1.01.963,1.524,1.581,2.179a1.541,1.541,0,0,1,2.362-.025l2.055-2.061a1.465,1.465,0,0,1,.768-2.316,1.723,1.723,0,0,1,1.512.515c.76-.539.894-1.577,1.907-1.981.809-.322.771-1.474,1.282-2.376a4.252,4.252,0,0,0,.942-.018,1.216,1.216,0,0,0,.643-.417,8.806,8.806,0,0,0,.639-1.114c1.472,1.734,3.41.318,4.7,1.549.456.076.585-.364,1.037-.647.844.964,2.042.572,3.125.658l.737-.737v-2.208l2.565-2.538a2,2,0,0,0,2.1-1.1h4.043c1.162,1.956,3.464,1.383,5.82,1.988.071-.011.261-.57.679-.861a2,2,0,0,1,1.34.07l.186.888c.577-.251,1.143-.719,1.878-.448l.862.914c1.88.729,3.472-.87,5.157-.358a4.8,4.8,0,0,0,.835-3.522c1.6-1.043,2.121-3.153,5.17-3.613a12.1,12.1,0,0,0,6.227-1.636c.487.379.813.978,1.7,1.08a7.9,7.9,0,0,1,3.375,1.1c1.321.874,2.275.311,3.362-.336v-2.763l1.55-1.364c.428,0,1.29.268,1.661-.045,2.1-1.775,4.337-.429,6.536-.463.887,2.027-1.315,3.563-.881,5.516.281,1.052,1.775,1.285,1.664,2.637h2.742c-.158-1.808.457-3.673-.849-5.452.869-.846,1.724-1.522,1.715-2.465,2.683-.88,4.756.43,6.956.831a.625.625,0,0,1,.424.278c.613,1.562,2.12,1.877,3.436,2.247,1.1.309,1.225,1.457,1.969,1.814.88.422,1.312,1.213,2.106,1.721a1.691,1.691,0,0,0,1.879-.885,4.481,4.481,0,0,1,1.432-4.127c1.572.695,3.552.241,5.074,1.375.713.532,1.393.238,2.082.312,1.58.169,3.194-.283,4.749.531a11.208,11.208,0,0,1,2.479,1.848c.49.464.981.358,1.5.392a4.947,4.947,0,0,0,1.7-2.851c.384-1.277.73-2.344,2.331-2.52.883-.246,2.022.18,2.915-.812,1.371,1.769,2.816-.663,4.2.3l1.753,2.774c-.154.531-.9.921-.242,1.691L553.747,643c.281,2.818,2.051,4.451,3.853,6.131v3.045a5.518,5.518,0,0,0,4.327,3.778l1.2-1.12.791,1.363.662-.662c1.076,1.826,3.138,1.568,4.79,2.151a5.927,5.927,0,0,1,1.78,1.155h2.07l1.51-1.3c.14-1.308-1.008-2.162-.459-3.232a4.7,4.7,0,0,0-3.642-2.07c-1.9-1.49-1.994-3.61-1.94-5.838a6.727,6.727,0,0,1-2.8-4.565c.2-.812.978-1.091,1.385-1.695h2.843c1.232,1.266,1.442,3.41,3.358,4.252l.368-.3c.826.743,1.878.318,2.78.47.743-.522,1.318-1.33.836-1.888-.815-.944-.289-1.914-.522-2.789.768-.987,2.162-1.079,2.795-2.525.2-1.654-.672-3.417-1.172-5.245-.055-.2-.593-.269-.926-.407a4.131,4.131,0,0,1-.072-1.842c.612-.531,1.434.076,2.084-.411.045-.409.093-.843.151-1.373h3.417l1.132-1.132h1.777c.408.395.115.882.249,1.461,3.307.965,6.036,3.3,9.316,4.544,1.51-.318.871-1.962,1.683-2.722-.157-.829-.795-1.084-1.5-1.256-.222-.993-1.262-1.811-.556-3,.693-.842,2.031-1,2.546-2.174l-.355-.355c-.161-.462.648-.576.263-1.388l-.953-.459c0-2.183.063-3.925-.018-5.66-.076-1.622,1.244-3.057.442-4.576a5.254,5.254,0,0,1,3.338-1.749l1.757-1.895a17.854,17.854,0,0,0-.436-4.053c-.309-.938.543-2.258.873-3.408a1.364,1.364,0,0,0-.485-1.768c1.15-.764,1.61-2.051,2.484-3.016h1.1c1.37-1.745.695-3.787.912-5.91a21.31,21.31,0,0,0,5.436-6.026c.242-.4.034-1.072.034-1.857l-1.05-.727a1.711,1.711,0,0,1,.851-2.032,1.154,1.154,0,0,1,.735.234c.735.509.476,1.814,1.612,1.971a13.785,13.785,0,0,0,4.469-10.627c1.792-2.052,2.494-4.893,4.6-6.364.569-.59.234-1.083.391-1.512l1.084-1.084c-.19-.93.159-1.944-.259-3.043-.761-2-.284-3.179,1.508-4.379.9-.606,1.239-1.7,2.061-2.328.677-.521-.293-1.415.536-1.816-1-.776-.372-1.855-.577-2.807,1.506-.977,1.92-2.842,3.315-3.755v-1.728l-1.039-1.039v-2.323a18.979,18.979,0,0,1,2.079-1.831c.78-.526,1.659-.871,2.443-1.455a3.272,3.272,0,0,1,2.42-.81,22.553,22.553,0,0,0,3.163.034,1.682,1.682,0,0,0,.854-1.954l-2.233-2.233a17.07,17.07,0,0,1,3.528-9.65c.916.29,1.944-.4,2.776.516.791-.895,1.521-.249,2.14.2l.718-.654c.494.79,1.289.478,2.2.561l1.446-1.887c.114-.65-.967-1.516-.577-2.687-.6-.63-1.028-1.447-2.033-1.562-.334-1.256-1.239-2.553-.707-3.783a8.769,8.769,0,0,0,.461-3.567,3.4,3.4,0,0,1-1.073-2.393c.166-1.586-.451-3.253.3-4.625l-2.177-2.175c-2.671.92-4.315,3.771-7.272,4.827-.491-.264-1.3-.339-1.732-1.077-.273-.443.55-.371.368-.7.265-.826-1.086-.92-.491-1.646-1.955-1.276-3.963-.639-5.8-.819l-.735.735a9.181,9.181,0,0,0,1.1,6.142c-.477.93-.629,1.827-1.375,2.4-.44.059-.579-.665-1.117-.427-.46.1-.36.508-.4.914-.752.379-1.589.03-2.5.257-.527-1.606-2.285-2.059-3.076-3.616-.712-1.4-2.243-2.388-3.42-3.566-1.483-.139-2.971-.269-4.391,1.028a12.46,12.46,0,0,1,2.943,2.5,2.469,2.469,0,0,1-.5,1.736c-.281.477.195,1.334-.669,1.738h-3.616l-2.6-2.613c-.443-.173-.936.16-1.395-.267-.016-.292-.035-.644-.061-1.133l1.6-1.6c.342-1.509-.784-1.825-1.275-2.533a5.622,5.622,0,0,0-3.972,1.057,10.021,10.021,0,0,1-3.973,1.677,6.367,6.367,0,0,0-3.937,2.431,4.255,4.255,0,0,1-.356.4c-.517.523-1.038,1.041-1.558,1.561-1.906.03-2.1-2.116-3.491-2.742a2.632,2.632,0,0,0-.82.019,1.189,1.189,0,0,0-.611.5c-.625,1.126-1.876,1.836-2.127,3.207-2.964.528-5.875-.185-9.025-.54l-1.858-2.29c.015.139-.033-.3-.079-.706-.534-.337-1.091-.122-1.618-.186-1.288.3-1.356,1.852-2.543,2.394A3.876,3.876,0,0,0,572,510.2c-1.816.781-1.69,2.387-1.645,3.971-.945.632-1.41,1.95-2.849,1.952-1.237-1.483-2.1-3.222-3.511-4.473-2.125.051-3.117-1.606-4.406-2.746-.567,0-1.332-.232-1.626.042a2.84,2.84,0,0,1-3.085.4c-1.976-.89-3.915-.143-5.774-.493-.874,1.479.62,2.625.289,3.929l-2.655,2.332c-2.4,1.038-4.986-.687-7.674-.07a28.278,28.278,0,0,0,2.188,5.484c-1.51,1.807-3.024,3.149-5.335,2.587-2.251-.378-2.055-2.89-3.572-3.974-.015-1.025-.325-2.113.514-3.032-.517-1.009-.815-2.17-2.2-2.786-1.268.4-2.612-.72-4.158-.6-1.46.113-2.936.024-4.4.024l-1.375,1.376v4.487a6,6,0,0,1,3.255,1.508v1.506c-2.426-.318-4.854.491-7.233-.6-1.037.011-.682,1.421-1.68,1.713-.7.205-1.226,1.026-1.828,1.57-1.4.053-2.6.828-3.917,1.182-1.674-.818-2.986-2.433-5.116-2.231-.133,1.069,1.211,1.806.186,2.837-.664.668.127,1.767-.388,2.56-.814.3-.942-.185-.972-.852l-8.5-1.728a1.605,1.605,0,0,0-.853,1.3,4.279,4.279,0,0,1-2.883,3.419,29.535,29.535,0,0,1-3.135.878c-.285,2.007-2.577,1.867-3.7,3.124-.637.226-.809-.743-1.5-.523-.439.447-.438,1.289-1.183,1.621h-.905c-2.263,2.148-2.811,5.175-4.237,7.5-2.106.815-3.843-.624-5.862-.295-1.358-1.818-3.392-2.832-5.887-3.894a6.62,6.62,0,0,0-4.267,1.244,4.916,4.916,0,0,1-3.168.955,2.267,2.267,0,0,0-1.7.562,10.37,10.37,0,0,1-3.947-2.1c-.379-.777-.794-2.127-1.438-3.264a24.231,24.231,0,0,1-1.436-3.556c-.3-.79-1.145-1.374-1.752-2.056-1.564.243-2.864-1.158-4.4-.457l-2.014-2.285c-.553-2.2.574-4.535.534-6.939l-.992-.968a2.215,2.215,0,0,1-.133-.517,15.656,15.656,0,0,1,.458-3.93c.34-1.323,1-2.681.651-4.162-.225-.946.532-1.565.911-2.3a1.137,1.137,0,0,1,1.229.875c-.041,2.359,1.584,3.67,3.017,5.11a7.568,7.568,0,0,0,.98.739,1.726,1.726,0,0,0,.766,2.091,1.68,1.68,0,0,0,1.885-.806l-.5-.552c-.207-.583.453-.8.494-1.178a24.708,24.708,0,0,0,.032-2.688c-2.028-2.233-.975-6.276-.017-9.365l-1.088-1.15c.054-.819-.235-1.7.963-2.457,2.157-.139,4.573,1.095,7.177.423.324-.653.043-1.483.145-2.3l-1.1-1.165v-1.235h4.678c.1-1.23,1.345-1.219,1.891-2.039v-4.313c.982-1.544,2.961-1.521,4.1-2.64,1.163-1.144,3.169-.957,3.846-2.85l2.008,2.424a5.9,5.9,0,0,1-.788,3.893c1.426.831,1.374,2.362,2.028,3.6.567.31,1.2.1,1.794.126.962-1.227.912-2.649.81-4.185.426-.4.89-.836,1.364-1.266a4,4,0,0,1,2.834-1.158c3.675.037,7.351.014,11.026.014.276,0,.677-.119.807.018,1.078,1.141,2.1.119,3.147-.019.172-.023.342-.06.513-.091.239-1.5,2.061-1.713,2.4-3.134h5.7c1.82,1.832,2.044,4.565,3.862,6.471h2.55l3.081-3.084c-.621-.442-.2-1.323-.349-2.133-.956-.95-2.057-1.879-2.28-3.366-.243-.36-.777.043-.822-.1a1.067,1.067,0,0,1,.384-1.446c0-1.107,0-2.209,0-3.312a5.81,5.81,0,0,1,2.19-1.393l1.36,1.654h2.835c.17.411.236.942.441,1,1.135.338,1.162,1.625,2,2.19-.012,1.625,1.311,2.095,2.344,2.929a39.914,39.914,0,0,0,4.215,2.454,3.533,3.533,0,0,1,.439-.93c2.071-2.382,2.1-2.552,4.69-3.165a3.363,3.363,0,0,0,2.54-2.141,3.133,3.133,0,0,1,2.1-2.429c.391-.142.66-.621.977-.938,1.645-.481,3.087.682,4.722.521,1.547-.152,3.121-.032,4.8-.032.134,1.051,1.541.756,1.914,1.856.258.764,1.261,1.145,1.953,1.67.873.663,2.1-.263,2.655.827,1.225-.93,2.663-.211,3.936-.522a11.511,11.511,0,0,0,3.6-1.414,7.326,7.326,0,0,0,1.122-2.244A2.427,2.427,0,0,0,562.588,476a6.888,6.888,0,0,1,1.2-3.986c2.915-.513,5.046,2.014,7.845,2.163,1.29-.728.759-2.793,2.922-3.43a1.068,1.068,0,0,0,1.232-.144c.561-.618,1.237-.063,1.96-.527.313.508.6.975.756,1.227.755.086,1.2.209,1.611-.026a1.591,1.591,0,0,0-.256-1.729c-.373-.477-.179-1.2-.075-1.809l1.318-1.317c.983.191,2.168-.4,3.282.469.348-.023.511-.678,1.036-.458,1.189-.992.837-2.4.917-3.593.276-.276.469-.638.666-.641,3.189-.035,6.378-.025,9.723-.025.874.576.77,1.521.479,2.508l-.881.23v2.277l-2.826,2.826c0,.552,0,1.1,0,1.64.414.784,1.35.821,2.015,1.4.485-1.223,2.215-1.271,2.6-2.7h1.878l1.349,2.114c3.746.5,7.412,1.778,11.214,1.7a1.988,1.988,0,0,0,.2-1.433,4.432,4.432,0,0,0-1.31-.835c-2.221-.852-4.2-2.237-6.437-3.093-.377-.145-.87-.067-1.169-.542a5.666,5.666,0,0,0-.96-1c-.026-.814.526-.953.762-1.329.853-.344,1.331,1.021,2.154.519.486-.2.319-.64.517-1.031h4.677c1.825,1.4,4.143,2.358,5.88,4.258h1.823l.5-1.019h2.093l3.824-3.957c1.253,1.351,3.15-.177,4.183,1.335,1.187-.78,1.723-2.113,3.069-2.362h8.254c1.3-1.23,2.873-1.242,4.494-1.047,1.279,1.776.586,3.819.779,5.636,1.113,1.871,3.253,1.075,4.747,1.9l1.309-1.244c-.075-1.264.308-2.561-.611-3.631,1.665-1.07,1.665-1.07,4.278-1.066,2.857.791,3.411,3.3,5.157,4.68l-.557.557,2.435,2.406h2.133c1.336-.493,2.324-1.305,3.527-1.836a3.138,3.138,0,0,1,3.394.512c1.308.9,2.762,1.688,3.573,3.064h5.032c2.725,2.255,5.616,4.24,7.983,6.887.038,2.192,1.582,3.6,3.187,4.6a3.663,3.663,0,0,1,1.849,3.161c1.455,1.413,3.017,2.763,3.646,5.087l-1.3.412.443.46c-.315.905.206,1.876-.522,2.837-.6.788-.058,2.084.52,2.689a17.531,17.531,0,0,1,2.684,4.084v1.864c-1.173,1.753-2.181,3.643-4.607,3.179l-1.563,1.5a13.276,13.276,0,0,0,2.867,3.72v4.476l-.878.8c-1.906-.513-3.86-1.386-6.029-1.061-1,1.884-2.674,3.372-3.64,5.586,1.612,1.088,1.06,3.552,2.8,4.53.249,1.282-1.051,2.108-.325,3.409.715.1,1.088.852,1.308,1.757l-.4.43c1.12,3.169.531,6.305-.1,9.44l-.988.988v3.366c.922.429.993,1.55,1.667,2.294-.227.531-.462,1.076-.708,1.649-2.346,1.207-4.753.855-7.066.094-1.973,1.042-.844,2.44-.5,3.679l-1.1.452c.033.93-.277,1.927.4,2.906l-.392.448a3.916,3.916,0,0,1,.981,3.431l-.824.32c-.269,1.487-.332,2.361.337,3.038l-2.234,1.936c-.962.9-1.1-.8-2.076-.92-.313-.905.358-2.016-.571-2.817.071-.311.593-.387.409-1.211-1.582-1.234-2.789-3.231-4.322-4.96-.235-1.527,1.5-2.111,1.676-3.633.038-.39-.58-.488-.731-.923h-4.584c-.5.58-1.1,1.269-1.776,2.05.246.739-.83,1.361-.653,2.27.5,1.407,2.617,2.419,1.038,4.4h-2.226c-1.883,1.278-2.058,3.434-3.263,4.831-1.441.787-2.586-.666-4.175-.29l-1.339,1.582a32.253,32.253,0,0,0,2.147,4.745c1.11,1.855,2.914,1.87,4.513,2.674a3.1,3.1,0,0,1-.025,1.03,3.579,3.579,0,0,1-.7.876H658.8c-.353-.2-.2-.507-.247-.816-.729-.454-1.566-.124-2.5-.261-.573,1.453-2.559.884-3.351,2.273-.263.461-.1.875-.235,1.393a9.962,9.962,0,0,0-3.168,5.118c.109.314,1.176-.152,1.077.912-.046.5.827.829,1.515.97v2.372c-.359.607-1.012.707-1.539.995-.112.645-.18,1.271.424,1.659a8.375,8.375,0,0,1-2.373,3.016c1.312,1.1,1.265,2.927,2.8,3.778.643.341,1.249.062,1.791-.636v-4.487l1.783-1.277h1.778c1.5.747,2.355,2.33,3.649,3.505a5.7,5.7,0,0,1-1.641,4.514c.1,2.009-1.991,2.437-2.776,3.928-.288,1.672-1,2.373-4.314,4.141v1.427c-1.242,1.88-2.3,3.743-4.433,4.5-.25,1.755.6,3.135.883,4.906a3.293,3.293,0,0,1-2.326,2.127c-2.589.677-4.06-1.16-5.578-2.737-1.052.337-1.444,1.262-2.2,1.748-.419-.1-.916.208-1.359-.334a13.385,13.385,0,0,0,1.685-6.6c-2.2-.905-4.223.558-6.208.342l-1.981,1.824,1.73,3.36c-.852,1.166-.78,2.5-.637,3.948l2.539,2.412a1.662,1.662,0,0,1,1.582.514l.693-.693v-2.718c.488-.682,1.438-.138,1.5-1.195,1.553.865,1.736,2.175,2.066,3.512h2.831l.772.773v4.592l-.636.637c-1.987.666-3.711-.848-5.67-.4-.512-1.278-1.884-1.025-2.944-1.709-1.223,2.171-.222,4.5-.69,6.794l-2.867,2.646c1.194,2.771.616,5.4.791,7.926-1.773,1.307-2.987,1.073-4.118-.839-1.67.138-3.473-.378-5.209.771v6.747c-1.173,2.539-4,2.808-4.758,5.212a8.757,8.757,0,0,1-3.8-1.5c-1.065-.7-1.275-2.332-2.9-2.436-.708,2.729.542,5.148,1.106,7.739l3.08,1.977c.437,1.008-.432,1.53-1.114,2.23.533,1.676-.657,3.225-.529,4.942a7.127,7.127,0,0,0-2.261,3.749c-.455,2.225-2.232,3.749-4.379,4.78a3.906,3.906,0,0,0-2.14,3.108,13.6,13.6,0,0,0-.014,1.883c-1.776-.493-3.244.69-4.982.544s-3.486-.032-5.213-.032a5.131,5.131,0,0,1-2.311,1.191c-.413.366-.007.87-.345,1.46l-1.364,1.355c-.446,2.987-.887,5.94-1.355,9.068-.885,1.078-2.341,1.948-2.956,3.522-1.815.922-2.868,2.768-4.5,3.831a10.569,10.569,0,0,0-3.047,3.149,5.806,5.806,0,0,1-.682.693,6.313,6.313,0,0,0-4.639,1.269c-.163,1.359.288,2.857-.834,4.155-1.054-.139-1.874.969-3.008.686-.1.465.058.772-.407,1.056H566.6a9.228,9.228,0,0,1-2.274,2.981c-.121.721.3.866.5,1.153v4.388a4.439,4.439,0,0,1-2.645,1.63c-1.594.274-2.863,1.466-4.4,2.218-.234.771-.5,1.7-.772,2.575a15.066,15.066,0,0,1-2.314,3.715c-.759,1.1-1.917,1.8-2.654,3.018a2.259,2.259,0,0,1-3.234.584c-.353-.259-.679-.161-1.263-.258-1.456,2.082-3.939,2.347-6.269,2.916-.625.814.8,1.179.5,2-.632.929-1.263,1.859-1.835,2.7a7.244,7.244,0,0,1-7.176-2.106c-.425-.984,1.164-2.1.475-3.634-1.282,0-1.584-1.859-3.092-1.95V736.34l-1.7-1.264v-1.5l-2.147-2.143c.256-1.028-.93-1.737-.6-2.817l-2.174-2.069v-1.828c-1.546-.431-.567-2.991-2.745-3.1-.034-.637-.067-1.255-.1-1.914-1.938-.879-4.259-1.174-5.472-3.458.132-.6.795-1.209.6-2.048,1.089-.211,1.612-1.118,2.451-1.86,1.555.119,3.268-.338,4.855.56a2.474,2.474,0,0,0,1.048-1.3c-1.107-.472-1.986-1.6-3.337-.31-1.261-2.358-2.724-4.581-.828-7.37a14.288,14.288,0,0,1,4.518-1.661v-3.471l2.083-1.309c.74.078,1.938.855,3.567.4-.375,1.616.814,2.526,1.125,3.884H533.7c.6-1.684,2.648-1.473,3.779-2.593,1.2-2.514,1.238-5.335,1.971-8.223l-1.767-1.418c-.568-.848,1.06-1.37.249-2.223-.594-.625.65-1.113.473-1.919a11.712,11.712,0,0,1-.038-2.473c.835-1.338,2.461-1.723,3.455-2.919.88-1.059,1.475-2.677,3.355-2.389.229-.924,1.349-.98,1.72-1.676,1.095-2.05,2.3-4.025,3.578-5.963.161-.244.022-.686.022-.839.358-.528.892-.126,1.086-.765v-.9a3.775,3.775,0,0,1,.408-.334c1.756-1.056,3.286-3.745,2.881-5.42a8,8,0,0,0-1.295-2.756,14.841,14.841,0,0,1-2.059-4.125,11.321,11.321,0,0,0-2.632-3.969v-2.031a7.1,7.1,0,0,1-1.8-3.085c-.649-.319-.931.073-1.239.4a1.6,1.6,0,0,0-1.635-.48c-.3.429-.72,1.017-1.137,1.605l-.288-.281v2.862c1.365-.015,1.687,1.711,3.068,1.9a1.445,1.445,0,0,1,.228.386c1.192,4.439.25,4.468-2.122,6.934-.427.444-1.017.754-1.185,1.435-.661,2.679-3.265,3.118-5.131,4.4-.124.086-.36.011-.544.011-.5-.366-1.052-.7-1.006-1.448-2.166-1.322-4.559-.533-6.782-.776a47.961,47.961,0,0,1-10.6,4.994c-.435,1.076-1,1.991-.734,3.007l-1.4,1.4c-1.677-.472-3.228.985-4.911.5l-1.141,1.141c-.427,0-.883.015-1.338,0a3.778,3.778,0,0,0-3.868,2.21,1.718,1.718,0,0,1-1.962,1.1l-4.936,4.993H497.26l-1.021,1.021c-1.724-1.607-4.335-1.527-6.143-3.191h-2.237c-.916.8-1.275,1.6.017,2.625h-5.991c-.529.791-1.657.561-1.933,1.517-.235,1.118.966,2.073.445,3.288-.7,1.538-3.06-.139-3.353,2.045l-.725-.726a5.635,5.635,0,0,1-4.434,2.255l-3.849,3.848c-1.88-.224-3.864.016-5.945-.448a8.331,8.331,0,0,0-5.823.4c-.357.191-.9.027-1.449.027a62.354,62.354,0,0,0-4.887,6.02h-2.777l-.78.779v3.3c-.644.676-1.331,1.149-1.464,2.029-1.375,0-2.866-.333-4.1.092a9.288,9.288,0,0,1-3.662.43c-1.3-.071-2.691.492-3.862-.439a4.012,4.012,0,0,0-.771.769c-.12.206-.023.538-.023,1.076,1.186.712,1.589,2.288,2.747,3.3v3.31c-.3.493-.808.211-1.525.342l-2.282,2.627c-.921.161-1.576-.225-1.916.96l-.741-1.4c-2.349.206-3.92-1.588-6.109-1.543-1.032.712-2.327.335-3.715.422l-1.367,1.639h-1.9c-.581.407-.859,1.1-1.771,1.154a3.255,3.255,0,0,0-2.057.986,6.03,6.03,0,0,1-3.078,1.236c-2.426.63-4.92.89-7.34,1.537a4.591,4.591,0,0,0-2.477,1.339c-.443.517-1,.282-1.5.38l-2.473,2.472c.617,2.764-1.136,4.431-3.374,5.476a7.381,7.381,0,0,1-4.61.806c-.6,1.126-2.068,1.128-2.622,2.183A6.071,6.071,0,0,1,379.8,735c-1.224-.924-1.405-.737-3.474.074.249,1.5-.969,2.376-2.264,3.894,1.529-.368,2.43.186,3.4-.5s1.629-.033,2.123.748c-.078,1.889-1.387,2.891-2.534,4.013-3.009.082-5.828-.872-8.76-1.636-.344,1-1.271,1.26-2.2,1.67-.983.436-.964,1.983-1.991,2.4a10.73,10.73,0,0,0-2.52,1.973h-4.933a1.256,1.256,0,0,0,.282,1.9c-.915.609-.352,1.662-.565,2.406-1.4.9-2.97.771-4.289,1.391-.656,2.144,1.4,1.768,2.421,2.455l3.809-2.328c.17.475.331.929.493,1.383.647,1.367-1.519,1.993-.916,3.719h-6.8a4.911,4.911,0,0,0-2.208-1.089c-.254-.536-.353-1.189-1.019-1.545H343.5c-.328.34-.941.521-.863,1.347l3.882,1.946h2.46l.748.748v3.543H345.54c-.386-.4-.892-.933-1.424-1.491h-2.67c-.78-.669-1.928-.7-2.33-1.814a36.032,36.032,0,0,1-6.992,5.975,7.071,7.071,0,0,0-2.486,2.534c-.518,1-1.812,1.248-1.707,2.276-.864.527-1.515.266-2.113.348-.4.209-.194.663-.452,1.022h-3.5c-1.144-1.237-2.692-1.061-4.259-1-1.248.628-1.515,2-1.879,3.225h-3.655l-2.459,2.459c.712.712.406,1.578.483,2.362l-1.1.39v1.032c-1.082,1.448-2.909.528-4.236,1.507-.526-1.419-2.7-.919-3.13-2.649-1.255-.293-2.688.342-3.638-.6-.977-.155-1.418.616-2.184.673v1.837l1.012,1.013v2.81c-2.052,1.438-4.463.532-6.76.855-1.165-1.242-3.153-.9-4.06-2.318-1.657.449-1.661.447-1.825,1.9.811,1.43,2.589,1.841,3.238,3.375a1.512,1.512,0,0,0-.431,1.675c.136.389.582.2.9.4.06,1.186,1.049,2.22.562,3.73a13.832,13.832,0,0,1-3.77-.434c-1.172-.388-1.364-2.072-2.953-1.731-1.413,1.1-2.487,2.816-4.5,3.424-.775.234-1.32,1.232-2.028,1.94-.674.182-1.518.1-2.038.9a1.568,1.568,0,0,1-1.823.858c-1.431,2.309-1.431,2.309-1.5,3.466-.631,1.128-1.96,1.547-2.653,2.612-1.48-.276-1.593,2.032-3.073,1.625-.659.356-.013,1.488-1.027,1.646h-5.712c-.054,1-.884,1.384-1.382,2.124.29.741.955,1.479.445,2.677l-2.207,1.889c-1.652.475-3.592-.469-5.609-1.106l-1.507-1.625H242.5a4.758,4.758,0,0,0-2.659,2.188c-.643,1.131-2.081,1.275-2.466,2.515-.47,1.4.977,1.735,1.52,2.736V823.1l-1.362.119c-.542,1.523-2.349,2.51-1.836,4.428-.893,1.59-2.841,2.1-3.559,3.931a18.1,18.1,0,0,1-5.38-3.786c.353-.989,1.353-1.974-.111-2.831-1.172-.725-2.126.567-3.329.408-1.386,1.222-2.8,2.456-2.55,4.641-.372.355-.583.938-1.153.895-.594-.117-.5-.519-.522-.859a2.135,2.135,0,0,0-.452-.251,2.837,2.837,0,0,0-2.473.606,18.611,18.611,0,0,1-3.578,2.1,3.8,3.8,0,0,0-1.2.962c-.522.664-1.392,1.35-1.949,1.278-3.178-.412-6.241.862-9.2.561l-1.559,1.37c1.4,1.121,1.286,3.172,2.84,3.918-.519,2.056-2.549.746-3.26,1.894-.71-.07-.921-.662-1.442-1.043h-3.563c-1.079,2.888-4.233,3.869-6.091,6.3-.386.757.437,1.355.538,2.046-.014,1.166-1.114,1.827-1.16,2.936-.409.572-1.139.041-1.712.513a2.292,2.292,0,0,1-2.539.071c-2.169-1.285-4.744-1.4-6.869-2.673l-.926.875v2.721l-2.342,2.032a.67.67,0,0,0-.6.024c-1.456,1.38-3.316,1.718-5.142,2.269-2.516.758-4.87,1.986-7.322,2.947-.733.287-1.413.062-2.205.391a35.86,35.86,0,0,1-1.78,4.374,7.536,7.536,0,0,1-3.74,3.21h-1.979c-1.306-1.14-1.306-1.14-5.407-1.086-1.422.964-2.826,1.945-3.208,3.915-2.137-.252-4.124.115-6.2-.516a6.34,6.34,0,0,0-5.314,1.081,2.843,2.843,0,0,0-2.481-.579c-1.188-1.453-3.21-1.461-4.428-2.787h-2.226c-.872.894-1.768,1.813-2.656,2.722h-3.954c-1.416-1.154-2.047-3.071-3.616-4.1v-1.149l-3.544-3.545h-1.1c-.481-.335-.211-.836-.306-1.376-1.474-1.187-2.121-3.213-3.861-4.359a4.021,4.021,0,0,0-1.083-3.4c-1.393-1.524-1.369-3.341-.818-5.21a12.868,12.868,0,0,0,.78-5.992A12.654,12.654,0,0,0,99,839.284c.257-1.922,1.79-3.3,1.564-5.292a5.1,5.1,0,0,1,4.343-1.976c1.958-.043,3.948-.256,6.115.79l2.109,2.184a5.81,5.81,0,0,0,.937,2.515h3.862c1.228-.628.5-2.517,2.017-2.945l-.492-.492c-.169-.463.647-.575.411-1.072-.41-1.122-1.884-.978-2.365-2.1h-2.33l-.838-.878c-.058-1.029,1.391-1.218,1.185-2.217l2.458-1.189c1.294.636,1.8,2.254,3.124,3.083a6.979,6.979,0,0,0,4.541,1.162,4.421,4.421,0,0,0,1.944-4.047,7.158,7.158,0,0,0-2.461-2.062h-4.105v-1.368a1.474,1.474,0,0,1,1.924.3l.774-.774c-.491-1.753.931-3.242,1.3-5.251,2.393.439,4.739-.949,7.225-.515,1.942-1.986,4.038-3.737,5.319-6.163,3.042.328,5.961-.491,8.54.61.8.049.869-.592,1.307-.714v-1.8l-2.123-1.887v-2.235a9.166,9.166,0,0,0,3.855-.512c1.359-.383,2.54.782,4.027.517l1.556,1.929.944-1.183v-3.686a9.664,9.664,0,0,1,4.874-1.474c1.787.012,3.592-.986,5.269-2.636,2.267-.163,4.475-.564,6.189-2.293h2.737c1.356,1.457,3.131,1.029,4.782,1.1.9-.572,1.945-.907,2.606-2.022V790.42l2.322-1.906a2.419,2.419,0,0,0,1.5-.627c.123,0,.268-.037.3.006.795,1.117,2.1.126,3.008.736a4.025,4.025,0,0,0,3.26.392,12.836,12.836,0,0,1,2.483-.031c2.485-.94,3.553-3.5,5.643-4.947h2.57c2.353,1.5,4.546,3.034,7.2,3.389.713-.562,1.221-1.067.924-2.124l-1.6-1.291h-1.322c-1.1-.711-.914-1.633-.813-2.534,1.468-.27,1.705-1.54,2.263-2.691,1.506-.593,2.345-2.476,4.262-2.523v-2.857c.432-.717,1.306-1.07,1.306-1.943,1.249-.682,2.19.645,3.351.428,1.455,1.422,3.284,1.1,5.043,1.087.425-.844.846-1.68,1.288-2.56l-1.033-.357c-.033-.874.214-1.911-.834-2.637l1.824-1.61c1.41,0,2.417,1.1,3.63,1.5,2.141-1,4.612.225,6.738-.765,1.086.257,2.058,1.845,3.388.245-.628-.918-.334-1.99-.41-2.831-1.338-2.23-3.617-4.162-.835-6.952,2.472.241,4.663-.923,6.776-2.349,1.06-.715,2.4-.787,3.454-1.7a6.972,6.972,0,0,1,3.216-1.51,10.286,10.286,0,0,0,2.313-1.076c.534.766,1.384.2,2.1.477.77.3,1.12,1.006,1.961,1.277,1.873.605,3.718.365,5.482.472.906-.421.826-1.434,1.53-2.086-.939-.948-.291-2.478-1.293-3.5.239-.284.371-.6.583-.667a11.677,11.677,0,0,1,5.372-.866,4.6,4.6,0,0,0,2.662,1.578c.714-1.011,2.032-1.6,2.96-2.8.966-1.244.35-3.024,1.723-3.96l-.519-.83c.215-1.535,2.235-1.408,2.345-2.785,1.1-.518,1.7.579,2.649.51.82-.06,1.83-.51,2.444.529.4-.471.974-.73.833-1.446.76-.62,2.108.329,2.684-1.188-.11-1.621,1.142-3.154,1.238-4.923,2.339-.664,4.725-.648,7.069-1.494a5.085,5.085,0,0,0,1.547-2.8c.7-2.876,2.67-4.464,4.928-5.931a6.759,6.759,0,0,0,.982-.963,2.291,2.291,0,0,0,2.947.268c1.392-.978,2.855-.83,4.349-.848,1.378-.016,2.757,0,4.265,0,1.09-.869,1.917-2.245,3.587-2.724l2.99,1.082a3.636,3.636,0,0,0,1.45-3.656c1.431-.426,1.6-1.506,1.7-2.756l1.474-1.327c1.756.266,3.778-.525,5.748.622,1.458-1.76,3.069.49,4.851-.2.17-1.854-.492-4.115,1.65-5.544v-2.9c.469-.271.6-.8,1.162-.806a26.52,26.52,0,0,1,7.849,1.282,6.885,6.885,0,0,0-2.769,4.067c.563.548.507,1.838,2,1.909.822.039,1.546,1.145,2.42,1.386a15.01,15.01,0,0,0,3.239.186c.981.044,1.734-1.057,2.833-.425a8.127,8.127,0,0,1,3.009-2.3c.164-2.529,1.166-4.914.662-6.932l.777-1.387c1.015.034,1.21.793,1.545.994,2.192-.458,3.761,1.093,5.693,1.289a13.436,13.436,0,0,1,3.17,3.734,1.708,1.708,0,0,0,2.062-.807c.254-1.56-1.033-3.112-.447-4.9l-1.448-1.139c1.193-1.13.8-2.246.051-3.433l-3.827-1.477a37.958,37.958,0,0,0,1.664-5.065c2.264-.419,4.368-.665,5.947-2.421,2.12.19,3.9-.319,4.887-2.594a1.889,1.889,0,0,1,1.919-1.275c.875.094,1-.992,1.617-1.17.473-2.393.567-4.76,2.017-6.941l1.318-.67c.4-.1.512.24.741.339a10,10,0,0,1,3.026,1.982,4.8,4.8,0,0,0,4.07,1.527,13.355,13.355,0,0,1,1.4-.008c.322-1.253,1.016-2.4.735-3.806l1.624-.088c.442.507,1.056,1.176,1.622,1.883a2.519,2.519,0,0,1,.23.834H401.3c.423.586.467,1.274,1.041,1.621l1.345-.6c.376-.93.95-1.844.683-2.842.641-.855,1.57-.967,2.329-1.462l.544.413c.531-.548,1.076-1.109,1.424-1.469h2.625c2.487-.615,2.787-2.891,4.424-3.811.392.6,1.014.566,1.658.464l.785-.784v-1.3c1.314.145,2.447-.589,3.725-.768A3.974,3.974,0,0,0,423.124,660.794Zm167.065-14.057a.384.384,0,0,0-.488.326c-.01.043.119.172.162.162a.392.392,0,0,0,.331-.493.384.384,0,0,0,.489-.326c.009-.043-.12-.172-.163-.163A.393.393,0,0,0,590.189,646.737Zm50.552-56.6a4.215,4.215,0,0,0-3.091,3.627,4.129,4.129,0,0,0,1.967,4.414c1.331.269,2.274-.62,3.4-.651.086-1.233,1.394-1.587,1.731-2.376.109-.663-.322-.794-.49-1.047.93-1.12.375-2.356.564-3.822C643.182,591,642.111,589.477,640.741,590.138ZM536.116,732.5a5.634,5.634,0,0,1,.712-3.068c-.464-.831-1.473-1.2-1.371-2.3-1.034.581-1.529-.668-2.644-.338-.592,2.046-1.923,4.129-.278,6.466.981-.175,1.144,1.087,2.177,1.165ZM653.881,490.694h-2.188c-2.282,2.316-2.384,2.677-1.161,4.4,1.034.09,2.244-.308,3.151.79l1.552-1.672V492.07ZM623.1,635.686c-1.116.157-2.318-.439-3.059.782a4.8,4.8,0,0,0,.709,3.456,1.689,1.689,0,0,0,2.233-.482c.8-.74,1.8-.025,2.56-.741C625.211,637.4,623.9,636.892,623.1,635.686Zm59.579-97.474c.387-1.492-.6-2.287-.5-3.356h-1.567c-.9.789-1.578,1.379-2.192,1.916-.182,1.428.852,1.872,1.646,2.635C680.949,538.772,681.423,537.623,682.679,538.212ZM576.054,702.554c.582-.753.077-1.549.4-1.984a2.291,2.291,0,0,0,.5-1.736c-.255-.252-.515-.509-.761-.754H573.72v2.46l.363-.383ZM413.686,711.14c.367-1.514-.731-1.942-1.349-2.653-.612.091-1.264-.216-1.833.2a1.263,1.263,0,0,1-.574,1.139c.658.539.466,1.732,1.569,1.981A4.415,4.415,0,0,1,413.686,711.14Zm85.907-193.98c.279-.726,1.361-.909,1.257-2.149-.977.293-1.674-.587-2.641-.644-.5.554-1.586.216-1.866,1.354l1.793,1.439ZM603.7,620.818a2.19,2.19,0,0,0,.735-2.6c-.664-.349-.848-1.44-1.885-1.225a3.283,3.283,0,0,1-1.054,2.143l1.4,1.385.232-.232a2.112,2.112,0,0,1,.19.149C603.448,620.563,603.573,620.692,603.7,620.818ZM310.3,727.236a1.38,1.38,0,1,0,1.447,1.24A1.372,1.372,0,0,0,310.3,727.236Zm248.156-5.746c-1.179-.676-1.547-1.922-2.894-2v3.268h1.4C557.042,722.018,557.468,721.687,558.454,721.49ZM169.393,802.663c-.087-1.961-.131-2-1.946-1.928-.215.45-.419.876-.622,1.3C167.49,803.081,168.447,802.809,169.393,802.663Zm412.8-300.393c-.74.116-1.66-.216-2.466.229-.076.851.527,1.041.838,1.428h1l1.542-.742Zm-17.382-17.449c.357-.893,1.681-.289,1.7-1.572l-2.607-.843C563.41,483.528,563.925,484.1,564.812,484.821Zm-1.753,19.744c-1.189-.286-1.838.114-2.11,1.1a1.7,1.7,0,0,0,1.184,1.026C563.075,506.346,563.357,505.645,563.059,504.565Zm111.175,6.487-1-1c-.49,0-1.038-.324-1.442.239.032.252-.1.548.265.758ZM276.993,748.462l1.5.741.712-.771c-.423-.267-.563-.818-1.136-.8C277.557,747.663,277.409,748.192,276.993,748.462Zm258.211-38.3c.375-.058.671.091.872-.232a.651.651,0,0,0-.153-.858C535.112,708.92,534.915,709.266,535.2,710.165Z" fill="#007dce"/><path d="M855.019,420.749c-.124.8-.911,1.35-.68,2.382l.563.638c1.247.786,2.354-.733,3.3-.27,1.156.566,2.261.368,3.667.534l.9,1.435.3-.236v1.754a3.87,3.87,0,0,1-2.056,1.58c-.915.853-.2,2.476-1.191,3.468a1.658,1.658,0,0,1-1.041,2.008c-1.013.461-1.618,1.764-2.952,1.5-.68-.133-.988.322-1.448.763v4a3.249,3.249,0,0,1,2.192,2c-.593.859-1.436.126-1.635.253-.734.411-.591.718-.662,1.09-.9.346-2.469.11-2.111,2.063.407,1.022,1.685,1.262,2.675,2.188a4.033,4.033,0,0,0,.571,2.579,2.534,2.534,0,0,1-.153,3.411c1.856,1.217,1.052,3.478,2.047,4.756l-1.217,1.216c-.335.841-1.214.213-1.962.852-.353.3-1.086-.717-1.716-.314l-3.83-3.831h-2.341a4.517,4.517,0,0,0-.73,3.392,18.667,18.667,0,0,0,3.738,4.413c.5,1.3-.559,1.8-1.246,2.586-1.311.132-2.8-.285-4.053.766-.457,1.006.357,2.3-.563,3.347l1.371,1.081-.227.415h4.407c-.551,1.9-2.072,1.918-3.523,2.36.748,1.337.438,3.051,1.727,4.179-.192.921,1.32.2,1.105,1.15-.139.612.162,1.041.728,1.49a18.906,18.906,0,0,1,5.319,1.446v3.935c-1.409,1.375-2.729,2.989-5.016,3.126-1.369-1.187-2.7-2.382-4.8-1.345-.1-.057-.223-.5-.683-.421a1.461,1.461,0,0,0-1.09,1.693c-.494,1.745-2.4,1.218-3.285,2.489,1.539,1.357,3.847.724,5.21,2.132,2.83,2.887,1.61,6.17.715,9.579-.218.271-.972,0-1.18.556l-1.366-.674c-.05-.42-.1-.854-.161-1.362h-2.487c-.539.293-.624.952-.924,1.481a1.747,1.747,0,0,1-1.316.781c-.7,1.8.962,1.908,1.893,2.54.232-.14.165-.429.176-.741.609-.516,1.324-.223,1.984-.224,1,1,1.972,1.973,2.977,2.977,0,1.62-.074,3.274.021,4.918a4.43,4.43,0,0,1-1.549,3.773,13.666,13.666,0,0,0,1.013,5.654c-.25,1.662-1.627,2.61-2.793,3.869a16.055,16.055,0,0,0,.016,2.062,7.031,7.031,0,0,1-.6,3.62,6,6,0,0,0,.249,5.53c.124.227.335.371.346.689.058,1.682.931,3.277.507,5.013a6.76,6.76,0,0,1-2.115,2.863c-.154,1.874-.456,3.58-2.032,4.739-1.406.326-1.825-.973-2.754-1.652-.535,0-1.171.019-1.806,0a5.571,5.571,0,0,0-3.514.869,19.4,19.4,0,0,1-3.733,1.534V554.4c.6.512,1.627-.006,2.093.819,2.377-.858,6.119-1.2,7.828,1.365,0,.552,0,1.1,0,1.549-.5,1.29-2.111.571-2.762,1.866.172,1.529.218,3.244,1.455,4.678a4.292,4.292,0,0,1,.718,3.525c-.374.379-1.083.185-1.339.8a8.294,8.294,0,0,0-4.823-2.815c-1.13.723-1.61,2.108-3.213,2.389.525,1.762-.943,3.329-.453,5.166.765.132,1.223.957,2.034.8a4.2,4.2,0,0,1-.814,3.762l-1.789.823c.181,1.836-1.5,2.888-2.149,4.555.357.723,1.15.786,1.922.841.072.087.19.173.176.221-.312,1.1.636,1.588,1.122,2.233-.249,1.786-1.55,3.139-1.743,4.981l-2.094,2.085v2.226a5.678,5.678,0,0,1,1.913,1.8,4.079,4.079,0,0,1,.819,2.64l1.042,1.042c.054,1.048.264,2.127-.487,3.036.548,2.091,2.38,3.36,3.5,5.044l-.965,1.02h-2.9c-.372-1.477-2.234-1.367-2.539-2.848-.3.3-.443.426-.561.565-.169.2-.432.314-.415.658.081,1.6-1.057,3.07-.426,4.827l2.336,2.335h2.869c-.05,1.114,1.146,1.4,1.338,2.313a4.286,4.286,0,0,1-2.462,1.958c-.387.1-.54-.531-1.048-.394a1.036,1.036,0,0,1-1.188-.54c-.4.377-.775.74-1.161,1.109h-1.636c-1.24,1.164-2.25,2.584-3.919,3.225-.746-.9-1.8-.316-2.686-.478a3.831,3.831,0,0,0-1.393,2.88c.294.646,1.415.419,1.549,1.173.23,1.286,1.039,2.478.562,3.969-.962.963-1.431,2.494-2.631,3.245-.275,2.3,2.23,1.982,2.792,3.393.547,1.375,1.745,2.239,2.742,3.318-.436,2.1.989,3.789,1.221,5.737h1.359v7.573c-.625.774-1.606.943-2.538,1.393v6.155c.68.946,1.348,1.877,2.1,2.929v3.537c-.468,1.457-1.7.825-2.54,1.079-1.333,1.9-1.333,1.9-1.2,4.818h2.3a13.427,13.427,0,0,0,1.668,1.64c2.041,1.389,2.464,2.162,1.407,4.794a4.669,4.669,0,0,0-2.175,1.707c.426.892-.672,1.419-.513,2.44a11.646,11.646,0,0,1,2.169,7.274c-.858,1.477-1.324,3.071-2.751,3.936,0,1.155,0,2.256,0,3.356.008,2.235.552,4.167,2.87,5.111.157.064.264.251.438.426a29.114,29.114,0,0,1-.031,3.517c-.144,1.178-.883,2.191-1.127,3.395-.233,1.146-1.616,1.626-2.265,2.75.573,1.685,1.739,3.295,1.052,5.448-.26.372-1.2.571-.943,1.406-.375.5-.787.164-1.623.664l-.769,1.368c-.1.668-.748,1.521-.869,2.456-.108.837.915,1.551.468,2.531-.66,1.433-2.226,1.918-3.365,3.008.416,1.2,1.616,1.712,2.292,2.832v1.534l-1.481,1.327h-2.044l-1.193,1.136h-2.664c-1.381.9-1.593,2.7-2.944,3.336-.653,1.709.666,3.06.413,4.579a2.983,2.983,0,0,1-2.037,1c-.109.768-1.017,1.273-.478,2.6l1.48,1.177h1.338a4.479,4.479,0,0,1,.127,4.95c1.381,1.881,3.454,3.046,4.484,5.236v2.868l-2.209,1.838a2.025,2.025,0,0,1-.51,2.008c-.015.713.972,1.148.472,2.13l2.316,1.914V776.6c1.26,1.319,1.7,2.989,2.179,5.093-.006.354-1.22.489-1.068,1.29s-.834,1.233-.567,1.978c.3.83-.529,1.281-.577,2.016l.5.6a4.912,4.912,0,0,0-1.015,3.916,7.918,7.918,0,0,1,2.156,2.693v3.245a3.072,3.072,0,0,0,1.664,1.224v1.253a4.291,4.291,0,0,1-4.086-.939l-2.013,1.908c.1,1.3,1.826,1.535,1.785,2.836.984.407,1.932.784,2.865,1.192.881.385.745,1.807,1.965,1.913v2.845l-2.164,1.9h-3.993c-1.874,2.316-1,5.086,1.1,7.812a10.808,10.808,0,0,0,3.188,2.845,6.786,6.786,0,0,1,2.988,3.7c-.217.883.632,2.272-.772,3.281h-4.408c-.455.5-1.16.956-1.344,1.569a6.464,6.464,0,0,1-.729,1.853c.885.6.623,1.644.652,2.261.537,1,1.5.8,1.877,1.553l1.178-1.113c.306.419.945.63.778,1.456a14.625,14.625,0,0,0,5.859,1.283l1.242,1.44a9.07,9.07,0,0,0-.475,4.686c.138,1.73.028,3.479.028,5.187-1.137,1.075-2.041,2.352-3.832,2.994h-2.892a1.586,1.586,0,0,0-.918,2.049c.78.847,2.111,1.018,2.671,2.282-.072,1.085.348,2.387-.582,3.421a6.344,6.344,0,0,0,1.669,2.425v2.788c-.652,1.111-2.114,1.064-3.025,1.943h-3.235c-1.637,1.279-2.191,3.334-3.617,4.725l.39.39-2.683,2.669c-.737.229-2.02-.608-2.986.489a3.591,3.591,0,0,0-3.13-1.089,2.177,2.177,0,0,1-1.959-.56,5.476,5.476,0,0,0-2.583,1.627c-3.24.4-5.31-1.374-6.893-3.765a8.759,8.759,0,0,0-6.191-3.88,2.387,2.387,0,0,1-1.542-.868c.422-2.111-1.059-3.513-2.593-4.719a7.676,7.676,0,0,1-3.072-4.772c-.043-.231-.465-.307-.312-1.063a8.667,8.667,0,0,0,2.735-4.373c-1.5-.555-2.323-2.066-3.941-2.7a13.877,13.877,0,0,0-.072-3.721c-.348-1.226.286-2.289.069-3.44.618-.466.98-1.178,1.841-1.487.427-.153.63-1.088,1.428-1.21.321-1.61-1.036-3.093-.486-4.681a13.506,13.506,0,0,0,.523-4.749c-.469-.616-1.26-1.018-1.333-1.917-1.109-.233-2.357.338-3.416-.477-.42.67-1.2.393-2.055.446-1.079-1.124-2.819-1.63-3.667-3.2-.126-1.475.895-2.4,1.988-3.5-1.395-.8-1.455-2.337-2.746-3.068,1.121-1.2.67-2.51.759-3.734,1.179-.361,1.838-1.372,2.721-2.181v-1.5l-2.709-2.519c.331-2.5-1.045-5.153-.472-7.991l-1.283-1.42c.48-1.7,1.072-3.309,1.456-4.986.116-.5.455-1.286.214-1.455-.856-.605-.171-1.748-1.1-2.373a19.562,19.562,0,0,1-2.688-2.6,2.035,2.035,0,0,0,0-.383c-.6-2.349-.655-2.372.381-4.9.232-.568.059-1.154.481-1.748.547-.769.344-1.024-.282-2.435l1.148-.415c-.353-.749-.429-1.6-1.144-2.218l2.021-1.88c.569-3.224-.243-6.131-.5-9.353.395-.318.879-.734,1.39-1.111.429-.315,1.436.17,1.4-.4-.076-1.066,1.043-.545,1.175-1.155.153-.953-.471-1.646-.852-2.4-.319-.633-1.358-.869-1.307-1.643.053-.8-.757-1.225-.526-2.323a20.191,20.191,0,0,0,2.2-8.114,5.044,5.044,0,0,1,.572-2.2c.536-.859.09-1.651.326-2.453a13.639,13.639,0,0,0,.2-2.924l1.215-.646c-.623-2.08.846-3.6.289-5.307-.4-1.62-1.969-2.539-2.447-4.175-.19-.653-.42-1.178.125-1.69.245-.23.174-.485.217-.744.139-.854-1.2-1.493-.353-2.444.709-.8.2-1.731.35-2.553l-1.018-1.017a22.562,22.562,0,0,1,.646-7.87c1-.221,1.593-1.289,2.413-1.95.478-.762-.351-1.775.65-2.273-.677-1.676-1.375-3.3-1.982-4.949a17.261,17.261,0,0,0-.875-2.382c-.923-1.623-.083-2.7.731-3.792a23.688,23.688,0,0,1,2.335-2.379c-.993-1.14-.63-2.433-.7-3.677.714-.879,1.8-1.483,2.157-2.693v-3.424a7.357,7.357,0,0,1-1.434-1.982,1.091,1.091,0,0,1-.143-1.022c.993-1.8.335-3.723.52-5.576a56.634,56.634,0,0,1,1.185-7.479,11.1,11.1,0,0,0,3.239-4.6c-.308-.591-.662-1.273-1.112-2.139a15.606,15.606,0,0,1,.009-1.695c.251-2.541-.658-4.79-1.653-7.039a20.26,20.26,0,0,1-1.6-5.659c-.111-.893-.913-1.519-.65-2.529.216-.828,1-1.546.477-2.591a5.807,5.807,0,0,1,3.5-2.129,4.218,4.218,0,0,0,3.811-3.614,5.56,5.56,0,0,1-.607-3.156c.06-2.2,0-4.411.022-6.616.011-1.494-.279-3.058.926-4.3.37-.383.154-.872.161-1.306.027-1.837-.135-3.69.045-5.51.286-2.9-.869-5.549-1.227-8.33-1.2-1.5,0-2.581.64-3.992v-2.024c.96-.437.951-1.679,1.762-2.245.713-.5.822-1.494,1.663-1.85,1.014-.429,1.044-1.521,1.6-2.345-.961-1.456-3.2-1.22-3.822-3.052-.981-.976,1.277-1.968-.014-3.06.831-.868.6-2.111.879-3.128.31-1.116.941-2.275.726-3.6a22.577,22.577,0,0,1-.039-3.578v-3.537c1.761-1.953.87-4.312,1.155-6.7a4.95,4.95,0,0,0,1.544-2.16c.226-.431.04-1.077.04-1.68-1.53-.853-.9-2.944-2.285-3.888.441-.885,1.119-1.638,1.137-2.408.038-1.579,1.077-1.617,2.128-1.805.487-1.063-.377-2.362.584-3.342-.964-.823.156-2.319-1.05-3,1.525-2.229-.809-4.361.181-6.443-1.028-.6-1.144-1.885-2.3-2.183v-2.743a45.792,45.792,0,0,0,7.631-6.665,2.74,2.74,0,0,0-.5-2.467,13.9,13.9,0,0,0,1.146-5.3,4.764,4.764,0,0,0,1.11-2.884c.475-3.354,1.148-6.681,3.863-9.259-.061-.907.16-2.047-.27-2.83a2.808,2.808,0,0,1-.241-2.564c.734-.981.223-1.944.535-2.918l1.04-1.039c-.162-1.089.249-2.283-.5-3.5-.348-.569-.031-1.478.455-2.236a12.353,12.353,0,0,0,1.645-6.187,8.137,8.137,0,0,1,.755-2.572,5.042,5.042,0,0,0,3.686-2.055V473.181a4.938,4.938,0,0,0-1.591-2.564c-.111-.538.253-.749.241-.92-.056-.813-.727-1.771-.232-2.388a3.312,3.312,0,0,0,.482-2.3c.046-.916.008-1.837.011-2.756.007-1.593,1.037-2.9,1.258-4.456.049-.343.482-.729.39-1.2-.391-2,.541-3.867.641-5.833a3.972,3.972,0,0,1,1.588-3.326,14.539,14.539,0,0,1,1.637-7.712c.185-.4.619-.248,1.009-.444v-4.647l-2.06-2.06c.794-.815.4-1.842.508-2.809l3.732-3.678c0-1.142.815-2.08.7-3.291-.116-1.183.239-2.468-.1-3.559-.353-1.142.319-2.107.061-3.176.85-1.113,2.2-1.848,2.59-3.464l-1.474-2.871v-4.221a4.025,4.025,0,0,0,1.111-3.4c-.052-.916.067-1.845-.027-2.755-.177-1.721.511-3.307.734-4.962a9.607,9.607,0,0,0-.1-4.85,16.263,16.263,0,0,1-.035-3.209c1.093-1.7,2.408-3.146,2.935-5.2a8.409,8.409,0,0,0,.1-4.442,7.111,7.111,0,0,1-.3-1.792c-.034-1.47.072-2.946-.036-4.409-.1-1.324.432-2.681-.348-3.986-.637-1.067.211-2.424-.663-3.6-.395-.534-.067-1.6-.067-2.518a16.428,16.428,0,0,0,3.3-11c1.557-1.746,2.368-4.122,4.245-5.4,1.087-2.7.613-5.334.732-7.944l-1.611-1.53v-2.933c1.437-.89,1.323-3,2.8-3.969-.406-2-1.78-3.185-2.777-4.923v-2.214c1.226-.458.857-1.936,1.581-2.819.027-.658-.633-.829-1.016-1.436V308.52a2.375,2.375,0,0,1-1.116-1.8c.136-2.722-1.193-5.315-.46-8.322a8.494,8.494,0,0,0,2.406-3.721c-.721-.553-.167-1.526-.442-2.22-.248-.471-.805-.013-1.027-.741.229-1.305-.22-2.851.438-4.489a4.092,4.092,0,0,0-.566-4.023,4.42,4.42,0,0,0,1.592-4.83c-.2-.471-1.084-.954-1.594-1.844a5.934,5.934,0,0,1-.968-3.744c.356-3.178-.784-6.242-.6-9.424.177-3.114.039-6.246.039-9.37v-1.88l2.128-1.358v-3.1c.761-1.591,1.589-2.723,1.365-4.427.543-.5,1.277-1.164,2.01-1.832-.274-2.1,1.47-2.416,2.809-3.339.665.853,1.677.657,2.645.658a3.78,3.78,0,0,1,2.267.533,5.737,5.737,0,0,0,4.633,1.052c1.148,1.2,2.4,2.129,2.664,3.876a45.317,45.317,0,0,0,7.14,1.735c1.256-.645.974-1.541,1.01-2.473l-1.641-1.338c.029-1.208-.361-2.212,1.066-2.813,1.07.167,2.528-.425,3.854.506.184.13.558.166.646.389.89,2.24,3.134,2.927,4.9,4.173,0,1.076.017,2.077,0,3.077a3.934,3.934,0,0,0,2.384,4.007,20.224,20.224,0,0,1,3.007,2.2c1.186-.1,2.289-.986,4.023-.34.406.229.845,1.264,2.079,1.661.551.753.475,2.387,2.307,2.647-.2.945.356,1.573.956,2.28a11.825,11.825,0,0,1,1.139,2.275,8.132,8.132,0,0,1,.775,2.18c.127.673.419,1.8,1.484,2.026v3.592L871.085,271c-.312.451-.973-.046-1.354.529a4.119,4.119,0,0,0-1.108,3.406c.027,1.5.689,5.272,1.661,6.764.794,1.219,1.511,2.489,2.245,3.708-1.239,2.3-.2,4.526-.061,6.771.136,2.289.03,4.593.03,6.91l-2.787,2.731c.206,1.376-.284,2.793.518,4.185a2.016,2.016,0,0,1-.138,2.079c-.69.831-.18,1.747-.361,2.572l2.2,2.2v4.01c-1.51-.137-1.764,2.2-3.541,1.8-.549.266-.112,1.123-.915,1.35,1.691,1.341,1.934,3.406,2.849,5.233-.773,1.058-.618,2.614-1.628,3.575-.314,2.543.735,5.425-2.194,7.266a5.813,5.813,0,0,0,1.328,4.787c.679.83.68,2.3.782,3.5.123,1.453.029,2.925.029,4.382a1.53,1.53,0,0,0-1.376,1.339h-1.653c-1.029,1.012-1.23,1.479-.449,2.227.617.591.584,1.523,1.514,2.072h3.284l.891,1.06c.136,2.22-1.122,4.542-.4,7.1l-1.837,1.475c.255,1.937-1.506,2.31-2.19,3.6a4.56,4.56,0,0,1-1.967,4.534h-3.817l-.8.8v2.828c.42.363.9.783,1.5,1.3h2.5c.662.345.9,1.242,1.78,1.13.1.163.239.305.255.46.036.364-.147.887.037,1.077,1.235,1.274-.088,2.475-.056,3.7.006.195-.523.435-.493.594.368,1.922-.939,3.637-.621,5.138-.58,1.6-1.864,2.708-.535,4.164.018,1.763.42,3.651-1.143,5-.527.456-.3,1.249-.955,1.554a6.431,6.431,0,0,0,.465,3.871c.912,1.966.441,4.067.568,6.092a5.221,5.221,0,0,0-1.09,1.226,3.779,3.779,0,0,1-3.978,2.411c-1.369-.029-2.739-.006-4.06-.006-1.291,1.8,1.269,2.656.9,4.187a5.568,5.568,0,0,0,2.817.839A2.591,2.591,0,0,1,855.019,420.749ZM808.771,843.025H808.3l-1.979,1.437c.18,2.395,2.211,5.731,3.675,5.731.112-.22.32-.632.749-1.479v-3.766Zm46.172-449.817v3.779c.788.363,1.55.745,2.339,1.058.211.084.5-.039.679-.058l.641-1.363c-.895-1.019-.146-2.289-.514-3.261C857.089,391.779,856.056,392.929,854.943,393.208ZM791.586,865.535h3c.378-.424.85-.648.7-1.281l-.741-.779h-2.889c-.261.411-.824.552-.743,1.278ZM825.715,533.15c.45,0,.8-.029,1.144.008.429.045.58.7,1.209.507a1.546,1.546,0,0,0,.848-1.916l-.751-.751h-2.45Zm-22.831,241.6h-2.45c-.369.428-.857.642-.7,1.275l.747.785h2.391c.178-.432.774-.55.684-1.284Zm9.514-69.106H815.1v-1.376c-.744.021-1.1-.856-1.926-.734a4.9,4.9,0,0,0-.755,1A3.17,3.17,0,0,0,812.4,705.645Zm-42.962,26.926c3.031.26,3.031.26,3.265-.213.094-.669-.54-.856-.835-1.264-.611.071-1.245-.164-1.806.152C769.783,731.6,769.276,731.788,769.436,732.571Zm55.631-168.805c-.584-.473-.923-1.311-1.815-1.435-.4.4-.964.61-.938,1.258.686.662,2.512,1.519,2.753,1.278ZM854.9,340.625h2.658v-.915H854.9ZM841.349,484.633c-.708-.08-1.019.388-1.337.9a1.441,1.441,0,0,0,1.515.021A.681.681,0,0,0,841.349,484.633Z" fill="#007dce"/><path d="M897.368,370.175a1.226,1.226,0,0,0,.5-1.089c-.32-2.962,1.347-5.679,1.092-8.639,1.377-1.134-.193-2.257-.02-3.406.186-1.233-.632-2.084-1.245-3.068a8.173,8.173,0,0,1-.909-3.187c-.164-1.216.043-2.447-.537-3.649a1.489,1.489,0,0,1,.864-1.987h4.746l1.09-.921c-.807-1.156-.7-2.675-1.751-3.785v-3.713c.41-1.551,1.9-.642,3.008-1.312-1.6-1.149-1.66-3.138-3.056-4.373.2-.883-.433-1.962.561-2.74-.642-.421-.609-1.044-.5-1.744l.782-.28a20.7,20.7,0,0,0,1.277-9.947c1-.833,1.193-2.275,2.543-2.616h4.394c1.355-1.055,1.558-2.688,1.92-4.146.249-1,.836-1.235,1.644-1.545v-2.394l-.606-.606c-.541-.33-1.192-.069-1.806-.152l-.585-.585c-.23-.13-.257-.257-.089-.391.071-.057.184-.125.188-.194.14-2.48,1.238-4.954.676-7.384a28.717,28.717,0,0,1-.454-5.582,5.086,5.086,0,0,1,.479-2.28c.946-2.188.62-4.585.608-6.911-.012-2.162.933-4,1.726-6,1.262.385,2.345-.135,3.557.536a4.55,4.55,0,0,0,3.442-.057c1.6-.594,3.533-.56,4.531-2.451v-.952c.193-.308.473-.275.731-.274,1.027-1.575.943-3.343.9-5.242-1.344-1.746-2.487-3.8-4.524-5.117a1.746,1.746,0,0,1-.928-2.112c.138-.195.393-.242.866-.171.63-3.619,4.715-4.256,6.358-7.37-.76-.612-1.149-1.791-2.556-1.491a14.365,14.365,0,0,1-3.565-4.489V243.93c.393-.643,1.062-.717,1.586-1.054v-1.082c.85-.13,1.06-.931,1.544-1.44.774.008.977.765,1.524,1.109h2.174c.874-.777.874-.777.236-4.384l-1.718-1.38c-1.092-2.262-.159-4.407.292-6.918l1.47-1.18c.05-2.392-.123-4.531.514-6.652a10.293,10.293,0,0,0,.047-2.912l-1.032-1.032V214.67c1.336-1.566,3.566-1.062,4.569-2.331.675-.186.78.144,1.076.359,1.151-1.093,2.21-.222,3.092.439a13.277,13.277,0,0,1,2.021,2.428c.949.067,1.137-1.019,1.819-1.286.169-1.492-.06-2.868.5-4.307.453-1.175-.332-2.518-1.11-3.6-.2-.286-.6-.463-.378-1.01a4.8,4.8,0,0,1,4.864-.514c.895.355,1.978-.123,2.738.758a1.138,1.138,0,0,0,1.057,0c1.245-.771,2.736-.14,3.887-.611,1.437-.588,2.811-.331,4.168-.487,1.548,1.363,3.431,2.114,5.077,3.243a24.553,24.553,0,0,1,2.805,2.465,10.127,10.127,0,0,0,4.736,2.554c3.983.887,4.283.92,6.238,4.051a11.474,11.474,0,0,0,1.615,2.074,4.268,4.268,0,0,1,1.356,3.31,19.006,19.006,0,0,0,.444,5.306c.285,1.118.994,2,1.229,3.306a4.509,4.509,0,0,0-.558,3.138,5.745,5.745,0,0,0-1.749,2.89,6.758,6.758,0,0,1-6.08.21c-2.392,1.173-1.774,3.779-2.606,5.732l-1.731,1.448v2.476a8.483,8.483,0,0,0-2.657,5.489c-.21,2.077-2.047,3.494-1.776,5.56l-1.028,1.028a2.986,2.986,0,0,0,.485,2.239c-.722.884-1.833,1.463-2.189,2.695q0,4.945,0,9.892c0,3.022-1,4.637-3.92,6.174A4.889,4.889,0,0,0,958.513,282v4.356c-1.108,1.7-2.2,3.364-3.343,5.12.51,1.815-.916,3.534-.482,5.376l-1.089,1.089v1.741l-1.07.7c-.4.533.215,1.225-.254,1.648-.524.864-2.167.629-2.089,2.087-.393.412-.881.119-1.341.225l-1.27,1.331c.483,1.391,1.628,2.279,2.619,3.3.045,1.139.307,2.315-.625,3.2l.641.706a4.059,4.059,0,0,0-.747,4.316c.086.433-.541.607-.254,1.3l1.009.778c.207,2.909-1.061,5.685-.458,8.432-1.195,1.164-2.131,2.4-3.742,2.58-.253,1.081-1.337,1.949-.243,3.179.359.4.056,1.4.056,1.925a25.946,25.946,0,0,1-4.929,4.384c.519,1.333,2.109,1.348,2.768,2.467-.424.679-.494,1.51-1.135,2.056v3.924c-1.5,1-3.135,1.941-3.862,4.2v1.936c1.3-.022,2.3.917,3.687,1.391.068,1.934,2.38,1.484,3.348,2.794.288.52.073,1.159.105,1.777l-.924.923c-.821-1.024-2.322-.214-3.286-1.255l-2.74,1.068a24.632,24.632,0,0,1-2.9,7.579l.4.381c-1.657,2.271-.778,4.879-1.038,7.2.71.988,1.911,1.006,2.436,2.02h2.326c.776,1.174.776,1.174.776,4.133a31.949,31.949,0,0,0-5.5,5.061v3.71c-2.57,1.286-1.352,3.654-1.659,5.343,1.016,1.92,1.822,3.639,1.645,5.7l-3.091,3.057c-1.261-.325-1.706.772-2.383,1.375-.222.889.386,1.87-.463,2.65.531.91.261,2.257,1.511,2.754v2.082c-.5,1.721-2.4,1.21-3.17,2.312,1.435,3.187-.738,6.306.018,9.656l.885.766v3.041c-.994,1.316-3.117.392-4.282,2.229a5.167,5.167,0,0,0,1.853,5.127c1.377,1.221,2.948,2.405,2.475,4.848-.081.1-.511.622-.959,1.17-1.86-.91-4.052-.254-6.2-1.249.157,2.94-.47,5.64,1.04,8.126-.511,1.294-1.687,2.366-1.557,3.938.064.774-.4,1.689.647,2.188-1.282,2.5-.755,5.653-3.327,7.869v1.612c.307,1.782,2.132,2.469,1.44,4.346-.721.673-1.589,1.481-2.56,2.386a1.614,1.614,0,0,0-1.664.828c-.469,1.878.982,3.61.371,5.71-.627,1-2.265.875-3.093,1.958-.57,1.475.175,2.828.657,4.065a17.392,17.392,0,0,1,1.471,7.942,15.584,15.584,0,0,0,.084,2.949c.233,1.9,2.342,2.075,3.136,3.648.749,1.483.464,3.306,1.887,4.4-.39,1.06-1.029,1.905-.634,2.946l-2.707,1.388c-1.143.179-1.669-.924-2.709-.421l-.7.821c.751,1.929.791,4.232,2.3,6.221a2.944,2.944,0,0,0-.651,2.572c-.69.4-1.341.144-1.954.241-.455.455-.91.909-1.324,1.324a9.779,9.779,0,0,1,1.58,6.558c.4.454.8.912,1.089,1.237.177.8-.865.939-.5,1.637-.764.147-1.332.7-2.13.885a3.091,3.091,0,0,0-1.693,1.473,2.751,2.751,0,0,1-2.37,1.8c-.933.059-.822,1.262-1.546,1.923,1.225.539.907,2.728,2.954,2.432,1.21-.483,1.3-2.008,2.319-2.719l.793.794a10.232,10.232,0,0,1-.871,4.866,4.547,4.547,0,0,0-.279,3.409c-.383.409-.986,1.055-1.581,1.69v3.846l.8.8h1.175c-.008,1.187,1.772,1.56,1.19,3.2a4.867,4.867,0,0,0-2.1.729,1.827,1.827,0,0,1-1.135-2.04c-.426-.307-1.047-.242-1.342-.756l-.8.8v11.622c1.277,1.172,2.5,2.449,2.1,4.722-2.03.66-4.1,1.491-5.419,3.909a3.956,3.956,0,0,0,.532,2.624,6.221,6.221,0,0,1,1.087,4.677l1.076,1.076c.2.8-.252,1.8.609,2.411,0,.149.039.288-.006.326-.745.621-.507,1.473-.559,2.519l1.648,1.326c.267,2.948-2.981,2.075-3.771,4.273v3.03c1.054.52,1,1.893,1.555,2.95a.989.989,0,0,1-.314,1.226,1.014,1.014,0,0,0-.171,1.261c1.23,1.753.2,2.961-.88,4.181-.244.274-.517.522-.794.8v1.715l1.623,1.384h2.581c1.013,1.585-1.322,2.018-.972,3.462.27,1.114-1.01,1.883-1.365,2.99-.35,1.09-1.7,1.859-2.7,2.866h-2.753a3.907,3.907,0,0,0-1.4,2.6,10.465,10.465,0,0,0,1.065,5.905A6.8,6.8,0,0,1,898,628.094c-.442,1.025.444,2.278-.806,2.994a2.957,2.957,0,0,1,.449,2.9,8.4,8.4,0,0,0-2.182,3.7c-.463,1.5-1.84,2.718-2.815,4.06-1.395-.3-.387,1.537-1.357,1.383-.128.642.254.817.566,1.212-.294.8-.983,1.631-.413,2.716,1.5.413,2.046,2.37,4.068,2.788l-2,1.342v3.053l1.581,1.1v2.147l1.526,1.438a3.845,3.845,0,0,1,.135.594,6.318,6.318,0,0,0,.486,2.561,6.707,6.707,0,0,1,.55,4.263l-1.058,1.12c1.31.753,1.632,2.335,2.783,3.249,0,1.55-.373,3.236.1,4.637.548,1.628.269,3.182.427,4.351-.526,1.815-1.758,2.641-2.763,3.745a9.745,9.745,0,0,0,3.394,6.581q-2.061,2.628-4.077,5.2h-3.4a20.788,20.788,0,0,1-2.449-3.277,10.653,10.653,0,0,0-2.558-3.3h-2.71l-3.116,2.65c-.8,1.268,2.028,1.718,1.1,3.237,2.2,1.13,3.681,2.929,5.559,4.214v2.235c.38.4,1.07.8,1.063,1.193-.017,1.1.927,1.965.6,3.084-.354,1.065-2.052,1.377-1.592,3l2.112,1.987v3.5c-.638.887-1.838.9-2.354,1.9-.448,0-.9-.038-1.345.006a5.569,5.569,0,0,1-5.226-2.058,4.568,4.568,0,0,0-2.646-1.229l-3.274-3.272V704.9l-.987-.986c-.058-.54,1.006-.621.219-1.423h4.231l1.5-1.419v-1.688l-1.015-1.015c-.291-1.238.347-2.672-.839-3.866l1.746-1.4c.454-1.4-.759-2.107-.491-3.137-1.072-.954-.682-2.5-1.4-3.547a26.386,26.386,0,0,0-2.248-2.967,2.613,2.613,0,0,1-.659-2.666c-1.263-1.59-3.052-2.645-3.9-4.761.418-1.233-.656-2.49-.578-3.932a38.289,38.289,0,0,0-.057-4.122c-.264-1.122-2.013-2.051-.255-3.515h3.962c.141-.4.253-.719.389-1.107h1.718c1.146-1.412,2.946-2.136,4.018-3.882-.381-1.117-1.544-1.981-2.552-3.049v-1.606l2.716-2.29c.076-1.891-1.222-3.171-1.912-4.823a6.971,6.971,0,0,0-2.224,1.842c-.673,1.9-1.726,3.209-1.725,4.86h-4.32c-.5-.577-1.085-1.265-1.9-2.216v-2.5c-1.044-2.554-3.692-3.735-3.985-6.437,2.62-1.7,5.265-2.812,8.187-1.423a1.581,1.581,0,0,0,1.261-1.939c-.7-1.078-2.332-1.139-2.792-2.626-.435-1.4-2.294-1.126-3.1-2.2-.551-2.06-.409-4.364-2.142-6.007-.648-.614.228-1.672-.592-2.229-.7-.477-.55-1.25-.8-1.878a16.714,16.714,0,0,1-1.048-7.284c-.93-.793-.184-2.088-.876-2.944-.466-.576-.127-1.229-.233-1.865l-1.081-1.137v-2.724c.826-.969,1.62-1.9,2.567-3.009l1.662-.094c.016-.787,1-1.248.8-1.822l-1.686-1.677V596.8l-1.136-.818V589.68c.985-.764,1.194-2.139,2.437-2.948-1.153-1.153-1.631-2.646-2.966-3.576-.187-2.423.435-5-1.085-7.239.574-1.189,2.163-1.277,2.749-2.349.573-1.05,1.657-1.436,2.429-2.385,1.955.1,4.023-.314,6.034.717.47-1.362,1.776-2.522.028-4-1.8.038-3.71-.174-5.14-1.864a8.105,8.105,0,0,1,1-5.234c.621-1.228,1.451-2.423,1.129-3.948-.116-.553.888-.743.593-1.438a16.744,16.744,0,0,1-1.751-6.465c-.131-2.221-.775-4.408-.438-6.683.971-.237,1.478-1.384,2.613-1.556.271-.87-.367-2.1,1.061-2.571,1.293.429,2.814.7,3.6,2.159h2.8c1.93-1.116.277-2.233.173-3.21-1.836-1.527-3.946-1.705-5.808-2.345-1.744.516-.714,2.966-2.515,3.367a23.7,23.7,0,0,0-3,.027c-1.058.135-1.835-.475-2.843-.781,0-.412-.157-.943.029-1.287a7.121,7.121,0,0,0,.506-3.921c-.108-2.169,1.313-3.584,2.553-4.98.385-.433,1.041-.66,1.353-1.356a9.141,9.141,0,0,0,1.057-3.142c.071-1.19.016-2.388.016-3.583-1.071-1.357-2.822-.684-4.329-1.684a11.694,11.694,0,0,1-1.213-4.617c.045-1.768-.972-3.456-.4-5.386.789-1.112,2.335-1.78,2.811-3.37a5.205,5.205,0,0,1,1.957-3.073c.332-1.231-.476-1.67-1.1-2.348.732-1.143.68-2.562,1.134-3.865s1.967-1.819,2.236-3.214v-1.658l3.245-3.2c.476-2.287-.843-4.3-.519-6.5a14.989,14.989,0,0,1,.554-2.81,18.532,18.532,0,0,0,1.158-7.252A20.446,20.446,0,0,1,877,464.9c.207-1.033.825-2.249.369-3.045-.573-1-.331-1.912-.456-2.858a3.828,3.828,0,0,1,0-.512l1.931-1.92c1.606-.271,3.129-.614,4.135-2.033-.074-1.409.221-2.834-.509-4.206a3.215,3.215,0,0,1-.022-1.9c.2-1.059,1.01-1.924.12-3.212-.567-.819-.16-2.174-.645-3.294a8.5,8.5,0,0,0-2.711-3.8,2.975,2.975,0,0,1-.632-.837c-.078-.141-.013-.36-.013-.845,1.268-1.8,4.51-2.411,4.41-5.544.757-.864,1.8-1.5,2.033-3.007a14.857,14.857,0,0,0-1.557-3.062,2.55,2.55,0,0,1-.429-2.294,44.711,44.711,0,0,1,1.382-4.656,8.941,8.941,0,0,1,2.918-4v-1.96l-1.909-.108c-.825-.629-.89-1.659-1.265-2.142-.265-1.325,1.158-1.425,1.035-2.367-.129-.7-1.072-.154-1.253-.815-.042-.154-.361-.266-.359-.394.017-1.115-.822-1.914-1.07-2.86a15.164,15.164,0,0,1-.076-3.782c.4-.489.9-.181,1.4-.3.987,1.386,2.541,2.17,3.916,3.314h3.275l1.31-1.452v-1.519c-1.114-1.144-1.6-2.952-3.4-3.471-.745-1.713-2.192-3.141-2.093-5.2.035-.734.006-1.47.006-2.294a11.69,11.69,0,0,1,2.891-2.554,3.488,3.488,0,0,0,1.52-2.879v-4.6l1.359-1.359c.559.4.956,1.188,1.786,1.195a5.408,5.408,0,0,0,1.448,3.11h2.923a19.6,19.6,0,0,1,5.111-3.341,4.351,4.351,0,0,0-.108-2.047h-2.28l-1.953-1.953C899.878,372.282,897.905,371.662,897.368,370.175ZM877.035,628.709c-.82-.812-.676-1.888-.677-2.939,0-1.075,0-2.149,0-3.077a5.109,5.109,0,0,1,2.665-.838l2.183-2.059c.88-2.773-1.477-5.017-.979-7.663-2.086-.525-2.892-2.3-4.021-3.325h-3.775c.357,1.183-.383,1.756-1.072,2.387,1.617.926.013,2.258.479,3.474.485,1.265.108,2.861.108,4.736l1.585,1.576a1.581,1.581,0,0,0,.026,2.364c-1.079,1.186-.226,2.594-.458,3.49l1.874,2.282C875.683,628.976,876.355,629.358,877.035,628.709Zm64.057-411c-.551.23-1.215-.182-1.978.379-.747.067-.206,1.269-.919,1.556v2.489c1.369.578,2.416,1.761,3.986,1.7l1.37-1.37v-2.3ZM900.483,563.287c.215-.456,1.158-.689,1.251-1.587-.592-1.421-2.08-1.363-3.132-1.987-1.13.653-.658,1.748-.729,2.689-.011.147.128.3.24.55C898.846,562.649,899.188,563.786,900.483,563.287Zm2.041-30.184a1.352,1.352,0,0,0,.486-2.1l-.956-1.75c-.827.1-1.377-.109-1.809.158a1.5,1.5,0,0,0-.634,1.9C900.333,532.252,901.617,532.268,902.524,533.1Zm-14,143.1c.731.54.417,2.055,1.827,1.963a3.5,3.5,0,0,0,1.327-2.051l-.411-.411.526-.577c-.319-.318-.642-.645-.968-.967-.282-.277.085-1-.658-.956C888.192,673.42,889.7,675.548,888.521,676.2Zm39.5-290.216c.21-1.2,1.647-2.3-.1-3.28h-2.643c.638.87-.583,1.014-.4,1.726A5.165,5.165,0,0,0,928.017,385.984Zm-12.889-42.366c-.6-.192.124-1.207-.5-1.884-.874.78-2.5.242-3.1,1.963.9.4.561,1.816,1.578,1.954ZM902.851,599.274c-.149-1.267-.149-1.267-.731-2.026h-2.957c-.593,1.018,0,1.5.59,2.026Zm-18.18,72.789c1.235.177,1.944-.136,2.181-1.191-.909-.863-.909-.863-2.181-.778Zm35.565-373.751c1.2-.207.882-1.356,1.325-2.152-.578.095-1.071-.345-1.674.183C920.136,296.91,919.563,297.638,920.236,298.312Zm-5.309,73.281a1.526,1.526,0,0,0,1.2,1.67c.56-.123.5-.492.479-.859Z" fill="#007dce"/><path d="M671.372,582.012c.969,1.193-.561,2.267-.154,3.468.423,1.245-1,2.312-.483,3.5l-2.552,2.511c-2.434.5-4.76,2.24-7.319.444a4.7,4.7,0,0,0-.671-2.1l.629-.938c-.981-1.266-.477-2.751-.608-3.983a18.38,18.38,0,0,1,4.19-4.851l.468.467a4.586,4.586,0,0,1,3.907-1.6l1.236-1.5c-1.113-1.265-.078-2.365.424-3.538,1.837-1.648,4.06-.853,6.073-1.085.858,1.666-.559,3.018-.3,4.511-.456,1.189-1.973,1.291-2.488,2.237C673.136,580.638,671.854,580.8,671.372,582.012Z" fill="#007dce"/><path d="M525.522,741.309c1.145,1.709-.841,3.34-.385,4.962-.548.45-1.127.133-1.625.279a7.816,7.816,0,0,0-1.244.629c-1.069-1.316-2.86-1.4-4.2-2.531a4.069,4.069,0,0,0-.671-2c.758-2.339,3.626-3.5,3.339-6.365a4.063,4.063,0,0,1,3.272-1.326c1.212.17,1.747,1.357,2.765,2.012C527.125,738.56,524.981,739.432,525.522,741.309Z" fill="#007dce"/><path d="M619.368,670.149a3.275,3.275,0,0,0-.645-2.71l2.007-1.862c.365.154.9.727,1.719.434l1.305,1.408c.766,1.506-.949,2.233-1.194,3.464C621.343,671.388,620.411,670.638,619.368,670.149Z" fill="#007dce"/><path d="M305.68,787.1c.17.951-.479,1.629-.793,2.41-.568.224-.815-.232-1.134-.511l-.447.4-2.588-2.457c-.17-.955.584-1.575.83-2.327C303.678,784.232,304.266,786.337,305.68,787.1Z" fill="#007dce"/><path d="M876.155,697.956H873.22c-.131-.821-.917-1.37-.685-2.406l.587-.665c1.417-.7,2.491.529,3.7.462C877.211,696.478,876.4,697.119,876.155,697.956Z" fill="#007dce"/><path d="M698.359,480.181c1.015.647,2.1.941,2.554,2.091l-1.371,1.22h-1.61l-1.421-1.521A3.337,3.337,0,0,1,698.359,480.181Z" fill="#007dce"/><path d="M936.721,210.026H935.08a1.712,1.712,0,0,1-.805-1.956l.791-.72h1.721C937.816,208.224,937.9,209.045,936.721,210.026Z" fill="#007dce"/><path d="M557.031,515.256l1.691-.86c.831.077,1,.99,1.637,1.245v1.871c-.462.346-.916.145-.712.131Z" fill="#007dce"/><path d="M533.641,750.857l.842.951c.108.7-.423.856-.711,1.271H531.39c-.406-.377-.176-.9-.107-1.4C531.994,751.137,533.142,752.044,533.641,750.857Z" fill="#007dce"/><path d="M663.568,573.573v-2.656a1.721,1.721,0,0,1,2.22-.707C664.779,571.171,665.448,572.959,663.568,573.573Z" fill="#007dce"/><path d="M240.66,821.655c1.592-.913,1.592-.909,2.714.375-.056.613-.533.867-1.1,1.219A4.1,4.1,0,0,1,240.66,821.655Z" fill="#007dce"/><path d="M575.842,714.622l1.149,1.539c.128.557-.624.687-.807,1.208l-1.34-1.359Z" fill="#007dce"/><path d="M874.889,718.917h-1.621c-.438-.428-.062-.917-.26-1.288.48-.537,1.008-.3,1.521-.227C874.923,717.787,874.546,718.276,874.889,718.917Z" fill="#007dce"/><path d="M852.119,479.364c.379-.245.527-.775.929-.8.7-.055.785.574,1.4.763l-.9.872C852.7,480.29,852.485,479.723,852.119,479.364Z" fill="#007dce"/><path d="M699.768,497.126a2.413,2.413,0,0,1,2.306-.735v.767A3.594,3.594,0,0,1,699.768,497.126Z" fill="#007dce"/></g></svg>