<svg id="Layer_1" data-name="Layer 1" xmlns="http://www.w3.org/2000/svg" viewBox="0 0 1080 1080"><title>derrida_VI_logo</title><path d="M407.53,676.91,405.65,675c.35-.31.67-.86,1-.89,1.44-.1,2.9,0,4.34,0,.21,1.14,1.09,1.73,1.79,2.47a1.75,1.75,0,0,1,2.68,0l2.33-2.34a1.66,1.66,0,0,1,.87-2.62,2,2,0,0,1,1.71.58c.86-.61,1-1.79,2.16-2.24.92-.37.87-1.67,1.45-2.69a4.87,4.87,0,0,0,1.07,0,1.38,1.38,0,0,0,.73-.47,10,10,0,0,0,.72-1.26c1.67,2,3.86.36,5.33,1.76.52.09.66-.41,1.18-.73,1,1.09,2.31.65,3.54.75l.83-.83v-2.5l2.91-2.88a2.27,2.27,0,0,0,2.38-1.25h4.58c1.32,2.22,3.93,1.57,6.6,2.25.08,0,.3-.65.77-1a2.26,2.26,0,0,1,1.52.08l.21,1c.65-.28,1.29-.82,2.13-.51l1,1c2.13.83,3.94-1,5.85-.41,1.1-1.32,1-2.75.95-4,1.81-1.18,2.4-3.57,5.86-4.1a13.7,13.7,0,0,0,7.06-1.85c.55.43.92,1.11,1.92,1.22a9,9,0,0,1,3.82,1.24c1.5,1,2.58.35,3.81-.38v-3.13l1.76-1.55c.49,0,1.46.3,1.88-.05,2.38-2,4.92-.49,7.41-.52,1,2.3-1.49,4-1,6.25.32,1.19,2,1.46,1.89,3h3.11c-.18-2,.52-4.16-1-6.18,1-1,2-1.73,1.94-2.79,3-1,5.39.49,7.88.94a.71.71,0,0,1,.48.31c.7,1.77,2.4,2.13,3.89,2.55,1.25.35,1.39,1.65,2.23,2.06,1,.48,1.49,1.38,2.39,2a1.92,1.92,0,0,0,2.13-1,5.08,5.08,0,0,1,1.62-4.68c1.78.79,4,.27,5.75,1.56.81.6,1.58.27,2.36.35,1.79.19,3.62-.32,5.38.6a12.66,12.66,0,0,1,2.81,2.09c.56.53,1.11.41,1.71.44a5.61,5.61,0,0,0,1.93-3.23c.44-1.45.83-2.66,2.64-2.86,1-.28,2.29.2,3.3-.92,1.55,2,3.19-.75,4.76.34l2,3.14c-.17.6-1,1-.27,1.92l-2.17,1.74c.32,3.19,2.32,5,4.37,6.95v3.45c1,2.33,2.41,3.85,4.9,4.28l1.36-1.27.9,1.54.75-.75c1.22,2.07,3.56,1.78,5.43,2.44a6.71,6.71,0,0,1,2,1.31h2.35l1.71-1.47c.16-1.48-1.14-2.45-.52-3.66-1.13-1.35-2.34-2.34-4.13-2.35-2.16-1.69-2.26-4.09-2.2-6.62a7.62,7.62,0,0,1-3.18-5.17c.22-.92,1.11-1.24,1.57-1.92h3.22c1.4,1.43,1.63,3.86,3.81,4.82l.42-.34c.94.84,2.13.36,3.15.53.84-.59,1.49-1.51.95-2.14-.92-1.07-.33-2.17-.59-3.16.87-1.12,2.45-1.22,3.17-2.86.23-1.87-.76-3.87-1.33-5.94-.06-.23-.67-.31-1-.46a4.67,4.67,0,0,1-.08-2.09c.69-.6,1.63.09,2.36-.47l.17-1.56H589l1.28-1.28h2c.46.45.13,1,.28,1.66,3.75,1.09,6.84,3.74,10.56,5.15,1.71-.36,1-2.22,1.91-3.09-.18-.94-.9-1.23-1.7-1.42-.25-1.13-1.43-2.05-.63-3.4.79-1,2.3-1.13,2.89-2.46l-.4-.4c-.18-.52.73-.65.3-1.57l-1.08-.52c0-2.47.07-4.45,0-6.42s1.41-3.46.5-5.19a6,6,0,0,1,3.78-2l2-2.15a20.27,20.27,0,0,0-.49-4.59c-.35-1.06.62-2.56,1-3.86a1.55,1.55,0,0,0-.55-2c1.3-.87,1.82-2.32,2.81-3.42h1.25c1.55-2,.79-4.29,1-6.7a24.14,24.14,0,0,0,6.16-6.83c.27-.45,0-1.22,0-2.1l-1.19-.82a1.94,1.94,0,0,1,1-2.3,1.3,1.3,0,0,1,.83.26c.83.58.54,2.06,1.83,2.23a15.62,15.62,0,0,0,5.06-12c2-2.33,2.83-5.54,5.22-7.21.65-.67.27-1.23.44-1.71l1.23-1.23c-.22-1.05.18-2.2-.29-3.45-.86-2.27-.32-3.6,1.71-5,1-.69,1.4-1.92,2.34-2.64.77-.59-.33-1.6.61-2.06-1.13-.88-.42-2.1-.65-3.18,1.71-1.11,2.18-3.22,3.76-4.26v-2l-1.18-1.18v-2.63a21.52,21.52,0,0,1,2.36-2.08c.88-.6,1.88-1,2.77-1.65a3.71,3.71,0,0,1,2.74-.92,25.57,25.57,0,0,0,3.58,0,1.91,1.91,0,0,0,1-2.21l-2.53-2.53a19.34,19.34,0,0,1,4-10.94c1,.33,2.2-.45,3.15.58.9-1,1.72-.28,2.43.23l.81-.74c.56.9,1.46.54,2.5.64l1.64-2.14c.13-.74-1.1-1.72-.65-3-.68-.71-1.17-1.64-2.3-1.77-.38-1.42-1.41-2.89-.8-4.29a9.94,9.94,0,0,0,.52-4c-.65-.86-1.33-1.63-1.22-2.71.19-1.8-.51-3.69.34-5.24l-2.47-2.47c-3,1-4.89,4.27-8.24,5.47-.56-.3-1.47-.38-2-1.22-.31-.5.62-.42.42-.79.3-.94-1.23-1-.56-1.87-2.22-1.45-4.49-.72-6.58-.93l-.83.83a10.41,10.41,0,0,0,1.25,7c-.54,1.05-.71,2.07-1.56,2.72-.5.07-.66-.75-1.27-.48-.52.12-.41.58-.46,1-.85.43-1.8,0-2.84.29-.6-1.82-2.59-2.33-3.49-4.1-.81-1.59-2.54-2.71-3.88-4-1.68-.16-3.37-.3-5,1.17a14.12,14.12,0,0,1,3.33,2.83,2.8,2.8,0,0,1-.56,2c-.32.54.22,1.51-.76,2h-4.1l-2.95-3c-.5-.2-1.06.18-1.58-.3l-.07-1.28,1.81-1.81c.39-1.71-.89-2.07-1.44-2.87a6.37,6.37,0,0,0-4.5,1.2,11.35,11.35,0,0,1-4.5,1.9,7.22,7.22,0,0,0-4.46,2.75,4.69,4.69,0,0,1-.4.46l-1.77,1.77c-2.16,0-2.38-2.4-4-3.11a3,3,0,0,0-.93,0,1.35,1.35,0,0,0-.69.56c-.71,1.28-2.13,2.08-2.41,3.64-3.36.6-6.66-.21-10.23-.61l-2.11-2.59-.09-.8c-.61-.38-1.24-.14-1.83-.21-1.46.34-1.54,2.1-2.88,2.71a4.4,4.4,0,0,0-2.07,3.15c-2.06.89-1.92,2.71-1.86,4.5-1.07.72-1.6,2.21-3.23,2.21-1.4-1.68-2.39-3.65-4-5.07-2.41.06-3.53-1.82-5-3.11-.64,0-1.51-.26-1.84,0a3.22,3.22,0,0,1-3.5.45c-2.24-1-4.44-.16-6.54-.56-1,1.68.7,3,.33,4.45l-3,2.64c-2.72,1.18-5.65-.78-8.7-.08a32.13,32.13,0,0,0,2.48,6.22c-1.71,2-3.43,3.57-6,2.93-2.55-.43-2.33-3.28-4-4.5,0-1.16-.37-2.4.58-3.44-.59-1.14-.92-2.46-2.5-3.16-1.44.46-3-.82-4.71-.68s-3.33,0-5,0l-1.56,1.56v5.09a6.8,6.8,0,0,1,3.69,1.71v1.71c-2.75-.36-5.5.56-8.2-.68-1.18,0-.77,1.61-1.9,1.94-.8.23-1.39,1.16-2.07,1.78-1.58.06-2.95.94-4.44,1.34-1.9-.93-3.38-2.76-5.8-2.53-.15,1.21,1.37,2,.21,3.22-.75.76.14,2-.44,2.9-.92.34-1.07-.21-1.1-1l-9.64-2a1.82,1.82,0,0,0-1,1.47,4.85,4.85,0,0,1-3.27,3.88,33.63,33.63,0,0,1-3.55,1c-.32,2.27-2.92,2.12-4.19,3.54-.72.26-.92-.84-1.7-.59-.5.51-.5,1.46-1.34,1.84h-1c-2.57,2.43-3.19,5.86-4.8,8.51-2.39.92-4.36-.71-6.64-.33-1.54-2.06-3.84-3.21-6.67-4.41a7.5,7.5,0,0,0-4.84,1.41,5.57,5.57,0,0,1-3.59,1.08,2.57,2.57,0,0,0-1.93.64,11.76,11.76,0,0,1-4.47-2.38c-.43-.88-.9-2.41-1.63-3.7a27.5,27.5,0,0,1-1.63-4c-.34-.9-1.3-1.56-2-2.33-1.77.28-3.25-1.31-5-.52L427,526.69c-.63-2.5.65-5.14.6-7.86l-1.12-1.1a2.47,2.47,0,0,1-.15-.59,17.78,17.78,0,0,1,.52-4.45c.39-1.5,1.14-3,.74-4.72-.25-1.07.6-1.77,1-2.61a1.29,1.29,0,0,1,1.39,1c0,2.67,1.8,4.16,3.42,5.79a8.55,8.55,0,0,0,1.11.84,2,2,0,0,0,.87,2.37,1.9,1.9,0,0,0,2.14-.91l-.57-.63c-.23-.66.51-.9.56-1.33a28,28,0,0,0,0-3c-2.3-2.53-1.1-7.11,0-10.61l-1.23-1.3c.06-.93-.27-1.93,1.09-2.78,2.45-.16,5.18,1.24,8.13.48.37-.74,0-1.68.16-2.6l-1.25-1.32v-1.4h5.3c.11-1.39,1.52-1.38,2.14-2.31v-4.89c1.11-1.75,3.36-1.72,4.65-3s3.59-1.08,4.36-3.23l2.28,2.75a6.69,6.69,0,0,1-.89,4.41c1.62.94,1.56,2.68,2.3,4.08.64.35,1.37.11,2,.14,1.09-1.39,1-3,.92-4.74.48-.45,1-.95,1.55-1.43a4.53,4.53,0,0,1,3.21-1.31c4.17,0,8.33,0,12.5,0,.31,0,.77-.13.91,0,1.22,1.29,2.39.13,3.57,0l.58-.1c.27-1.71,2.33-1.94,2.71-3.55H499c2.06,2.08,2.32,5.17,4.38,7.33h2.89l3.49-3.5c-.7-.5-.23-1.5-.4-2.42-1.08-1.08-2.33-2.13-2.58-3.81-.27-.41-.88,0-.93-.12a1.21,1.21,0,0,1,.43-1.64q0-1.88,0-3.75a6.58,6.58,0,0,1,2.48-1.58l1.54,1.87h3.21c.19.47.27,1.07.5,1.14,1.29.38,1.32,1.84,2.26,2.48,0,1.84,1.49,2.37,2.66,3.32a45.32,45.32,0,0,0,4.78,2.78,4,4,0,0,1,.5-1.05c2.35-2.7,2.38-2.89,5.31-3.59a3.81,3.81,0,0,0,2.88-2.43,3.55,3.55,0,0,1,2.38-2.75c.44-.16.75-.7,1.11-1.06,1.86-.55,3.5.77,5.35.59s3.54,0,5.44,0c.15,1.19,1.75.86,2.17,2.1.29.87,1.43,1.3,2.21,1.89,1,.75,2.38-.3,3,.94,1.39-1.05,3-.24,4.46-.59a13.05,13.05,0,0,0,4.08-1.6,8.31,8.31,0,0,0,1.27-2.54,2.75,2.75,0,0,0,1.72-1.23,7.81,7.81,0,0,1,1.37-4.52c3.3-.58,5.72,2.28,8.89,2.45,1.46-.83.86-3.17,3.31-3.89a1.21,1.21,0,0,0,1.4-.16c.64-.7,1.4-.07,2.22-.6l.86,1.39c.86.1,1.35.24,1.83,0a1.8,1.8,0,0,0-.29-2c-.42-.54-.2-1.36-.08-2.05l1.49-1.49c1.12.22,2.46-.45,3.72.53.39,0,.58-.77,1.17-.52,1.35-1.12.95-2.72,1-4.07.31-.31.53-.72.75-.73,3.61,0,7.23,0,11,0,1,.65.87,1.72.54,2.84l-1,.26v2.58l-3.2,3.2c0,.62,0,1.25,0,1.86.47.89,1.53.93,2.28,1.58.55-1.39,2.51-1.44,2.95-3.06H608l1.53,2.4c4.25.56,8.4,2,12.71,1.93a2.25,2.25,0,0,0,.23-1.62,5.08,5.08,0,0,0-1.49-.95c-2.52-1-4.76-2.54-7.3-3.51-.43-.16-1-.08-1.32-.61a6.4,6.4,0,0,0-1.09-1.13c0-.92.6-1.08.86-1.51,1-.39,1.51,1.16,2.44.59.55-.23.36-.73.59-1.17h5.3c2.07,1.58,4.7,2.67,6.66,4.83h2.07l.57-1.15h2.37l4.33-4.48c1.42,1.53,3.57-.2,4.74,1.51,1.35-.88,2-2.39,3.48-2.68H654c1.48-1.39,3.26-1.41,5.09-1.19,1.45,2,.66,4.33.88,6.39,1.26,2.12,3.69,1.22,5.38,2.16l1.48-1.41c-.08-1.43.35-2.9-.69-4.12,1.89-1.21,1.89-1.21,4.85-1.21,3.24.9,3.87,3.74,5.84,5.3l-.63.63,2.76,2.73h2.42c1.51-.56,2.63-1.48,4-2.08a3.56,3.56,0,0,1,3.85.58c1.48,1,3.13,1.91,4,3.47H699c3.09,2.56,6.36,4.8,9,7.81,0,2.48,1.79,4.08,3.61,5.21a4.15,4.15,0,0,1,2.1,3.58c1.65,1.6,3.42,3.13,4.13,5.77l-1.47.47.5.52c-.36,1,.23,2.13-.59,3.22-.68.89-.07,2.36.59,3a19.88,19.88,0,0,1,3,4.63v2.11c-1.33,2-2.47,4.13-5.22,3.6l-1.77,1.7a15.06,15.06,0,0,0,3.25,4.22v5.07l-1,.9c-2.16-.58-4.38-1.57-6.83-1.2-1.14,2.14-3,3.82-4.13,6.33,1.83,1.23,1.2,4,3.17,5.13.28,1.45-1.19,2.39-.37,3.86.81.12,1.23,1,1.48,2l-.45.49c1.27,3.59.6,7.15-.11,10.7L706.89,545v3.81c1,.49,1.13,1.76,1.89,2.6l-.8,1.87c-2.66,1.37-5.39,1-8,.11-2.24,1.18-1,2.76-.56,4.17l-1.25.51c0,1.05-.31,2.18.45,3.29l-.44.51a4.44,4.44,0,0,1,1.11,3.89l-.93.36c-.31,1.68-.38,2.68.38,3.44l-2.53,2.19c-1.09,1-1.25-.91-2.35-1-.35-1,.41-2.29-.65-3.19.08-.35.67-.44.46-1.37-1.79-1.4-3.16-3.66-4.9-5.62-.27-1.73,1.7-2.39,1.9-4.12,0-.44-.66-.55-.83-1h-5.2l-2,2.32c.28.84-.94,1.54-.74,2.57.57,1.59,3,2.74,1.18,5h-2.52c-2.13,1.45-2.33,3.89-3.7,5.48-1.63.89-2.93-.75-4.73-.33l-1.52,1.79A36.55,36.55,0,0,0,673,577.6c1.26,2.1,3.3,2.12,5.11,3a3.5,3.5,0,0,1,0,1.17,4.08,4.08,0,0,1-.8,1h-2.66c-.4-.23-.23-.58-.28-.93-.83-.51-1.77-.14-2.84-.3-.65,1.65-2.9,1-3.8,2.58-.3.52-.12,1-.27,1.58a11.28,11.28,0,0,0-3.59,5.8c.12.36,1.33-.17,1.22,1-.05.57.94.94,1.72,1.1v2.69c-.41.69-1.15.8-1.74,1.13-.13.73-.2,1.44.48,1.88a9.48,9.48,0,0,1-2.69,3.42c1.49,1.24,1.43,3.32,3.18,4.28.73.39,1.42.07,2-.72v-5.09l2-1.45h2c1.7.85,2.67,2.64,4.14,4a6.46,6.46,0,0,1-1.86,5.12c.11,2.28-2.26,2.76-3.15,4.45-.33,1.9-1.13,2.69-4.89,4.69v1.62c-1.41,2.13-2.6,4.24-5,5.1-.28,2,.68,3.55,1,5.56a3.74,3.74,0,0,1-2.64,2.41c-2.93.77-4.6-1.32-6.32-3.1-1.19.38-1.64,1.43-2.49,2-.47-.11-1,.24-1.54-.38a15.18,15.18,0,0,0,1.91-7.48c-2.49-1-4.79.63-7,.39L642,626.2l2,3.81c-1,1.32-.88,2.84-.72,4.47l2.88,2.73a1.89,1.89,0,0,1,1.79.58l.79-.79v-3.08c.55-.77,1.63-.16,1.7-1.35,1.76,1,2,2.47,2.34,4h3.21l.88.88v5.2l-.72.72c-2.25.76-4.21-1-6.43-.45-.58-1.45-2.14-1.16-3.34-1.94-1.39,2.46-.25,5.11-.78,7.7l-3.25,3c1.35,3.14.7,6.12.9,9-2,1.48-3.39,1.22-4.67-1-1.89.16-3.94-.43-5.9.87v7.65c-1.33,2.88-4.54,3.18-5.39,5.91a9.93,9.93,0,0,1-4.31-1.7c-1.21-.8-1.44-2.64-3.29-2.76-.8,3.09.61,5.84,1.25,8.77l3.49,2.24c.5,1.14-.49,1.73-1.26,2.53.6,1.9-.75,3.66-.6,5.6a8.07,8.07,0,0,0-2.56,4.25c-.52,2.52-2.53,4.25-5,5.42a4.43,4.43,0,0,0-2.43,3.52,15.37,15.37,0,0,0,0,2.13c-2-.56-3.68.78-5.65.62s-4,0-5.91,0a5.8,5.8,0,0,1-2.62,1.35c-.47.42,0,1-.39,1.66l-1.55,1.54-1.54,10.28c-1,1.22-2.65,2.21-3.35,4-2.06,1-3.25,3.14-5.09,4.34a12,12,0,0,0-3.45,3.57,6.53,6.53,0,0,1-.77.78,7.16,7.16,0,0,0-5.26,1.44c-.18,1.54.33,3.24-.95,4.71-1.19-.16-2.12,1.1-3.41.78-.11.53.07.87-.46,1.2h-2a10.46,10.46,0,0,1-2.58,3.38c-.14.82.34,1,.57,1.31v5a5,5,0,0,1-3,1.85c-1.81.31-3.24,1.66-5,2.51-.27.87-.57,1.93-.88,2.92a17.05,17.05,0,0,1-2.62,4.21c-.86,1.24-2.17,2-3,3.42a2.56,2.56,0,0,1-3.67.66c-.4-.29-.77-.18-1.43-.29-1.65,2.36-4.46,2.66-7.11,3.3-.71.92.91,1.34.56,2.26l-2.08,3.06a8.21,8.21,0,0,1-8.13-2.39c-.48-1.11,1.32-2.38.54-4.12-1.45,0-1.8-2.11-3.5-2.21v-2.67l-1.93-1.43c0-.86,0-1.28,0-1.7L524.46,757c.29-1.17-1.05-2-.68-3.19l-2.46-2.35v-2.07c-1.75-.49-.64-3.39-3.11-3.51l-.12-2.17c-2.2-1-4.83-1.33-6.2-3.92.15-.68.9-1.37.68-2.32,1.23-.24,1.83-1.27,2.78-2.11,1.76.13,3.7-.38,5.5.63a2.8,2.8,0,0,0,1.19-1.47c-1.26-.54-2.25-1.82-3.78-.35-1.43-2.67-3.09-5.19-.94-8.35a16.19,16.19,0,0,1,5.12-1.88V720l2.36-1.48c.84.09,2.2,1,4,.46-.42,1.83.92,2.86,1.27,4.4h2.73c.68-1.91,3-1.67,4.28-2.94,1.36-2.85,1.4-6,2.23-9.32l-2-1.61c-.64-1,1.2-1.55.28-2.52-.67-.71.74-1.26.54-2.18a13.33,13.33,0,0,1,0-2.8c.95-1.52,2.79-2,3.92-3.31,1-1.2,1.67-3,3.8-2.71.26-1,1.53-1.11,2-1.9,1.24-2.32,2.61-4.56,4.06-6.76.18-.28,0-.78,0-1,.41-.6,1-.14,1.23-.87v-1a4.15,4.15,0,0,1,.46-.38c2-1.2,3.72-4.24,3.27-6.14a9,9,0,0,0-1.47-3.12,16.8,16.8,0,0,1-2.33-4.68,12.84,12.84,0,0,0-3-4.5v-2.3a8.05,8.05,0,0,1-2-3.5c-.73-.36-1.06.08-1.4.45a1.81,1.81,0,0,0-1.85-.54l-1.29,1.82-.33-.32v3.24c1.55,0,1.91,1.94,3.48,2.15a1.66,1.66,0,0,1,.26.44c1.35,5,.28,5.06-2.41,7.86-.48.5-1.15.85-1.34,1.63-.75,3-3.7,3.53-5.82,5-.14.1-.41,0-.62,0-.57-.42-1.19-.79-1.14-1.64-2.45-1.5-5.17-.6-7.69-.88a54.33,54.33,0,0,1-12,5.66c-.49,1.22-1.13,2.26-.83,3.41l-1.59,1.59c-1.9-.53-3.66,1.12-5.57.57l-1.29,1.29c-.48,0-1,0-1.52,0a4.28,4.28,0,0,0-4.38,2.5,2,2,0,0,1-2.22,1.24L492.87,701h-1.31l-1.16,1.16c-2-1.82-4.91-1.73-7-3.62H480.9c-1,.91-1.44,1.81,0,3h-6.79c-.6.9-1.88.64-2.19,1.72-.27,1.27,1.09,2.35.51,3.73-.8,1.74-3.47-.16-3.8,2.32l-.82-.82a6.38,6.38,0,0,1-5,2.56l-4.36,4.36c-2.13-.25-4.38,0-6.74-.51a9.44,9.44,0,0,0-6.6.45c-.4.22-1,0-1.64,0a70.59,70.59,0,0,0-5.54,6.82h-3.15l-.88.88v3.74c-.73.77-1.51,1.3-1.66,2.3-1.56,0-3.25-.38-4.64.1a10.52,10.52,0,0,1-4.15.49c-1.47-.08-3.05.56-4.38-.5a4.55,4.55,0,0,0-.87.87c-.14.23,0,.61,0,1.22,1.34.81,1.8,2.59,3.11,3.74v3.75c-.34.56-.92.24-1.73.39l-2.59,3c-1,.18-1.79-.26-2.17,1.09l-.84-1.59c-2.66.23-4.44-1.8-6.92-1.75-1.17.81-2.64.38-4.21.48l-1.55,1.86h-2.15c-.66.46-1,1.25-2,1.31a3.69,3.69,0,0,0-2.33,1.12c-1,1-2.22,1.07-3.49,1.4-2.75.71-5.58,1-8.32,1.74a5.2,5.2,0,0,0-2.81,1.52c-.5.59-1.13.32-1.7.43l-2.8,2.8c.7,3.13-1.29,5-3.82,6.21a8.37,8.37,0,0,1-5.22.91c-.68,1.28-2.34,1.28-3,2.47a6.88,6.88,0,0,1-5.2-1.12c-1.39-1-1.59-.83-3.94.08.28,1.7-1.1,2.69-2.57,4.41,1.73-.42,2.75.21,3.86-.56s1.85,0,2.41.85c-.09,2.14-1.57,3.28-2.87,4.55-3.41.09-6.6-1-9.93-1.85-.39,1.13-1.44,1.43-2.49,1.89s-1.09,2.25-2.26,2.72a12.13,12.13,0,0,0-2.86,2.24H332.2a1.42,1.42,0,0,0,.32,2.15c-1,.69-.4,1.88-.64,2.73-1.59,1-3.37.87-4.86,1.58-.74,2.43,1.58,2,2.74,2.78l4.32-2.64.56,1.57c.73,1.55-1.72,2.26-1,4.21h-7.71a5.57,5.57,0,0,0-2.5-1.23c-.29-.61-.4-1.35-1.15-1.75h-4.94c-.37.39-1.07.59-1,1.53l4.4,2.21h2.79l.85.85v4H319.6L318,791.64h-3c-.88-.76-2.19-.79-2.64-2.06a40.82,40.82,0,0,1-7.92,6.77,8,8,0,0,0-2.82,2.87c-.59,1.13-2.05,1.41-1.93,2.58-1,.6-1.72.3-2.39.39-.46.24-.22.75-.51,1.16h-4c-1.3-1.4-3.05-1.2-4.83-1.13-1.41.71-1.72,2.26-2.13,3.66h-4.14l-2.79,2.79c.81.81.46,1.79.55,2.68l-1.24.44V813c-1.23,1.64-3.3.6-4.8,1.71-.6-1.61-3.06-1-3.55-3-1.42-.33-3,.39-4.12-.68-1.11-.18-1.61.7-2.47.76v2.08L264.4,815v3.18c-2.33,1.63-5.06.6-7.66,1-1.32-1.41-3.57-1-4.6-2.63-1.88.51-1.88.51-2.07,2.15.92,1.62,2.93,2.09,3.67,3.83a1.71,1.71,0,0,0-.49,1.9c.16.44.66.23,1,.45.07,1.35,1.19,2.52.64,4.23a15.7,15.7,0,0,1-4.27-.49c-1.33-.44-1.55-2.35-3.35-2-1.6,1.25-2.82,3.19-5.11,3.88-.88.26-1.5,1.4-2.3,2.2-.76.21-1.72.11-2.31,1a1.78,1.78,0,0,1-2.07,1c-1.62,2.62-1.62,2.62-1.7,3.93-.71,1.28-2.22,1.75-3,3-1.68-.31-1.81,2.3-3.48,1.84-.75.4,0,1.69-1.16,1.86h-6.47c-.06,1.14-1,1.57-1.57,2.41.33.84,1.08,1.68.5,3l-2.5,2.14c-1.87.54-4.07-.53-6.36-1.25l-1.71-1.84h-5.23a5.39,5.39,0,0,0-3,2.48c-.73,1.28-2.36,1.45-2.79,2.85-.53,1.59,1.11,2,1.72,3.1v2.66l-1.54.14c-.61,1.73-2.66,2.84-2.08,5-1,1.8-3.22,2.38-4,4.46a20.52,20.52,0,0,1-6.1-4.29c.4-1.12,1.53-2.24-.13-3.21-1.33-.82-2.41.64-3.77.46-1.57,1.38-3.17,2.78-2.89,5.26-.42.4-.66,1.06-1.31,1s-.57-.59-.59-1a2.37,2.37,0,0,0-.51-.28,3.21,3.21,0,0,0-2.8.69,21,21,0,0,1-4.06,2.38,4.31,4.31,0,0,0-1.36,1.09c-.59.75-1.58,1.53-2.21,1.45-3.6-.47-7.07,1-10.43.64l-1.77,1.55c1.59,1.27,1.46,3.59,3.22,4.44-.59,2.33-2.89.85-3.7,2.15-.8-.08-1-.75-1.63-1.18h-4c-1.22,3.27-4.8,4.39-6.9,7.14-.44.86.5,1.54.61,2.32,0,1.32-1.26,2.07-1.32,3.33-.46.65-1.29,0-1.94.58a2.6,2.6,0,0,1-2.88.08c-2.46-1.46-5.38-1.59-7.78-3l-1.05,1v3.08l-2.65,2.3a.76.76,0,0,0-.68,0c-1.65,1.56-3.76,1.95-5.83,2.57-2.85.86-5.52,2.25-8.3,3.34-.83.33-1.6.07-2.5.44a40.53,40.53,0,0,1-2,5,8.54,8.54,0,0,1-4.24,3.64H97.3c-1.48-1.29-1.48-1.29-6.13-1.23-1.61,1.09-3.2,2.2-3.64,4.44-2.42-.29-4.67.13-7-.59a7.18,7.18,0,0,0-6,1.23,3.22,3.22,0,0,0-2.81-.66c-1.35-1.65-3.64-1.66-5-3.16H64.13l-3,3.09H56.64c-1.6-1.31-2.32-3.48-4.1-4.65v-1.3l-4-4H47.28c-.54-.38-.24-.95-.35-1.56-1.67-1.35-2.4-3.64-4.38-4.94a4.56,4.56,0,0,0-1.23-3.85c-1.58-1.73-1.55-3.79-.93-5.91s1.31-4.48.88-6.79a14.34,14.34,0,0,0-1.1-4.32c.29-2.18,2-3.75,1.77-6A5.77,5.77,0,0,1,46.87,871c2.22,0,4.47-.29,6.93.9l2.39,2.48a6.57,6.57,0,0,0,1.06,2.85h4.38c1.39-.71.57-2.85,2.28-3.34l-.56-.56c-.19-.52.73-.65.47-1.21-.46-1.27-2.14-1.11-2.68-2.38H58.51l-.95-1c-.07-1.17,1.58-1.38,1.34-2.51l2.79-1.35c1.47.72,2,2.56,3.54,3.49a7.92,7.92,0,0,0,5.15,1.32,5,5,0,0,0,2.2-4.59,8.11,8.11,0,0,0-2.79-2.34H65.13v-1.55a1.67,1.67,0,0,1,2.18.34l.88-.88c-.56-2,1.05-3.67,1.47-6,2.71.5,5.37-1.08,8.19-.58,2.2-2.25,4.58-4.24,6-7,3.45.37,6.76-.56,9.68.69.9.06,1-.67,1.48-.81v-2l-2.41-2.14v-2.53a10.37,10.37,0,0,0,4.37-.58c1.54-.43,2.88.89,4.56.59l1.76,2.19,1.07-1.34V837a11,11,0,0,1,5.52-1.67c2,0,4.07-1.12,6-3,2.57-.19,5.07-.64,7-2.6H126c1.54,1.65,3.55,1.17,5.42,1.25,1-.65,2.2-1,3-2.29v-4.85l2.63-2.16a2.74,2.74,0,0,0,1.7-.71c.14,0,.3,0,.34,0,.9,1.27,2.38.14,3.41.83a4.56,4.56,0,0,0,3.69.44,14.59,14.59,0,0,1,2.81,0c2.82-1.07,4-4,6.4-5.61h2.91c2.67,1.7,5.15,3.44,8.16,3.84.81-.64,1.38-1.21,1-2.41l-1.82-1.46h-1.5c-1.25-.81-1-1.85-.92-2.87,1.66-.31,1.93-1.75,2.56-3,1.71-.67,2.66-2.81,4.83-2.86v-3.24c.49-.81,1.48-1.21,1.48-2.2,1.42-.77,2.48.73,3.8.49,1.65,1.61,3.72,1.24,5.72,1.23l1.46-2.9-1.17-.41c0-1,.24-2.17-.95-3l2.07-1.82c1.6,0,2.74,1.24,4.11,1.7,2.43-1.13,5.23.26,7.64-.87,1.23.29,2.33,2.09,3.84.28-.71-1-.38-2.25-.47-3.21-1.52-2.53-4.1-4.72-.95-7.88,2.8.27,5.29-1,7.68-2.66,1.2-.81,2.72-.89,3.92-1.93a7.9,7.9,0,0,1,3.64-1.71,11.61,11.61,0,0,0,2.62-1.22c.6.87,1.57.22,2.38.54s1.27,1.14,2.22,1.45c2.12.69,4.21.41,6.21.53,1-.48.94-1.63,1.73-2.36-1.06-1.08-.33-2.81-1.47-4,.27-.32.42-.68.66-.76a13.22,13.22,0,0,1,6.09-1,5.21,5.21,0,0,0,3,1.79c.81-1.15,2.3-1.82,3.35-3.17s.4-3.43,2-4.49l-.59-.94c.24-1.74,2.53-1.6,2.66-3.16,1.24-.59,1.93.66,3,.58s2.07-.58,2.77.6c.45-.53,1.1-.83.94-1.64.86-.7,2.39.37,3-1.35-.13-1.84,1.29-3.57,1.4-5.58,2.65-.75,5.36-.73,8-1.69a5.77,5.77,0,0,0,1.75-3.17c.79-3.26,3-5.06,5.58-6.72a7.67,7.67,0,0,0,1.11-1.09,2.6,2.6,0,0,0,3.34.3c1.58-1.11,3.24-.94,4.93-1s3.12,0,4.83,0c1.24-1,2.17-2.54,4.07-3.09l3.39,1.23a4.12,4.12,0,0,0,1.64-4.14c1.62-.48,1.82-1.71,1.93-3.12l1.67-1.5c2,.3,4.28-.6,6.51.7,1.65-2,3.48.55,5.5-.22.19-2.1-.56-4.66,1.87-6.28v-3.28c.53-.31.68-.91,1.32-.91a30.08,30.08,0,0,1,8.9,1.45c-1.58,1.32-2.78,2.64-3.14,4.61.64.62.57,2.08,2.27,2.16.93,0,1.75,1.3,2.74,1.57a17,17,0,0,0,3.67.21c1.11.05,2-1.2,3.21-.48a9.2,9.2,0,0,1,3.41-2.61c.19-2.87,1.32-5.57.75-7.86l.88-1.57c1.15,0,1.37.9,1.75,1.13,2.49-.52,4.26,1.24,6.45,1.46a15.23,15.23,0,0,1,3.59,4.23,1.93,1.93,0,0,0,2.34-.91c.29-1.77-1.17-3.53-.51-5.55l-1.64-1.29c1.35-1.28.9-2.55.06-3.89l-4.34-1.67c.62-2,1.58-3.81,1.89-5.74,2.57-.48,4.95-.75,6.74-2.74,2.4.22,4.43-.36,5.54-2.94a2.14,2.14,0,0,1,2.18-1.44c1,.11,1.13-1.12,1.83-1.33.54-2.71.64-5.39,2.29-7.87l1.49-.76c.45-.12.58.27.84.38a11.33,11.33,0,0,1,3.43,2.25,5.44,5.44,0,0,0,4.61,1.73,15.09,15.09,0,0,1,1.59,0c.36-1.42,1.15-2.72.83-4.31l1.84-.1c.5.57,1.2,1.33,1.84,2.13a2.85,2.85,0,0,1,.26.95h3.24c.48.66.53,1.44,1.18,1.84l1.52-.68c.43-1.05,1.08-2.09.77-3.22.73-1,1.78-1.1,2.64-1.66l.62.47,1.61-1.66h3c2.82-.7,3.16-3.28,5-4.32.44.68,1.15.64,1.88.53l.89-.89v-1.48c1.49.16,2.77-.67,4.22-.87A4.5,4.5,0,0,0,407.53,676.91ZM596.88,661a.44.44,0,0,0-.55.37s.14.19.18.18a.44.44,0,0,0,.38-.56.44.44,0,0,0,.55-.37s-.14-.19-.18-.18A.44.44,0,0,0,596.88,661Zm57.29-64.15a4.77,4.77,0,0,0-3.5,4.11,4.68,4.68,0,0,0,2.23,5c1.51.31,2.58-.7,3.85-.74.1-1.4,1.58-1.8,2-2.69.12-.75-.37-.9-.56-1.19,1.05-1.27.42-2.67.64-4.33C656.94,597.8,655.73,596.08,654.18,596.83ZM535.6,758.18a6.39,6.39,0,0,1,.81-3.48c-.53-.94-1.67-1.36-1.55-2.6-1.17.66-1.73-.76-3-.38-.67,2.32-2.18,4.68-.31,7.33,1.11-.2,1.3,1.23,2.47,1.32ZM669.07,484.12h-2.48c-2.59,2.62-2.7,3-1.32,5,1.17.1,2.54-.35,3.57.89l1.76-1.89v-2.43ZM634.18,648.45c-1.27.18-2.63-.5-3.47.89-.07,2.18-.07,2.18.8,3.92a1.91,1.91,0,0,0,2.53-.55c.91-.84,2,0,2.9-.84C636.58,650.39,635.09,649.82,634.18,648.45ZM701.71,538c.44-1.69-.68-2.59-.56-3.8h-1.78l-2.48,2.17c-.21,1.62,1,2.12,1.87,3C699.75,538.61,700.29,537.31,701.71,538ZM580.86,724.23c.66-.85.09-1.76.45-2.25a2.59,2.59,0,0,0,.57-2l-.86-.85h-2.8V722l.41-.43Zm-184,9.73c.42-1.72-.83-2.2-1.53-3-.69.1-1.43-.25-2.08.23a1.43,1.43,0,0,1-.65,1.29c.75.61.53,2,1.78,2.25A5,5,0,0,1,396.84,734ZM494.2,514.11c.32-.82,1.54-1,1.43-2.44-1.11.33-1.9-.67-3-.73-.57.63-1.8.24-2.12,1.53l2,1.63Zm118,117.48c1.09-.75,1.09-1.8.83-2.94-.75-.4-1-1.63-2.14-1.39a3.72,3.72,0,0,1-1.19,2.43l1.59,1.57.26-.26a2.68,2.68,0,0,1,.22.17ZM279.66,752.21a1.56,1.56,0,1,0,1.64,1.41A1.56,1.56,0,0,0,279.66,752.21Zm281.26-6.51c-1.34-.77-1.75-2.18-3.28-2.26v3.7h1.58C559.32,746.3,559.8,745.92,560.92,745.7Zm-441,92c-.1-2.22-.15-2.27-2.21-2.19l-.7,1.48C117.8,838.17,118.89,837.86,120,837.7ZM587.82,497.24c-.84.13-1.88-.25-2.8.26-.09,1,.6,1.18.95,1.62h1.13l1.75-.84Zm-19.7-19.78c.4-1,1.91-.33,1.93-1.78l-3-1C566.53,476,567.12,476.65,568.12,477.46Zm-2,22.38c-1.35-.32-2.08.13-2.39,1.25a1.92,1.92,0,0,0,1.34,1.16C566.15,501.86,566.47,501.06,566.13,499.84Zm126,7.35L691,506.06c-.56,0-1.18-.37-1.63.27,0,.29-.11.62.3.86ZM241.91,776.27l1.7.84.81-.87c-.48-.3-.64-.93-1.29-.9S242.38,776,241.91,776.27Zm292.65-43.4c.42-.07.76.1,1-.26a.74.74,0,0,0-.17-1C534.46,731.45,534.24,731.84,534.56,732.86Z" fill="#3ca1ff"/><path d="M897,404.84c-.14.91-1,1.53-.77,2.7l.64.72c1.41.89,2.67-.83,3.74-.31,1.31.64,2.56.42,4.16.6l1,1.63.34-.27v2a4.38,4.38,0,0,1-2.33,1.79c-1,1-.22,2.81-1.35,3.93a1.88,1.88,0,0,1-1.18,2.28c-1.15.52-1.83,2-3.35,1.7-.77-.15-1.12.37-1.64.86V427a3.68,3.68,0,0,1,2.48,2.27c-.67,1-1.63.14-1.85.29-.83.47-.67.81-.75,1.24-1,.39-2.8.12-2.39,2.34.46,1.16,1.91,1.43,3,2.48a4.57,4.57,0,0,0,.65,2.92,2.87,2.87,0,0,1-.17,3.87c2.1,1.38,1.19,3.94,2.32,5.39l-1.38,1.38c-.38,1-1.38.24-2.22,1-.4.34-1.23-.81-1.94-.36l-4.34-4.34h-2.65a5.12,5.12,0,0,0-.83,3.84,21.16,21.16,0,0,0,4.24,5c.57,1.48-.63,2-1.41,2.93-1.49.15-3.18-.32-4.59.87-.52,1.14.4,2.6-.64,3.79l1.55,1.23-.26.47h5c-.62,2.16-2.35,2.17-4,2.67.85,1.52.5,3.46,2,4.74-.22,1,1.5.23,1.25,1.3-.16.69.18,1.18.83,1.69a21.41,21.41,0,0,1,6,1.64v4.46c-1.6,1.56-3.09,3.39-5.68,3.54-1.55-1.34-3.07-2.7-5.44-1.52-.11-.06-.25-.57-.77-.48a1.66,1.66,0,0,0-1.24,1.92c-.56,2-2.72,1.38-3.72,2.82,1.74,1.54,4.36.82,5.9,2.42,3.21,3.27,1.82,7,.81,10.86-.25.31-1.1,0-1.34.63l-1.55-.76L883,498h-2.82c-.61.33-.71,1.08-1,1.68a2,2,0,0,1-1.49.89c-.8,2,1.09,2.16,2.15,2.88.26-.16.19-.49.2-.84.69-.58,1.5-.25,2.25-.25l3.37,3.37c0,1.84-.08,3.71,0,5.57a5,5,0,0,1-1.76,4.28,15.5,15.5,0,0,0,1.15,6.41c-.28,1.88-1.84,3-3.17,4.38a18.2,18.2,0,0,0,0,2.34,8,8,0,0,1-.68,4.1,6.8,6.8,0,0,0,.28,6.27c.14.26.38.42.39.78.07,1.91,1.06,3.71.57,5.68-.36,1.44-1.51,2.31-2.4,3.24-.17,2.12-.52,4.06-2.3,5.37-1.59.37-2.07-1.1-3.12-1.87-.61,0-1.33,0-2,0a6.31,6.31,0,0,0-4,1,21.91,21.91,0,0,1-4.23,1.74v1.37c.69.58,1.84,0,2.37.93,2.69-1,6.94-1.36,8.87,1.55,0,.62,0,1.25,0,1.75-.56,1.46-2.39.65-3.13,2.12.2,1.73.25,3.68,1.65,5.3a4.87,4.87,0,0,1,.81,4c-.42.43-1.23.21-1.52.9a9.4,9.4,0,0,0-5.47-3.19c-1.28.82-1.82,2.39-3.64,2.71.6,2-1.07,3.77-.51,5.85.87.15,1.39,1.08,2.31.9a4.77,4.77,0,0,1-.92,4.26l-2,.93c.21,2.08-1.7,3.27-2.43,5.16.4.82,1.3.89,2.18,1,.08.1.22.2.2.25-.35,1.25.72,1.8,1.27,2.53-.28,2-1.76,3.56-2,5.65L860,601.24v2.52a6.42,6.42,0,0,1,2.17,2,4.62,4.62,0,0,1,.93,3l1.18,1.18c.06,1.19.3,2.41-.55,3.44.62,2.37,2.7,3.81,4,5.72l-1.09,1.16h-3.28c-.42-1.67-2.53-1.55-2.88-3.23-.34.34-.5.48-.64.64s-.49.36-.47.75c.09,1.82-1.2,3.48-.48,5.47l2.65,2.65h3.25c-.06,1.26,1.3,1.59,1.52,2.62a4.85,4.85,0,0,1-2.79,2.22c-.44.11-.61-.6-1.19-.45a1.17,1.17,0,0,1-1.35-.61l-1.32,1.26h-1.85c-1.41,1.32-2.55,2.93-4.44,3.66-.85-1-2-.36-3-.54a4.34,4.34,0,0,0-1.58,3.26c.33.73,1.6.47,1.76,1.33.26,1.46,1.18,2.81.64,4.5-1.09,1.09-1.62,2.83-3,3.68-.31,2.61,2.53,2.25,3.16,3.85s2,2.54,3.11,3.76c-.49,2.38,1.12,4.29,1.38,6.5h1.54v8.58c-.71.88-1.82,1.07-2.88,1.58v7l2.38,3.32v4c-.53,1.65-1.93.94-2.88,1.22-1.51,2.16-1.51,2.16-1.36,5.46h2.61a15.17,15.17,0,0,0,1.89,1.86c2.31,1.57,2.79,2.45,1.59,5.43a5.29,5.29,0,0,0-2.47,1.93c.48,1-.76,1.61-.58,2.77A13.2,13.2,0,0,1,858.1,713c-1,1.67-1.5,3.48-3.12,4.46,0,1.31,0,2.56,0,3.8,0,2.53.63,4.72,3.25,5.79.18.07.3.28.5.48a33,33,0,0,1,0,4c-.16,1.34-1,2.48-1.28,3.85s-1.83,1.84-2.57,3.12c.65,1.91,2,3.73,1.19,6.17-.29.42-1.36.65-1.07,1.59-.42.57-.89.19-1.84.75l-.87,1.55c-.12.76-.85,1.72-1,2.78s1,1.76.53,2.87c-.75,1.62-2.52,2.17-3.81,3.41.47,1.36,1.83,1.94,2.6,3.21v1.74l-1.68,1.5H846.6l-1.35,1.29h-3c-1.56,1-1.81,3.06-3.34,3.78-.74,1.94.76,3.47.47,5.19a3.39,3.39,0,0,1-2.31,1.13c-.12.87-1.15,1.44-.54,2.95l1.68,1.33h1.52a5.07,5.07,0,0,1,.14,5.61c1.57,2.13,3.91,3.45,5.08,5.93v3.25l-2.5,2.08a2.29,2.29,0,0,1-.58,2.28c0,.81,1.1,1.3.53,2.41l2.62,2.17v4.7c1.43,1.49,1.93,3.39,2.47,5.77,0,.4-1.38.55-1.21,1.46s-.95,1.4-.64,2.24-.6,1.45-.65,2.29l.57.68a5.56,5.56,0,0,0-1.15,4.44c.88.95,2,1.73,2.44,3.05v3.68a3.48,3.48,0,0,0,1.89,1.39v1.42a4.86,4.86,0,0,1-4.63-1.06l-2.28,2.16c.11,1.47,2.07,1.74,2,3.21,1.12.46,2.19.89,3.25,1.35s.84,2,2.23,2.17v3.22l-2.45,2.15h-4.53c-2.12,2.62-1.14,5.76,1.25,8.85a12.25,12.25,0,0,0,3.61,3.22,7.69,7.69,0,0,1,3.39,4.19c-.25,1,.72,2.57-.87,3.72h-5c-.51.57-1.31,1.08-1.52,1.78a7.31,7.31,0,0,1-.83,2.1c1,.68.71,1.86.74,2.56.61,1.13,1.71.91,2.13,1.76l1.33-1.26c.35.47,1.07.71.88,1.65,2.11.75,4.2,1.59,6.64,1.45l1.41,1.63a10.28,10.28,0,0,0-.54,5.31c.16,2,0,3.94,0,5.88-1.29,1.22-2.31,2.67-4.34,3.39h-3.28a1.8,1.8,0,0,0-1,2.32c.88,1,2.39,1.15,3,2.59-.08,1.23.39,2.7-.66,3.88.58,1,.92,2.09,1.89,2.75v3.16c-.74,1.26-2.4,1.21-3.43,2.2h-3.67c-1.85,1.45-2.48,3.78-4.1,5.35l.44.44-3,3c-.83.26-2.29-.69-3.38.55a4.07,4.07,0,0,0-3.55-1.24,2.47,2.47,0,0,1-2.22-.63,6.21,6.21,0,0,0-2.93,1.84c-3.67.45-6-1.56-7.81-4.27a9.93,9.93,0,0,0-7-4.4,2.71,2.71,0,0,1-1.75-1c.48-2.39-1.2-4-2.94-5.35a8.7,8.7,0,0,1-3.48-5.41c0-.26-.53-.35-.35-1.2,1.1-1.18,2.67-2.63,3.1-5-1.7-.63-2.63-2.34-4.47-3.06a15.71,15.71,0,0,0-.08-4.22c-.39-1.39.32-2.59.08-3.9.7-.53,1.11-1.34,2.09-1.69.48-.17.71-1.23,1.62-1.37.36-1.82-1.17-3.51-.55-5.31a15.29,15.29,0,0,0,.59-5.38c-.53-.7-1.43-1.15-1.51-2.17-1.26-.26-2.67.38-3.87-.54-.48.76-1.37.45-2.33.51-1.22-1.27-3.2-1.85-4.16-3.63-.14-1.67,1-2.72,2.25-4-1.58-.91-1.65-2.65-3.11-3.48,1.27-1.36.76-2.84.86-4.23,1.34-.41,2.08-1.55,3.08-2.47v-1.7l-3.07-2.85c.37-2.84-1.18-5.84-.54-9.06l-1.45-1.61c.54-1.92,1.21-3.75,1.65-5.65.13-.57.51-1.46.24-1.65-1-.68-.19-2-1.25-2.69a22.16,22.16,0,0,1-3-3,2.31,2.31,0,0,0,0-.43c-.68-2.66-.74-2.69.43-5.55.26-.64.07-1.31.55-2,.62-.87.39-1.16-.32-2.76l1.3-.47c-.4-.85-.49-1.82-1.3-2.51l2.29-2.13c.64-3.65-.27-6.95-.56-10.6.45-.36,1-.83,1.58-1.26s1.63.19,1.58-.45c-.09-1.21,1.18-.62,1.33-1.31.17-1.08-.53-1.87-1-2.72s-1.54-1-1.48-1.86-.86-1.39-.6-2.63a22.88,22.88,0,0,0,2.49-9.2,5.72,5.72,0,0,1,.65-2.5c.61-1,.1-1.87.37-2.78a15.47,15.47,0,0,0,.22-3.31l1.38-.73c-.71-2.36,1-4.08.33-6-.46-1.84-2.23-2.88-2.77-4.73-.22-.74-.48-1.34.14-1.92.28-.26.2-.55.25-.84.16-1-1.36-1.69-.4-2.77.8-.9.22-2,.4-2.89l-1.15-1.15a25.54,25.54,0,0,1,.73-8.92c1.13-.25,1.81-1.46,2.73-2.21.54-.86-.4-2,.74-2.58-.77-1.9-1.56-3.74-2.25-5.61a19.61,19.61,0,0,0-1-2.7c-1-1.84-.09-3.06.83-4.3a26.79,26.79,0,0,1,2.65-2.7c-1.13-1.29-.71-2.76-.79-4.17.81-1,2-1.68,2.44-3.05V705a8.36,8.36,0,0,1-1.63-2.25,1.24,1.24,0,0,1-.16-1.16c1.13-2,.38-4.22.59-6.32a64.08,64.08,0,0,1,1.34-8.48,12.57,12.57,0,0,0,3.67-5.21l-1.26-2.43a17.56,17.56,0,0,1,0-1.92c.28-2.88-.75-5.43-1.87-8a23,23,0,0,1-1.81-6.41c-.13-1-1-1.72-.74-2.87.24-.94,1.13-1.75.54-2.94a6.58,6.58,0,0,1,4-2.41,4.78,4.78,0,0,0,4.32-4.1,6.3,6.3,0,0,1-.69-3.58c.07-2.5,0-5,0-7.5,0-1.69-.32-3.47,1-4.88.42-.43.18-1,.18-1.48,0-2.08-.15-4.18.05-6.24.32-3.29-1-6.29-1.39-9.44-1.36-1.69,0-2.93.73-4.52v-2.29c1.09-.5,1.08-1.9,2-2.54s.93-1.69,1.88-2.1c1.15-.49,1.18-1.72,1.82-2.66-1.09-1.65-3.63-1.38-4.33-3.46-1.11-1.11,1.45-2.23,0-3.47.94-1,.68-2.39,1-3.54s1.07-2.58.82-4.08a25.64,25.64,0,0,1,0-4.05v-4c2-2.21,1-4.89,1.31-7.59a5.62,5.62,0,0,0,1.75-2.45c.26-.49,0-1.22,0-1.9-1.73-1-1-3.34-2.59-4.41.5-1,1.27-1.86,1.29-2.73,0-1.79,1.22-1.83,2.41-2,.55-1.2-.43-2.68.66-3.79-1.09-.93.18-2.63-1.19-3.4,1.73-2.53-.92-4.94.2-7.3-1.16-.67-1.3-2.14-2.6-2.47v-3.11A51.91,51.91,0,0,0,819.3,532a3.1,3.1,0,0,0-.57-2.8,15.76,15.76,0,0,0,1.3-6,5.41,5.41,0,0,0,1.26-3.27c.54-3.8,1.3-7.57,4.38-10.49-.07-1,.18-2.32-.31-3.21a3.18,3.18,0,0,1-.27-2.91c.83-1.11.25-2.2.61-3.31l1.18-1.18c-.18-1.23.28-2.59-.57-4-.39-.64,0-1.68.52-2.53a14,14,0,0,0,1.86-7,9.18,9.18,0,0,1,.86-2.91,5.72,5.72,0,0,0,4.18-2.33V464.27a5.6,5.6,0,0,0-1.8-2.91c-.13-.61.29-.85.27-1-.06-.92-.82-2-.26-2.71.71-.88.5-1.73.55-2.61.05-1,0-2.08,0-3.12,0-1.81,1.17-3.29,1.43-5.05.06-.39.55-.83.44-1.36-.44-2.27.61-4.38.73-6.61a4.51,4.51,0,0,1,1.8-3.77,16.48,16.48,0,0,1,1.86-8.74c.21-.46.7-.28,1.14-.5v-5.27l-2.33-2.33c.9-.92.46-2.09.58-3.18l4.23-4.17c0-1.29.92-2.36.79-3.73s.27-2.8-.11-4,.36-2.39.07-3.6c1-1.26,2.49-2.09,2.93-3.93l-1.67-3.25v-4.78a4.56,4.56,0,0,0,1.26-3.85c-.06-1,.08-2.09,0-3.12-.2-2,.58-3.75.83-5.62a10.89,10.89,0,0,0-.11-5.5,18.5,18.5,0,0,1,0-3.64c1.24-1.93,2.73-3.57,3.33-5.9a9.53,9.53,0,0,0,.11-5,8.07,8.07,0,0,1-.34-2c0-1.67.08-3.34,0-5-.11-1.5.49-3-.39-4.52-.72-1.21.24-2.75-.75-4.08-.45-.61-.08-1.82-.08-2.85A18.63,18.63,0,0,0,851.85,324c1.76-2,2.68-4.67,4.81-6.12,1.23-3.06.69-6,.83-9l-1.83-1.73v-3.32c1.63-1,1.5-3.4,3.18-4.5-.46-2.27-2-3.61-3.15-5.58v-2.51c1.39-.52,1-2.19,1.79-3.19,0-.75-.72-.94-1.15-1.63v-8.71a2.69,2.69,0,0,1-1.26-2c.15-3.08-1.35-6-.52-9.43,1.23-.85,2-2.49,2.73-4.22-.82-.63-.19-1.73-.5-2.52-.28-.53-.91,0-1.16-.84.26-1.48-.25-3.23.5-5.09a4.64,4.64,0,0,0-.64-4.56,5,5,0,0,0,1.8-5.47c-.22-.53-1.23-1.08-1.81-2.09a6.74,6.74,0,0,1-1.1-4.24c.4-3.6-.89-7.07-.68-10.68s0-7.08,0-10.62v-2.13l2.41-1.54v-3.51c.86-1.8,1.8-3.09,1.55-5l2.28-2.08c-.31-2.38,1.67-2.74,3.18-3.78.75,1,1.9.74,3,.74a4.28,4.28,0,0,1,2.57.6,6.5,6.5,0,0,0,5.25,1.19c1.3,1.36,2.72,2.41,3,4.39a51.4,51.4,0,0,0,8.09,2c1.42-.73,1.1-1.75,1.14-2.8l-1.86-1.52c0-1.37-.41-2.51,1.21-3.19,1.21.19,2.87-.48,4.37.57.21.15.63.19.73.44,1,2.54,3.55,3.32,5.55,4.73,0,1.22,0,2.35,0,3.49a4.46,4.46,0,0,0,2.7,4.54,23,23,0,0,1,3.41,2.49c1.34-.11,2.59-1.12,4.56-.38.46.26,1,1.43,2.36,1.88.62.85.54,2.71,2.61,3-.23,1.07.4,1.78,1.08,2.59a13.4,13.4,0,0,1,1.29,2.58,9.26,9.26,0,0,1,.88,2.47c.14.76.47,2,1.68,2.3v4.07l-1.55,1.19c-.35.51-1.1-.05-1.53.6a4.67,4.67,0,0,0-1.26,3.86c0,1.69.78,6,1.88,7.67.9,1.38,1.71,2.82,2.55,4.2-1.4,2.6-.22,5.13-.07,7.67s0,5.21,0,7.83l-3.16,3.09c.23,1.56-.32,3.17.59,4.74a2.28,2.28,0,0,1-.16,2.36c-.78.94-.2,2-.41,2.91l2.49,2.49v4.54c-1.71-.16-2,2.49-4,2-.62.3-.13,1.27-1,1.53,1.92,1.52,2.19,3.86,3.23,5.93-.88,1.2-.7,3-1.84,4.05-.36,2.88.83,6.15-2.49,8.23a6.59,6.59,0,0,0,1.5,5.43c.77.94.77,2.6.89,4,.14,1.65,0,3.32,0,5a1.73,1.73,0,0,0-1.56,1.52H909c-1.17,1.15-1.39,1.68-.51,2.52.7.67.66,1.73,1.72,2.35H914l1,1.2c.15,2.52-1.27,5.15-.45,8l-2.08,1.67c.29,2.2-1.71,2.62-2.48,4.08a5.17,5.17,0,0,1-2.23,5.14H903.4l-.91.91v3.21l1.7,1.47H907c.75.39,1,1.41,2,1.28.11.18.27.35.29.52,0,.41-.17,1,0,1.22,1.4,1.44-.1,2.81-.06,4.2,0,.22-.59.49-.56.67.42,2.18-1.06,4.12-.7,5.82-.66,1.82-2.11,3.07-.61,4.72,0,2,.48,4.14-1.3,5.67-.6.52-.35,1.42-1.08,1.76a7.28,7.28,0,0,0,.53,4.39c1,2.23.5,4.61.64,6.9-.43.47-1,.86-1.24,1.39a4.28,4.28,0,0,1-4.51,2.73c-1.55,0-3.1,0-4.6,0-1.46,2,1.44,3,1,4.75a6.31,6.31,0,0,0,3.19,1C899.6,404.06,898.64,404.86,897,404.84Zm-52.42,478.6h-.54l-2.24,1.63c.2,2.71,2.51,6.5,4.17,6.5l.85-1.68v-4.27ZM897,373.63v4.28c.89.41,1.76.84,2.65,1.2.24.1.57,0,.77-.07l.73-1.54c-1-1.16-.17-2.59-.58-3.7C899.38,372,898.21,373.31,897,373.63ZM825.14,909h3.4c.43-.48,1-.73.79-1.45l-.84-.88h-3.27c-.3.47-.93.63-.84,1.45Zm38.68-376.72c.51,0,.91,0,1.3,0s.66.79,1.37.57a1.75,1.75,0,0,0,1-2.17l-.85-.85h-2.78ZM837.95,806.06h-2.78c-.42.48-1,.73-.79,1.44l.85.89h2.71c.2-.49.88-.62.78-1.46Zm10.78-78.32h3.07v-1.56c-.84,0-1.25-1-2.18-.83a5.55,5.55,0,0,0-.86,1.13A3.61,3.61,0,0,0,848.73,727.74ZM800,758.26c3.43.3,3.43.3,3.7-.24.11-.76-.61-1-.95-1.43-.69.08-1.41-.19-2,.17C800.43,757.16,799.86,757.37,800,758.26Zm63.05-191.32c-.66-.54-1-1.49-2.06-1.63-.45.45-1.09.69-1.06,1.43.78.75,2.85,1.72,3.12,1.45ZM896.9,314h3v-1h-3ZM881.54,477.25c-.8-.09-1.15.44-1.51,1a1.63,1.63,0,0,0,1.72,0A.77.77,0,0,0,881.54,477.25Z" fill="#3ca1ff"/><path d="M945,347.52a1.39,1.39,0,0,0,.57-1.23c-.36-3.36,1.53-6.44,1.24-9.79,1.56-1.29-.22-2.56,0-3.86s-.72-2.36-1.41-3.48a9.26,9.26,0,0,1-1-3.61c-.19-1.38,0-2.77-.61-4.14a1.69,1.69,0,0,1,1-2.25h5.38l1.24-1c-.91-1.31-.8-3-2-4.29v-4.21c.46-1.76,2.15-.73,3.41-1.49-1.81-1.3-1.88-3.56-3.46-5,.23-1-.49-2.22.64-3.11-.73-.48-.69-1.18-.56-2l.89-.32c1.26-3.75,2.06-7.47,1.45-11.27,1.13-.94,1.35-2.58,2.88-3h5c1.54-1.2,1.77-3,2.18-4.7.28-1.13.95-1.4,1.86-1.75v-2.71l-.69-.69c-.61-.37-1.35-.08-2-.17l-.66-.66c-.26-.15-.29-.29-.1-.44s.21-.14.21-.22c.16-2.81,1.4-5.61.77-8.37a32.49,32.49,0,0,1-.51-6.33,5.75,5.75,0,0,1,.54-2.58c1.07-2.48.7-5.2.69-7.83,0-2.45,1.06-4.53,2-6.8,1.43.44,2.66-.15,4,.61a5.16,5.16,0,0,0,3.9-.06c1.81-.67,4-.64,5.14-2.78V237c.22-.35.54-.31.83-.31,1.16-1.79,1.07-3.79,1-5.94-1.52-2-2.82-4.31-5.13-5.8a2,2,0,0,1-1.05-2.39c.16-.22.44-.27,1-.19.71-4.1,5.34-4.82,7.21-8.35-.86-.69-1.3-2-2.9-1.69a16.27,16.27,0,0,1-4-5.09v-2.75c.45-.73,1.2-.81,1.8-1.19V202c1-.15,1.2-1.05,1.75-1.63.88,0,1.11.87,1.73,1.26h2.46c1-.88,1-.88.27-5l-1.95-1.56c-1.24-2.56-.18-5,.33-7.84l1.67-1.34c.06-2.71-.14-5.14.58-7.54a11.68,11.68,0,0,0,.05-3.3l-1.17-1.17v-2.65c1.51-1.78,4-1.2,5.18-2.64.77-.21.88.16,1.22.41,1.3-1.24,2.51-.25,3.51.5a15,15,0,0,1,2.29,2.75c1.08.08,1.29-1.16,2.06-1.46.19-1.69-.07-3.25.56-4.88.51-1.33-.38-2.85-1.26-4.08-.23-.32-.68-.52-.43-1.14a5.44,5.44,0,0,1,5.51-.58c1,.4,2.24-.14,3.1.86a1.29,1.29,0,0,0,1.2,0c1.41-.87,3.1-.16,4.41-.69,1.63-.67,3.19-.37,4.72-.55,1.75,1.55,3.89,2.4,5.75,3.68a27.76,27.76,0,0,1,3.18,2.79,11.48,11.48,0,0,0,5.37,2.9c4.51,1,4.85,1,7.07,4.59a13,13,0,0,0,1.83,2.35,4.84,4.84,0,0,1,1.54,3.75,21.5,21.5,0,0,0,.5,6c.32,1.27,1.13,2.27,1.39,3.75a5.12,5.12,0,0,0-.63,3.56,6.51,6.51,0,0,0-2,3.28c-2.68,1.16-4.39,1.27-6.89.24-2.71,1.33-2,4.28-3,6.5l-2,1.64v2.81a9.62,9.62,0,0,0-3,6.22c-.24,2.35-2.32,4-2,6.3l-1.16,1.16a3.38,3.38,0,0,0,.55,2.54c-.82,1-2.08,1.66-2.48,3.05q0,5.61,0,11.21c0,3.43-1.14,5.26-4.44,7a5.54,5.54,0,0,0,1.32,2.5v4.94l-3.79,5.8c.58,2.06-1,4-.55,6.09l-1.23,1.23v2l-1.21.79c-.46.6.24,1.39-.29,1.87-.59,1-2.46.71-2.37,2.37-.45.47-1,.14-1.52.26l-1.44,1.51c.55,1.58,1.85,2.58,3,3.74.05,1.29.35,2.62-.71,3.62l.73.8a4.6,4.6,0,0,0-.85,4.89c.1.49-.61.69-.29,1.48l1.14.88c.23,3.3-1.2,6.44-.52,9.56-1.35,1.32-2.41,2.73-4.24,2.92-.29,1.23-1.51,2.21-.28,3.6.41.46.06,1.58.06,2.18a29.44,29.44,0,0,1-5.59,5c.59,1.51,2.39,1.53,3.14,2.8-.48.77-.56,1.71-1.29,2.33v4.45c-1.7,1.14-3.55,2.2-4.38,4.76v2.19c1.48,0,2.6,1,4.18,1.58.08,2.19,2.7,1.68,3.79,3.17.33.59.08,1.31.12,2l-1,1c-.93-1.16-2.63-.24-3.72-1.42l-3.11,1.21a27.92,27.92,0,0,1-3.28,8.59l.46.43c-1.88,2.57-.88,5.53-1.18,8.16.81,1.12,2.17,1.14,2.76,2.29h2.64c.88,1.33.88,1.33.88,4.68a36.22,36.22,0,0,0-6.24,5.74v4.21c-2.91,1.46-1.53,4.14-1.88,6.06,1.15,2.18,2.06,4.12,1.86,6.46l-3.5,3.46c-1.43-.37-1.93.88-2.7,1.56-.25,1,.44,2.12-.53,3,.6,1,.3,2.56,1.71,3.12v2.36c-.56,2-2.72,1.37-3.59,2.62,1.63,3.61-.84,7.15,0,10.94l1,.87v3.45c-1.13,1.49-3.53.44-4.85,2.53a5.86,5.86,0,0,0,2.1,5.81c1.56,1.38,3.34,2.73,2.8,5.49l-1.09,1.33c-2.11-1-4.59-.29-7-1.42.18,3.33-.53,6.39,1.18,9.21-.58,1.47-1.91,2.68-1.76,4.46.07.88-.46,1.91.73,2.48-1.45,2.84-.86,6.41-3.77,8.92v1.83c.35,2,2.42,2.8,1.63,4.93l-2.9,2.7a1.83,1.83,0,0,0-1.89.94c-.53,2.13,1.11,4.09.42,6.47-.71,1.13-2.57,1-3.5,2.22-.65,1.67.2,3.2.74,4.61a19.72,19.72,0,0,1,1.67,9,17.68,17.68,0,0,0,.1,3.34c.26,2.16,2.65,2.35,3.55,4.13s.53,3.75,2.14,5c-.44,1.2-1.17,2.16-.72,3.34L967,504.06c-1.3.2-1.89-1-3.07-.48l-.8.93c.85,2.19.9,4.8,2.6,7.05a3.34,3.34,0,0,0-.74,2.91c-.78.46-1.52.16-2.21.27l-1.5,1.5a11.08,11.08,0,0,1,1.79,7.43l1.23,1.4c.2.9-1,1.06-.57,1.86-.87.17-1.51.8-2.41,1a3.51,3.51,0,0,0-1.92,1.67c-.63,1.13-1.24,1.95-2.69,2-1.06.07-.93,1.43-1.75,2.18,1.39.61,1,3.09,3.35,2.76,1.37-.55,1.47-2.27,2.63-3.08l.9.9a11.6,11.6,0,0,1-1,5.52,5.15,5.15,0,0,0-.32,3.86l-1.79,1.92v4.36l.91.91H961c0,1.35,2,1.77,1.35,3.62a5.52,5.52,0,0,0-2.38.83,2.07,2.07,0,0,1-1.29-2.31c-.48-.35-1.19-.27-1.52-.86l-.9.9v13.17c1.45,1.33,2.84,2.78,2.38,5.35-2.3.75-4.64,1.69-6.14,4.43a4.48,4.48,0,0,0,.6,3,7.05,7.05,0,0,1,1.23,5.3l1.22,1.22c.23.91-.28,2,.69,2.73,0,.17,0,.33,0,.37-.84.7-.57,1.67-.63,2.86l1.87,1.5c.3,3.34-3.38,2.35-4.27,4.84v3.43c1.19.59,1.13,2.15,1.76,3.34a1.12,1.12,0,0,1-.36,1.39,1.15,1.15,0,0,0-.19,1.43c1.39,2,.23,3.36-1,4.74-.28.31-.59.59-.9.91v1.94l1.84,1.57h2.93c1.15,1.8-1.5,2.29-1.1,3.92.31,1.26-1.14,2.13-1.55,3.39s-1.92,2.11-3.07,3.25h-3.12a4.43,4.43,0,0,0-1.59,2.94,11.86,11.86,0,0,0,1.21,6.69,7.7,7.7,0,0,1-2.29,3c-.5,1.16.5,2.58-.91,3.39a3.35,3.35,0,0,1,.51,3.29,9.52,9.52,0,0,0-2.47,4.19c-.52,1.7-2.09,3.08-3.19,4.6-1.58-.34-.44,1.74-1.54,1.57-.14.73.29.93.64,1.37-.33.9-1.11,1.85-.47,3.08,1.7.47,2.32,2.69,4.61,3.16L940.66,666v3.46l1.79,1.25v2.43l1.73,1.63a4.39,4.39,0,0,1,.15.67,7.16,7.16,0,0,0,.55,2.9,7.6,7.6,0,0,1,.62,4.83l-1.2,1.27c1.49.85,1.85,2.65,3.16,3.68,0,1.76-.42,3.67.11,5.26.62,1.84.31,3.61.48,4.93-.6,2.06-2,3-3.13,4.24a11,11,0,0,0,3.85,7.46l-4.62,5.9H940.3a23.54,23.54,0,0,1-2.78-3.71,12.07,12.07,0,0,0-2.9-3.74h-3.07l-3.53,3c-.91,1.44,2.3,1.95,1.24,3.67,2.49,1.28,4.17,3.32,6.3,4.78v2.53c.43.46,1.21.91,1.21,1.35,0,1.24,1.05,2.23.67,3.5s-2.33,1.56-1.8,3.4L938,733v4c-.72,1-2.08,1-2.67,2.15-.51,0-1,0-1.52,0a6.31,6.31,0,0,1-5.92-2.33,5.18,5.18,0,0,0-3-1.39l-3.71-3.71v-4.77l-1.12-1.12c-.07-.61,1.14-.7.25-1.61h4.8l1.7-1.61v-1.91l-1.15-1.15c-.33-1.4.39-3-1-4.38l2-1.59c.51-1.59-.86-2.39-.56-3.56-1.21-1.08-.77-2.84-1.58-4a29.77,29.77,0,0,0-2.55-3.36,3,3,0,0,1-.75-3c-1.43-1.8-3.46-3-4.42-5.4.47-1.4-.74-2.82-.65-4.46a43.39,43.39,0,0,0-.07-4.67c-.3-1.27-2.28-2.32-.29-4h4.49l.44-1.25h1.95c1.3-1.6,3.34-2.42,4.55-4.4-.43-1.27-1.75-2.24-2.89-3.46v-1.82l3.08-2.6c.09-2.14-1.39-3.59-2.17-5.47-1.34.51-2,1.64-2.52,2.09-.76,2.15-2,3.64-2,5.51h-4.9l-2.15-2.51v-2.83c-1.18-2.89-4.18-4.23-4.52-7.3,3-1.93,6-3.19,9.28-1.61a1.79,1.79,0,0,0,1.43-2.2c-.8-1.22-2.64-1.29-3.16-3s-2.6-1.28-3.51-2.5c-.62-2.33-.46-4.95-2.43-6.81-.73-.7.26-1.89-.67-2.53s-.62-1.42-.91-2.13A19,19,0,0,1,908.1,628c-1.05-.9-.21-2.37-1-3.34-.53-.65-.14-1.39-.26-2.11l-1.23-1.29v-3.09l2.91-3.41,1.88-.11c0-.89,1.13-1.41.9-2.06l-1.91-1.9v-6.32l-1.29-.93v-7.15c1.12-.87,1.35-2.42,2.76-3.34-1.31-1.31-1.85-3-3.36-4.05-.21-2.75.49-5.66-1.23-8.2.65-1.35,2.45-1.45,3.12-2.66s1.88-1.63,2.75-2.7c2.22.11,4.56-.36,6.84.81.53-1.54,2-2.86,0-4.53-2,0-4.2-.2-5.82-2.11a9.19,9.19,0,0,1,1.13-5.93c.7-1.39,1.64-2.75,1.28-4.47-.13-.63,1-.84.67-1.63a19,19,0,0,1-2-7.33c-.15-2.52-.88-5-.5-7.57,1.1-.27,1.67-1.57,3-1.76.31-1-.42-2.38,1.2-2.91,1.47.49,3.19.8,4.08,2.45h3.17c2.19-1.26.31-2.53.2-3.64-2.08-1.73-4.47-1.93-6.58-2.66-2,.58-.81,3.36-2.85,3.82a27,27,0,0,0-3.41,0c-1.2.15-2.08-.54-3.22-.88,0-.47-.18-1.07,0-1.46a8.06,8.06,0,0,0,.57-4.44c-.12-2.46,1.49-4.06,2.89-5.64.44-.49,1.18-.75,1.53-1.54a10.37,10.37,0,0,0,1.2-3.56c.08-1.35,0-2.71,0-4.06-1.21-1.54-3.2-.78-4.91-1.91a13.25,13.25,0,0,1-1.37-5.23c.05-2-1.1-3.92-.45-6.1.89-1.26,2.65-2,3.19-3.82a5.89,5.89,0,0,1,2.22-3.48c.38-1.4-.54-1.89-1.25-2.66.83-1.3.77-2.9,1.29-4.38s2.23-2.06,2.53-3.64v-1.88l3.68-3.63c.54-2.59-1-4.87-.59-7.37a17.07,17.07,0,0,1,.63-3.19,21,21,0,0,0,1.31-8.22,23.16,23.16,0,0,1,.08-5.91c.23-1.17.93-2.55.42-3.45-.65-1.14-.38-2.17-.52-3.24a4.22,4.22,0,0,1,0-.58l2.19-2.18c1.82-.31,3.55-.7,4.69-2.3-.08-1.6.25-3.21-.58-4.77a3.64,3.64,0,0,1,0-2.16c.22-1.2,1.15-2.18.14-3.64-.64-.93-.18-2.46-.73-3.73a9.62,9.62,0,0,0-3.07-4.3,3.37,3.37,0,0,1-.72-.95c-.09-.16,0-.41,0-1,1.44-2,5.11-2.73,5-6.28.86-1,2-1.7,2.3-3.41a16.83,16.83,0,0,0-1.76-3.47,2.89,2.89,0,0,1-.49-2.6,50.87,50.87,0,0,1,1.57-5.28,10.13,10.13,0,0,1,3.31-4.53v-2.22l-2.16-.12c-.93-.71-1-1.88-1.43-2.43-.3-1.5,1.31-1.62,1.17-2.68-.15-.8-1.21-.17-1.42-.92,0-.17-.41-.3-.41-.45,0-1.26-.93-2.17-1.21-3.24a17.21,17.21,0,0,1-.09-4.29c.45-.55,1-.21,1.59-.34,1.12,1.57,2.88,2.46,4.44,3.76h3.71l1.49-1.65v-1.72c-1.26-1.3-1.81-3.34-3.86-3.93-.84-1.94-2.48-3.56-2.37-5.89,0-.83,0-1.67,0-2.6.78-1.24,2.13-2,3.28-2.9a4,4,0,0,0,1.72-3.26c0-1.76,0-3.52,0-5.21l1.54-1.54c.63.45,1.08,1.35,2,1.35a6.12,6.12,0,0,0,1.64,3.52h3.31a22.27,22.27,0,0,1,5.79-3.79,4.93,4.93,0,0,0-.12-2.32H949.7L947.49,352C947.88,349.91,945.64,349.21,945,347.52Zm-23,293c-.93-.92-.77-2.14-.77-3.33s0-2.44,0-3.49a5.8,5.8,0,0,1,3-.95l2.47-2.33c1-3.14-1.67-5.69-1.11-8.69-2.36-.59-3.28-2.6-4.56-3.77h-4.28c.4,1.34-.43,2-1.21,2.71,1.83,1.05,0,2.56.54,3.94s.12,3.24.12,5.37l1.8,1.79a1.79,1.79,0,0,0,0,2.68c-1.22,1.34-.26,2.94-.52,4l2.12,2.59C920.46,640.84,921.22,641.28,922,640.54Zm72.6-465.82c-.62.26-1.38-.21-2.24.43-.85.08-.23,1.44-1,1.76v2.82c1.55.65,2.74,2,4.52,1.93l1.55-1.55v-2.6Zm-46,391.67c.24-.52,1.31-.78,1.42-1.8-.67-1.61-2.36-1.55-3.55-2.25-1.28.74-.75,2-.83,3,0,.17.15.35.27.62C946.71,565.67,947.1,567,948.56,566.39Zm2.31-34.21a1.53,1.53,0,0,0,.55-2.38l-1.08-2c-.94.11-1.56-.12-2.05.18a1.7,1.7,0,0,0-.72,2.16C948.39,531.22,949.85,531.24,950.88,532.18ZM935,694.37c.83.61.47,2.33,2.07,2.22a4,4,0,0,0,1.5-2.32l-.47-.47.6-.65-1.1-1.1c-.32-.31.1-1.13-.74-1.08C934.63,691.22,936.35,693.63,935,694.37Zm44.76-328.93c.24-1.37,1.87-2.6-.11-3.72h-3c.72,1-.66,1.15-.45,2A5.86,5.86,0,0,0,979.77,365.44Zm-14.61-48c-.68-.22.14-1.37-.57-2.14-1,.88-2.83.27-3.52,2.23,1,.45.64,2.06,1.79,2.21ZM951.25,607.18c-.17-1.44-.17-1.44-.83-2.3h-3.35c-.67,1.15,0,1.7.67,2.3Zm-20.61,82.5c1.4.2,2.2-.15,2.47-1.35-1-1-1-1-2.47-.88ZM971,266.08c1.36-.24,1-1.54,1.5-2.44-.65.11-1.21-.39-1.9.21C970.84,264.49,970.19,265.31,971,266.08Zm-6,83.05a1.73,1.73,0,0,0,1.36,1.89c.63-.14.57-.56.54-1Z" fill="#3ca1ff"/><path d="M688.89,587.62c1.1,1.35-.64,2.57-.17,3.93s-1.13,2.62-.55,4l-2.89,2.85c-2.76.57-5.39,2.54-8.29.5a5.33,5.33,0,0,0-.76-2.37l.71-1.06c-1.11-1.44-.54-3.12-.69-4.51a20.83,20.83,0,0,1,4.75-5.5l.53.53a5.2,5.2,0,0,1,4.43-1.81l1.4-1.7c-1.26-1.43-.09-2.68.48-4,2.08-1.87,4.6-1,6.88-1.23,1,1.89-.63,3.42-.35,5.11-.52,1.35-2.24,1.46-2.82,2.54S689.44,586.24,688.89,587.62Z" fill="#3ca1ff"/><path d="M523.59,768.16c1.3,1.94-1,3.79-.44,5.62-.62.51-1.28.15-1.84.32a8.93,8.93,0,0,0-1.41.71c-1.21-1.49-3.24-1.58-4.76-2.87a4.61,4.61,0,0,0-.76-2.26c.86-2.65,4.11-4,3.78-7.21a4.61,4.61,0,0,1,3.71-1.5c1.37.19,2,1.54,3.13,2.28C525.41,765,523,766,523.59,768.16Z" fill="#3ca1ff"/><path d="M630,687.51a3.72,3.72,0,0,0-.73-3.07l2.27-2.11c.41.17,1,.82,1.95.49l1.48,1.6c.87,1.71-1.08,2.53-1.35,3.93C632.19,688.91,631.14,688.06,630,687.51Z" fill="#3ca1ff"/><path d="M274.43,820.06c.19,1.08-.54,1.85-.9,2.73-.64.25-.92-.26-1.29-.58l-.51.46-2.93-2.79c-.19-1.08.66-1.78.94-2.64C272.16,816.81,272.82,819.19,274.43,820.06Z" fill="#3ca1ff"/><path d="M921,719h-3.33c-.15-.93-1-1.55-.78-2.73l.66-.75c1.61-.79,2.82.6,4.19.52C922.19,717.35,921.26,718.08,921,719Z" fill="#3ca1ff"/><path d="M719.48,472.2c1.15.73,2.38,1.07,2.89,2.37L720.82,476H719l-1.61-1.72A3.78,3.78,0,0,1,719.48,472.2Z" fill="#3ca1ff"/><path d="M989.64,166h-1.86a1.94,1.94,0,0,1-.91-2.22l.9-.82h2C990.88,164,991,164.9,989.64,166Z" fill="#3ca1ff"/><path d="M559.3,512l1.92-1c.94.09,1.13,1.12,1.85,1.41v2.12c-.52.39-1,.16-.81.15Z" fill="#3ca1ff"/><path d="M532.79,779l1,1.08c.12.79-.48,1-.81,1.44h-2.7c-.46-.43-.2-1-.12-1.59C530.93,779.3,532.23,780.33,532.79,779Z" fill="#3ca1ff"/><path d="M680,578.05v-3a2,2,0,0,1,2.52-.8C681.42,575.33,682.18,577.36,680,578.05Z" fill="#3ca1ff"/><path d="M200.73,859.22c1.8-1,1.8-1,3.08.42-.06.69-.6,1-1.24,1.38A4.67,4.67,0,0,1,200.73,859.22Z" fill="#3ca1ff"/><path d="M580.62,737.91l1.3,1.74c.15.63-.71.78-.91,1.37l-1.52-1.54Z" fill="#3ca1ff"/><path d="M919.56,742.78h-1.84c-.5-.49-.07-1-.29-1.46.54-.61,1.14-.33,1.72-.26C919.59,741.5,919.17,742.05,919.56,742.78Z" fill="#3ca1ff"/><path d="M893.75,471.28c.43-.28.6-.88,1.05-.9.8-.06.89.65,1.58.87l-1,1C894.41,472.33,894.16,471.68,893.75,471.28Z" fill="#3ca1ff"/><path d="M721.08,491.41a2.74,2.74,0,0,1,2.61-.83v.87A4.07,4.07,0,0,1,721.08,491.41Z" fill="#3ca1ff"/></svg>