<svg xmlns="http://www.w3.org/2000/svg" viewBox="0 0 3182.75 1080"><title>derrida_VI_logo_full</title><g id="_1" data-name="1"><path d="M526.123,615.62l-1.659-1.659c.3-.276.591-.762.91-.785,1.273-.09,2.556-.037,3.825-.037.186,1.01.963,1.523,1.58,2.179a1.541,1.541,0,0,1,2.362-.025l2.056-2.061a1.465,1.465,0,0,1,.768-2.316,1.716,1.716,0,0,1,1.511.515c.761-.54.894-1.578,1.908-1.981.809-.322.771-1.475,1.282-2.376a4.315,4.315,0,0,0,.942-.018,1.216,1.216,0,0,0,.643-.417,8.806,8.806,0,0,0,.639-1.114c1.471,1.734,3.41.318,4.7,1.549.455.076.585-.364,1.037-.647.843.964,2.042.572,3.125.657l.737-.736V604.14l2.565-2.538a2,2,0,0,0,2.1-1.1h4.043c1.162,1.955,3.464,1.383,5.82,1.987.07-.01.26-.569.679-.861a2,2,0,0,1,1.34.071l.186.888c.577-.251,1.142-.719,1.878-.449l.862.915c1.88.729,3.472-.87,5.157-.358a4.805,4.805,0,0,0,.835-3.522c1.6-1.043,2.12-3.154,5.17-3.614a12.078,12.078,0,0,0,6.226-1.635c.487.378.813.978,1.7,1.08a7.9,7.9,0,0,1,3.374,1.1c1.321.875,2.275.312,3.362-.335V593l1.55-1.364c.428,0,1.291.269,1.662-.044,2.1-1.775,4.336-.429,6.535-.463.887,2.027-1.314,3.562-.881,5.515.282,1.053,1.775,1.286,1.665,2.638h2.741c-.157-1.808.458-3.673-.848-5.453.869-.845,1.724-1.522,1.715-2.464,2.683-.881,4.756.43,6.955.831a.63.63,0,0,1,.425.277c.613,1.563,2.12,1.877,3.435,2.247,1.1.31,1.226,1.457,1.97,1.814.879.422,1.312,1.214,2.106,1.722a1.691,1.691,0,0,0,1.879-.885,4.48,4.48,0,0,1,1.432-4.127c1.572.695,3.552.24,5.074,1.375.713.532,1.393.238,2.081.312,1.58.169,3.195-.283,4.75.531a11.147,11.147,0,0,1,2.478,1.848c.491.463.982.358,1.506.391a4.944,4.944,0,0,0,1.7-2.85c.384-1.277.73-2.345,2.331-2.521.883-.245,2.021.181,2.915-.811,1.371,1.769,2.816-.663,4.2.3l1.753,2.773c-.155.531-.9.922-.242,1.692l-1.916,1.538c.281,2.818,2.051,4.45,3.853,6.131V607a5.518,5.518,0,0,0,4.326,3.779l1.2-1.12.792,1.362.662-.661c1.076,1.826,3.138,1.568,4.79,2.151a5.927,5.927,0,0,1,1.78,1.155h2.07l1.509-1.3c.141-1.308-1.007-2.162-.458-3.232a4.7,4.7,0,0,0-3.642-2.07c-1.9-1.491-1.994-3.61-1.94-5.839a6.723,6.723,0,0,1-2.8-4.564c.2-.813.978-1.092,1.385-1.695h2.843c1.232,1.266,1.442,3.409,3.357,4.252l.368-.3c.826.743,1.879.318,2.781.47.742-.523,1.318-1.33.836-1.888-.816-.944-.289-1.914-.523-2.789.769-.987,2.163-1.079,2.8-2.526.2-1.653-.672-3.416-1.173-5.244-.055-.2-.592-.27-.925-.408a4.127,4.127,0,0,1-.072-1.841c.612-.532,1.434.076,2.084-.412.045-.408.093-.843.151-1.372h3.417l1.132-1.132h1.777c.408.394.115.882.249,1.461,3.306.964,6.035,3.3,9.316,4.544,1.509-.319.871-1.962,1.683-2.723-.157-.828-.8-1.083-1.5-1.255-.223-.993-1.263-1.812-.557-3,.693-.843,2.032-1,2.547-2.174l-.355-.355c-.162-.462.648-.576.263-1.389l-.953-.458c0-2.184.063-3.925-.018-5.661-.076-1.621,1.243-3.056.442-4.575a5.249,5.249,0,0,1,3.338-1.749l1.757-1.9a17.852,17.852,0,0,0-.436-4.052c-.309-.938.543-2.258.873-3.408a1.364,1.364,0,0,0-.485-1.768c1.15-.764,1.61-2.051,2.483-3.016h1.1c1.37-1.746.695-3.787.912-5.911a21.3,21.3,0,0,0,5.435-6.025c.242-.4.035-1.073.035-1.858l-1.051-.727a1.711,1.711,0,0,1,.852-2.031,1.144,1.144,0,0,1,.734.233c.736.51.476,1.814,1.613,1.972a13.781,13.781,0,0,0,4.468-10.628c1.793-2.052,2.495-4.892,4.6-6.364.57-.589.235-1.082.392-1.512l1.084-1.084c-.191-.929.159-1.943-.259-3.042-.762-2-.284-3.179,1.508-4.379.9-.606,1.239-1.7,2.061-2.329.677-.52-.294-1.415.536-1.815-1-.776-.372-1.855-.577-2.807,1.506-.977,1.92-2.843,3.315-3.755V496.5l-1.039-1.039v-2.323a18.847,18.847,0,0,1,2.078-1.831c.781-.526,1.66-.871,2.444-1.455a3.271,3.271,0,0,1,2.419-.81,22.556,22.556,0,0,0,3.163.034,1.68,1.68,0,0,0,.854-1.955l-2.232-2.232a17.07,17.07,0,0,1,3.528-9.65c.916.289,1.944-.4,2.776.515.79-.894,1.521-.249,2.14.2l.717-.653c.5.79,1.289.478,2.2.561l1.446-1.887c.114-.65-.967-1.516-.577-2.688-.6-.629-1.029-1.446-2.033-1.561-.334-1.256-1.24-2.553-.707-3.784a8.762,8.762,0,0,0,.461-3.566,3.406,3.406,0,0,1-1.073-2.394c.166-1.586-.452-3.252.3-4.624l-2.177-2.175c-2.672.92-4.316,3.771-7.272,4.827-.491-.264-1.3-.339-1.732-1.077-.273-.443.55-.371.368-.7.265-.827-1.086-.92-.491-1.646-1.955-1.276-3.963-.639-5.8-.819l-.735.734a9.18,9.18,0,0,0,1.1,6.142c-.477.931-.629,1.827-1.375,2.4-.44.058-.58-.665-1.117-.428-.46.1-.36.509-.4.915-.752.378-1.59.03-2.5.257-.527-1.607-2.285-2.059-3.076-3.617-.712-1.4-2.243-2.388-3.42-3.565-1.484-.139-2.971-.269-4.391,1.028a12.457,12.457,0,0,1,2.943,2.5,2.474,2.474,0,0,1-.5,1.736c-.281.477.195,1.334-.669,1.737h-3.616l-2.6-2.612c-.444-.174-.936.159-1.395-.268-.016-.291-.035-.643-.062-1.133l1.6-1.6c.343-1.509-.783-1.825-1.274-2.533a5.625,5.625,0,0,0-3.972,1.056,10.007,10.007,0,0,1-3.974,1.678,6.373,6.373,0,0,0-3.937,2.43,4.008,4.008,0,0,1-.355.4c-.517.523-1.038,1.041-1.558,1.561-1.906.03-2.1-2.117-3.491-2.743a2.638,2.638,0,0,0-.821.02,1.186,1.186,0,0,0-.61.5c-.625,1.125-1.876,1.836-2.127,3.207-2.965.528-5.875-.186-9.025-.541l-1.859-2.289c.016.139-.032-.3-.078-.706-.534-.337-1.091-.123-1.619-.187-1.287.3-1.355,1.852-2.542,2.394A3.88,3.88,0,0,0,675,465.027c-1.816.782-1.69,2.387-1.646,3.971-.945.633-1.409,1.951-2.849,1.952-1.236-1.482-2.1-3.221-3.51-4.473-2.125.051-3.117-1.6-4.407-2.745-.567,0-1.331-.232-1.625.042a2.841,2.841,0,0,1-3.085.4c-1.976-.89-3.915-.144-5.774-.493-.874,1.478.62,2.625.288,3.929l-2.654,2.331c-2.4,1.039-4.987-.686-7.675-.069a28.4,28.4,0,0,0,2.188,5.484c-1.51,1.807-3.024,3.149-5.334,2.587-2.251-.379-2.055-2.89-3.572-3.974-.015-1.025-.325-2.114.514-3.032-.517-1.009-.816-2.17-2.2-2.787-1.268.4-2.613-.72-4.158-.6-1.46.112-2.936.024-4.4.024l-1.376,1.375v4.488a6,6,0,0,1,3.256,1.508v1.506c-2.426-.318-4.854.491-7.233-.6-1.037.012-.682,1.422-1.68,1.713-.7.206-1.226,1.026-1.828,1.571-1.4.053-2.6.828-3.917,1.182-1.674-.818-2.987-2.433-5.116-2.231-.133,1.069,1.211,1.805.186,2.837-.664.668.127,1.766-.389,2.559-.813.3-.941-.184-.971-.851l-8.5-1.729a1.607,1.607,0,0,0-.853,1.3,4.281,4.281,0,0,1-2.883,3.42,29.535,29.535,0,0,1-3.135.878c-.286,2.007-2.577,1.867-3.7,3.124-.637.226-.808-.743-1.5-.523-.439.447-.439,1.288-1.183,1.621h-.9c-2.263,2.148-2.812,5.174-4.237,7.5-2.106.815-3.843-.624-5.862-.3-1.358-1.818-3.392-2.831-5.887-3.893a6.618,6.618,0,0,0-4.267,1.244,4.916,4.916,0,0,1-3.168.954,2.272,2.272,0,0,0-1.7.563,10.385,10.385,0,0,1-3.947-2.1c-.379-.777-.794-2.128-1.437-3.264a24.242,24.242,0,0,1-1.436-3.557c-.3-.79-1.145-1.373-1.752-2.056-1.564.244-2.865-1.157-4.4-.457l-2.014-2.284c-.553-2.2.573-4.535.533-6.939l-.992-.969a2.138,2.138,0,0,1-.132-.517,15.643,15.643,0,0,1,.458-3.929c.339-1.323,1-2.681.65-4.162-.224-.946.533-1.565.912-2.3a1.137,1.137,0,0,1,1.229.875c-.041,2.359,1.584,3.669,3.017,5.11a7.552,7.552,0,0,0,.98.738,1.727,1.727,0,0,0,.766,2.092,1.682,1.682,0,0,0,1.885-.806l-.5-.553c-.207-.582.453-.8.494-1.177a24.711,24.711,0,0,0,.032-2.688c-2.028-2.233-.975-6.276-.017-9.365l-1.088-1.151c.054-.818-.236-1.7.962-2.457,2.158-.138,4.574,1.095,7.178.424.324-.653.042-1.484.145-2.3l-1.105-1.165V450.61h4.678c.1-1.231,1.344-1.219,1.891-2.039v-4.313c.982-1.544,2.961-1.522,4.1-2.64,1.163-1.145,3.169-.957,3.846-2.851l2.007,2.424a5.9,5.9,0,0,1-.787,3.894c1.425.83,1.374,2.362,2.027,3.6.568.311,1.2.1,1.794.127.963-1.228.913-2.649.811-4.186.425-.395.89-.835,1.364-1.265a3.991,3.991,0,0,1,2.833-1.158c3.676.036,7.351.013,11.027.013.276,0,.677-.119.807.019,1.077,1.14,2.105.119,3.147-.02.172-.023.342-.06.513-.09.238-1.506,2.06-1.713,2.395-3.135h5.7c1.82,1.833,2.044,4.566,3.861,6.472h2.551l3.081-3.084c-.621-.442-.2-1.323-.349-2.133-.956-.95-2.057-1.879-2.281-3.366-.242-.361-.777.043-.821-.1a1.067,1.067,0,0,1,.384-1.447v-3.311a5.821,5.821,0,0,1,2.191-1.393l1.36,1.654h2.835c.17.411.235.941.441,1,1.135.338,1.162,1.625,2,2.189-.011,1.626,1.312,2.095,2.345,2.93a40.065,40.065,0,0,0,4.214,2.454,3.537,3.537,0,0,1,.44-.93c2.071-2.382,2.1-2.552,4.689-3.165a3.359,3.359,0,0,0,2.54-2.141,3.131,3.131,0,0,1,2.1-2.429c.392-.142.661-.621.978-.938,1.645-.482,3.087.682,4.721.521,1.547-.152,3.121-.033,4.8-.033.133,1.051,1.541.757,1.913,1.856.259.764,1.262,1.146,1.953,1.671.874.662,2.1-.263,2.656.827,1.225-.93,2.663-.211,3.936-.522a11.511,11.511,0,0,0,3.6-1.414,7.337,7.337,0,0,0,1.122-2.244,2.427,2.427,0,0,0,1.517-1.082,6.891,6.891,0,0,1,1.2-3.987c2.914-.512,5.046,2.015,7.844,2.164,1.291-.729.76-2.793,2.923-3.43a1.07,1.07,0,0,0,1.232-.144c.561-.619,1.237-.064,1.96-.528l.756,1.228c.755.086,1.2.209,1.61-.027a1.587,1.587,0,0,0-.256-1.728c-.372-.478-.179-1.2-.074-1.81l1.317-1.317c.984.191,2.168-.4,3.283.469.347-.022.511-.677,1.036-.457,1.189-.993.836-2.4.917-3.593.276-.276.469-.639.666-.641,3.189-.035,6.378-.025,9.723-.025.874.576.77,1.521.478,2.507l-.88.23v2.278l-2.827,2.826v1.639c.413.785,1.35.822,2.015,1.4.485-1.224,2.215-1.272,2.6-2.7h1.878l1.348,2.114c3.746.5,7.413,1.778,11.215,1.7a1.988,1.988,0,0,0,.2-1.433,4.5,4.5,0,0,0-1.31-.835c-2.221-.851-4.2-2.237-6.437-3.093-.377-.144-.87-.066-1.169-.541a5.667,5.667,0,0,0-.961-1c-.025-.814.527-.954.763-1.329.853-.344,1.331,1.021,2.154.518.486-.2.319-.639.517-1.03h4.677c1.825,1.4,4.143,2.357,5.88,4.258h1.823l.5-1.019h2.093l3.823-3.957c1.254,1.351,3.151-.178,4.184,1.334,1.187-.78,1.723-2.112,3.068-2.362h8.255c1.3-1.229,2.873-1.242,4.494-1.046,1.278,1.775.585,3.819.779,5.636,1.113,1.871,3.253,1.075,4.746,1.9l1.309-1.244c-.074-1.264.309-2.561-.61-3.632,1.665-1.069,1.665-1.069,4.278-1.065,2.857.791,3.411,3.3,5.157,4.679l-.557.558,2.434,2.406h2.134c1.336-.493,2.323-1.306,3.527-1.836a3.138,3.138,0,0,1,3.394.511c1.308.9,2.762,1.689,3.573,3.065h5.032c2.725,2.255,5.616,4.239,7.983,6.887.037,2.191,1.582,3.6,3.186,4.595a3.662,3.662,0,0,1,1.85,3.161c1.455,1.412,3.017,2.762,3.646,5.087l-1.3.412.444.459c-.315.9.206,1.877-.523,2.838-.6.788-.057,2.084.521,2.688a17.558,17.558,0,0,1,2.684,4.085v1.863c-1.173,1.754-2.182,3.643-4.607,3.18l-1.563,1.5a13.29,13.29,0,0,0,2.867,3.72v4.476l-.878.8c-1.906-.513-3.861-1.386-6.029-1.061-1,1.884-2.674,3.372-3.64,5.585,1.611,1.088,1.06,3.553,2.8,4.531.249,1.281-1.051,2.108-.325,3.408.714.1,1.088.853,1.308,1.758l-.4.43c1.12,3.168.531,6.3-.1,9.44-.325.324-.65.649-.988.988v3.365c.922.43.993,1.55,1.667,2.3l-.708,1.648c-2.346,1.207-4.753.856-7.066.095-1.973,1.042-.844,2.439-.5,3.679l-1.1.451c.033.93-.277,1.928.4,2.907l-.392.448a3.914,3.914,0,0,1,.98,3.43l-.823.321c-.269,1.487-.332,2.36.337,3.038l-2.235,1.936c-.962.9-1.1-.8-2.076-.92-.312-.9.359-2.017-.571-2.817.071-.311.593-.387.409-1.212-1.581-1.233-2.788-3.231-4.321-4.959-.236-1.528,1.5-2.112,1.676-3.633.038-.391-.58-.488-.731-.923h-4.584l-1.776,2.05c.245.738-.83,1.361-.654,2.27.5,1.407,2.618,2.418,1.039,4.395h-2.226c-1.883,1.279-2.058,3.434-3.264,4.832-1.44.786-2.586-.666-4.174-.29l-1.34,1.581A32.225,32.225,0,0,0,760.358,528c1.109,1.855,2.913,1.869,4.513,2.674a3.069,3.069,0,0,1-.026,1.03,3.586,3.586,0,0,1-.7.876H761.8c-.354-.2-.2-.508-.248-.816-.728-.454-1.566-.124-2.5-.261-.573,1.452-2.558.883-3.35,2.273-.263.461-.1.875-.235,1.393a9.948,9.948,0,0,0-3.168,5.117c.108.315,1.176-.151,1.077.913-.047.5.827.828,1.514.969v2.373c-.359.606-1.011.707-1.538,1-.113.645-.18,1.271.424,1.659a8.364,8.364,0,0,1-2.374,3.015c1.313,1.1,1.266,2.928,2.806,3.778.643.341,1.249.062,1.79-.635v-4.487l1.784-1.278h1.777c1.5.747,2.356,2.33,3.65,3.5a5.7,5.7,0,0,1-1.642,4.515c.1,2.009-1.99,2.436-2.775,3.927-.288,1.672-1,2.373-4.314,4.142V565.1c-1.242,1.88-2.3,3.742-4.433,4.5-.25,1.755.6,3.135.883,4.906a3.3,3.3,0,0,1-2.326,2.127c-2.589.676-4.06-1.161-5.578-2.737-1.053.336-1.445,1.262-2.2,1.747-.419-.1-.917.208-1.359-.333a13.406,13.406,0,0,0,1.685-6.6c-2.2-.905-4.224.557-6.208.341l-1.981,1.825,1.73,3.36c-.853,1.166-.78,2.5-.638,3.948l2.539,2.411a1.666,1.666,0,0,1,1.583.515l.693-.693V577.7c.487-.681,1.438-.138,1.5-1.194,1.553.864,1.737,2.175,2.066,3.512h2.832l.772.773v4.592l-.636.636c-1.987.667-3.711-.848-5.67-.4-.512-1.277-1.885-1.024-2.944-1.709-1.223,2.172-.222,4.506-.69,6.795l-2.867,2.645c1.193,2.772.616,5.4.79,7.926-1.773,1.308-2.987,1.073-4.118-.839-1.669.139-3.472-.377-5.209.772v6.746c-1.173,2.54-4,2.808-4.757,5.212a8.772,8.772,0,0,1-3.8-1.5c-1.064-.7-1.274-2.332-2.9-2.437-.708,2.729.542,5.149,1.106,7.74l3.08,1.976c.437,1.009-.432,1.53-1.114,2.23.533,1.677-.657,3.225-.529,4.943a7.12,7.12,0,0,0-2.261,3.749c-.456,2.224-2.232,3.748-4.379,4.78a3.9,3.9,0,0,0-2.14,3.108,13.445,13.445,0,0,0-.014,1.883c-1.776-.494-3.244.69-4.982.544s-3.486-.032-5.214-.032a5.111,5.111,0,0,1-2.31,1.19c-.413.367-.007.871-.345,1.461l-1.364,1.355c-.446,2.987-.888,5.94-1.355,9.067-.885,1.079-2.342,1.948-2.957,3.523-1.814.922-2.867,2.767-4.494,3.831a10.557,10.557,0,0,0-3.047,3.149,5.735,5.735,0,0,1-.682.692,6.317,6.317,0,0,0-4.64,1.27c-.163,1.359.288,2.857-.833,4.155-1.054-.139-1.875.969-3.008.686-.1.465.058.771-.407,1.056H669.6a9.213,9.213,0,0,1-2.274,2.98c-.121.721.3.867.5,1.154v4.388a4.435,4.435,0,0,1-2.646,1.629c-1.593.274-2.863,1.467-4.4,2.219-.234.771-.5,1.7-.773,2.574a15.049,15.049,0,0,1-2.313,3.716c-.759,1.1-1.917,1.8-2.654,3.017a2.261,2.261,0,0,1-3.235.585c-.352-.259-.678-.162-1.262-.258-1.456,2.082-3.939,2.347-6.269,2.916-.625.814.8,1.178.494,2l-1.834,2.7a7.244,7.244,0,0,1-7.176-2.107c-.425-.983,1.164-2.1.475-3.633-1.282,0-1.584-1.859-3.092-1.95v-2.354l-1.7-1.263v-1.5q-1.073-1.072-2.147-2.143c.256-1.029-.93-1.738-.6-2.817l-2.173-2.07v-1.828c-1.546-.431-.567-2.99-2.745-3.1-.034-.637-.067-1.256-.1-1.914-1.938-.879-4.259-1.175-5.472-3.458.132-.6.795-1.209.6-2.048,1.088-.212,1.612-1.119,2.451-1.861,1.555.119,3.268-.338,4.854.56a2.464,2.464,0,0,0,1.049-1.3c-1.107-.472-1.987-1.6-3.338-.31-1.26-2.358-2.723-4.581-.828-7.37a14.282,14.282,0,0,1,4.518-1.661v-3.472c.513-.321,1.128-.708,2.083-1.308.74.077,1.939.855,3.568.4-.375,1.616.813,2.525,1.125,3.883H636.7c.6-1.683,2.647-1.473,3.779-2.592,1.2-2.515,1.238-5.336,1.971-8.223l-1.768-1.418c-.567-.849,1.06-1.371.25-2.223-.594-.625.65-1.113.473-1.919a11.779,11.779,0,0,1-.039-2.473c.836-1.338,2.462-1.723,3.456-2.92.88-1.058,1.475-2.676,3.354-2.389.23-.924,1.35-.98,1.721-1.675,1.095-2.05,2.3-4.026,3.578-5.964.161-.244.022-.685.022-.838.358-.528.892-.127,1.086-.765v-.9a3.68,3.68,0,0,1,.408-.334c1.756-1.056,3.286-3.745,2.881-5.42a7.986,7.986,0,0,0-1.295-2.756,14.828,14.828,0,0,1-2.059-4.125,11.329,11.329,0,0,0-2.633-3.969v-2.031a7.121,7.121,0,0,1-1.8-3.085c-.648-.319-.93.073-1.238.4a1.6,1.6,0,0,0-1.635-.48l-1.137,1.605-.288-.281v2.862c1.365-.016,1.686,1.711,3.067,1.9a1.461,1.461,0,0,1,.229.386c1.191,4.439.25,4.469-2.123,6.935-.426.443-1.016.754-1.184,1.435-.661,2.679-3.266,3.118-5.131,4.4-.125.086-.36.012-.544.012-.5-.367-1.053-.7-1.007-1.449-2.165-1.322-4.558-.532-6.781-.775a47.934,47.934,0,0,1-10.6,4.993c-.435,1.076-1,1.992-.734,3.007l-1.4,1.4c-1.678-.472-3.228.986-4.911.5l-1.142,1.142c-.426,0-.882.015-1.337,0a3.778,3.778,0,0,0-3.869,2.209,1.717,1.717,0,0,1-1.961,1.1l-4.936,4.993H600.26l-1.021,1.021c-1.724-1.608-4.336-1.528-6.143-3.191h-2.237c-.916.8-1.275,1.6.017,2.625h-5.991c-.529.791-1.658.56-1.933,1.516-.235,1.118.965,2.074.445,3.289-.7,1.538-3.06-.14-3.353,2.044l-.725-.725a5.633,5.633,0,0,1-4.434,2.254l-3.849,3.849c-1.88-.225-3.864.016-5.946-.448a8.328,8.328,0,0,0-5.822.4c-.357.191-.9.027-1.45.027a62.332,62.332,0,0,0-4.886,6.019h-2.778l-.779.78v3.3c-.645.675-1.331,1.149-1.464,2.028-1.375,0-2.867-.332-4.1.093a9.262,9.262,0,0,1-3.661.429c-1.3-.07-2.692.493-3.862-.439a4.045,4.045,0,0,0-.771.77c-.12.206-.023.538-.023,1.076,1.185.711,1.589,2.288,2.747,3.3v3.31c-.3.494-.808.211-1.525.343l-2.282,2.627c-.921.16-1.577-.225-1.917.96l-.741-1.4c-2.349.206-3.919-1.588-6.108-1.543-1.032.712-2.328.334-3.715.421l-1.367,1.639h-1.9c-.582.408-.859,1.105-1.771,1.154a3.254,3.254,0,0,0-2.057.987,6.037,6.037,0,0,1-3.078,1.236c-2.427.63-4.92.89-7.34,1.536a4.589,4.589,0,0,0-2.477,1.34c-.444.516-1,.281-1.5.379l-2.473,2.473c.617,2.764-1.137,4.43-3.374,5.476a7.389,7.389,0,0,1-4.61.806c-.605,1.126-2.069,1.128-2.622,2.182a6.066,6.066,0,0,1-4.585-.984c-1.224-.923-1.405-.736-3.474.075.249,1.5-.969,2.376-2.265,3.894,1.529-.368,2.431.186,3.405-.5s1.629-.034,2.123.747c-.078,1.89-1.387,2.891-2.535,4.014-3.008.081-5.827-.873-8.76-1.636-.343,1-1.27,1.259-2.2,1.67-.983.436-.964,1.982-1.991,2.4a10.683,10.683,0,0,0-2.52,1.973h-4.934a1.257,1.257,0,0,0,.283,1.9c-.915.608-.352,1.662-.566,2.406-1.4.9-2.969.771-4.289,1.39-.655,2.145,1.4,1.769,2.421,2.455l3.81-2.327c.169.475.331.929.493,1.382.647,1.368-1.519,1.994-.917,3.719h-6.8a4.915,4.915,0,0,0-2.208-1.088c-.254-.537-.354-1.189-1.019-1.546H446.5c-.328.34-.941.522-.863,1.347l3.881,1.946h2.461l.748.749v3.543h-4.185l-1.424-1.491h-2.669c-.781-.67-1.928-.7-2.33-1.815a36,36,0,0,1-6.993,5.975,7.1,7.1,0,0,0-2.486,2.535c-.518,1-1.811,1.248-1.706,2.276-.864.527-1.515.265-2.113.348-.4.209-.194.662-.453,1.021h-3.5c-1.143-1.237-2.691-1.061-4.259-1-1.247.627-1.514,2-1.878,3.225h-3.656l-2.458,2.459c.712.711.405,1.578.483,2.362l-1.1.39v1.032c-1.082,1.448-2.909.528-4.236,1.506-.526-1.418-2.7-.918-3.13-2.649-1.255-.293-2.689.343-3.639-.6-.976-.155-1.417.615-2.183.673v1.837l1.012,1.012v2.81c-2.052,1.439-4.463.532-6.76.855-1.165-1.241-3.153-.9-4.06-2.317-1.657.449-1.661.446-1.825,1.895.81,1.43,2.589,1.841,3.237,3.375a1.513,1.513,0,0,0-.431,1.675c.137.389.583.2.9.4.06,1.187,1.049,2.22.562,3.731a13.871,13.871,0,0,1-3.77-.434c-1.172-.388-1.364-2.072-2.953-1.731-1.413,1.1-2.487,2.816-4.5,3.424-.776.234-1.32,1.232-2.028,1.94-.674.182-1.518.1-2.039.9a1.567,1.567,0,0,1-1.822.858c-1.431,2.308-1.431,2.308-1.5,3.465-.631,1.129-1.96,1.548-2.653,2.613-1.48-.276-1.593,2.032-3.074,1.625-.658.356-.012,1.487-1.026,1.645h-5.712c-.054,1.006-.885,1.384-1.382,2.125.29.741.954,1.479.445,2.677l-2.207,1.889c-1.652.474-3.592-.469-5.609-1.106l-1.507-1.625H345.5a4.756,4.756,0,0,0-2.66,2.188c-.643,1.131-2.081,1.275-2.465,2.515-.47,1.4.977,1.734,1.52,2.736v2.35l-1.362.12c-.542,1.523-2.35,2.51-1.836,4.427-.893,1.59-2.842,2.1-3.559,3.932a18.1,18.1,0,0,1-5.38-3.786c.352-.99,1.353-1.974-.111-2.832-1.172-.725-2.126.568-3.33.409-1.385,1.222-2.8,2.455-2.549,4.641-.372.355-.583.938-1.153.895-.6-.117-.5-.519-.522-.859a2.092,2.092,0,0,0-.452-.251,2.836,2.836,0,0,0-2.473.606,18.606,18.606,0,0,1-3.578,2.1,3.8,3.8,0,0,0-1.2.963c-.521.663-1.392,1.35-1.948,1.278-3.178-.413-6.241.862-9.2.561-.607.532-1.08.948-1.56,1.37,1.4,1.121,1.287,3.171,2.841,3.918-.519,2.056-2.549.746-3.26,1.894-.71-.071-.921-.662-1.442-1.043h-3.563c-1.079,2.887-4.233,3.869-6.092,6.3-.386.757.438,1.356.539,2.047-.014,1.165-1.114,1.827-1.161,2.936-.409.572-1.138.04-1.711.513a2.29,2.29,0,0,1-2.539.07c-2.169-1.284-4.744-1.4-6.869-2.672l-.926.874v2.722l-2.342,2.031a.673.673,0,0,0-.6.024c-1.456,1.381-3.316,1.719-5.142,2.269-2.516.758-4.871,1.987-7.322,2.947-.733.288-1.413.062-2.205.392a35.925,35.925,0,0,1-1.78,4.374,7.529,7.529,0,0,1-3.74,3.209h-1.979c-1.306-1.139-1.306-1.139-5.407-1.085-1.422.964-2.826,1.945-3.208,3.915-2.137-.253-4.125.115-6.2-.517a6.34,6.34,0,0,0-5.314,1.082,2.848,2.848,0,0,0-2.482-.58c-1.187-1.452-3.209-1.46-4.427-2.786h-2.226l-2.656,2.722h-3.954c-1.416-1.154-2.048-3.072-3.616-4.1V821.8l-3.544-3.545c-.367,0-.734,0-1.1,0-.48-.334-.21-.835-.306-1.375-1.473-1.187-2.12-3.213-3.86-4.36a4.022,4.022,0,0,0-1.083-3.4c-1.393-1.524-1.369-3.341-.818-5.21a12.879,12.879,0,0,0,.78-5.992,12.625,12.625,0,0,0-.975-3.809c.258-1.921,1.791-3.3,1.564-5.291a5.1,5.1,0,0,1,4.344-1.976c1.958-.043,3.948-.256,6.115.79l2.109,2.184a5.8,5.8,0,0,0,.937,2.515h3.862c1.228-.628.5-2.517,2.016-2.946l-.492-.492c-.169-.462.648-.574.412-1.071-.41-1.122-1.884-.978-2.365-2.1h-2.33l-.839-.877c-.057-1.03,1.392-1.218,1.186-2.218l2.458-1.189c1.293.636,1.8,2.255,3.124,3.084a6.984,6.984,0,0,0,4.541,1.162,4.421,4.421,0,0,0,1.943-4.047,7.145,7.145,0,0,0-2.46-2.062h-4.1v-1.369a1.474,1.474,0,0,1,1.924.3l.774-.775c-.491-1.752.931-3.241,1.3-5.25,2.393.439,4.739-.95,7.225-.516,1.941-1.985,4.038-3.737,5.319-6.163,3.042.328,5.961-.491,8.54.611.8.049.868-.592,1.307-.714v-1.8l-2.123-1.886v-2.235a9.16,9.16,0,0,0,3.854-.512c1.36-.383,2.541.782,4.028.517l1.556,1.929.944-1.183v-3.687a9.669,9.669,0,0,1,4.874-1.473c1.787.012,3.592-.986,5.268-2.636,2.268-.164,4.476-.564,6.19-2.294h2.737c1.356,1.457,3.131,1.03,4.782,1.1.9-.572,1.945-.907,2.606-2.023v-4.274l2.322-1.906a2.425,2.425,0,0,0,1.5-.627c.123,0,.268-.038.3.006.794,1.116,2.1.126,3.008.736a4.024,4.024,0,0,0,3.26.391,12.915,12.915,0,0,1,2.483-.03c2.485-.94,3.553-3.506,5.643-4.947h2.57c2.353,1.5,4.546,3.034,7.2,3.389.713-.563,1.221-1.068.923-2.124l-1.6-1.291h-1.322c-1.105-.712-.915-1.634-.813-2.535,1.468-.269,1.7-1.54,2.262-2.69,1.506-.593,2.345-2.476,4.263-2.523v-2.857c.432-.718,1.306-1.07,1.306-1.943,1.248-.682,2.189.645,3.351.428,1.455,1.422,3.284,1.1,5.043,1.087l1.288-2.56-1.033-.357c-.033-.874.214-1.911-.835-2.638l1.824-1.61c1.411,0,2.418,1.1,3.631,1.5,2.141-1,4.612.225,6.738-.765,1.086.256,2.058,1.845,3.388.245-.629-.918-.334-1.99-.41-2.831-1.338-2.23-3.618-4.162-.835-6.952,2.471.241,4.663-.924,6.776-2.349,1.06-.716,2.4-.787,3.454-1.7a6.973,6.973,0,0,1,3.215-1.51,10.272,10.272,0,0,0,2.314-1.076c.533.766,1.384.195,2.1.476.77.3,1.121,1.007,1.962,1.278,1.873.605,3.718.364,5.482.472.9-.421.826-1.434,1.53-2.086-.939-.948-.292-2.479-1.294-3.5.24-.283.372-.6.583-.666a11.67,11.67,0,0,1,5.373-.866,4.6,4.6,0,0,0,2.661,1.578c.714-1.011,2.032-1.6,2.96-2.8.966-1.243.35-3.023,1.724-3.959l-.52-.83c.215-1.536,2.236-1.409,2.346-2.785,1.1-.518,1.7.578,2.649.509.82-.059,1.829-.509,2.444.53.4-.471.973-.731.833-1.447.759-.619,2.108.33,2.684-1.187-.111-1.621,1.141-3.154,1.238-4.924,2.339-.663,4.725-.648,7.069-1.494a5.088,5.088,0,0,0,1.547-2.795c.7-2.876,2.67-4.464,4.928-5.93a6.817,6.817,0,0,0,.982-.964,2.291,2.291,0,0,0,2.946.269c1.393-.979,2.856-.83,4.35-.848,1.378-.017,2.756,0,4.265,0,1.09-.869,1.916-2.244,3.587-2.723l2.99,1.082a3.637,3.637,0,0,0,1.45-3.657c1.431-.425,1.6-1.5,1.7-2.755l1.475-1.327c1.756.266,3.777-.525,5.748.622,1.458-1.761,3.068.49,4.851-.2.17-1.855-.493-4.116,1.649-5.544v-2.9c.47-.27.6-.8,1.162-.806a26.56,26.56,0,0,1,7.85,1.283,6.885,6.885,0,0,0-2.769,4.067c.563.547.507,1.837,2,1.909.823.039,1.547,1.145,2.42,1.385a14.959,14.959,0,0,0,3.24.186c.981.045,1.734-1.056,2.833-.424a8.11,8.11,0,0,1,3.008-2.3c.164-2.529,1.167-4.914.663-6.932l.777-1.387c1.014.033,1.21.793,1.545.994,2.192-.458,3.761,1.092,5.693,1.289a13.428,13.428,0,0,1,3.169,3.733,1.707,1.707,0,0,0,2.063-.806c.254-1.56-1.033-3.113-.447-4.9l-1.448-1.14c1.193-1.129.8-2.246.051-3.432l-3.827-1.477a38.1,38.1,0,0,0,1.664-5.065c2.264-.42,4.367-.666,5.947-2.421,2.12.19,3.9-.319,4.886-2.594a1.889,1.889,0,0,1,1.92-1.275c.875.094.994-.992,1.616-1.17.474-2.393.567-4.76,2.018-6.941l1.318-.67c.4-.1.511.24.741.339a9.974,9.974,0,0,1,3.025,1.982,4.805,4.805,0,0,0,4.071,1.527,13.353,13.353,0,0,1,1.4-.008c.321-1.253,1.016-2.4.735-3.806l1.624-.088c.442.507,1.056,1.175,1.621,1.883a2.517,2.517,0,0,1,.231.833H504.3c.423.587.467,1.275,1.04,1.621l1.346-.6c.376-.931.949-1.844.683-2.843.641-.855,1.57-.966,2.329-1.462l.544.414,1.424-1.47h2.625c2.487-.614,2.787-2.89,4.424-3.81.391.6,1.014.566,1.658.464l.784-.784v-1.306c1.314.146,2.448-.588,3.726-.767A3.972,3.972,0,0,0,526.123,615.62Zm167.066-14.057a.384.384,0,0,0-.489.326c-.009.042.12.172.163.162a.392.392,0,0,0,.331-.493.384.384,0,0,0,.488-.327c.01-.042-.119-.171-.162-.162A.393.393,0,0,0,693.189,601.563Zm50.552-56.6a4.213,4.213,0,0,0-3.091,3.627,4.13,4.13,0,0,0,1.966,4.414c1.332.269,2.275-.621,3.4-.652.086-1.232,1.394-1.586,1.731-2.375.108-.663-.323-.794-.49-1.048.929-1.119.374-2.356.564-3.822C746.182,545.827,745.111,544.3,743.741,544.964ZM639.116,687.327a5.632,5.632,0,0,1,.712-3.068c-.464-.831-1.474-1.2-1.371-2.3-1.034.58-1.529-.668-2.644-.338-.592,2.046-1.923,4.128-.278,6.466.981-.176,1.144,1.087,2.177,1.165ZM756.881,445.52h-2.188c-2.282,2.316-2.384,2.677-1.161,4.4,1.034.089,2.244-.308,3.151.789l1.552-1.671V446.9ZM726.1,590.511c-1.117.158-2.318-.438-3.06.782a4.8,4.8,0,0,0,.71,3.456,1.689,1.689,0,0,0,2.233-.481c.8-.74,1.8-.025,2.56-.741C728.211,592.229,726.9,591.718,726.1,590.511Zm59.579-97.473c.387-1.493-.6-2.288-.5-3.357h-1.567l-2.191,1.916c-.182,1.429.852,1.873,1.645,2.636C783.949,493.6,784.423,492.449,785.679,493.038ZM679.054,657.379c.581-.752.077-1.549.4-1.983a2.287,2.287,0,0,0,.5-1.736l-.761-.754H676.72v2.46l.363-.383Zm-162.368,8.587c.367-1.514-.732-1.942-1.349-2.653-.612.09-1.264-.216-1.833.2a1.263,1.263,0,0,1-.574,1.139c.657.539.466,1.731,1.569,1.981A4.411,4.411,0,0,1,516.686,665.966Zm85.907-193.98c.279-.726,1.361-.91,1.257-2.149-.977.293-1.674-.587-2.641-.645-.5.555-1.587.216-1.867,1.354l1.793,1.44ZM706.7,575.643a2.188,2.188,0,0,0,.735-2.6c-.664-.35-.848-1.44-1.886-1.226a3.278,3.278,0,0,1-1.053,2.144l1.4,1.385.232-.233c.064.05.132.094.19.149C706.448,575.388,706.573,575.518,706.7,575.643ZM413.3,682.061a1.38,1.38,0,1,0,1.447,1.241A1.374,1.374,0,0,0,413.3,682.061Zm248.156-5.745c-1.179-.676-1.548-1.923-2.894-2v3.268h1.4C660.042,676.844,660.468,676.513,661.454,676.316ZM272.393,757.489c-.088-1.961-.131-2-1.946-1.928-.215.45-.419.876-.622,1.3C270.489,757.906,271.446,757.635,272.393,757.489ZM685.194,457.1c-.74.116-1.661-.217-2.467.229-.075.851.528,1.041.838,1.428h1l1.543-.743Zm-17.383-17.449c.358-.894,1.682-.289,1.7-1.572l-2.608-.843C666.41,438.354,666.925,438.928,667.811,439.647Zm-1.752,19.744c-1.189-.286-1.838.113-2.111,1.1a1.7,1.7,0,0,0,1.185,1.026C666.075,461.171,666.357,460.471,666.059,459.391Zm111.175,6.487-1-1c-.49,0-1.038-.323-1.442.24.031.252-.1.548.264.758ZM379.992,703.287l1.5.742.712-.771c-.423-.267-.563-.819-1.136-.8C380.557,702.489,380.408,703.018,379.992,703.287ZM638.2,664.99c.375-.057.671.092.872-.231a.653.653,0,0,0-.153-.858C638.112,663.746,637.915,664.092,638.2,664.99Z" fill="#007dce"/><path d="M958.019,375.574c-.124.8-.912,1.351-.68,2.383l.563.638c1.246.786,2.354-.733,3.3-.27,1.156.566,2.261.367,3.666.533l.9,1.435.3-.235v1.754a3.87,3.87,0,0,1-2.056,1.58c-.915.853-.2,2.475-1.191,3.467a1.659,1.659,0,0,1-1.041,2.009c-1.013.461-1.618,1.763-2.953,1.5-.679-.133-.987.322-1.447.762v4a3.253,3.253,0,0,1,2.192,2c-.593.859-1.437.126-1.636.253-.733.411-.59.718-.661,1.09-.9.345-2.469.109-2.111,2.063.407,1.021,1.684,1.262,2.675,2.188a4.033,4.033,0,0,0,.571,2.579,2.534,2.534,0,0,1-.153,3.411c1.856,1.217,1.052,3.478,2.047,4.755l-1.217,1.216c-.335.842-1.214.214-1.963.852-.352.3-1.085-.716-1.715-.314l-3.831-3.83h-2.34a4.517,4.517,0,0,0-.73,3.392,18.657,18.657,0,0,0,3.737,4.412c.5,1.3-.558,1.8-1.245,2.586-1.311.133-2.8-.284-4.053.767-.458,1,.357,2.3-.563,3.346l1.371,1.081-.228.416h4.407c-.55,1.9-2.071,1.917-3.522,2.359.747,1.338.438,3.052,1.727,4.18-.193.92,1.32.2,1.1,1.15-.138.611.163,1.04.729,1.49a18.857,18.857,0,0,1,5.318,1.446v3.934c-1.408,1.375-2.728,2.989-5.015,3.126-1.369-1.186-2.7-2.381-4.8-1.344-.1-.057-.224-.5-.684-.422a1.462,1.462,0,0,0-1.089,1.693c-.494,1.746-2.4,1.218-3.285,2.49,1.538,1.357,3.847.723,5.21,2.131,2.83,2.888,1.609,6.171.714,9.58-.217.271-.971,0-1.179.556l-1.366-.674c-.05-.421-.1-.855-.161-1.362h-2.487c-.54.293-.625.952-.925,1.48a1.743,1.743,0,0,1-1.315.782c-.7,1.8.962,1.907,1.893,2.54.231-.14.165-.429.176-.741.608-.516,1.324-.224,1.983-.224l2.978,2.977c0,1.62-.074,3.274.021,4.918a4.431,4.431,0,0,1-1.55,3.773,13.685,13.685,0,0,0,1.013,5.654c-.249,1.661-1.626,2.61-2.793,3.868a16.071,16.071,0,0,0,.016,2.063,7.037,7.037,0,0,1-.6,3.619,6,6,0,0,0,.248,5.531c.125.226.336.371.347.689.058,1.682.931,3.277.507,5.013a6.759,6.759,0,0,1-2.115,2.862c-.154,1.874-.456,3.581-2.032,4.74-1.406.326-1.826-.974-2.754-1.652-.536,0-1.172.018-1.806,0a5.563,5.563,0,0,0-3.515.869,19.36,19.36,0,0,1-3.732,1.534v1.206c.6.512,1.626-.006,2.093.819,2.377-.858,6.119-1.2,7.828,1.365v1.548c-.5,1.291-2.11.571-2.761,1.867.172,1.529.218,3.243,1.455,4.678a4.3,4.3,0,0,1,.718,3.524c-.374.38-1.084.186-1.339.8a8.3,8.3,0,0,0-4.823-2.816c-1.131.724-1.61,2.108-3.213,2.39.525,1.761-.943,3.328-.453,5.166.765.131,1.222.957,2.034.795a4.207,4.207,0,0,1-.815,3.763l-1.789.822c.181,1.837-1.5,2.888-2.148,4.556.357.723,1.149.786,1.922.84.072.088.19.173.176.222-.313,1.1.636,1.588,1.122,2.232-.249,1.787-1.55,3.139-1.743,4.982-.635.632-1.351,1.345-2.095,2.084v2.227a5.671,5.671,0,0,1,1.914,1.8,4.084,4.084,0,0,1,.819,2.639l1.042,1.043c.054,1.048.264,2.126-.488,3.035.549,2.092,2.381,3.36,3.5,5.044l-.966,1.021h-2.9c-.372-1.477-2.234-1.367-2.539-2.849-.3.3-.443.427-.562.566-.168.2-.431.313-.414.658.081,1.6-1.057,3.07-.426,4.826l2.335,2.336h2.87c-.05,1.114,1.146,1.4,1.338,2.313a4.279,4.279,0,0,1-2.463,1.957c-.387.1-.539-.531-1.047-.394a1.037,1.037,0,0,1-1.189-.54l-1.161,1.109h-1.635c-1.24,1.165-2.25,2.585-3.919,3.226-.747-.9-1.8-.317-2.686-.479a3.832,3.832,0,0,0-1.394,2.881c.3.646,1.416.419,1.55,1.172.23,1.286,1.039,2.478.561,3.97-.961.963-1.431,2.494-2.63,3.244-.275,2.3,2.23,1.983,2.791,3.394.547,1.375,1.746,2.238,2.742,3.317-.435,2.1.99,3.789,1.221,5.738h1.36v7.573c-.626.773-1.606.942-2.538,1.393v6.154l2.1,2.929V623.7c-.468,1.457-1.7.825-2.541,1.079-1.332,1.9-1.332,1.9-1.2,4.818h2.3a13.428,13.428,0,0,0,1.668,1.64c2.041,1.389,2.464,2.162,1.407,4.793a4.673,4.673,0,0,0-2.175,1.708c.426.891-.673,1.418-.513,2.44a11.651,11.651,0,0,1,2.169,7.274c-.859,1.477-1.324,3.07-2.751,3.936,0,1.155,0,2.255,0,3.356.008,2.234.552,4.167,2.87,5.111.157.063.263.251.437.425a29.132,29.132,0,0,1-.031,3.518c-.143,1.178-.882,2.191-1.126,3.4-.233,1.146-1.616,1.625-2.265,2.75.572,1.684,1.739,3.295,1.051,5.448-.259.372-1.2.57-.942,1.4-.375.5-.788.165-1.624.665-.046.083-.407.725-.768,1.368-.1.668-.748,1.521-.869,2.455-.109.837.915,1.552.467,2.532-.659,1.433-2.225,1.918-3.365,3.008.417,1.2,1.616,1.712,2.293,2.832v1.534l-1.482,1.327h-2.043l-1.194,1.136h-2.664c-1.38.9-1.593,2.7-2.944,3.335-.652,1.71.667,3.061.414,4.58a3,3,0,0,1-2.037,1c-.11.767-1.017,1.273-.478,2.6l1.48,1.177h1.337a4.476,4.476,0,0,1,.127,4.95c1.381,1.881,3.455,3.045,4.484,5.236V719.4l-2.209,1.838a2.024,2.024,0,0,1-.509,2.008c-.015.713.972,1.147.471,2.129l2.316,1.915v4.142c1.261,1.319,1.7,2.988,2.18,5.093-.006.354-1.221.488-1.068,1.29s-.835,1.233-.567,1.977c.3.831-.529,1.282-.577,2.017.159.189.331.391.5.6a4.91,4.91,0,0,0-1.016,3.915,7.9,7.9,0,0,1,2.156,2.693v3.245a3.069,3.069,0,0,0,1.665,1.224v1.253a4.288,4.288,0,0,1-4.086-.938l-2.013,1.908c.1,1.295,1.826,1.535,1.785,2.835.984.408,1.931.784,2.865,1.192.881.386.744,1.808,1.964,1.914v2.844l-2.163,1.9h-3.993c-1.874,2.316-1,5.085,1.1,7.811a10.821,10.821,0,0,0,3.187,2.846,6.777,6.777,0,0,1,2.988,3.7c-.216.883.632,2.271-.771,3.281h-4.409c-.454.5-1.159.956-1.343,1.569a6.459,6.459,0,0,1-.729,1.852c.885.6.623,1.645.652,2.262.537.994,1.5.8,1.877,1.553.421-.4.8-.756,1.178-1.113.306.419.945.63.777,1.456a14.634,14.634,0,0,0,5.86,1.283l1.242,1.44a9.057,9.057,0,0,0-.475,4.685c.137,1.73.028,3.48.028,5.188-1.138,1.075-2.041,2.352-3.833,2.993h-2.891a1.587,1.587,0,0,0-.918,2.05c.78.846,2.111,1.018,2.671,2.282-.072,1.084.348,2.386-.582,3.421a6.333,6.333,0,0,0,1.669,2.424v2.788c-.652,1.111-2.114,1.065-3.025,1.944h-3.235c-1.637,1.279-2.191,3.333-3.617,4.725l.39.389-2.684,2.67c-.736.229-2.02-.609-2.985.489a3.592,3.592,0,0,0-3.13-1.09,2.177,2.177,0,0,1-1.959-.56,5.484,5.484,0,0,0-2.583,1.627c-3.24.4-5.311-1.374-6.893-3.765a8.756,8.756,0,0,0-6.191-3.879,2.391,2.391,0,0,1-1.542-.868c.422-2.111-1.059-3.514-2.594-4.719a7.674,7.674,0,0,1-3.071-4.772c-.043-.231-.465-.308-.312-1.063a8.68,8.68,0,0,0,2.735-4.373c-1.5-.555-2.323-2.066-3.941-2.7a13.836,13.836,0,0,0-.073-3.721c-.347-1.226.287-2.289.069-3.44.619-.466.981-1.178,1.842-1.487.426-.153.63-1.089,1.428-1.21.321-1.61-1.037-3.093-.487-4.682a13.478,13.478,0,0,0,.524-4.748c-.469-.616-1.261-1.018-1.333-1.917-1.109-.233-2.357.338-3.416-.478-.42.671-1.2.393-2.055.446-1.079-1.123-2.819-1.629-3.667-3.2-.126-1.475.895-2.4,1.987-3.5-1.395-.8-1.454-2.338-2.745-3.069,1.12-1.2.67-2.509.759-3.734,1.179-.36,1.838-1.371,2.72-2.18v-1.5c-.847-.789-1.666-1.55-2.708-2.519.33-2.5-1.045-5.153-.472-7.991l-1.283-1.42c.48-1.7,1.072-3.31,1.456-4.987.115-.5.454-1.285.214-1.455-.856-.6-.171-1.747-1.1-2.372a19.561,19.561,0,0,1-2.687-2.605,2.026,2.026,0,0,0,0-.382c-.6-2.349-.655-2.372.38-4.9.233-.568.06-1.154.482-1.748.546-.769.344-1.023-.282-2.434l1.148-.415c-.353-.749-.429-1.6-1.145-2.219l2.021-1.879c.569-3.224-.242-6.132-.5-9.353.395-.318.878-.734,1.39-1.111.429-.316,1.436.17,1.4-.4-.076-1.065,1.043-.545,1.174-1.155.153-.953-.47-1.646-.851-2.4-.319-.633-1.358-.869-1.307-1.643.053-.8-.757-1.226-.526-2.324a20.186,20.186,0,0,0,2.195-8.113,5.053,5.053,0,0,1,.573-2.2c.535-.858.09-1.651.326-2.452a13.659,13.659,0,0,0,.2-2.925l1.216-.645c-.624-2.08.845-3.6.289-5.307-.4-1.621-1.969-2.539-2.447-4.175-.191-.653-.42-1.178.125-1.69.245-.23.174-.486.216-.744.14-.854-1.2-1.494-.352-2.445.709-.794.2-1.731.35-2.552l-1.018-1.018a22.532,22.532,0,0,1,.646-7.869c1-.222,1.593-1.29,2.413-1.951.477-.761-.352-1.775.65-2.272-.678-1.677-1.375-3.3-1.982-4.95a17.179,17.179,0,0,0-.876-2.382c-.923-1.622-.082-2.7.732-3.791a23.588,23.588,0,0,1,2.335-2.38c-.993-1.139-.63-2.432-.7-3.676.714-.879,1.8-1.483,2.157-2.693v-3.424a7.357,7.357,0,0,1-1.434-1.982,1.088,1.088,0,0,1-.143-1.022c.993-1.8.334-3.723.52-5.577a56.481,56.481,0,0,1,1.185-7.478,11.1,11.1,0,0,0,3.238-4.6l-1.111-2.14a15.587,15.587,0,0,1,.009-1.694c.25-2.541-.659-4.79-1.653-7.039a20.27,20.27,0,0,1-1.6-5.659c-.112-.894-.914-1.519-.65-2.529.215-.829,1-1.547.476-2.591a5.81,5.81,0,0,1,3.5-2.13,4.218,4.218,0,0,0,3.812-3.613,5.562,5.562,0,0,1-.607-3.157c.06-2.2,0-4.41.021-6.615.012-1.494-.278-3.058.926-4.3.37-.382.155-.872.161-1.3.027-1.838-.134-3.69.045-5.51.287-2.9-.868-5.549-1.226-8.33-1.2-1.5,0-2.582.639-3.992v-2.024c.961-.437.951-1.68,1.763-2.245.712-.5.822-1.494,1.663-1.85,1.014-.43,1.044-1.522,1.6-2.345-.961-1.456-3.205-1.221-3.822-3.052-.981-.976,1.277-1.969-.014-3.06.83-.869.6-2.112.879-3.128.31-1.116.94-2.275.726-3.6a22.564,22.564,0,0,1-.04-3.577v-3.537c1.762-1.953.871-4.313,1.156-6.7a4.953,4.953,0,0,0,1.544-2.161c.226-.431.04-1.077.04-1.679-1.531-.853-.9-2.944-2.285-3.888.441-.885,1.119-1.639,1.137-2.408.038-1.579,1.077-1.617,2.127-1.805.488-1.063-.376-2.362.585-3.342-.964-.823.156-2.32-1.05-3,1.525-2.23-.809-4.362.181-6.443-1.028-.6-1.145-1.885-2.3-2.183v-2.743a45.8,45.8,0,0,0,7.63-6.666,2.735,2.735,0,0,0-.5-2.467,13.9,13.9,0,0,0,1.147-5.3,4.773,4.773,0,0,0,1.11-2.885c.474-3.354,1.148-6.681,3.863-9.258-.061-.907.16-2.048-.27-2.831a2.8,2.8,0,0,1-.241-2.563c.733-.982.223-1.945.535-2.918l1.04-1.04c-.162-1.088.248-2.283-.5-3.5-.348-.569-.031-1.478.455-2.236a12.353,12.353,0,0,0,1.645-6.187,8.085,8.085,0,0,1,.755-2.572,5.043,5.043,0,0,0,3.686-2.056V428.007a4.946,4.946,0,0,0-1.591-2.565c-.111-.537.253-.748.241-.919-.056-.814-.727-1.772-.232-2.388a3.314,3.314,0,0,0,.482-2.3c.046-.916.007-1.837.011-2.756.006-1.594,1.037-2.9,1.258-4.456.049-.344.482-.73.39-1.2-.391-2,.541-3.867.64-5.833a3.979,3.979,0,0,1,1.589-3.327,14.541,14.541,0,0,1,1.637-7.712c.184-.4.619-.247,1.009-.443v-4.648l-2.06-2.059c.793-.815.4-1.842.508-2.809l3.732-3.678c0-1.142.815-2.081.7-3.292-.117-1.183.239-2.467-.1-3.558-.352-1.143.32-2.107.062-3.176.85-1.114,2.2-1.849,2.59-3.464l-1.474-2.871v-4.222a4.02,4.02,0,0,0,1.11-3.4c-.051-.916.067-1.845-.026-2.754-.177-1.721.511-3.308.734-4.962a9.608,9.608,0,0,0-.1-4.85,16.339,16.339,0,0,1-.034-3.209c1.092-1.7,2.408-3.147,2.935-5.2a8.409,8.409,0,0,0,.1-4.442,7.111,7.111,0,0,1-.3-1.793c-.035-1.469.072-2.946-.036-4.408-.1-1.324.432-2.682-.348-3.987-.638-1.066.21-2.423-.663-3.6-.4-.534-.067-1.6-.067-2.518a16.437,16.437,0,0,0,3.3-11c1.557-1.745,2.368-4.122,4.245-5.4,1.087-2.7.613-5.335.732-7.944l-1.611-1.53v-2.933c1.437-.89,1.322-3,2.8-3.969-.406-2-1.78-3.186-2.777-4.923v-2.215c1.225-.457.856-1.936,1.581-2.818.027-.658-.634-.83-1.016-1.437v-7.687a2.372,2.372,0,0,1-1.116-1.8c.136-2.722-1.193-5.314-.46-8.321a8.5,8.5,0,0,0,2.406-3.722c-.722-.553-.167-1.525-.442-2.22-.248-.47-.805-.013-1.027-.741.229-1.3-.221-2.851.438-4.489a4.09,4.09,0,0,0-.566-4.022,4.423,4.423,0,0,0,1.592-4.83c-.2-.472-1.085-.954-1.595-1.844a5.946,5.946,0,0,1-.968-3.744c.356-3.179-.783-6.242-.6-9.424.177-3.114.038-6.246.038-9.37v-1.881l2.129-1.357v-3.1c.76-1.591,1.589-2.723,1.364-4.428l2.011-1.831c-.275-2.1,1.47-2.416,2.809-3.339.665.853,1.677.656,2.644.657a3.775,3.775,0,0,1,2.268.534,5.737,5.737,0,0,0,4.633,1.052c1.148,1.2,2.4,2.128,2.663,3.875a45.361,45.361,0,0,0,7.141,1.736c1.256-.645.974-1.542,1.01-2.473l-1.642-1.338c.03-1.208-.361-2.213,1.067-2.813,1.07.167,2.528-.426,3.854.506.184.129.557.165.646.389.89,2.239,3.133,2.927,4.9,4.173,0,1.076.017,2.076,0,3.076a3.936,3.936,0,0,0,2.385,4.008,20.2,20.2,0,0,1,3.007,2.2c1.185-.1,2.289-.985,4.022-.339.407.228.845,1.264,2.08,1.66.551.753.475,2.388,2.307,2.647-.2.946.356,1.573.955,2.281a11.762,11.762,0,0,1,1.14,2.274,8.157,8.157,0,0,1,.775,2.18c.127.674.418,1.8,1.484,2.027v3.592l-1.369,1.049c-.311.451-.972-.046-1.353.528a4.118,4.118,0,0,0-1.108,3.407c.026,1.495.689,5.271,1.66,6.763.795,1.22,1.512,2.49,2.246,3.709-1.239,2.3-.2,4.526-.062,6.771.137,2.289.031,4.592.031,6.91l-2.787,2.731c.205,1.376-.284,2.793.517,4.185a2.014,2.014,0,0,1-.137,2.079c-.69.831-.181,1.746-.361,2.572l2.2,2.2v4.01c-1.51-.137-1.764,2.2-3.541,1.8-.55.266-.112,1.124-.916,1.35,1.692,1.341,1.934,3.406,2.849,5.233-.772,1.059-.617,2.614-1.627,3.576-.314,2.543.735,5.425-2.194,7.266a5.814,5.814,0,0,0,1.328,4.787c.678.83.68,2.3.782,3.494.123,1.454.029,2.926.029,4.383a1.529,1.529,0,0,0-1.376,1.338h-1.653c-1.03,1.013-1.231,1.479-.449,2.228.617.591.584,1.522,1.514,2.071h3.284l.891,1.061c.135,2.22-1.122,4.542-.4,7.1l-1.838,1.475c.256,1.936-1.5,2.31-2.189,3.6a4.561,4.561,0,0,1-1.967,4.534h-3.818l-.8.8v2.828l1.5,1.3h2.5c.661.345.9,1.243,1.78,1.13.1.163.239.306.254.461.037.364-.146.887.038,1.077,1.235,1.274-.089,2.475-.056,3.7,0,.195-.524.435-.493.594.368,1.921-.939,3.637-.622,5.138-.579,1.6-1.864,2.707-.534,4.163.018,1.764.42,3.652-1.143,5-.527.455-.306,1.249-.955,1.553a6.419,6.419,0,0,0,.465,3.872c.912,1.966.441,4.067.568,6.092-.382.416-.892.755-1.09,1.226a3.778,3.778,0,0,1-3.979,2.41c-1.368-.028-2.738,0-4.059,0-1.291,1.8,1.268,2.655.9,4.186a5.569,5.569,0,0,0,2.817.84A2.589,2.589,0,0,1,958.019,375.574ZM911.771,797.851H911.3l-1.979,1.437c.179,2.394,2.211,5.731,3.675,5.731l.749-1.479v-3.767Zm46.172-449.817v3.779c.788.363,1.55.744,2.339,1.058.211.084.5-.039.679-.058l.641-1.364c-.9-1.019-.147-2.288-.515-3.261C960.089,346.605,959.056,347.754,957.943,348.034ZM894.585,820.361h3c.378-.425.85-.648.7-1.282l-.741-.778h-2.889c-.261.411-.825.552-.743,1.278Zm34.13-332.385c.45,0,.8-.029,1.144.007.429.046.58.7,1.209.507a1.545,1.545,0,0,0,.848-1.915l-.751-.751h-2.45Zm-22.832,241.6h-2.449c-.369.427-.857.641-.7,1.274l.747.786h2.39c.178-.432.775-.55.685-1.284C906.416,730.19,906.187,729.926,905.883,729.577Zm9.514-69.106H918.1v-1.377c-.743.022-1.1-.856-1.925-.734a4.966,4.966,0,0,0-.756,1A3.2,3.2,0,0,0,915.4,660.471ZM872.436,687.4c3.031.261,3.031.261,3.264-.212.095-.67-.54-.856-.835-1.265-.61.072-1.244-.163-1.806.153C872.783,686.429,872.276,686.614,872.436,687.4Zm55.631-168.8c-.584-.474-.923-1.311-1.815-1.435-.4.4-.964.61-.938,1.258.686.662,2.511,1.519,2.753,1.278ZM957.9,295.451h2.658v-.916H957.9ZM944.349,439.458c-.708-.08-1.019.389-1.337.9a1.441,1.441,0,0,0,1.515.021A.683.683,0,0,0,944.349,439.458Z" fill="#007dce"/><path d="M1000.368,325a1.226,1.226,0,0,0,.5-1.089c-.32-2.963,1.347-5.68,1.092-8.639,1.376-1.135-.193-2.258-.02-3.406.185-1.233-.632-2.085-1.245-3.069a8.174,8.174,0,0,1-.91-3.186c-.163-1.216.044-2.447-.536-3.649a1.488,1.488,0,0,1,.864-1.987h4.745c.446-.377.725-.612,1.09-.922-.807-1.155-.7-2.675-1.75-3.785v-3.713c.41-1.55,1.9-.642,3.008-1.312-1.6-1.149-1.66-3.138-3.056-4.373.2-.882-.433-1.962.56-2.739-.641-.421-.608-1.044-.5-1.744l.782-.28a20.71,20.71,0,0,0,1.278-9.947c1-.834,1.193-2.276,2.542-2.616h4.395c1.355-1.055,1.557-2.688,1.92-4.146.248-1,.836-1.235,1.644-1.545V260.46l-.606-.606c-.541-.331-1.192-.069-1.806-.153l-.585-.584c-.23-.13-.258-.257-.09-.391.072-.057.185-.126.189-.194.14-2.481,1.237-4.954.676-7.385a28.635,28.635,0,0,1-.454-5.581,5.07,5.07,0,0,1,.479-2.28c.946-2.188.62-4.586.608-6.912-.012-2.162.933-4,1.725-6,1.263.384,2.346-.135,3.558.535a4.549,4.549,0,0,0,3.442-.056c1.6-.594,3.532-.561,4.531-2.451v-.952c.193-.308.473-.275.731-.274,1.027-1.575.942-3.344.9-5.243-1.344-1.745-2.487-3.8-4.525-5.116a1.747,1.747,0,0,1-.927-2.112c.138-.195.393-.242.866-.172.63-3.618,4.715-4.255,6.358-7.37-.76-.611-1.149-1.791-2.556-1.49a14.344,14.344,0,0,1-3.565-4.49v-2.426c.393-.642,1.062-.716,1.586-1.053V196.62c.85-.13,1.06-.931,1.544-1.44.774.008.977.765,1.524,1.108h2.174c.874-.776.874-.776.236-4.383l-1.719-1.381c-1.092-2.262-.158-4.407.293-6.918l1.47-1.179c.05-2.392-.123-4.531.514-6.652a10.293,10.293,0,0,0,.046-2.912l-1.031-1.032V169.5c1.336-1.567,3.566-1.062,4.569-2.331.675-.186.779.144,1.075.358,1.152-1.092,2.211-.221,3.093.44a13.269,13.269,0,0,1,2.021,2.427c.949.067,1.136-1.019,1.819-1.285.169-1.492-.06-2.868.494-4.307.453-1.175-.331-2.518-1.109-3.6-.205-.286-.6-.463-.378-1.01a4.8,4.8,0,0,1,4.864-.514c.895.355,1.978-.123,2.737.757a1.137,1.137,0,0,0,1.058,0c1.245-.771,2.736-.14,3.887-.611,1.437-.588,2.811-.331,4.168-.488,1.548,1.364,3.431,2.114,5.076,3.244a24.467,24.467,0,0,1,2.806,2.465,10.136,10.136,0,0,0,4.736,2.554c3.983.886,4.282.92,6.238,4.05a11.439,11.439,0,0,0,1.615,2.074,4.27,4.27,0,0,1,1.356,3.311,18.972,18.972,0,0,0,.444,5.306c.284,1.117.994,2,1.228,3.306a4.519,4.519,0,0,0-.558,3.138,5.745,5.745,0,0,0-1.748,2.889,6.755,6.755,0,0,1-6.08.21c-2.393,1.174-1.775,3.779-2.606,5.733l-1.731,1.448v2.475a8.483,8.483,0,0,0-2.657,5.489c-.211,2.078-2.047,3.495-1.776,5.561l-1.028,1.027a2.988,2.988,0,0,0,.485,2.24c-.723.883-1.833,1.463-2.189,2.694q0,4.947,0,9.893c0,3.022-1,4.636-3.92,6.173a4.89,4.89,0,0,0,1.164,2.209v4.357l-3.343,5.12c.51,1.814-.916,3.534-.483,5.376l-1.089,1.089v1.741l-1.069.7c-.4.532.214,1.225-.254,1.648-.525.863-2.167.628-2.089,2.086-.393.413-.882.12-1.341.226l-1.27,1.33c.483,1.392,1.628,2.28,2.619,3.3.045,1.14.307,2.316-.625,3.2l.641.706a4.057,4.057,0,0,0-.747,4.315c.086.434-.542.607-.255,1.3l1.009.779c.207,2.909-1.06,5.685-.457,8.431-1.195,1.164-2.131,2.406-3.743,2.58-.252,1.082-1.336,1.95-.243,3.18.36.4.057,1.4.057,1.925a25.985,25.985,0,0,1-4.93,4.384c.52,1.333,2.109,1.348,2.769,2.467-.424.678-.494,1.51-1.135,2.056v3.923c-1.5,1-3.136,1.941-3.862,4.2v1.937c1.305-.023,2.3.917,3.686,1.391.069,1.934,2.381,1.484,3.349,2.793.288.521.073,1.16.1,1.778l-.923.922c-.822-1.023-2.322-.213-3.286-1.254l-2.74,1.068a24.628,24.628,0,0,1-2.9,7.579l.4.381c-1.656,2.271-.777,4.879-1.037,7.2.71.988,1.91,1,2.436,2.02h2.326c.776,1.174.776,1.174.776,4.132a32.029,32.029,0,0,0-5.5,5.061v3.711c-2.57,1.286-1.352,3.654-1.659,5.343,1.016,1.92,1.822,3.639,1.645,5.7l-3.091,3.057c-1.261-.326-1.706.772-2.383,1.374-.222.889.386,1.87-.464,2.65.532.911.261,2.258,1.512,2.755v2.082c-.5,1.721-2.4,1.21-3.17,2.312,1.435,3.186-.738,6.306.018,9.655.164.142.508.441.885.766v3.041c-.994,1.317-3.117.393-4.282,2.229a5.168,5.168,0,0,0,1.853,5.128c1.377,1.221,2.948,2.4,2.475,4.847-.082.1-.511.623-.959,1.171-1.861-.91-4.052-.254-6.2-1.249.156,2.94-.47,5.639,1.04,8.125-.511,1.295-1.687,2.367-1.557,3.939.064.774-.4,1.689.647,2.187-1.282,2.5-.755,5.654-3.327,7.869v1.613c.307,1.781,2.131,2.469,1.44,4.346l-2.56,2.386a1.613,1.613,0,0,0-1.664.827c-.469,1.879.982,3.61.371,5.71-.627,1-2.265.876-3.093,1.959-.57,1.475.175,2.827.657,4.065a17.418,17.418,0,0,1,1.471,7.942,15.587,15.587,0,0,0,.084,2.949c.233,1.905,2.342,2.075,3.136,3.648.748,1.483.464,3.306,1.886,4.4-.389,1.06-1.028,1.906-.633,2.947l-2.707,1.387c-1.143.18-1.669-.923-2.71-.42l-.7.821c.75,1.928.791,4.232,2.295,6.221a2.945,2.945,0,0,0-.65,2.572c-.691.4-1.341.144-1.954.241-.455.454-.91.909-1.324,1.324a9.778,9.778,0,0,1,1.58,6.558l1.089,1.236c.177.8-.865.94-.5,1.638-.765.147-1.333.7-2.13.884a3.094,3.094,0,0,0-1.694,1.474,2.753,2.753,0,0,1-2.369,1.8c-.934.059-.823,1.261-1.546,1.923,1.225.539.907,2.728,2.954,2.431,1.209-.482,1.3-2.007,2.318-2.718l.794.793a10.247,10.247,0,0,1-.872,4.867,4.552,4.552,0,0,0-.279,3.409l-1.58,1.69V503.7l.8.8h1.176c-.009,1.187,1.771,1.56,1.19,3.2a4.865,4.865,0,0,0-2.1.728,1.828,1.828,0,0,1-1.136-2.04c-.425-.307-1.046-.241-1.341-.756l-.8.8v11.623c1.278,1.172,2.506,2.449,2.1,4.722-2.03.66-4.1,1.49-5.42,3.908a3.957,3.957,0,0,0,.533,2.624,6.223,6.223,0,0,1,1.087,4.678l1.076,1.075c.2.8-.252,1.8.609,2.412,0,.149.039.288-.006.326-.745.621-.507,1.473-.559,2.519l1.648,1.325c.267,2.948-2.981,2.075-3.771,4.273v3.031c1.053.52,1,1.893,1.554,2.95a.986.986,0,0,1-.314,1.225,1.015,1.015,0,0,0-.17,1.262c1.23,1.752.2,2.961-.88,4.18-.244.274-.517.522-.794.8v1.715l1.623,1.384h2.581c1.013,1.585-1.322,2.017-.973,3.461.27,1.115-1.009,1.883-1.364,2.991-.35,1.089-1.7,1.858-2.7,2.865h-2.754a3.912,3.912,0,0,0-1.4,2.6,10.476,10.476,0,0,0,1.064,5.906A6.787,6.787,0,0,1,1001,582.92c-.442,1.025.444,2.278-.806,2.993a2.959,2.959,0,0,1,.449,2.9,8.4,8.4,0,0,0-2.183,3.7c-.462,1.5-1.84,2.718-2.814,4.06-1.395-.3-.387,1.536-1.358,1.382-.127.643.254.817.567,1.213-.294.8-.983,1.631-.413,2.715,1.5.413,2.046,2.37,4.067,2.789l-2,1.342v3.053l1.58,1.1v2.147l1.527,1.437a3.879,3.879,0,0,1,.135.6,6.321,6.321,0,0,0,.486,2.561,6.706,6.706,0,0,1,.549,4.263l-1.058,1.12c1.311.752,1.633,2.335,2.784,3.248,0,1.55-.374,3.237.1,4.638.548,1.628.27,3.182.427,4.351-.526,1.815-1.757,2.641-2.762,3.744a9.745,9.745,0,0,0,3.394,6.581q-2.061,2.63-4.078,5.2h-3.4a20.673,20.673,0,0,1-2.449-3.276,10.653,10.653,0,0,0-2.558-3.3h-2.71l-3.116,2.649c-.8,1.269,2.028,1.719,1.1,3.237,2.2,1.131,3.68,2.93,5.559,4.215v2.235c.38.4,1.069.8,1.063,1.192-.017,1.1.927,1.965.6,3.084-.354,1.066-2.053,1.378-1.593,3l2.112,1.987v3.5c-.637.886-1.837.9-2.353,1.9a13.4,13.4,0,0,0-1.345.007,5.567,5.567,0,0,1-5.226-2.059,4.576,4.576,0,0,0-2.646-1.228l-3.274-3.273v-4.2l-.987-.987c-.058-.539,1-.62.218-1.422h4.232l1.5-1.419v-1.688l-1.015-1.015c-.291-1.238.346-2.672-.839-3.866l1.746-1.4c.454-1.4-.759-2.108-.491-3.137-1.072-.955-.682-2.5-1.4-3.547a26.286,26.286,0,0,0-2.247-2.967,2.612,2.612,0,0,1-.66-2.666c-1.263-1.591-3.051-2.646-3.9-4.761.419-1.233-.655-2.49-.577-3.932a38.051,38.051,0,0,0-.058-4.123c-.263-1.121-2.013-2.051-.254-3.515h3.962c.14-.4.253-.718.389-1.106h1.717c1.146-1.412,2.947-2.137,4.018-3.883-.38-1.117-1.544-1.98-2.551-3.049v-1.605l2.716-2.29c.076-1.891-1.222-3.172-1.912-4.824a6.985,6.985,0,0,0-2.224,1.843c-.674,1.895-1.726,3.209-1.725,4.86h-4.32l-1.9-2.216v-2.5c-1.043-2.554-3.692-3.735-3.984-6.438,2.62-1.7,5.265-2.811,8.187-1.422a1.581,1.581,0,0,0,1.26-1.94c-.7-1.077-2.331-1.138-2.792-2.625-.434-1.4-2.293-1.126-3.1-2.2-.55-2.06-.408-4.363-2.141-6.006-.648-.615.227-1.672-.593-2.229-.7-.477-.549-1.25-.8-1.879a16.727,16.727,0,0,1-1.049-7.284c-.929-.793-.183-2.087-.876-2.944-.465-.575-.126-1.228-.232-1.865l-1.082-1.136v-2.725l2.568-3.008,1.662-.094c.015-.788,1-1.248.8-1.822l-1.686-1.678V551.63l-1.136-.817v-6.307c.984-.764,1.194-2.139,2.437-2.948-1.153-1.153-1.631-2.647-2.966-3.577-.187-2.423.435-5-1.085-7.238.574-1.189,2.163-1.278,2.749-2.349.573-1.05,1.657-1.436,2.429-2.385,1.955.1,4.023-.314,6.033.717.471-1.363,1.777-2.522.028-4-1.794.037-3.709-.174-5.139-1.864a8.1,8.1,0,0,1,1-5.234c.62-1.229,1.451-2.424,1.129-3.948-.117-.554.888-.744.593-1.438a16.727,16.727,0,0,1-1.751-6.465c-.131-2.221-.776-4.408-.438-6.683.971-.238,1.478-1.384,2.613-1.557.271-.869-.367-2.1,1.061-2.571,1.293.429,2.814.7,3.6,2.159h2.794c1.931-1.115.278-2.232.174-3.21-1.836-1.527-3.946-1.7-5.808-2.345-1.744.517-.714,2.966-2.515,3.367a23.886,23.886,0,0,0-3,.027c-1.058.136-1.835-.475-2.843-.78,0-.413-.158-.943.028-1.288a7.109,7.109,0,0,0,.506-3.921c-.108-2.168,1.314-3.583,2.554-4.979.385-.433,1.041-.66,1.353-1.357a9.136,9.136,0,0,0,1.057-3.141c.071-1.19.016-2.388.016-3.583-1.071-1.357-2.822-.685-4.329-1.685a11.672,11.672,0,0,1-1.213-4.617c.045-1.767-.972-3.455-.4-5.385.789-1.112,2.334-1.781,2.811-3.371a5.2,5.2,0,0,1,1.957-3.072c.331-1.232-.476-1.671-1.1-2.348.731-1.143.68-2.563,1.134-3.865s1.967-1.82,2.236-3.214V444.7l3.245-3.2c.476-2.287-.843-4.3-.52-6.5a15.083,15.083,0,0,1,.555-2.811,18.542,18.542,0,0,0,1.158-7.251A20.454,20.454,0,0,1,980,419.72c.206-1.033.824-2.248.369-3.045-.573-1-.332-1.911-.456-2.857a3.668,3.668,0,0,1,0-.512c.669-.666,1.318-1.312,1.931-1.92,1.606-.272,3.129-.615,4.135-2.034-.074-1.408.221-2.833-.51-4.2a3.223,3.223,0,0,1-.022-1.9c.2-1.06,1.011-1.924.12-3.212-.567-.819-.159-2.175-.645-3.295a8.492,8.492,0,0,0-2.71-3.8,2.946,2.946,0,0,1-.632-.838c-.078-.14-.013-.36-.013-.844,1.268-1.8,4.51-2.411,4.41-5.545.756-.864,1.8-1.5,2.032-3.006a14.824,14.824,0,0,0-1.556-3.062,2.547,2.547,0,0,1-.43-2.294A44.979,44.979,0,0,1,987.4,372.7a8.929,8.929,0,0,1,2.918-4v-1.96l-1.909-.108c-.825-.63-.89-1.659-1.266-2.142-.265-1.326,1.158-1.426,1.035-2.368-.129-.7-1.071-.154-1.252-.815-.042-.154-.361-.265-.359-.393.016-1.116-.822-1.914-1.071-2.861a15.211,15.211,0,0,1-.076-3.782c.4-.488.9-.181,1.4-.3.987,1.387,2.54,2.17,3.916,3.315h3.275l1.31-1.453V354.31c-1.114-1.144-1.6-2.951-3.4-3.47-.746-1.714-2.192-3.141-2.093-5.2.035-.733,0-1.47,0-2.293a11.717,11.717,0,0,1,2.892-2.555,3.49,3.49,0,0,0,1.52-2.878v-4.6l1.359-1.359c.558.4.956,1.187,1.786,1.195a5.39,5.39,0,0,0,1.448,3.109h2.922a19.679,19.679,0,0,1,5.111-3.341,4.339,4.339,0,0,0-.107-2.047h-2.281c-.682-.682-1.266-1.267-1.952-1.952C1002.878,327.107,1000.905,326.487,1000.368,325ZM980.034,583.534c-.819-.811-.675-1.888-.676-2.938,0-1.075,0-2.15,0-3.078a5.13,5.13,0,0,1,2.665-.838l2.184-2.058c.88-2.773-1.477-5.017-.979-7.663-2.086-.525-2.892-2.295-4.021-3.326H975.43c.357,1.183-.382,1.757-1.071,2.387,1.617.927.013,2.259.479,3.475.485,1.265.108,2.861.108,4.735.4.4.971.965,1.585,1.577a1.578,1.578,0,0,0,.026,2.363c-1.079,1.187-.227,2.594-.459,3.491l1.875,2.282C978.683,583.8,979.355,584.183,980.034,583.534Zm64.057-411c-.55.23-1.214-.182-1.977.378-.747.067-.206,1.27-.92,1.556v2.49c1.37.578,2.417,1.76,3.987,1.7l1.37-1.37v-2.3Zm-40.608,345.578c.215-.456,1.158-.688,1.251-1.586-.592-1.422-2.08-1.364-3.132-1.988-1.13.654-.659,1.749-.73,2.69-.011.146.129.3.241.55C1001.846,517.475,1002.188,518.611,1003.483,518.112Zm2.041-30.184a1.351,1.351,0,0,0,.485-2.1l-.956-1.749c-.826.1-1.376-.11-1.809.158a1.5,1.5,0,0,0-.633,1.9C1003.333,487.078,1004.616,487.094,1005.524,487.928Zm-14,143.1c.732.54.418,2.054,1.828,1.963a3.5,3.5,0,0,0,1.327-2.051l-.412-.412.526-.576c-.318-.319-.641-.645-.968-.967-.281-.277.086-1-.657-.957C991.191,628.246,992.7,630.373,991.52,631.026Zm39.5-290.216c.21-1.206,1.647-2.3-.1-3.28h-2.643c.638.87-.583,1.014-.4,1.726A5.168,5.168,0,0,0,1031.017,340.81Zm-12.889-42.366c-.6-.192.124-1.207-.5-1.885-.874.781-2.5.243-3.1,1.964.9.4.561,1.816,1.578,1.954ZM1005.851,554.1c-.15-1.266-.15-1.266-.732-2.025h-2.956c-.593,1.018,0,1.5.59,2.025Zm-18.18,72.79c1.235.176,1.944-.136,2.181-1.192-.909-.863-.909-.863-2.181-.777Zm35.564-373.751c1.2-.208.883-1.356,1.325-2.152-.577.094-1.07-.345-1.673.183C1023.136,251.735,1022.563,252.463,1023.235,253.138Zm-5.308,73.28a1.526,1.526,0,0,0,1.2,1.671c.56-.124.5-.493.478-.859Z" fill="#007dce"/><path d="M774.372,536.838c.969,1.193-.561,2.267-.154,3.467.422,1.245-1,2.312-.483,3.5l-2.553,2.511c-2.433.5-4.759,2.24-7.318.443a4.705,4.705,0,0,0-.671-2.094l.628-.938c-.98-1.267-.477-2.751-.608-3.983A18.372,18.372,0,0,1,767.4,534.9l.467.468a4.587,4.587,0,0,1,3.908-1.6c.361-.439.8-.978,1.235-1.5-1.112-1.265-.077-2.366.425-3.538,1.837-1.648,4.059-.853,6.073-1.086.857,1.667-.56,3.018-.3,4.511-.457,1.19-1.974,1.291-2.488,2.238C776.136,535.463,774.853,535.627,774.372,536.838Z" fill="#007dce"/><path d="M628.521,696.134c1.145,1.71-.841,3.341-.384,4.963-.549.45-1.127.133-1.625.279a7.85,7.85,0,0,0-1.245.628c-1.068-1.315-2.859-1.4-4.2-2.53a4.064,4.064,0,0,0-.672-2c.759-2.338,3.627-3.5,3.34-6.364a4.061,4.061,0,0,1,3.272-1.326c1.212.17,1.747,1.356,2.765,2.011C630.125,693.385,627.98,694.257,628.521,696.134Z" fill="#007dce"/><path d="M722.368,624.974a3.284,3.284,0,0,0-.645-2.71l2.007-1.862c.365.154.9.728,1.719.435l1.3,1.408c.767,1.5-.949,2.233-1.193,3.463C724.342,626.214,723.41,625.463,722.368,624.974Z" fill="#007dce"/><path d="M408.679,741.928c.171.95-.478,1.628-.792,2.41-.568.224-.816-.233-1.135-.511l-.446.4-2.589-2.458c-.169-.954.584-1.574.831-2.327C406.677,739.058,407.266,741.163,408.679,741.928Z" fill="#007dce"/><path d="M979.155,652.782h-2.936c-.131-.822-.916-1.371-.684-2.406l.586-.665c1.417-.7,2.492.529,3.7.462C980.211,651.3,979.4,651.945,979.155,652.782Z" fill="#007dce"/><path d="M801.359,435.007c1.015.647,2.1.941,2.554,2.091l-1.371,1.219h-1.611l-1.42-1.52A3.337,3.337,0,0,1,801.359,435.007Z" fill="#007dce"/><path d="M1039.721,164.852h-1.641a1.711,1.711,0,0,1-.8-1.956l.791-.721h1.72C1040.816,163.05,1040.9,163.871,1039.721,164.852Z" fill="#007dce"/><path d="M660.03,470.081l1.692-.859c.831.077,1,.99,1.636,1.245v1.87c-.461.346-.915.146-.711.132Z" fill="#007dce"/><path d="M636.641,705.683l.842.951c.108.7-.423.856-.712,1.271h-2.382c-.4-.377-.175-.9-.106-1.4C634.993,705.962,636.142,706.869,636.641,705.683Z" fill="#007dce"/><path d="M766.568,528.4v-2.656a1.723,1.723,0,0,1,2.22-.708C767.779,526,768.447,527.785,766.568,528.4Z" fill="#007dce"/><path d="M343.659,776.481c1.592-.913,1.593-.909,2.715.375-.057.613-.534.866-1.1,1.219A4.127,4.127,0,0,1,343.659,776.481Z" fill="#007dce"/><path d="M678.842,669.448l1.148,1.539c.129.556-.623.686-.806,1.207l-1.34-1.358Z" fill="#007dce"/><path d="M977.889,673.743h-1.621c-.438-.428-.062-.917-.26-1.288.48-.537,1.008-.3,1.521-.227C977.922,672.613,977.546,673.1,977.889,673.743Z" fill="#007dce"/><path d="M955.119,434.189c.379-.245.527-.774.928-.8.7-.055.786.574,1.4.763q-.6.585-.9.871C955.7,435.115,955.484,434.549,955.119,434.189Z" fill="#007dce"/><path d="M802.767,451.952a2.417,2.417,0,0,1,2.307-.736v.767A3.6,3.6,0,0,1,802.767,451.952Z" fill="#007dce"/><path d="M1766.579,496.824h13.041c13.524,0,23.184,0,23.184-15.938V345.161c0-14.974-17.871-17.872-25.116-21.736v-7.244c35.26-14.975,54.58-27.532,58.927-27.532,2.9,0,4.347,1.449,4.347,6.279V338.4h.966c12.075-18.837,32.361-49.75,61.825-49.75,12.075,0,27.532,8.211,27.532,25.6,0,13.041-9.178,24.633-22.7,24.633-14.973,0-14.973-11.592-31.879-11.592-8.211,0-35.259,11.11-35.259,40.09V480.886c0,15.938,9.66,15.938,23.184,15.938h27.049v12.559c-26.566-.484-46.852-.965-67.622-.965-19.8,0-40.089.481-57.477.965Z" fill="#4d4d4d"/><path d="M1954.466,496.824h13.041c13.525,0,23.184,0,23.184-15.938V345.161c0-14.974-17.871-17.872-25.115-21.736v-7.244c35.259-14.975,54.579-27.532,58.926-27.532,2.9,0,4.347,1.449,4.347,6.279V338.4h.966c12.076-18.837,32.362-49.75,61.825-49.75,12.076,0,27.532,8.211,27.532,25.6,0,13.041-9.178,24.633-22.7,24.633-14.973,0-14.973-11.592-31.879-11.592-8.21,0-35.259,11.11-35.259,40.09V480.886c0,15.938,9.66,15.938,23.184,15.938h27.049v12.559c-26.565-.484-46.852-.965-67.622-.965-19.8,0-40.089.481-57.477.965Z" fill="#4d4d4d"/><path d="M2146.216,496.824h9.177c13.525,0,23.185,0,23.185-15.938v-130.9c0-21.253-7.245-24.151-25.116-33.81v-7.729c22.7-6.762,49.75-15.94,51.681-17.389a16.992,16.992,0,0,1,8.694-2.414c2.415,0,3.381,2.9,3.381,6.762V480.886c0,15.938,10.627,15.938,24.151,15.938h8.211v12.559c-16.422,0-33.328-.965-50.715-.965s-34.777.481-52.649.965ZM2197.9,214.266c-12.558,0-23.667-11.592-23.667-24.151,0-12.075,11.592-23.185,23.667-23.185,12.558,0,23.667,10.143,23.667,23.185S2210.94,214.266,2197.9,214.266Z" fill="#4d4d4d"/><path d="M2758.189,490.546c-13.524,12.558-28.5,26.082-47.818,26.082-19.8,0-28.98-18.355-29.946-35.742-22.7,20.77-44.437,35.742-74.383,35.742-30.913,0-52.166-21.253-52.166-46.852,1.933-38.64,21.736-45.885,126.066-81.627v-31.88c0-27.048-15.94-41.539-46.852-41.539-21.252,0-35.742,12.076-36.709,33.812,0,13.524-15.456,20.286-27.048,20.286-7.245,0-8.694-6.28-8.694-9.661,0-25.6,21.735-37.675,55.546-55.062,16.905-8.694,25.116-15.456,43.47-15.456,21.736,0,58.928,14.006,58.928,40.572V463.014c0,19.8,6.762,27.532,17.387,27.532a23.93,23.93,0,0,0,17.871-8.211Zm-78.247-88.391c-24.634,9.661-87.425,20.769-87.425,57,0,18.837,15.456,34.777,34.293,34.777,22.7,0,37.192-14.008,53.132-28.015Z" fill="#4d4d4d"/><path d="M2767.781,290.1c22.218-7.245,46.368-20.769,46.368-47.336,0-19.319-12.075-20.286-24.15-20.286-12.558,0-24.633-2.9-24.633-25.115,0-17.872,13.524-25.118,29.463-25.118,29.947,0,44.92,26.083,44.92,53.131,0,41.055-30.429,65.689-67.138,76.316Z" fill="#4d4d4d"/><path d="M2843.964,442.245c6.279,31.879,25.6,58.927,60.858,58.927,28.5,0,39.124-17.388,39.124-34.293,0-57-105.3-38.642-105.3-116.405,0-27.049,21.736-61.825,74.867-61.825,15.456,0,36.225,4.347,55.063,14.006l3.381,49.268h-11.11c-4.829-30.431-21.735-47.818-52.648-47.818-19.32,0-37.674,11.109-37.674,31.878,0,56.512,112.058,39.124,112.058,114.956,0,31.878-25.6,65.689-83.077,65.689-19.321,0-42.022-6.762-58.927-16.423l-5.314-55.545Z" fill="#4d4d4d"/><path d="M1641.208,538.5c.608-9.319,1.037-14.691,4.487-18.141,2.728-2.728,7.926-3.813,10.074-3.967,36.125-2.6,61.83-26.537,82.8-54.346l-6.762-6.764c-17.871,17.872-38.641,32.363-65.206,32.363-38.641,0-68.1-37.674-71-83.561-.966-16.422-.966-23.667,0-28.014h135.725l4.348-2.9a52.591,52.591,0,0,0,.482-8.694c-.482-51.2-42.5-75.831-81.628-75.831-33.81,0-97.567,28.014-97.567,122.683,0,22.184,7.962,66.754,40.841,90.156L1462.979,765.517l-64.744-268.5c96.131-31.9,114.286-117.254,114.286-155.725,0-85.492-68.1-169.054-193.2-169.054-35.742,0-63.273.967-83.56.967-18.837,0-38.157,0-57-.967V184.8c21.735.483,44.437-2.416,44.437,41.055v234.26c-1.449,32.844-15.456,33.81-44.437,36.707v12.559c21.735-.484,42.988-.965,64.723-.965,22.7,0,45.4.965,70.036.965,7.918,0,13.663-.418,22.84.968s16.454,7.933,21.321,21.39L1297.79,771.312c-10.626,42.022-19.32,46.369-46.369,46.369h-5.313l-2.415,12.558c21.736-.483,43.954-.965,65.69-.965,14.006,0,28.014.965,42.021.965l2.415-12.558H1334.5c-15.939,0-19.32-7.728-19.32-18.838,0-4.346,1.449-9.176,2.415-14.007l52.648-224.115h.967l63.756,269.518h16.422l146.835-286.423h.966l-17.871,240.055c-2.415,29.947-13.042,33.81-41.056,33.81h-5.8l-2.415,12.558c23.184-.483,46.368-.965,69.553-.965,20.769,0,42.021.965,62.791.965l2.415-12.558h-7.729c-26.081,0-34.776-8.7-33.327-34.776Zm11.387-234.4c27.048,0,42.022,19.8,42.022,44.437,0,5.8-1.45,12.075-13.525,12.075h-84.043C1602.845,325.84,1623.132,304.105,1652.6,304.105Zm-382.06,148.283V189.632c8.694-.484,17.871-1.933,37.674-1.933,93.22,0,151.182,65.206,151.182,155.53,0,70.472-32.894,147.415-132.22,150.584-5.784-.141-17.386-.3-17.386-.3C1289.58,491.82,1270.535,483.879,1270.535,452.388Z" fill="#4d4d4d"/><path d="M1892.85,609.988c1.933-3.381,4.83-9.66,10.627-9.66h10.143c2.9,0,4.347.965,4.347,2.414,0,.967-.484,1.932-.966,3.865l-47.818,171.467a33.352,33.352,0,0,0-1.932,12.075c0,3.381,1.449,6.762,5.8,6.762,14.007,0,26.565-20.286,35.743-28.5l7.728,6.279c-18.838,19.8-46.852,62.792-77.281,62.792-7.246,0-16.422-3.865-16.422-13.524,0-8.213,3.863-21.737,8.21-35.261l13.524-42.5-.482-1.449c-24.633,37.191-69.553,92.738-108.194,92.738-29.464,0-36.708-22.7-36.708-40.09,0-76.8,94.186-187.889,156.493-187.889,12.076,0,23.185,6.762,30.43,15.938ZM1759.54,801.743c46.852,0,106.745-101.916,106.745-144.9,0-12.076-11.592-24.634-24.151-24.634-52.164,0-107.227,88.391-107.227,136.208C1734.907,784.836,1740.7,801.743,1759.54,801.743Z" fill="#4d4d4d"/><path d="M1947.914,674.228c12.075-17.872,49.267-64.722,72.934-64.722,12.075,0,19.8,5.311,19.8,18.353,0,5.314-1.932,14.49-4.83,25.116l-18.355,66.173h.966c13.042-24.634,58.444-109.642,88.874-109.642,10.143,0,14.973,5.8,14.973,16.421,0,11.11-5.313,35.742-20.286,35.742-5.8,0-12.075-1.932-17.871-1.932-33.328,0-67.622,93.705-83.561,142.971l-8.694,30.912c-.966,3.381-8.694,3.865-17.389,3.865-6.278,0-15.456-4.348-15.456-8.694a14.144,14.144,0,0,1,.966-4.348l38.158-133.31c2.415-7.729,5.8-21.253,5.8-28.5,0-5.313-2.9-12.558-9.177-12.558-13.041,0-32.844,22.7-40.573,32.361Z" fill="#4d4d4d"/><path d="M2283.119,823.477c22.218,12.076,37.675,20.286,37.675,48.3,0,48.783-68.587,68.587-107.711,68.587-34.294,0-99.5-8.694-99.5-55.546,0-35.259,48.784-55.063,75.833-65.69-9.177-5.8-27.049-13.04-27.049-26.564,0-18.354,26.082-32.845,39.124-41.539-26.083-14.489-41.056-29.464-41.056-60.376,0-45.4,48.784-81.144,94.187-81.144,28.5,0,39.123,8.692,63.757,14.972,3.381.966,7.244,2.415,10.143,2.415,5.8,0,11.109-2.9,15.939-5.8s9.66-5.8,14.973-5.8c6.28,0,7.728,7.245,7.728,14.007,0,8.694-3.864,17.872-11.592,17.872-10.143,0-19.8-10.626-38.157-12.559,10.625,11.592,15.456,25.6,15.456,40.572,0,50.717-50.233,83.078-97.568,83.078a171.782,171.782,0,0,1-22.218-1.448c-4.348,1.448-14.973,12.075-14.973,16.9,0,6.278,4.347,8.21,9.177,10.626Zm-79.213,1.933c-9.661,3.381-58.444,24.632-58.444,51.682,0,36.225,43.954,47.817,73.416,47.817,23.186,0,70.037-7.729,70.037-39.123,0-13.042-11.109-22.7-23.668-28.98Zm56.029-203.347c-39.124-1.932-60.859,48.784-60.859,80.662,0,23.185,8.693,42.988,35.259,42.988,38.641,0,59.893-49.75,59.893-82.595C2294.228,642.832,2285.051,622.063,2259.935,622.063Z" fill="#4d4d4d"/><path d="M2512.337,487.648c-18.837,0-23.667,0-23.667-19.8V147.127c0-3.864-.966-6.762-3.864-6.762-1.449,0-5.313,2.414-10.627,5.314-10.143,5.795-30.429,14.489-49.749,20.769v7.727c18.354,5.314,25.6,6.281,25.6,37.675v85.492a120.557,120.557,0,0,0-45.4-8.693c-66.654,0-119.3,57.961-119.3,123.167,0,54.1,31.879,104.812,89.84,104.812,29.463,0,56.512-17.388,73.9-35.26h.966v22.218c0,3.45.418,14.033.418,16.08,0,11.108,10.626,21.735,22.218,21.735s22.218-10.627,22.218-21.735c0-7.93,1.253-16.555,9-18.883a156.6,156.6,0,0,1,16.182-3.475h.483v-9.66Zm-62.307-28.5c0,17.872-32.362,28.5-46.852,28.5-43.954,0-76.316-39.607-76.316-92.737,0-65.206,37.675-90.806,71.968-90.806,21.253,0,51.2,8.693,51.2,44.437Z" fill="#4d4d4d"/><path d="M2471.976,648.629c2.415-7.246,6.762-19.8,6.762-27.05s-3.381-12.073-14.973-12.073c-27.531,0-62.308,41.537-76.316,62.79l6.763,6.762c5.8-7.727,24.15-30.913,34.294-30.913,3.863,0,5.8,2.416,5.8,5.8,0,4.346-1.932,11.108-4.347,17.87L2388.415,794.5c-2.9,9.66-5.313,17.87-5.313,23.667,0,11.11,4.347,19.321,18.355,19.321,27.531,0,61.825-43.471,76.8-63.757l-7.728-6.279c-4.83,5.312-29.946,31.394-36.709,31.394-4.83,0-6.279-2.414-6.279-7.243,0-4.348,1.932-11.11,4.83-20.288Z" fill="#4d4d4d"/><path d="M2512.549,670.364c18.354-22.7,52.164-60.858,84.043-60.858,11.593,0,16.422,7.244,16.422,16.421,0,8.211-3.381,17.389-5.313,23.184l-25.116,72.935h.966c23.184-33.329,94.669-113.024,142-112.54,14.974,0,19.321,9.176,19.321,19.8,0,7.729-2.416,16.9-4.831,23.667l-38.64,106.262c-4.347,11.593-7.245,19.32-7.245,25.117s1.931,10.143,8.693,10.143c13.042,0,34.3-22.7,41.539-33.81l8.212,6.279-17.388,21.251c-16.906,20.769-40.573,42.022-67.139,42.022-12.558,0-18.354-7.245-18.354-15.939,0-7.728,1.449-15.938,6.762-29.946l37.675-102.88c1.449-4.348,6.279-17.389,6.279-24.151,0-6.28-5.8-9.178-11.11-9.178-27.048,0-54.579,32.362-70.519,50.234a284.31,284.31,0,0,0-60.375,98.532l-9.66,27.532c-1.449,3.864-12.076,5.313-17.872,5.313-4.83,0-13.041-2.9-15.456-6.279l47.335-142.487c2.9-9.178,5.8-18.354,5.8-24.15,0-4.83-1.932-8.7-7.728-8.7-10.143,0-19.321,7.729-28.015,16.422l-13.041,14.491Z" fill="#4d4d4d"/><path d="M2790.763,769.863c4.83,27.532,36.226,38.642,61.341,38.642,13.525,0,42.988-3.381,42.988-21.737,0-33.326-70.519-54.1-84.526-85.492-3.381-6.762-4.347-14.973-4.347-22.218,0-25.116,33.81-46.852,52.648-58.927,13.041-8.211,20.286-10.625,35.742-10.625,19.8,0,42.022,5.311,42.022,28.98,0,5.795-4.347,21.735-10.143,21.735h-5.8c-3.864,0-4.83-3.381-6.763-7.246-4.346-9.176-23.667-17.388-39.606-17.388-16.422,0-36.225,8.694-36.225,27.531,0,39.607,85.492,50.233,85.492,100.467,0,18.837-18.838,39.606-31.395,51.682-15.94,15.938-35.26,22.218-57.478,22.218-23.185,0-61.343-6.762-61.343-37.675,0-11.11,5.8-20.286,11.109-29.947Z" fill="#4d4d4d"/><g opacity="0"><rect x="-0.25" y="880" width="200" height="200" fill="#3ca1ff"/><rect x="-0.25" width="200" height="200" fill="#3ca1ff"/><rect x="2982.75" y="880" width="200" height="200" fill="#3ca1ff"/><rect x="2982.75" width="200" height="200" fill="#3ca1ff"/></g></g></svg>