<svg xmlns="http://www.w3.org/2000/svg" viewBox="0 0 1080 1080">
  <defs>
    <style>
      .cls-1 {
        fill: #ff470f;
      }
    </style>
  </defs>
  <title>derrida_red_arrow</title>
  <g id="_1" data-name="1">
    <g>
      <path class="cls-1" d="M423.12,660.79l-1.66-1.66c.3-.28.59-.76.91-.78,1.27-.09,2.56,0,3.83,0,.19,1,1,1.52,1.58,2.18a1.54,1.54,0,0,1,2.36,0l2.06-2.06a1.46,1.46,0,0,1,.77-2.32,1.72,1.72,0,0,1,1.51.51c.76-.54.89-1.58,1.91-2,.81-.32.77-1.47,1.28-2.38a4.29,4.29,0,0,0,.94,0,1.22,1.22,0,0,0,.64-.42,8.83,8.83,0,0,0,.64-1.11c1.47,1.73,3.41.32,4.7,1.55.46.08.58-.36,1-.65.84,1,2,.57,3.12.66l.74-.74v-2.21l2.57-2.54a2,2,0,0,0,2.1-1.1h4c1.16,2,3.46,1.38,5.82,2,.07,0,.26-.57.68-.86a2,2,0,0,1,1.34.07l.19.89c.58-.25,1.14-.72,1.88-.45l.86.91c1.88.73,3.47-.87,5.16-.36a4.8,4.8,0,0,0,.83-3.52c1.6-1,2.12-3.15,5.17-3.61a12.09,12.09,0,0,0,6.23-1.64c.49.38.81,1,1.7,1.08a7.9,7.9,0,0,1,3.37,1.1c1.32.87,2.28.31,3.36-.34v-2.76l1.55-1.36c.43,0,1.29.27,1.66,0,2.1-1.78,4.34-.43,6.54-.46.89,2-1.31,3.56-.88,5.52.28,1.05,1.78,1.29,1.66,2.64h2.74c-.16-1.81.46-3.67-.85-5.45.87-.85,1.72-1.52,1.71-2.46,2.68-.88,4.76.43,7,.83a.62.62,0,0,1,.42.28c.61,1.56,2.12,1.88,3.44,2.25,1.1.31,1.23,1.46,2,1.81s1.31,1.21,2.11,1.72a1.69,1.69,0,0,0,1.88-.89,4.48,4.48,0,0,1,1.43-4.13c1.57.7,3.55.24,5.07,1.38.71.53,1.39.24,2.08.31,1.58.17,3.19-.28,4.75.53a11.17,11.17,0,0,1,2.48,1.85c.49.46,1,.36,1.51.39a5,5,0,0,0,1.7-2.85c.38-1.28.73-2.34,2.33-2.52.88-.25,2,.18,2.91-.81,1.37,1.77,2.82-.66,4.2.3l1.75,2.77c-.15.53-.9.92-.24,1.69L553.75,643c.28,2.82,2.05,4.45,3.85,6.13v3a5.52,5.52,0,0,0,4.33,3.78l1.2-1.12.79,1.36.66-.66c1.08,1.83,3.14,1.57,4.79,2.15a5.92,5.92,0,0,1,1.78,1.16h2.07l1.51-1.3c.14-1.31-1-2.16-.46-3.23a4.7,4.7,0,0,0-3.64-2.07c-1.9-1.49-2-3.61-1.94-5.84a6.72,6.72,0,0,1-2.8-4.56c.2-.81,1-1.09,1.39-1.69h2.84c1.23,1.27,1.44,3.41,3.36,4.25l.37-.3c.83.74,1.88.32,2.78.47.74-.52,1.32-1.33.84-1.89-.82-.94-.29-1.91-.52-2.79.77-1,2.16-1.08,2.8-2.53.2-1.65-.67-3.42-1.17-5.24-.06-.2-.59-.27-.93-.41a4.12,4.12,0,0,1-.07-1.84c.61-.53,1.43.08,2.08-.41l.15-1.37h3.42l1.13-1.13h1.78c.41.39.11.88.25,1.46,3.31,1,6,3.3,9.32,4.54,1.51-.32.87-2,1.68-2.72-.16-.83-.8-1.08-1.5-1.26-.22-1-1.26-1.81-.56-3,.69-.84,2-1,2.55-2.17l-.36-.36c-.16-.46.65-.58.26-1.39l-1-.46c0-2.18.06-3.93,0-5.66s1.24-3.06.44-4.58a5.25,5.25,0,0,1,3.34-1.75l1.76-1.9a17.89,17.89,0,0,0-.44-4.05c-.31-.94.54-2.26.87-3.41a1.36,1.36,0,0,0-.48-1.77c1.15-.76,1.61-2.05,2.48-3h1.1c1.37-1.75.7-3.79.91-5.91a21.3,21.3,0,0,0,5.44-6c.24-.4,0-1.07,0-1.86l-1.05-.73a1.71,1.71,0,0,1,.85-2,1.15,1.15,0,0,1,.73.23c.74.51.48,1.81,1.61,2a13.78,13.78,0,0,0,4.47-10.63c1.79-2.05,2.49-4.89,4.6-6.36.57-.59.23-1.08.39-1.51l1.08-1.08c-.19-.93.16-1.94-.26-3-.76-2-.28-3.18,1.51-4.38.9-.61,1.24-1.7,2.06-2.33s-.29-1.42.54-1.82c-1-.78-.37-1.86-.58-2.81,1.51-1,1.92-2.84,3.31-3.76v-1.73l-1-1v-2.32a19,19,0,0,1,2.08-1.83c.78-.53,1.66-.87,2.44-1.45a3.27,3.27,0,0,1,2.42-.81,22.56,22.56,0,0,0,3.16,0,1.68,1.68,0,0,0,.85-2l-2.23-2.23a17.07,17.07,0,0,1,3.53-9.65c.92.29,1.94-.4,2.78.52.79-.89,1.52-.25,2.14.2l.72-.65c.49.79,1.29.48,2.2.56l1.45-1.89c.11-.65-1-1.52-.58-2.69-.6-.63-1-1.45-2-1.56-.33-1.26-1.24-2.55-.71-3.78a8.77,8.77,0,0,0,.46-3.57,3.41,3.41,0,0,1-1.07-2.39c.17-1.59-.45-3.25.3-4.62l-2.18-2.18c-2.67.92-4.32,3.77-7.27,4.83-.49-.26-1.3-.34-1.73-1.08-.27-.44.55-.37.37-.7.26-.83-1.09-.92-.49-1.65-2-1.28-4-.64-5.8-.82l-.73.73a9.18,9.18,0,0,0,1.1,6.14c-.48.93-.63,1.83-1.38,2.4-.44.06-.58-.66-1.12-.43s-.36.51-.4.91c-.75.38-1.59,0-2.5.26-.53-1.61-2.28-2.06-3.08-3.62-.71-1.4-2.24-2.39-3.42-3.57-1.48-.14-3-.27-4.39,1a12.46,12.46,0,0,1,2.94,2.5,2.47,2.47,0,0,1-.5,1.74c-.28.48.2,1.33-.67,1.74h-3.62l-2.6-2.61c-.44-.17-.94.16-1.4-.27l-.06-1.13,1.6-1.6c.34-1.51-.78-1.83-1.27-2.53a5.62,5.62,0,0,0-4,1.06,10,10,0,0,1-4,1.68,6.37,6.37,0,0,0-3.94,2.43,4.14,4.14,0,0,1-.36.4L596,507.77c-1.91,0-2.1-2.12-3.49-2.74a2.64,2.64,0,0,0-.82,0,1.19,1.19,0,0,0-.61.5c-.62,1.13-1.88,1.84-2.13,3.21-3,.53-5.87-.19-9-.54l-1.86-2.29-.08-.71c-.53-.34-1.09-.12-1.62-.19-1.29.3-1.36,1.85-2.54,2.39A3.88,3.88,0,0,0,572,510.2c-1.82.78-1.69,2.39-1.65,4-.95.63-1.41,2-2.85,2-1.24-1.48-2.1-3.22-3.51-4.47-2.13.05-3.12-1.61-4.41-2.75-.57,0-1.33-.23-1.63,0a2.84,2.84,0,0,1-3.08.4c-2-.89-3.92-.14-5.77-.49-.87,1.48.62,2.62.29,3.93l-2.65,2.33c-2.4,1-5-.69-7.67-.07a28.35,28.35,0,0,0,2.19,5.48c-1.51,1.81-3,3.15-5.33,2.59-2.25-.38-2.05-2.89-3.57-4,0-1-.33-2.11.51-3-.52-1-.82-2.17-2.2-2.79-1.27.4-2.61-.72-4.16-.6s-2.94,0-4.4,0l-1.38,1.38v4.49a6,6,0,0,1,3.26,1.51v1.51c-2.43-.32-4.85.49-7.23-.6-1,0-.68,1.42-1.68,1.71-.7.21-1.23,1-1.83,1.57-1.4.05-2.6.83-3.92,1.18-1.67-.82-3-2.43-5.12-2.23-.13,1.07,1.21,1.81.19,2.84-.66.67.13,1.77-.39,2.56-.81.3-.94-.18-1-.85l-8.51-1.73a1.61,1.61,0,0,0-.85,1.3,4.28,4.28,0,0,1-2.88,3.42,29.67,29.67,0,0,1-3.13.88c-.29,2-2.58,1.87-3.7,3.12-.64.23-.81-.74-1.5-.52-.44.45-.44,1.29-1.18,1.62h-.9c-2.26,2.15-2.81,5.17-4.24,7.51-2.11.82-3.84-.62-5.86-.3-1.36-1.82-3.39-2.83-5.89-3.89a6.62,6.62,0,0,0-4.27,1.24,4.92,4.92,0,0,1-3.17,1,2.27,2.27,0,0,0-1.7.56,10.38,10.38,0,0,1-3.95-2.1c-.38-.78-.79-2.13-1.44-3.26a24.27,24.27,0,0,1-1.44-3.56c-.3-.79-1.14-1.37-1.75-2.06-1.56.24-2.86-1.16-4.4-.46l-2-2.28c-.55-2.2.57-4.53.53-6.94l-1-1a2.18,2.18,0,0,1-.13-.52,15.69,15.69,0,0,1,.46-3.93c.34-1.32,1-2.68.65-4.16-.22-.95.53-1.56.91-2.3a1.14,1.14,0,0,1,1.23.87c0,2.36,1.58,3.67,3,5.11a7.55,7.55,0,0,0,1,.74,1.73,1.73,0,0,0,.77,2.09,1.68,1.68,0,0,0,1.89-.81l-.5-.55c-.21-.58.45-.8.49-1.18a24.71,24.71,0,0,0,0-2.69c-2-2.23-1-6.28,0-9.37l-1.09-1.15c.05-.82-.24-1.7,1-2.46,2.16-.14,4.57,1.1,7.18.42.32-.65,0-1.48.15-2.3L455.66,497v-1.23h4.68c.1-1.23,1.34-1.22,1.89-2v-4.31c1-1.54,3-1.52,4.1-2.64s3.17-1,3.85-2.85l2,2.42a5.9,5.9,0,0,1-.79,3.89c1.43.83,1.37,2.36,2,3.6.57.31,1.21.1,1.79.13,1-1.23.91-2.65.81-4.19l1.36-1.27a4,4,0,0,1,2.83-1.16c3.68,0,7.35,0,11,0,.28,0,.68-.12.81,0,1.08,1.14,2.1.12,3.15,0l.51-.09c.24-1.51,2.06-1.71,2.4-3.13h5.7c1.82,1.83,2,4.57,3.86,6.47h2.55l3.08-3.08c-.62-.44-.2-1.32-.35-2.13-1-.95-2.06-1.88-2.28-3.37-.24-.36-.78,0-.82-.1a1.07,1.07,0,0,1,.38-1.45q0-1.66,0-3.31a5.81,5.81,0,0,1,2.19-1.39l1.36,1.65h2.83c.17.41.24.94.44,1,1.13.34,1.16,1.63,2,2.19,0,1.63,1.31,2.09,2.34,2.93a40,40,0,0,0,4.21,2.45,3.52,3.52,0,0,1,.44-.93c2.07-2.38,2.1-2.55,4.69-3.17a3.36,3.36,0,0,0,2.54-2.14,3.13,3.13,0,0,1,2.1-2.43c.39-.14.66-.62,1-.94,1.65-.48,3.09.68,4.72.52s3.12,0,4.8,0c.13,1.05,1.54.76,1.91,1.86.26.76,1.26,1.15,2,1.67.87.66,2.1-.26,2.66.83,1.23-.93,2.66-.21,3.94-.52a11.52,11.52,0,0,0,3.6-1.41,7.34,7.34,0,0,0,1.12-2.24,2.42,2.42,0,0,0,1.52-1.08,6.89,6.89,0,0,1,1.2-4c2.91-.51,5,2,7.84,2.16,1.29-.73.76-2.79,2.92-3.43a1.07,1.07,0,0,0,1.23-.14c.56-.62,1.24-.06,2-.53l.76,1.23c.75.09,1.19.21,1.61,0a1.59,1.59,0,0,0-.26-1.73c-.37-.48-.18-1.2-.07-1.81l1.32-1.32c1,.19,2.17-.4,3.28.47.35,0,.51-.68,1-.46,1.19-1,.84-2.4.92-3.59.28-.28.47-.64.67-.64,3.19,0,6.38,0,9.72,0,.87.58.77,1.52.48,2.51l-.88.23v2.28L593.5,470c0,.55,0,1.1,0,1.64.41.78,1.35.82,2,1.4.49-1.22,2.21-1.27,2.6-2.7H600l1.35,2.11c3.75.5,7.41,1.78,11.21,1.7a2,2,0,0,0,.2-1.43,4.48,4.48,0,0,0-1.31-.84c-2.22-.85-4.2-2.24-6.44-3.09-.38-.14-.87-.07-1.17-.54a5.65,5.65,0,0,0-1-1c0-.81.53-1,.76-1.33.85-.34,1.33,1,2.15.52.49-.2.32-.64.52-1H611c1.82,1.4,4.14,2.36,5.88,4.26h1.82l.5-1h2.09l3.82-4c1.25,1.35,3.15-.18,4.18,1.33,1.19-.78,1.72-2.11,3.07-2.36h8.25c1.3-1.23,2.87-1.24,4.49-1,1.28,1.78.59,3.82.78,5.64,1.11,1.87,3.25,1.07,4.75,1.9l1.31-1.24c-.07-1.26.31-2.56-.61-3.63,1.67-1.07,1.67-1.07,4.28-1.07,2.86.79,3.41,3.3,5.16,4.68l-.56.56,2.43,2.41h2.13c1.34-.49,2.32-1.31,3.53-1.84a3.14,3.14,0,0,1,3.39.51c1.31.9,2.76,1.69,3.57,3.06h5c2.72,2.25,5.62,4.24,8,6.89,0,2.19,1.58,3.6,3.19,4.6a3.66,3.66,0,0,1,1.85,3.16c1.46,1.41,3,2.76,3.65,5.09l-1.3.41.44.46c-.32.9.21,1.88-.52,2.84-.6.79-.06,2.08.52,2.69a17.54,17.54,0,0,1,2.68,4.08v1.86c-1.17,1.75-2.18,3.64-4.61,3.18l-1.56,1.5a13.29,13.29,0,0,0,2.87,3.72v4.48l-.88.8c-1.91-.51-3.86-1.39-6-1.06-1,1.88-2.67,3.37-3.64,5.59,1.61,1.09,1.06,3.55,2.8,4.53.25,1.28-1.05,2.11-.32,3.41.71.1,1.09.85,1.31,1.76l-.4.43c1.12,3.17.53,6.3-.1,9.44l-1,1v3.37c.92.43,1,1.55,1.67,2.29l-.71,1.65c-2.35,1.21-4.75.86-7.07.09-2,1-.84,2.44-.5,3.68l-1.1.45c0,.93-.28,1.93.4,2.91l-.39.45a3.92,3.92,0,0,1,1,3.43l-.82.32c-.27,1.49-.33,2.36.34,3l-2.23,1.94c-1,.9-1.1-.8-2.08-.92-.31-.91.36-2-.57-2.82.07-.31.59-.39.41-1.21-1.58-1.23-2.79-3.23-4.32-5-.24-1.53,1.5-2.11,1.68-3.63,0-.39-.58-.49-.73-.92h-4.58l-1.78,2.05c.25.74-.83,1.36-.65,2.27.5,1.41,2.62,2.42,1,4.4H664c-1.88,1.28-2.06,3.43-3.26,4.83-1.44.79-2.59-.67-4.17-.29l-1.34,1.58a32.25,32.25,0,0,0,2.15,4.75c1.11,1.86,2.91,1.87,4.51,2.67a3.09,3.09,0,0,1,0,1,3.6,3.6,0,0,1-.7.88H658.8c-.35-.2-.2-.51-.25-.82-.73-.45-1.57-.12-2.5-.26-.57,1.45-2.56.88-3.35,2.27-.26.46-.1.88-.24,1.39a10,10,0,0,0-3.17,5.12c.11.31,1.18-.15,1.08.91,0,.5.83.83,1.51,1v2.37c-.36.61-1,.71-1.54,1-.11.65-.18,1.27.42,1.66a8.36,8.36,0,0,1-2.37,3c1.31,1.1,1.27,2.93,2.81,3.78.64.34,1.25.06,1.79-.64V594l1.78-1.28h1.78c1.5.75,2.36,2.33,3.65,3.51a5.7,5.7,0,0,1-1.64,4.51c.1,2-2,2.44-2.78,3.93-.29,1.67-1,2.37-4.31,4.14v1.43c-1.24,1.88-2.3,3.74-4.43,4.5-.25,1.75.6,3.13.88,4.91a3.3,3.3,0,0,1-2.33,2.13c-2.59.68-4.06-1.16-5.58-2.74-1.05.34-1.44,1.26-2.2,1.75-.42-.1-.92.21-1.36-.33a13.4,13.4,0,0,0,1.69-6.6c-2.2-.9-4.22.56-6.21.34l-2,1.82,1.73,3.36c-.85,1.17-.78,2.5-.64,3.95l2.54,2.41a1.66,1.66,0,0,1,1.58.51l.69-.69v-2.72c.49-.68,1.44-.14,1.5-1.19,1.55.86,1.74,2.18,2.07,3.51h2.83l.77.77v4.59l-.64.64c-2,.67-3.71-.85-5.67-.4-.51-1.28-1.88-1-2.94-1.71-1.22,2.17-.22,4.51-.69,6.79l-2.87,2.65c1.19,2.77.62,5.4.79,7.93-1.77,1.31-3,1.07-4.12-.84-1.67.14-3.47-.38-5.21.77v6.75c-1.17,2.54-4,2.81-4.76,5.21a8.77,8.77,0,0,1-3.8-1.5c-1.06-.7-1.27-2.33-2.9-2.44-.71,2.73.54,5.15,1.11,7.74l3.08,2c.44,1-.43,1.53-1.11,2.23.53,1.68-.66,3.23-.53,4.94a7.12,7.12,0,0,0-2.26,3.75c-.46,2.22-2.23,3.75-4.38,4.78a3.9,3.9,0,0,0-2.14,3.11,13.56,13.56,0,0,0,0,1.88c-1.78-.49-3.24.69-5,.54s-3.49,0-5.21,0a5.12,5.12,0,0,1-2.31,1.19c-.41.37,0,.87-.34,1.46l-1.36,1.35-1.36,9.07c-.88,1.08-2.34,1.95-3,3.52-1.81.92-2.87,2.77-4.49,3.83a10.56,10.56,0,0,0-3,3.15,5.76,5.76,0,0,1-.68.69,6.32,6.32,0,0,0-4.64,1.27c-.16,1.36.29,2.86-.83,4.15-1.05-.14-1.87,1-3,.69-.1.47.06.77-.41,1.06H566.6a9.23,9.23,0,0,1-2.27,3c-.12.72.3.87.5,1.15v4.39a4.43,4.43,0,0,1-2.65,1.63c-1.59.27-2.86,1.47-4.4,2.22-.23.77-.5,1.7-.77,2.57a15,15,0,0,1-2.31,3.72c-.76,1.1-1.92,1.8-2.65,3a2.26,2.26,0,0,1-3.23.58c-.35-.26-.68-.16-1.26-.26-1.46,2.08-3.94,2.35-6.27,2.92-.62.81.8,1.18.49,2l-1.83,2.7a7.24,7.24,0,0,1-7.18-2.11c-.43-1,1.16-2.1.47-3.63-1.28,0-1.58-1.86-3.09-2v-2.35l-1.7-1.26c0-.76,0-1.13,0-1.5l-2.15-2.14c.26-1-.93-1.74-.6-2.82l-2.17-2.07v-1.83c-1.55-.43-.57-3-2.74-3.1l-.1-1.91c-1.94-.88-4.26-1.17-5.47-3.46.13-.6.79-1.21.6-2,1.09-.21,1.61-1.12,2.45-1.86,1.56.12,3.27-.34,4.85.56a2.47,2.47,0,0,0,1-1.3c-1.11-.47-2-1.6-3.34-.31-1.26-2.36-2.72-4.58-.83-7.37a14.28,14.28,0,0,1,4.52-1.66v-3.47l2.08-1.31c.74.08,1.94.85,3.57.4-.37,1.62.81,2.53,1.12,3.88h2.41c.6-1.68,2.65-1.47,3.78-2.59,1.2-2.51,1.24-5.34,2-8.22l-1.77-1.42c-.57-.85,1.06-1.37.25-2.22-.59-.63.65-1.11.47-1.92a11.76,11.76,0,0,1,0-2.47c.84-1.34,2.46-1.72,3.46-2.92s1.47-2.68,3.35-2.39c.23-.92,1.35-1,1.72-1.68,1.09-2,2.3-4,3.58-6,.16-.24,0-.69,0-.84.36-.53.89-.13,1.09-.76v-.9a3.66,3.66,0,0,1,.41-.33c1.76-1.06,3.29-3.74,2.88-5.42a8,8,0,0,0-1.3-2.76,14.83,14.83,0,0,1-2.06-4.12,11.33,11.33,0,0,0-2.63-4v-2a7.11,7.11,0,0,1-1.8-3.09c-.65-.32-.93.07-1.24.4a1.6,1.6,0,0,0-1.64-.48l-1.14,1.61-.29-.28v2.86c1.36,0,1.69,1.71,3.07,1.9a1.46,1.46,0,0,1,.23.39c1.19,4.44.25,4.47-2.12,6.93-.43.44-1,.75-1.18,1.44-.66,2.68-3.27,3.12-5.13,4.4-.12.09-.36,0-.54,0-.5-.37-1.05-.7-1-1.45-2.17-1.32-4.56-.53-6.78-.78a47.93,47.93,0,0,1-10.6,5c-.44,1.08-1,2-.73,3l-1.4,1.4c-1.68-.47-3.23,1-4.91.5l-1.14,1.14c-.43,0-.88,0-1.34,0a3.78,3.78,0,0,0-3.87,2.21,1.72,1.72,0,0,1-2,1.1l-4.94,5h-1.15l-1,1c-1.72-1.61-4.34-1.53-6.14-3.19h-2.24c-.92.8-1.27,1.6,0,2.62h-6c-.53.79-1.66.56-1.93,1.52-.24,1.12,1,2.07.45,3.29-.7,1.54-3.06-.14-3.35,2l-.73-.73a5.63,5.63,0,0,1-4.43,2.25L468,694.73c-1.88-.22-3.86,0-5.95-.45a8.33,8.33,0,0,0-5.82.4c-.36.19-.9,0-1.45,0a62.29,62.29,0,0,0-4.89,6h-2.78l-.78.78v3.3c-.64.68-1.33,1.15-1.46,2-1.37,0-2.87-.33-4.1.09a9.29,9.29,0,0,1-3.66.43c-1.3-.07-2.69.49-3.86-.44a4,4,0,0,0-.77.77c-.12.21,0,.54,0,1.08,1.19.71,1.59,2.29,2.75,3.3v3.31c-.3.49-.81.21-1.53.34l-2.28,2.63c-.92.16-1.58-.23-1.92,1l-.74-1.4c-2.35.21-3.92-1.59-6.11-1.54-1,.71-2.33.33-3.72.42l-1.37,1.64h-1.9c-.58.41-.86,1.1-1.77,1.15a3.25,3.25,0,0,0-2.06,1,6,6,0,0,1-3.08,1.24c-2.43.63-4.92.89-7.34,1.54a4.59,4.59,0,0,0-2.48,1.34c-.44.52-1,.28-1.5.38L395,727.52c.62,2.76-1.14,4.43-3.37,5.48a7.38,7.38,0,0,1-4.61.81c-.6,1.13-2.07,1.13-2.62,2.18a6.07,6.07,0,0,1-4.58-1c-1.22-.92-1.4-.74-3.47.07.25,1.5-1,2.38-2.26,3.89,1.53-.37,2.43.19,3.4-.5s1.63,0,2.12.75c-.08,1.89-1.39,2.89-2.53,4-3,.08-5.83-.87-8.76-1.64-.34,1-1.27,1.26-2.2,1.67s-1,2-2,2.4a10.7,10.7,0,0,0-2.52,2h-4.93a1.26,1.26,0,0,0,.28,1.9c-.92.61-.35,1.66-.57,2.41-1.4.9-3,.77-4.29,1.39-.66,2.14,1.4,1.77,2.42,2.46l3.81-2.33.49,1.38c.65,1.37-1.52,2-.92,3.72h-6.8a4.92,4.92,0,0,0-2.21-1.09c-.25-.54-.35-1.19-1-1.55H343.5c-.33.34-.94.52-.86,1.35l3.88,1.95H349l.75.75v3.54h-4.18L344.12,762h-2.67c-.78-.67-1.93-.7-2.33-1.81a36,36,0,0,1-7,6,7.09,7.09,0,0,0-2.49,2.53c-.52,1-1.81,1.25-1.71,2.28-.86.53-1.51.27-2.11.35-.4.21-.19.66-.45,1h-3.5c-1.14-1.24-2.69-1.06-4.26-1-1.25.63-1.51,2-1.88,3.23h-3.66l-2.46,2.46c.71.71.41,1.58.48,2.36l-1.1.39v1c-1.08,1.45-2.91.53-4.24,1.51-.53-1.42-2.7-.92-3.13-2.65-1.25-.29-2.69.34-3.64-.6-1-.16-1.42.62-2.18.67v1.84l1,1v2.81c-2.05,1.44-4.46.53-6.76.86-1.16-1.24-3.15-.9-4.06-2.32-1.66.45-1.66.45-1.83,1.89.81,1.43,2.59,1.84,3.24,3.38a1.51,1.51,0,0,0-.43,1.67c.14.39.58.2.9.4.06,1.19,1,2.22.56,3.73a13.85,13.85,0,0,1-3.77-.43c-1.17-.39-1.36-2.07-3-1.73-1.41,1.1-2.49,2.82-4.5,3.42-.78.23-1.32,1.23-2,1.94-.67.18-1.52.1-2,.9a1.57,1.57,0,0,1-1.82.86c-1.43,2.31-1.43,2.31-1.5,3.47-.63,1.13-2,1.55-2.65,2.61-1.48-.28-1.59,2-3.07,1.63-.66.36,0,1.49-1,1.65h-5.71c-.05,1-.88,1.38-1.38,2.12.29.74,1,1.48.45,2.68L254.23,816c-1.65.47-3.59-.47-5.61-1.11l-1.51-1.62H242.5a4.76,4.76,0,0,0-2.66,2.19c-.64,1.13-2.08,1.28-2.47,2.52-.47,1.4,1,1.73,1.52,2.74v2.35l-1.36.12c-.54,1.52-2.35,2.51-1.84,4.43-.89,1.59-2.84,2.1-3.56,3.93a18.1,18.1,0,0,1-5.38-3.79c.35-1,1.35-2-.11-2.83-1.17-.72-2.13.57-3.33.41-1.39,1.22-2.8,2.46-2.55,4.64-.37.35-.58.94-1.15.9s-.5-.52-.52-.86a2.09,2.09,0,0,0-.45-.25,2.84,2.84,0,0,0-2.47.61,18.56,18.56,0,0,1-3.58,2.1,3.8,3.8,0,0,0-1.2,1c-.52.66-1.39,1.35-1.95,1.28-3.18-.41-6.24.86-9.2.56l-1.56,1.37c1.4,1.12,1.29,3.17,2.84,3.92-.52,2.06-2.55.75-3.26,1.89-.71-.07-.92-.66-1.44-1h-3.56c-1.08,2.89-4.23,3.87-6.09,6.3-.39.76.44,1.36.54,2,0,1.17-1.11,1.83-1.16,2.94-.41.57-1.14,0-1.71.51a2.29,2.29,0,0,1-2.54.07c-2.17-1.28-4.74-1.4-6.87-2.67l-.93.87v2.72l-2.34,2a.67.67,0,0,0-.6,0c-1.46,1.38-3.32,1.72-5.14,2.27-2.52.76-4.87,2-7.32,2.95-.73.29-1.41.06-2.21.39a35.76,35.76,0,0,1-1.78,4.37,7.53,7.53,0,0,1-3.74,3.21h-2c-1.31-1.14-1.31-1.14-5.41-1.09-1.42,1-2.83,1.94-3.21,3.91-2.14-.25-4.12.11-6.2-.52a6.34,6.34,0,0,0-5.31,1.08,2.85,2.85,0,0,0-2.48-.58c-1.19-1.45-3.21-1.46-4.43-2.79h-2.23l-2.66,2.72h-4c-1.42-1.15-2-3.07-3.62-4.1V867l-3.54-3.55h-1.1c-.48-.33-.21-.84-.31-1.38-1.47-1.19-2.12-3.21-3.86-4.36a4,4,0,0,0-1.08-3.4c-1.39-1.52-1.37-3.34-.82-5.21a12.87,12.87,0,0,0,.78-6,12.65,12.65,0,0,0-1-3.81c.26-1.92,1.79-3.3,1.56-5.29a5.09,5.09,0,0,1,4.34-2c2,0,3.95-.26,6.12.79l2.11,2.18a5.8,5.8,0,0,0,.94,2.51h3.86c1.23-.63.5-2.52,2-2.95l-.49-.49c-.17-.46.65-.57.41-1.07-.41-1.12-1.88-1-2.37-2.1h-2.33l-.84-.88c-.06-1,1.39-1.22,1.19-2.22l2.46-1.19c1.29.64,1.8,2.25,3.12,3.08a7,7,0,0,0,4.54,1.16,4.42,4.42,0,0,0,1.94-4,7.16,7.16,0,0,0-2.46-2.06H121v-1.37a1.47,1.47,0,0,1,1.92.3l.77-.77c-.49-1.75.93-3.24,1.3-5.25,2.39.44,4.74-.95,7.23-.52,1.94-2,4-3.74,5.32-6.16,3,.33,6-.49,8.54.61.8,0,.87-.59,1.31-.71v-1.8l-2.12-1.89V805a9.15,9.15,0,0,0,3.85-.51c1.36-.38,2.54.78,4,.52l1.56,1.93.94-1.18V802a9.67,9.67,0,0,1,4.87-1.47c1.79,0,3.59-1,5.27-2.64,2.27-.16,4.48-.56,6.19-2.29h2.74c1.36,1.46,3.13,1,4.78,1.1.9-.57,1.95-.91,2.61-2v-4.27l2.32-1.91a2.42,2.42,0,0,0,1.5-.63c.12,0,.27,0,.3,0,.79,1.12,2.1.13,3,.74a4,4,0,0,0,3.26.39,12.87,12.87,0,0,1,2.48,0c2.48-.94,3.55-3.51,5.64-4.95h2.57c2.35,1.5,4.55,3,7.2,3.39.71-.56,1.22-1.07.92-2.12l-1.6-1.29h-1.32c-1.11-.71-.91-1.63-.81-2.53,1.47-.27,1.7-1.54,2.26-2.69,1.51-.59,2.34-2.48,4.26-2.52v-2.86c.43-.72,1.31-1.07,1.31-1.94,1.25-.68,2.19.64,3.35.43,1.46,1.42,3.28,1.1,5,1.09l1.29-2.56-1-.36c0-.87.21-1.91-.83-2.64l1.82-1.61c1.41,0,2.42,1.1,3.63,1.5,2.14-1,4.61.23,6.74-.76,1.09.26,2.06,1.85,3.39.24-.63-.92-.33-2-.41-2.83-1.34-2.23-3.62-4.16-.83-7,2.47.24,4.66-.92,6.78-2.35,1.06-.72,2.4-.79,3.45-1.7a7,7,0,0,1,3.22-1.51,10.25,10.25,0,0,0,2.31-1.08c.53.77,1.38.2,2.1.48s1.12,1,2,1.28c1.87.6,3.72.36,5.48.47.91-.42.83-1.43,1.53-2.09-.94-.95-.29-2.48-1.29-3.5.24-.28.37-.6.58-.67a11.66,11.66,0,0,1,5.37-.87,4.6,4.6,0,0,0,2.66,1.58c.71-1,2-1.6,3-2.8s.35-3,1.72-4l-.52-.83c.22-1.54,2.24-1.41,2.35-2.78,1.1-.52,1.7.58,2.65.51s1.83-.51,2.44.53c.4-.47,1-.73.83-1.45.76-.62,2.11.33,2.68-1.19-.11-1.62,1.14-3.15,1.24-4.92,2.34-.66,4.73-.65,7.07-1.49a5.09,5.09,0,0,0,1.55-2.8c.7-2.88,2.67-4.46,4.93-5.93a6.77,6.77,0,0,0,1-1,2.29,2.29,0,0,0,2.95.27c1.39-1,2.86-.83,4.35-.85s2.76,0,4.27,0c1.09-.87,1.92-2.24,3.59-2.72l3,1.08a3.64,3.64,0,0,0,1.45-3.66c1.43-.43,1.6-1.51,1.7-2.76l1.47-1.33c1.76.27,3.78-.53,5.75.62,1.46-1.76,3.07.49,4.85-.2.17-1.85-.49-4.12,1.65-5.54V701c.47-.27.6-.8,1.16-.81a26.54,26.54,0,0,1,7.85,1.28,6.88,6.88,0,0,0-2.77,4.07c.56.55.51,1.84,2,1.91.82,0,1.55,1.14,2.42,1.39a15,15,0,0,0,3.24.19c1,0,1.73-1.06,2.83-.42a8.11,8.11,0,0,1,3-2.31c.16-2.53,1.17-4.91.66-6.93l.78-1.39c1,0,1.21.79,1.54,1,2.19-.46,3.76,1.09,5.69,1.29a13.43,13.43,0,0,1,3.17,3.73,1.71,1.71,0,0,0,2.06-.81c.25-1.56-1-3.11-.45-4.9l-1.45-1.14c1.19-1.13.8-2.25.05-3.43l-3.83-1.48a38.06,38.06,0,0,0,1.66-5.06c2.26-.42,4.37-.67,5.95-2.42,2.12.19,3.9-.32,4.89-2.59A1.89,1.89,0,0,1,380,680.9c.88.09,1-1,1.62-1.17.47-2.39.57-4.76,2-6.94l1.32-.67c.4-.1.51.24.74.34a10,10,0,0,1,3,2,4.8,4.8,0,0,0,4.07,1.53,13.32,13.32,0,0,1,1.4,0c.32-1.25,1-2.4.74-3.81l1.62-.09c.44.51,1.06,1.18,1.62,1.88a2.52,2.52,0,0,1,.23.83h2.86c.42.59.47,1.27,1,1.62l1.35-.6c.38-.93.95-1.84.68-2.84.64-.85,1.57-1,2.33-1.46l.54.41,1.42-1.47h2.62c2.49-.61,2.79-2.89,4.42-3.81.39.6,1,.57,1.66.46l.78-.78V665c1.31.15,2.45-.59,3.73-.77A4,4,0,0,0,423.12,660.79Zm167.07-14.06a.38.38,0,0,0-.49.33s.12.17.16.16a.39.39,0,0,0,.33-.49.38.38,0,0,0,.49-.33s-.12-.17-.16-.16A.39.39,0,0,0,590.19,646.74Zm50.55-56.6a4.21,4.21,0,0,0-3.09,3.63,4.13,4.13,0,0,0,2,4.41c1.33.27,2.27-.62,3.4-.65.09-1.23,1.39-1.59,1.73-2.38.11-.66-.32-.79-.49-1,.93-1.12.37-2.36.56-3.82C643.18,591,642.11,589.48,640.74,590.14ZM536.12,732.5a5.64,5.64,0,0,1,.71-3.07c-.46-.83-1.47-1.2-1.37-2.3-1,.58-1.53-.67-2.64-.34-.59,2-1.92,4.13-.28,6.47,1-.18,1.14,1.09,2.18,1.17ZM653.88,490.69h-2.19c-2.28,2.32-2.38,2.68-1.16,4.4,1,.09,2.24-.31,3.15.79l1.55-1.67v-2.14Zm-30.78,145c-1.12.16-2.32-.44-3.06.78a4.8,4.8,0,0,0,.71,3.46,1.69,1.69,0,0,0,2.23-.48c.8-.74,1.8,0,2.56-.74C625.21,637.4,623.9,636.89,623.1,635.69Zm59.58-97.47c.39-1.49-.6-2.29-.5-3.36h-1.57l-2.19,1.92c-.18,1.43.85,1.87,1.65,2.64C680.95,538.77,681.42,537.62,682.68,538.21ZM576.05,702.55c.58-.75.08-1.55.4-2a2.29,2.29,0,0,0,.5-1.74l-.76-.75h-2.47v2.46l.36-.38Zm-162.37,8.59c.37-1.51-.73-1.94-1.35-2.65-.61.09-1.26-.22-1.83.2a1.26,1.26,0,0,1-.57,1.14c.66.54.47,1.73,1.57,2A4.41,4.41,0,0,1,413.69,711.14Zm85.91-194c.28-.73,1.36-.91,1.26-2.15-1,.29-1.67-.59-2.64-.64-.5.55-1.59.22-1.87,1.35l1.79,1.44ZM603.7,620.82a2.19,2.19,0,0,0,.73-2.6c-.66-.35-.85-1.44-1.89-1.23a3.28,3.28,0,0,1-1.05,2.14l1.4,1.39.23-.23.19.15ZM310.3,727.24a1.38,1.38,0,1,0,1.45,1.24A1.37,1.37,0,0,0,310.3,727.24Zm248.16-5.75c-1.18-.68-1.55-1.92-2.89-2v3.27H557C557,722,557.47,721.69,558.45,721.49ZM169.39,802.66c-.09-2-.13-2-1.95-1.93l-.62,1.3C167.49,803.08,168.45,802.81,169.39,802.66Zm412.8-300.39c-.74.12-1.66-.22-2.47.23-.08.85.53,1,.84,1.43h1l1.54-.74Zm-17.38-17.45c.36-.89,1.68-.29,1.7-1.57l-2.61-.84C563.41,483.53,563.93,484.1,564.81,484.82Zm-1.75,19.74c-1.19-.29-1.84.11-2.11,1.1a1.7,1.7,0,0,0,1.18,1C563.08,506.35,563.36,505.65,563.06,504.57Zm111.18,6.49-1-1c-.49,0-1-.32-1.44.24,0,.25-.1.55.26.76ZM277,748.46l1.5.74.71-.77c-.42-.27-.56-.82-1.14-.8S277.41,748.19,277,748.46Zm258.21-38.3c.37-.06.67.09.87-.23a.65.65,0,0,0-.15-.86C535.11,708.92,534.92,709.27,535.2,710.16Z"/>
      <path class="cls-1" d="M619.37,670.15a3.28,3.28,0,0,0-.65-2.71l2-1.86c.37.15.9.73,1.72.43l1.3,1.41c.77,1.51-.95,2.23-1.19,3.46C621.34,671.39,620.41,670.64,619.37,670.15Z"/>
      <path class="cls-1" d="M305.68,787.1c.17,1-.48,1.63-.79,2.41-.57.22-.82-.23-1.13-.51l-.45.4-2.59-2.46c-.17-1,.58-1.57.83-2.33C303.68,784.23,304.27,786.34,305.68,787.1Z"/>
      <path class="cls-1" d="M876.15,698h-2.94c-.13-.82-.92-1.37-.68-2.41l.59-.67c1.42-.7,2.49.53,3.7.46C877.21,696.48,876.4,697.12,876.15,698Z"/>
      <path class="cls-1" d="M698.36,480.18c1,.65,2.1.94,2.55,2.09l-1.37,1.22h-1.61L696.51,482A3.34,3.34,0,0,1,698.36,480.18Z"/>
      <path class="cls-1" d="M936.72,210h-1.64a1.71,1.71,0,0,1-.81-2l.79-.72h1.72C937.82,208.22,937.89,209,936.72,210Z"/>
      <path class="cls-1" d="M557,515.26l1.69-.86c.83.08,1,1,1.64,1.24v1.87c-.46.35-.92.15-.71.13Z"/>
      <path class="cls-1" d="M533.64,750.86l.84,1c.11.7-.42.86-.71,1.27h-2.38c-.41-.38-.18-.9-.11-1.4C532,751.14,533.14,752,533.64,750.86Z"/>
      <path class="cls-1" d="M663.57,573.57v-2.66a1.72,1.72,0,0,1,2.22-.71C664.78,571.17,665.45,573,663.57,573.57Z"/>
      <path class="cls-1" d="M240.66,821.66c1.59-.91,1.59-.91,2.71.37-.06.61-.53.87-1.1,1.22A4.12,4.12,0,0,1,240.66,821.66Z"/>
      <path class="cls-1" d="M575.84,714.62l1.15,1.54c.13.56-.62.69-.81,1.21L574.84,716Z"/>
      <path class="cls-1" d="M874.89,718.92h-1.62c-.44-.43-.06-.92-.26-1.29.48-.54,1-.3,1.52-.23C874.92,717.79,874.55,718.28,874.89,718.92Z"/>
      <path class="cls-1" d="M852.12,479.36c.38-.24.53-.77.93-.8.7-.06.79.57,1.4.76l-.9.87C852.7,480.29,852.48,479.72,852.12,479.36Z"/>
      <path class="cls-1" d="M699.77,497.13a2.41,2.41,0,0,1,2.31-.74v.77A3.59,3.59,0,0,1,699.77,497.13Z"/>
    </g>
  </g>
</svg>
