<?xml version="1.0" encoding="utf-8"?>
<!-- Generator: Adobe Illustrator 21.1.0, SVG Export Plug-In . SVG Version: 6.00 Build 0)  -->
<svg version="1.1" id="Layer_1" xmlns="http://www.w3.org/2000/svg" xmlns:xlink="http://www.w3.org/1999/xlink" x="0px" y="0px"
	 viewBox="0 0 176 64" style="enable-background:new 0 0 176 64;" xml:space="preserve">
<style type="text/css">
	.st0{fill:none;}
	.st1{fill:#EE7F2D;}
	.st2{fill:#F58025;}
	.st3{fill:#FFFFFF;}
	.st4{fill:#231F20;}
</style>
<title>Artboard 2</title>
<g id="Layer_1_1_">
	<rect y="1.2" class="st0" width="176" height="64"/>
	<path class="st1" d="M21.6,45.3c2.2,2.8,4.7,5.2,7.6,7.4c2.8-2.1,5.4-4.6,7.6-7.3L29.1,38L21.6,45.3z"/>
	<path class="st1" d="M18.1,40.1l11.1-10.7l11.1,10.7c1.9-3.4,3.3-7,4.1-10.7l0.1-0.5H13.8C14.7,32.8,16.1,36.6,18.1,40.1z"/>
	<path class="st2" d="M18.1,40.1c1,1.9,2.2,3.6,3.5,5.3l7.6-7.3l7.6,7.4c1.3-1.7,2.5-3.4,3.5-5.3L29.2,29.4L18.1,40.1z"/>
	<path d="M18.1,40.1c1,1.9,2.2,3.6,3.5,5.3l7.6-7.3l7.6,7.4c1.3-1.7,2.5-3.4,3.5-5.3L29.2,29.4L18.1,40.1z"/>
	<path d="M45.2,17.5c-1.3,0.4-2.7,0.6-4.1,0.6c-4.9,0-9.4-2.5-11.9-6.6c-2.5,4.1-7,6.7-11.9,6.6c-1.4,0-2.8-0.2-4.1-0.6
		c-0.3,3.8-0.1,7.6,0.7,11.4h30.7C45.3,25.1,45.5,21.3,45.2,17.5z"/>
	<path class="st3" d="M36.7,22.2v-1.3h-0.8v-0.9l-0.8-0.2H35v-0.8c0,0-0.3,0.4-1.6,0.4s-2-0.4-3-0.4c-0.5-0.1-1,0.2-1.2,0.6v0.3l0,0
		v-0.3c-0.3-0.4-0.8-0.6-1.2-0.6c-1,0-1.7,0.4-3,0.4s-1.5-0.4-1.5-0.4v0.8h-0.1l-0.9,0.2v0.9h-0.8v1.3h0.8v2.1h-0.8v1.3h0.8v1.6
		c0.9,0.1,1.7,0.2,2.6,0.2c1.5,0,2.3-0.2,3.3-0.2v0.4c0.3,0.1,0.6,0.2,0.9,0.2c0.3,0,0.6-0.1,0.9-0.2v-0.4c1,0,1.8,0.2,3.3,0.2
		c0.9,0,1.7-0.1,2.6-0.2v-1.6h0.8v-1.3h-0.8v-2.1H36.7z"/>
	<path class="st4" d="M35.2,19.6v-1l-0.2,0.3c0,0-0.3,0.3-1.5,0.3L31.8,19l-1.4-0.2c-0.5,0-0.9,0.1-1.3,0.5
		c-0.3-0.3-0.8-0.5-1.3-0.5L26.5,19l-1.6,0.2c-1.2,0-1.4-0.3-1.4-0.3l-0.2-0.3v1.1l-1,0.2v7.5h0.1c0.9,0.1,1.7,0.2,2.6,0.2
		c1,0,2.1-0.1,3.1-0.2v0.3h0.1c0.3,0.1,0.7,0.2,1,0.2c0.3,0,0.7-0.1,1-0.2h0.1v-0.3c1,0.1,2.1,0.2,3.1,0.2c0.9,0,1.7-0.1,2.6-0.2
		h0.1v-7.5L35.2,19.6z M29.3,19.5c0.3-0.4,0.7-0.6,1.1-0.5l1.3,0.2l1.7,0.2c0.5,0,1-0.1,1.5-0.2v7.1c-0.5,0.2-1,0.2-1.5,0.2
		l-1.6-0.2l-1.4-0.2c-0.4,0-0.8,0.1-1.1,0.4L29.3,19.5z M23.5,19.2c0.4,0.2,0.9,0.3,1.4,0.2l1.7-0.2l1.3-0.2
		c0.4-0.1,0.9,0.1,1.1,0.5v6.9c-0.3-0.3-0.7-0.4-1.1-0.4l-1.4,0.2l-1.6,0.2c-1.2,0-1.4-0.3-1.4-0.3S23.5,19.7,23.5,19.2L23.5,19.2z
		 M35.8,27.1c-0.8,0.1-1.6,0.2-2.4,0.2c-1.1,0-2.2-0.1-3.3-0.2h-0.2v0.5c-0.3,0.1-0.5,0.1-0.8,0.1c-0.3,0-0.5,0-0.8-0.1v-0.5h-0.2
		c-1.1,0.1-2.1,0.2-3.2,0.2c-0.8,0-1.6-0.1-2.4-0.2v-7l0.7-0.1v6.4c0.1,0.1,0.4,0.5,1.7,0.5l1.7-0.2l1.3-0.2
		c0.4-0.1,0.9,0.1,1.1,0.5l0,0h0.2l0,0c0.3-0.3,0.7-0.5,1.1-0.5l1.3,0.2l1.7,0.2c1.4,0,1.7-0.4,1.7-0.4v-6.5l0.6,0.2L35.8,27.1z"/>
	<path class="st4" d="M25.5,20.5c-0.1,0-0.2,0.1-0.2,0.1l-0.4,1l0,0l0,0c0,0-0.1-0.2-0.2-0.5l-0.1-0.3c-0.1-0.1-0.1-0.2-0.1-0.2
		c0-0.1-0.1-0.1-0.2-0.1l0,0l0,0h0.6l0,0l0,0c-0.1,0-0.2,0-0.2,0.1c0,0,0,0,0,0.1l0.3,0.7l0.2-0.6c0,0,0-0.1,0-0.1
		c0-0.1,0-0.1-0.2-0.1l0,0l0,0L25.5,20.5L25.5,20.5L25.5,20.5z"/>
	<path class="st4" d="M26.7,21.6h-1.1l0,0l0,0c0.1,0,0.1,0,0.2,0c0-0.1,0-0.1,0-0.2c0,0,0-0.1,0-0.2s0-0.2,0-0.3v-0.2
		c0-0.1-0.1-0.1-0.2-0.1l0,0l0,0h1l0,0v0.3h-0.1c0-0.1-0.1-0.1-0.2-0.2c0,0-0.1,0-0.1,0H26l0,0c0,0,0,0.1,0,0.2V21h0.2
		c0,0,0.1,0,0.1-0.1c0,0,0-0.1,0-0.1h0.1c0,0,0,0.1,0,0.2s0,0.2,0,0.2h-0.1c0-0.1,0-0.2-0.1-0.2c0,0-0.1,0-0.1,0h0v0.3
		c0,0,0,0.1,0,0.1c0,0,0,0.1,0.1,0.1h0.3c0,0,0.1,0,0.1,0c0.1-0.1,0.1-0.2,0.2-0.2h0.1v0.3C26.7,21.7,26.8,21.6,26.7,21.6z"/>
	<path class="st4" d="M28.1,20.8L28.1,20.8c0-0.1-0.1-0.1-0.1-0.2c-0.1-0.1-0.1-0.1-0.2-0.1h-0.1V21c0,0.1,0,0.2,0,0.4
		s0.1,0.1,0.2,0.2l0,0l0,0h-0.6l0,0l0,0c0.2,0,0.2,0,0.2-0.1s0-0.2,0-0.4v-0.4c0,0,0-0.1,0-0.1c-0.1,0-0.1,0-0.2,0
		c-0.1,0.1-0.2,0.1-0.2,0.3h0v-0.3l0,0h1.2l0,0L28.1,20.8L28.1,20.8z"/>
	<path class="st4" d="M25.4,22.6L25.4,22.6c0-0.1-0.1-0.1-0.1-0.2c-0.1-0.1-0.1-0.1-0.2-0.1H25v0.5c0,0.1,0,0.2,0,0.4
		s0.1,0.1,0.2,0.2l0,0l0,0h-0.6l0,0l0,0c0.2,0,0.2,0,0.2-0.1s0-0.2,0-0.4v-0.4c0,0,0-0.1,0-0.1c-0.1,0-0.1,0-0.2,0
		c-0.1,0.1-0.2,0.1-0.2,0.3h-0.1v-0.3l0,0h1.2l0,0L25.4,22.6L25.4,22.6z"/>
	<path class="st4" d="M26.8,23.4h-1.1l0,0l0,0c0.1,0,0.1,0,0.2,0c0,0,0-0.1,0-0.2s0-0.1,0-0.2s0-0.2,0-0.3s0-0.1,0-0.2
		s-0.1-0.1-0.2-0.1l0,0l0,0h1l0,0v0.3h-0.1c0-0.1-0.1-0.2-0.2-0.2c0,0-0.1,0-0.1,0h-0.2l0,0c0,0,0,0.1,0,0.2v0.1h0.2
		c0,0,0.1,0,0.1-0.1c0,0,0-0.1,0-0.1h0.1c0,0,0,0.1,0,0.2s0,0.2,0,0.2h-0.1c0-0.1,0-0.2-0.1-0.2c0,0-0.1,0-0.1,0h-0.1v0.3
		c0,0,0,0.1,0,0.1c0,0,0,0.1,0.1,0.1h0.3c0,0,0.1,0,0.1,0c0.1-0.1,0.1-0.2,0.2-0.2h0.1v0.3C26.8,23.5,26.8,23.4,26.8,23.4z"/>
	<path class="st4" d="M27.6,23.5c-0.1,0-0.2,0-0.3-0.1l0,0h-0.1c0,0,0,0-0.1,0c0,0,0-0.1,0-0.1s0-0.2,0-0.2c0,0,0,0,0.1,0l0,0
		c0,0.1,0.1,0.2,0.1,0.2C27.4,23.4,27.5,23.4,27.6,23.5c0.1,0,0.1-0.1,0.2-0.1c0,0,0.1-0.1,0.1-0.1c0,0,0-0.1,0-0.1
		c0,0-0.1-0.1-0.1-0.1c0,0-0.2-0.1-0.3-0.1c-0.1,0-0.1-0.1-0.2-0.1c0-0.1-0.1-0.1-0.1-0.2c0-0.2,0.2-0.3,0.3-0.3c0,0,0,0,0,0
		c0.1,0,0.2,0,0.3,0.1l0.1-0.1c0,0,0,0,0.1,0c0,0.1,0,0.1,0,0.2c0,0,0,0.2,0,0.2l0,0l0,0c0-0.1-0.1-0.1-0.1-0.2
		c-0.1-0.1-0.1-0.1-0.2-0.1c-0.1,0-0.2,0.1-0.2,0.2c0,0,0,0,0,0c0,0.1,0.1,0.1,0.1,0.2l0.2,0.1l0.2,0.1c0.1,0.1,0.2,0.2,0.2,0.3
		c0,0.2-0.1,0.4-0.3,0.4C27.7,23.5,27.6,23.5,27.6,23.5z"/>
	<path class="st4" d="M25.9,25.3h-1.1l0,0l0,0c0.1,0,0.1,0,0.2,0C25,25.2,25,25.1,25,25c0,0,0-0.1,0-0.2s0-0.2,0-0.3v-0.2
		c0-0.1-0.1-0.1-0.2-0.1l0,0l0,0h1l0,0v0.3h-0.1c0-0.1-0.1-0.1-0.2-0.2c0,0-0.1,0-0.1,0h-0.3l0,0c0,0,0,0.1,0,0.2v0.1h0.2
		c0,0,0.1,0,0.1-0.1c0,0,0-0.1,0-0.1h0.1c0,0,0,0.1,0,0.2s0,0.2,0,0.2h-0.1c0-0.1,0-0.2-0.1-0.2c0,0-0.1,0-0.1,0h0V25
		c0,0,0,0.1,0,0.1c0,0,0,0.1,0.1,0.1h0.3c0,0,0.1,0,0.1,0c0.1-0.1,0.1-0.2,0.2-0.2h0.1L25.9,25.3C25.9,25.3,25.9,25.3,25.9,25.3z"/>
	<path class="st4" d="M27.6,24.1c-0.1,0-0.2,0.1-0.2,0.3V25c0,0,0,0.2,0,0.3l0,0l0,0l-0.8-0.9v0.5c0,0,0,0.1,0,0.1
		c0,0.1,0,0.1,0.1,0.1c0,0,0.1,0,0.2,0l0,0l0,0h-0.5l0,0l0,0c0.1,0,0.1,0,0.2-0.1c0,0,0-0.1,0-0.1v-0.4c0-0.1,0-0.1,0-0.2
		c0,0,0-0.1,0-0.1l-0.1-0.1c0,0-0.1,0-0.1-0.1l0,0l0,0h0.3l0,0l0.6,0.7l0.1,0.2v-0.5c0-0.1,0-0.1,0-0.1c0,0,0-0.1,0-0.1
		c0,0-0.1,0-0.2-0.1l0,0l0,0L27.6,24.1L27.6,24.1C27.7,24.2,27.6,24.2,27.6,24.1C27.6,24.2,27.6,24.2,27.6,24.1z"/>
	<path class="st4" d="M31.5,20.5c-0.1,0-0.2,0.1-0.2,0.3v0.6c0,0,0,0.2,0,0.3l0,0l0,0l-0.8-0.9v0.5c0,0,0,0.1,0,0.1
		c0,0.1,0,0.1,0.1,0.1c0,0,0.1,0,0.2,0v0.1h-0.5l0,0l0,0c0.1,0,0.1,0,0.2-0.1c0,0,0-0.1,0-0.1v-0.4c0-0.1,0-0.1,0-0.2
		c0,0,0-0.1,0-0.1l-0.1-0.1c0,0-0.1,0-0.1-0.1v-0.1h0.3l0,0l0.6,0.7l0.1,0.2v-0.5c0,0,0-0.1,0-0.1c0,0,0-0.1,0-0.1
		c0,0-0.1,0-0.2-0.1l0,0l0,0L31.5,20.5L31.5,20.5L31.5,20.5z"/>
	<path class="st4" d="M32.7,21.4c-0.2,0.2-0.6,0.2-0.8,0c0,0,0,0,0,0c-0.2-0.3-0.2-0.6,0-0.9c0.1-0.1,0.3-0.2,0.4-0.2
		c0.1,0,0.2,0,0.3,0.1c0.2,0.1,0.3,0.3,0.3,0.5C32.9,21.2,32.8,21.3,32.7,21.4z M32.5,20.6c-0.1-0.1-0.1-0.1-0.2-0.1
		c-0.1,0-0.2,0-0.2,0.1C32,20.7,31.9,20.9,32,21c0,0.1,0,0.3,0.1,0.4c0,0.1,0.1,0.1,0.2,0.1c0.1,0,0.2-0.1,0.3-0.2
		c0.1-0.1,0.1-0.2,0.1-0.4C32.6,20.9,32.6,20.7,32.5,20.6z"/>
	<path class="st4" d="M34.4,20.5c-0.1,0-0.2,0.1-0.2,0.1l-0.5,1l0,0l0,0c0,0-0.1-0.2-0.2-0.5l-0.1-0.3c0-0.1-0.1-0.2-0.1-0.2
		c0-0.1-0.1-0.1-0.2-0.1l0,0l0,0h0.6l0,0l0,0c-0.1,0-0.2,0-0.2,0.1c0,0,0,0,0,0.1l0.3,0.7l0.2-0.6c0,0,0-0.1,0-0.1
		c0-0.1,0-0.1-0.2-0.1l0,0l0,0L34.4,20.5c0,0.1,0,0.1,0,0.1L34.4,20.5z"/>
	<path class="st4" d="M31.1,22.6L31.1,22.6c0-0.1-0.1-0.1-0.1-0.2c-0.1-0.1-0.1-0.1-0.2-0.1h-0.1v0.5c0,0.1,0,0.2,0,0.4
		s0.1,0.1,0.2,0.2l0,0l0,0h-0.7l0,0l0,0c0.2,0,0.2,0,0.2-0.1s0-0.2,0-0.4v-0.4c0,0,0-0.1,0-0.1c-0.1,0-0.1,0-0.2,0
		c-0.1,0.1-0.2,0.1-0.2,0.3h-0.1v-0.3l0,0h1.2l0,0V22.6L31.1,22.6z"/>
	<path class="st4" d="M32.5,23.4h-0.6l0,0l0,0c0.1,0,0.2,0,0.2-0.1c0,0,0-0.1,0-0.1L32,23l0,0h-0.4c0,0.1-0.1,0.1-0.1,0.2
		c0,0,0,0,0,0.1c0,0,0,0.1,0.2,0.1l0,0l0,0h-0.5l0,0l0,0c0.1,0,0.1,0,0.2-0.1c0.1-0.1,0.1-0.2,0.1-0.3l0.2-0.4l0.1-0.2l0.1-0.1l0,0
		h0v0.1l0.2,0.5l0.1,0.3l0.1,0.2C32.3,23.4,32.4,23.4,32.5,23.4C32.6,23.4,32.5,23.4,32.5,23.4C32.5,23.4,32.5,23.4,32.5,23.4z
		 M31.8,22.5L31.8,22.5l-0.1,0.2l-0.1,0.2h0.4L31.8,22.5z"/>
	<path class="st4" d="M34.3,23.4h-0.6l0,0l0,0h0.1c0,0,0.1-0.1,0.1-0.1v-0.9l0,0L33.7,23l-0.1,0.2c0,0.1-0.1,0.2-0.1,0.3l0,0l0,0
		l-0.1-0.1L33,22.4l0,0v0.8c0,0.2,0.1,0.2,0.2,0.2v0.1h-0.5l0,0l0,0c0.1,0,0.1,0,0.2-0.1c0,0,0-0.1,0-0.2v-0.6c0-0.1,0-0.1-0.1-0.2
		h-0.2l0,0l0,0h0.5l0,0l0.3,0.8l0.1-0.2c0-0.1,0.1-0.3,0.2-0.5l0.1-0.1h0.4l0,0l0,0c0,0-0.1,0-0.2,0.1s0,0,0,0.1v0.6
		C34.1,23.5,34.2,23.5,34.3,23.4L34.3,23.4L34.3,23.4C34.3,23.5,34.3,23.4,34.3,23.4z"/>
	<path class="st4" d="M31.1,24.5L31.1,24.5c0-0.1-0.1-0.1-0.1-0.2c-0.1-0.1-0.1-0.1-0.2-0.1h-0.1v0.5c0,0.1,0,0.2,0,0.4
		s0.1,0.1,0.2,0.2l0,0l0,0h-0.6l0,0l0,0c0.2,0,0.2,0,0.2-0.1s0-0.2,0-0.4v-0.4c0,0,0-0.1,0-0.1c-0.1,0-0.1,0-0.2,0
		c-0.1,0.1-0.2,0.1-0.2,0.3h-0.1v-0.3l0,0h1.2l0,0L31.1,24.5L31.1,24.5z"/>
	<path class="st4" d="M32.5,24.2c-0.1,0-0.2,0.1-0.2,0.1l-0.4,1l0,0l0,0c0,0-0.1-0.2-0.2-0.5l-0.1-0.3c0-0.1-0.1-0.2-0.1-0.2
		c0-0.1-0.1-0.1-0.2-0.1l0,0l0,0h0.6l0,0l0,0c-0.1,0-0.2,0-0.2,0.1c0,0,0,0,0,0.1L32,25l0.2-0.6c0,0,0-0.1,0-0.1
		c0-0.1,0-0.1-0.2-0.1l0,0l0,0L32.5,24.2c0,0.1,0,0.1,0,0.1L32.5,24.2z"/>
	<path class="st4" d="M34.3,25.3h-0.6l0,0l0,0h0.1c0,0,0.1-0.1,0.1-0.1v-0.7c0,0,0-0.1,0-0.2l0,0l-0.2,0.5L33.6,25
		c-0.1,0.1-0.1,0.2-0.1,0.3s0,0,0,0l0,0l-0.1-0.1l-0.4-1l0,0V25c0,0.2,0.1,0.2,0.2,0.2l0,0l0,0h-0.5l0,0l0,0c0.1,0,0.1,0,0.2-0.1
		c0-0.1,0-0.1,0-0.2v-0.6c0-0.1,0-0.1-0.1-0.2h-0.1l0,0l0,0h0.5l0,0l0.3,0.8l0.1-0.2c0.1-0.2,0.2-0.4,0.2-0.5l0.1-0.1h0.4l0,0l0,0
		c0,0-0.1,0-0.2,0.1s0,0,0,0.1V25c0,0.2,0,0.2,0.1,0.3L34.3,25.3L34.3,25.3C34.3,25.2,34.3,25.3,34.3,25.3z"/>
	<path d="M162.8,18.2c0-0.1,0-0.1,0-0.2h-0.4c-0.8,0-1.2,0-2.6,0c-0.5,0-1.2,0-1.3,0H158c0,0-0.1,0.2-0.1,0.3c0,0.1,0,0.2,0.1,0.3
		c0.5,0.1,1.1,0.2,1.6,0.4c0.3,0.5,0.4,1,0.4,1.5c0,0.2,0,0.5,0,1.1v3.2c0,0.2,0,0.4,0,0.6c-0.3-0.3-0.6-0.8-1.2-1.5l-5.1-5.6
		c-0.1-0.1-0.1-0.1-0.2-0.2H153c-1,0-2.7,0-3,0c0,0.1-0.1,0.1-0.1,0.2c0,0.1,0,0.2,0,0.3c0.4,0.1,0.8,0.3,1.1,0.6
		c0.3,0.3,0.6,0.6,0.8,1c0,0.2,0.1,0.3,0.1,0.5c0,0.8,0,1.9,0,3v3.1c0,0.4,0,0.8-0.1,1.1c-0.4,0.4-1,0.7-1.6,0.8
		c0,0.1-0.1,0.2-0.1,0.3c0,0,0,0.2,0,0.2h0.3c0.3,0,1,0,1.5,0c0.7,0,1.1,0,1.8,0h0.9c0.1,0,0.1-0.2,0.1-0.3c0-0.1,0-0.2,0-0.2
		c-0.7-0.1-1.3-0.4-1.8-0.9c-0.1-0.6-0.2-1.3-0.2-1.9c0-0.5,0-1.1,0-2c0-1.2,0-2.2,0-2.8l0.3,0.3l7,7.9c0.1,0.1,0.3,0.1,0.4,0.1
		c0.1,0,0.1,0,0.2,0c0.1-0.2,0.1-0.4,0.1-0.7c0-0.4,0-0.9,0-1.1V21c0-1.9,0.9-2.4,1.9-2.5C162.7,18.4,162.7,18.3,162.8,18.2
		 M145.4,23c0,2.3-0.6,4.3-1.5,5c-0.5,0.4-1,0.6-1.6,0.5c-0.8,0-1.6-0.3-2-1c-0.6-1.2-0.9-2.6-0.9-4c0-2.1,0.5-3.8,1.5-4.6
		c0.4-0.4,1-0.6,1.6-0.6c0.8,0,1.6,0.4,2.1,1C145.2,20.5,145.5,21.7,145.4,23 M148.1,23.2c0.1-2-1-3.8-2.7-4.7
		c-0.9-0.5-1.9-0.8-2.9-0.8c-2.1,0-4,1.1-5.1,2.8c-0.6,0.9-0.9,2-0.9,3.1c-0.1,3,2.3,5.5,5.4,5.5c0.1,0,0.2,0,0.3,0
		c0.8,0,1.6-0.1,2.3-0.4c0.8-0.3,1.5-0.8,2.1-1.4C147.6,26.2,148.2,24.7,148.1,23.2 M134.8,21.3v-3.1c0-0.2-0.1-0.3-0.3-0.3
		c-0.5,0-2.9,0.1-5.3,0.1c-1.9,0-3.4,0-4.3,0h-1.1c-0.2,0-0.3,0-0.3,0.3v2.9c0.1,0,0.2,0.1,0.2,0.1c0.1,0,0.2,0,0.3,0
		c0.4-1.1,1.2-2,2.1-2.5c0.4,0,1.3-0.1,1.6-0.1c0,0.2,0,0.7,0,1.3c0,1.1,0,1.6,0,4.1c0,2.2,0,3.2,0,3.5c-0.1,0.4,0,0.8-1.8,0.8
		c0,0.1,0,0.2,0,0.4c0,0.1,0,0.2,0,0.2h0.6c0.6,0,1.9-0.1,2.4-0.1c0.6,0,1.9,0,2.8,0h0.4c0-0.1,0-0.2,0-0.3c0-0.1,0-0.2-0.1-0.3
		c-0.5,0-1.1-0.1-1.6-0.3c-0.1-0.4-0.1-0.8-0.1-1.1c0-1.6,0-2.3,0-3.4c0-1.4,0-2.4,0-5c0.2,0,0.7,0,1.2,0c0.7,0.1,1.4,0.6,1.8,1.1
		c0.3,0.5,0.6,1.1,0.8,1.7c0.1,0,0.2,0,0.3,0C134.6,21.4,134.7,21.4,134.8,21.3 M121.7,26.3c0-0.1,0-0.3,0-0.4c-0.1,0-0.2,0-0.2,0
		c-0.1,0-0.2,0-0.3,0c-0.4,0.9-0.9,1.7-1.7,2.3c-0.4,0.2-0.8,0.2-1.1,0.2H117c-0.3,0-0.7,0-1-0.1c-0.2,0-0.5-0.4-0.6-0.6
		c-0.2-0.3-0.2-0.7-0.2-1v-3.2h0.6c0.3,0,0.6,0.1,0.9,0.2c0.3,0.1,0.5,0.4,0.7,0.6c0.1,0.4,0.2,0.8,0.3,1.3c0.1,0,0.3,0.1,0.4,0.1
		c0.1,0,0.2,0,0.3-0.1c0-0.4-0.1-1.5-0.1-2.1s0.1-1.8,0.2-2.4c-0.1,0-0.2-0.1-0.3-0.1c-0.1,0-0.3,0-0.4,0c0,0.2-0.2,0.8-0.2,0.9
		c-0.2,0.4-0.6,0.7-1,0.8c-0.3,0.1-0.6,0.1-0.9,0.1h-0.3v-1.3c0-1.5,0-1.9,0-2.2c0-0.3,0-0.4,0.1-0.5c0.3,0,0.6,0,0.9,0h1.4
		c0.4,0,0.7,0.1,1,0.3c0.6,0.5,1.1,1.2,1.5,1.9c0.1,0,0.2,0,0.3,0c0.1,0,0.1,0,0.2-0.1c0-0.9-0.1-2.1-0.1-2.5c0-0.2,0-0.2-0.3-0.2
		c-0.1,0-0.7,0-1.3,0h-2.5h-2.8c-0.9,0-1.7,0-2.1,0H111c0,0.1-0.1,0.2-0.1,0.2c0,0.1,0,0.2,0.1,0.3c0.4,0,0.7,0.1,1.1,0.2
		c0.3,0.2,0.5,0.6,0.6,1c0,0.3,0,1.2,0,1.9v3.1c0,0.6,0,1.6,0,1.9c0,0.5-0.1,1-0.3,1.4c-0.4,0.2-0.9,0.2-1.4,0.2
		c0,0.1-0.1,0.2-0.1,0.3c0,0.1,0.1,0.2,0.1,0.3h0.5h2.7c0.4,0,1.1,0,2,0c0.5,0,1.9,0.1,5,0.1c0.1,0,0.3,0,0.4,0
		c0-0.1,0.1-0.2,0.1-0.2c0-0.3,0-1.2,0-2.4 M108.8,27c-0.1-0.2-0.3-0.4-0.5-0.4h-0.1c-0.6,1.1-1.8,1.8-3.1,1.8c-1.3,0-2.5-0.8-3.1-2
		c-0.3-0.9-0.5-1.8-0.5-2.8c0-0.9,0.1-1.8,0.5-2.7c0.7-1.8,1.6-2.3,2.8-2.3c1,0,1.9,0.6,2.4,1.4c0.3,0.6,0.6,1.2,0.8,1.8
		c0.1,0,0.2,0,0.3,0c0.1,0,0.3-0.1,0.4-0.1c0-0.2-0.2-1.3-0.2-1.7c0-0.4,0.1-1.2,0.1-1.5c-0.2-0.1-0.4-0.2-0.6-0.2
		c-0.2,0.2-0.4,0.4-0.5,0.6c-1-0.8-2.2-1.1-3.4-1.1c-1.4,0-2.8,0.5-3.8,1.5c-1.1,1.1-1.7,2.7-1.6,4.3c0,1.8,0.8,3.5,2.2,4.5
		c1,0.7,2.3,1,3.5,1c1.5,0.1,2.9-0.5,3.9-1.6C108.6,27.4,108.7,27.1,108.8,27 M97,18.2c0-0.1,0-0.1,0-0.2h-0.3c-0.8,0-1.2,0-2.6,0
		c-0.5,0-1.2,0-1.3,0h-0.4c0,0-0.1,0.2-0.1,0.3c0,0.1,0,0.2,0.1,0.3c0.5,0.1,1.1,0.2,1.6,0.4c0.3,0.5,0.4,1,0.4,1.6
		c0,0.2,0,0.4,0,1.1v3.2c0,0.2,0,0.4,0,0.6c-0.3-0.3-0.6-0.8-1.2-1.5L88,18.3c-0.1-0.1-0.1-0.1-0.2-0.2h-0.4c-1,0-2.7,0-3,0
		c0,0.1-0.1,0.1-0.1,0.2c0,0.1,0,0.2,0,0.3c0.4,0.1,0.8,0.3,1.1,0.6c0.3,0.3,0.6,0.6,0.8,1c0,0.2,0.1,0.3,0.1,0.5c0,0.8,0,1.9,0,3
		v3.1c0,0.4,0,0.8-0.1,1.1c-0.4,0.4-1,0.7-1.6,0.8c0,0.1-0.1,0.2-0.1,0.3c0,0,0,0.2,0,0.2h0.3c0.3,0,1,0,1.5,0c0.7,0,1.1,0,1.8,0h1
		c0.1,0,0.1-0.2,0.1-0.3c0-0.1,0-0.2,0-0.2c-0.7-0.1-1.3-0.4-1.8-0.9c-0.1-0.6-0.2-1.3-0.2-1.9c0-0.5,0-1.1,0-2c0-1.2,0-2.2,0-2.8
		l0.3,0.3l7,7.9c0.1,0.1,0.3,0.1,0.4,0.1c0.1,0,0.1,0,0.2,0c0.1-0.2,0.1-0.4,0.1-0.7c0-0.4,0-0.9,0-1.1V21c0-1.9,0.9-2.4,1.9-2.5
		C97.1,18.4,97.1,18.3,97,18.2 M82,28.7c0-0.1,0-0.2,0-0.3c-0.4,0-0.7-0.1-1.1-0.1c-0.3-0.3-0.5-0.7-0.5-1.2c0-0.7,0-2.2,0-3.6v-3.7
		c0-0.3,0.1-0.6,0.3-0.8c0.4-0.3,0.9-0.4,1.3-0.4c0-0.1,0-0.2,0-0.3c0-0.1,0-0.2-0.1-0.2h-0.4c-0.6,0-2.1,0.1-2.6,0.1L76.3,18H76
		c-0.1,0.1-0.1,0.2-0.1,0.3c0,0.1,0,0.2,0,0.3c0.4,0,0.8,0.1,1.2,0.2c0.3,0.3,0.5,0.8,0.5,1.3c0,0.3,0,0.9,0,2.3c0,0.8,0,1.8,0,2.7
		c0,0.4,0,1.4,0,2c0,0.3-0.1,0.6-0.2,0.9c-0.2,0.1-0.4,0.4-1.5,0.5c0,0.1,0,0.2,0,0.3c0,0.1,0,0.2,0,0.3h0.3c0.6,0,2.1-0.1,2.9-0.1
		c0.2,0,1.8,0,2.3,0h0.5C81.9,28.9,82,28.8,82,28.7 M69.8,20.8c0,0.9-0.5,1.8-1.4,2.2c-0.4,0.1-0.8,0.1-1.2,0.1c-0.2,0-0.4,0-0.6,0
		v-1.3V19c0-0.1,0-0.2,0.1-0.3c0.2-0.1,0.4-0.1,0.6-0.1c1.2,0,1.7,0.1,2.1,0.8C69.7,19.8,69.8,20.3,69.8,20.8 M74.2,28.7
		c0-0.1,0-0.2-0.1-0.3c-0.3,0-0.7-0.1-1-0.2C73,28.1,73,28,72.9,27.8c-0.2-0.6-0.4-1.2-0.7-1.7c-0.3-0.7-0.6-1.3-1.1-1.8
		c-0.3-0.2-0.7-0.4-1.1-0.5l-0.6-0.2c0.2,0,0.4-0.1,0.6-0.1c0.6,0,1.2-0.2,1.7-0.6c0.6-0.5,1-1.2,0.9-2c0-1.2-0.7-2.3-1.9-2.8
		C70.1,18,69.5,18,68.9,18c-1.1,0-2.7,0.1-3.5,0.1h-2.1h-0.9c0,0.1-0.1,0.2-0.1,0.3c0,0.1,0,0.2,0,0.3c0.3,0,0.7,0.1,1,0.1
		c0.3,0.2,0.5,0.5,0.6,0.8c0.1,1.3,0.1,2.5,0,3.8c0,1.5,0,3.3-0.1,3.9c0,0.4-0.2,0.8-0.6,1c-0.3,0.1-0.6,0.1-0.9,0.1
		c0,0.1-0.1,0.2-0.1,0.3c0,0.1,0,0.2,0.1,0.2h3c1,0,1.8,0,2.7,0c0-0.1,0.1-0.2,0.1-0.2c0-0.1,0-0.2-0.1-0.3c-0.3,0-0.7-0.1-0.8-0.1
		c-0.4-0.2-0.7-0.6-0.7-1.1v-3.5c0.1,0,0.3,0,0.4,0c0.3,0,0.6,0.1,0.8,0.2c0.5,0.2,0.9,0.6,1.2,1.1c0.5,1,0.9,2.1,1,3.3
		c0,0.3,0.2,0.6,0.5,0.6c0.1,0,0.9,0,1.5,0h2.2C74.2,28.9,74.2,28.8,74.2,28.7 M57.7,20.9c0,0.7-0.3,1.4-0.8,1.9
		c-0.5,0.3-1,0.5-1.6,0.4c-0.2,0-0.4,0-0.7,0c-0.1,0-0.2,0-0.2-0.1v-4.4c0.3,0,0.6-0.1,0.9-0.1c1,0,1.7,0.3,2,0.9
		C57.6,19.9,57.7,20.4,57.7,20.9 M60.5,21c0-1.1-0.6-2.1-1.6-2.6C58,18.1,57,17.9,56.1,18c-1.2,0-3,0.1-3.8,0.1
		c-0.6,0-1.4-0.1-1.9-0.1c0,0.1-0.1,0.2-0.1,0.2c0,0.1,0,0.2,0,0.3c0.3,0.1,0.8,0.2,1.1,0.2c0.2,0.2,0.4,0.5,0.4,0.9
		c0,0.5,0.1,1.2,0.1,2.3c0,3.2,0,4.9-0.1,5.2c-0.1,0.5-0.4,0.9-0.8,1c-0.3,0.1-0.6,0.1-0.9,0.1c0,0.1,0,0.2,0,0.3c0,0.1,0,0.1,0,0.2
		c0.5,0,1.9-0.1,2.5-0.1c1.3,0,2.7,0.1,3.3,0.1h0.4c0-0.1,0-0.2,0-0.2c0-0.1,0-0.2,0-0.3c-0.5,0-1-0.2-1.4-0.5
		c-0.2-0.2-0.3-0.6-0.3-0.9v-3.3c0.9,0.1,1.9,0.1,2.4,0.1c0.6,0,1.2-0.1,1.8-0.3C59.8,23.2,60.5,22.1,60.5,21"/>
	<path d="M163,35.2c0-0.1-0.1-0.1-0.1-0.2c-0.6,0-1.4,0-1.8,0c-0.8,0-1.7-0.1-2.1-0.1c0,0.1-0.1,0.1-0.1,0.2c0,0.1,0,0.1,0,0.2
		c0.4,0.1,1.1,0.2,1.2,0.4c0.1,0.2,0.1,0.4,0.1,0.6c0,0.2,0,0.4-0.1,0.6c-0.1,0.4-0.4,1-0.8,1.8c-0.7,1.4-1.1,2.3-1.4,2.6
		c-0.4-0.7-1.3-2.4-1.5-2.9l-0.9-1.9c0-0.1-0.1-0.3-0.1-0.4c0-0.1,0-0.3,0.1-0.4c0.1-0.3,0.6-0.3,1.2-0.4c0-0.1,0-0.2,0-0.2
		c0-0.1,0-0.1-0.1-0.2h-0.3c-1,0-0.7,0-2.5,0c-0.7,0-1.6,0-1.8,0s-0.1,0.1-0.1,0.2c0,0.1,0,0.1,0.1,0.2c1,0.2,1.3,0.4,1.4,0.6
		l2.7,5.2c0.2,0.4,0.4,0.7,0.5,1.1c0.1,0.6,0.1,1.2,0.1,1.8c0.1,0.4-0.1,0.9-0.5,1.2c-0.4,0.1-0.8,0.2-1.2,0.2
		c0,0.1-0.1,0.1-0.1,0.2c0,0.1,0,0.1,0,0.2h2h1.7h1.2c0-0.1,0.1-0.1,0.1-0.2c0-0.1,0-0.1-0.1-0.2c-0.5,0-0.9-0.1-1.3-0.3
		c-0.3-0.2-0.4-0.6-0.4-1l-0.1-2.3c0-0.1,0-0.2,0.1-0.4c0-0.1,0.1-0.3,0.2-0.4l2.5-4.5c0.3-0.4,0.6-0.7,1-1c0.3-0.1,0.7-0.2,1-0.3
		C163,35.3,163.1,35.2,163,35.2 M150.8,38.3v-3c0-0.2-0.1-0.3-0.3-0.3c-0.5,0-2.6,0.1-5,0.1c-1.9,0-3.1,0-4,0h-1.1
		c-0.2,0-0.3,0-0.3,0.3v2.8c0.1,0,0.1,0.1,0.2,0.1c0.1,0,0.1,0,0.2,0c0.6-1.3,0.9-2,1.9-2.5c0.4,0,2-0.1,2.3-0.1c0,0.2,0,0.7,0,1.3
		c0,1.1,0,1.7,0,4.3c0,2.2,0,3.4,0,3.6c-0.1,0.4,0,0.8-1.8,0.8c0,0.1,0,0.2,0,0.3c0,0.1,0,0.1,0,0.2h0.6c0.6,0,1.3-0.1,1.9-0.1
		s1.3,0,2.2,0h0.4c0-0.1,0-0.2,0-0.2c0-0.1,0-0.1-0.1-0.2c-0.5,0-1.1-0.1-1.6-0.3c-0.1-0.4-0.1-0.8-0.1-1.1c0-1.6,0-2.4,0-3.5
		c0-1.4,0-2.5,0-5.1c0.2,0,1.3,0,1.8,0c0.7,0.1,1.3,0.6,1.7,1.2c0.3,0.5,0.6,1.1,0.7,1.7c0.1,0,0.2,0,0.2,0
		C150.6,38.3,150.7,38.3,150.8,38.3 M138.1,45.8c0-0.1,0-0.1,0-0.2c-0.2,0-0.9-0.1-1.1-0.1c-0.3-0.3-0.5-0.7-0.5-1.2
		c0-0.7,0-2.4,0-3.8v-3.8c0-0.3,0.1-0.6,0.3-0.8c0.4-0.3,0.9-0.4,1.3-0.4c0-0.1,0-0.1,0-0.2c0-0.1,0-0.1-0.1-0.2h-0.4
		c-0.6,0-1.6,0.1-2.1,0.1c-0.3,0-1.2,0-1.9-0.1h-0.3c-0.1,0.1-0.1,0.1-0.1,0.2c0,0.1,0,0.1,0,0.2c0.4,0,0.8,0.1,1.2,0.2
		c0.3,0.3,0.5,0.8,0.5,1.3c0,0.3,0,1.1,0,2.5c0,0.8,0,1.8,0,2.7c0,0.4,0,1.6,0,2.1c0,0.3-0.1,0.6-0.2,0.9c-0.2,0.2-0.4,0.4-1.5,0.5
		c0,0.1,0,0.2,0,0.2c0,0.1,0,0.1,0,0.2h0.3c0.6,0,1.6-0.1,2.3-0.1c0.2,0,1.2,0,1.7,0h0.5C138.1,45.9,138.1,45.8,138.1,45.8
		 M130.6,43c0-1.2-0.7-2.2-1.7-2.7c-0.5-0.3-1.1-0.5-1.7-0.6c-0.8-0.2-1.5-0.5-2.2-0.8c-0.6-0.3-0.9-1-0.9-1.7
		c0.1-1.1,1.1-1.9,2.1-1.8c0.8,0,1.6,0.4,2.1,1.1c0.4,0.5,0.7,1.1,0.9,1.7h0.1c0.1,0,0.2-0.1,0.3-0.2c-0.1-0.5-0.1-0.9-0.1-1.4
		c0-0.4,0.1-0.8,0.1-1.2c-0.1-0.2-0.3-0.2-0.5-0.2c-0.2,0.2-0.4,0.3-0.6,0.5c-0.7-0.6-1.6-1-2.6-0.9c-1.7-0.1-3.1,1.1-3.2,2.8
		c0,0,0,0.1,0,0.1c0,0.6,0.2,1.2,0.6,1.7c0.4,0.5,0.9,0.9,1.5,1.1c0.4,0.2,2.4,0.8,2.7,0.9c1.2,0.5,1.7,0.9,1.7,2
		c0,0.6-0.3,1.1-0.7,1.5c-0.4,0.5-1,0.7-1.7,0.7c-1,0-1.9-0.4-2.6-1.1c-0.4-0.6-0.8-1.3-1-2c-0.1,0-0.1,0-0.2,0
		c-0.1,0-0.2,0-0.3,0.1c0,0.2,0.1,1.2,0.1,1.5c0,0.5-0.1,0.9-0.2,1.3c0.1,0.2,0.3,0.3,0.5,0.3c0.2-0.2,0.5-0.4,0.8-0.5
		c0.1,0,0.3,0.1,0.4,0.1c0.7,0.5,1.6,0.8,2.5,0.8C129.1,46.2,130.7,45.2,130.6,43 M117.2,37.8c-0.1,1-0.7,1.9-1.7,2.2
		c-0.5,0.1-1.1,0.1-1.6,0.1c-0.3,0-0.6,0-0.9,0v-4.2c0-0.2,0-0.3,0.1-0.3c0.3-0.1,0.7-0.1,1.1-0.1c1.4,0,2.1,0.1,2.6,0.9
		C117.1,36.7,117.2,37.2,117.2,37.8 M120.4,45.7c0-0.1,0-0.2-0.1-0.2c-0.3,0-0.7-0.1-1-0.2c-0.1-0.1-0.2-0.2-0.3-0.3
		c-0.2-0.6-0.4-1.3-0.6-1.9c-0.3-0.7-0.6-1.3-1.1-1.8c-0.3-0.2-0.7-0.4-1.1-0.5l-0.6-0.2c0.2,0,0.4-0.1,0.6-0.1
		c0.6,0,1.1-0.2,1.6-0.6c0.6-0.5,1-1.2,1-2c0-1.2-0.7-2.3-1.9-2.8c-0.6-0.1-1.2-0.2-1.8-0.2c-1.1,0-2,0.1-2.8,0.1c-0.2,0-1,0-1.5,0
		h-0.9c0,0.1-0.1,0.1-0.1,0.2c0,0.1,0,0.1,0,0.2c0.3,0,0.7,0.1,1,0.1c0.3,0.2,0.5,0.5,0.6,0.8c0.1,0.5,0.1,1.8,0.1,4
		c0,1.5,0,3.5-0.1,4.1c0,0.4-0.2,0.8-0.6,1c-0.3,0.1-0.6,0.1-0.9,0.1c0,0.1-0.1,0.1-0.1,0.2c0,0.1,0.1,0.1,0.1,0.2h2.4
		c1,0,1.2,0,2.1,0c0-0.1,0.1-0.1,0.1-0.2c0-0.1,0-0.2-0.1-0.2c-0.3,0-0.7-0.1-0.8-0.2c-0.4-0.2-0.7-0.6-0.7-1.1v-3.8
		c0.1,0,0.6,0,0.7,0c0.4,0,0.8,0.1,1.2,0.2c0.6,0.3,1.1,0.7,1.5,1.2c0.5,1,0.9,2.2,1,3.3c0,0.3,0.2,0.6,0.4,0.6c0.3,0,0.6,0,0.9,0
		h1.6C120.4,45.9,120.4,45.8,120.4,45.7 M107.6,43.5c0-0.1,0-0.3,0-0.4c-0.1,0-0.2,0-0.2,0c-0.1,0-0.1,0-0.2,0
		c-0.2,0.9-0.8,1.8-1.6,2.3c-0.4,0.2-0.9,0.2-1.3,0.2h-1.7c-0.3,0-0.7,0-1-0.1c-0.2,0-0.5-0.4-0.6-0.7c-0.1-0.3-0.2-0.7-0.2-1v-3.5
		h0.5c0.4,0,0.9,0,1.3,0.2c0.3,0.1,0.6,0.4,0.8,0.7c0.1,0.4,0.2,0.8,0.2,1.3c0.1,0,0.2,0.1,0.2,0.1c0.1,0,0.2,0,0.2-0.1
		c0-0.4-0.1-1.5-0.1-2.1c0-0.8,0.1-1.7,0.2-2.2c-0.1,0-0.2,0-0.2,0c-0.1,0-0.2,0-0.2,0c0,0.2-0.2,0.8-0.2,0.9
		c-0.3,0.4-0.7,0.7-1.2,0.8c-0.4,0.1-0.8,0.1-1.2,0.1h-0.2v-1.5c0-1.5,0-2,0-2.3s0-0.4,0.1-0.5c0.1-0.1,0.6,0,1.3,0h1.8
		c0.4,0,0.7,0.1,1,0.3c0.6,0.5,1.1,1.1,1.3,1.9c0.1,0,0.1,0,0.2,0c0.1,0,0.1,0,0.2-0.1c0-0.9-0.1-2-0.1-2.4c0-0.1,0-0.2-0.3-0.2
		c-0.1,0-0.7,0-1.3,0h-2.6h-2.6c-0.9,0-1.1,0-1.5,0h-0.5c0,0-0.1,0.1-0.1,0.2c0,0.1,0,0.2,0.1,0.2c0.4,0,0.7,0.1,1.1,0.2
		c0.2,0.2,0.4,0.2,0.6,1c0,0.3,0,1.4,0,2.1v3.1c0,0.6,0,1.7,0,2.1c0,0.5-0.1,1-0.3,1.5c-0.4,0.2-0.9,0.2-1.4,0.2
		c0,0.1-0.1,0.2-0.1,0.2c0,0.1,0,0.2,0.1,0.2h0.5c0.5,0,1.7,0,2.1,0s0.9,0,1.8,0c0.5,0,1.9,0.1,5,0.1c0.1,0,0.3,0,0.4,0
		c0-0.1,0.1-0.2,0.1-0.2C107.6,45.5,107.6,44.8,107.6,43.5 M96.4,35.2c0-0.1,0-0.2-0.1-0.2h-0.5h-1.2c-1.2,0-1.7-0.1-1.8-0.1h-0.3
		c0,0.1-0.1,0.1-0.1,0.2c0,0.1,0,0.1,0,0.2c0.3,0,0.7,0.1,1,0.2c0.3,0.3,0.4,0.6,0.4,1c-0.1,0.5-0.2,0.9-0.4,1.4l-2.4,6l-3-7.6
		c0-0.3,0.2-0.7,0.5-0.9c0.3-0.1,0.7-0.1,1-0.1c0-0.1,0.1-0.1,0.1-0.2c0-0.1,0-0.1-0.1-0.2H89c-0.5,0-1.2,0.1-2,0.1
		c-0.3,0-1,0-1.7,0h-0.6c0,0.1-0.1,0.1-0.1,0.2c0,0.1,0,0.1,0,0.2c0.4,0.1,0.9,0.3,1.3,0.5c0.5,0.9,0.9,1.8,1.2,2.8l1.3,3
		c1,2.5,1.7,4.2,1.7,4.5c0.1,0,0,0.1,0.1,0.1s0.1,0,0.2-0.1l3.9-9.4c0.1-0.3,0.3-0.6,0.6-0.9c0.4-0.3,0.8-0.4,1.2-0.5
		c0-0.1,0-0.1,0.1-0.2 M83.1,45.8c0-0.1,0-0.1,0-0.2c-0.2,0-0.8-0.1-1.1-0.1c-0.3-0.3-0.5-0.7-0.5-1.2c0-0.7,0-2.4,0-3.8v-3.9
		c0-0.3,0.1-0.6,0.3-0.8c0.4-0.2,0.8-0.4,1.3-0.4c0-0.1,0-0.1,0-0.2c0-0.1,0-0.1,0-0.2h-0.4c-0.6,0-1.6,0.1-2.1,0.1
		c-0.3,0-1.2,0-1.9-0.1h-0.3c-0.1,0-0.1,0.1-0.1,0.2c0,0.1,0,0.1,0,0.2c0.4,0,0.8,0.1,1.2,0.2c0.3,0.3,0.5,0.8,0.5,1.3
		c0,0.3,0,1.1,0,2.5c0,0.8,0,1.8,0,2.7c0,0.4,0,1.6,0,2.1c0,0.3-0.1,0.6-0.2,0.9c-0.2,0.2-0.4,0.4-1.5,0.5c0,0.1,0,0.2,0,0.2
		c0,0.1,0,0.1,0,0.2h0.3c0.6,0,1.6-0.1,2.3-0.1c0.2,0,1.2,0,1.7,0H83C83,45.9,83.1,45.8,83.1,45.8 M76.2,35.2c0,0,0-0.1,0-0.1h-0.3
		c-0.8,0-1.1,0-2.5,0c-0.5,0-1.2,0-1.3,0h-0.4c0,0-0.1,0.1-0.1,0.2c0,0.1,0,0.1,0.1,0.2c0.5,0.1,1.1,0.2,1.6,0.4
		c0.3,0.5,0.4,1,0.4,1.6c0,0.2,0,0.5,0,1.1V43c0,0.2,0,0.4,0,0.7c-0.3-0.3-0.7-0.8-1.3-1.5l-5.8-6.8c-0.1-0.1-0.1-0.1-0.2-0.2H66
		c-1,0-1.8,0-2.1,0c0,0,0,0.1,0,0.1c0,0.1,0,0.1,0,0.2c0.4,0,0.8,0.1,1.1,0.3c0.3,0.3,0.5,0.6,0.7,0.9c0.1,0.2,0.1,0.3,0.1,0.5
		c0,0.8,0,2.2,0,3.3v3.2c0,0.4,0,0.8-0.1,1.2c-0.4,0.4-1,0.7-1.6,0.8c0,0.1-0.1,0.1-0.1,0.2c0,0,0,0.1,0,0.2h0.3c0.3,0,1,0,1.5,0
		c0.7,0,1,0,1.6,0h0.9c0.1,0,0.1-0.1,0.1-0.2c0,0,0-0.1,0-0.2c-0.7-0.1-1.3-0.4-1.8-0.9c-0.1-0.6-0.2-1.3-0.2-1.9c0-0.5,0-1.3,0-2.2
		c0-1.2,0-2.9,0-3.4l0.3,0.4l7.2,8.4c0,0.1,0.1,0.1,0.2,0.1c0.1,0,0,0,0.1,0c0.1-0.2,0.1-0.5,0.1-0.7c0-0.4,0-0.9,0-1.1v-6.5
		c0-1.9,0.9-2.4,1.9-2.5C76.2,35.3,76.2,35.2,76.2,35.2 M62.2,35.2c0-0.1,0-0.1-0.1-0.2h-0.4H60c-0.6,0-1.3,0-1.7,0h-0.5
		c0,0.1-0.1,0.1-0.1,0.2c0,0.1,0,0.1,0,0.2c0.1,0,1.2,0,1.4,0.3c0.3,0.3,0.5,0.7,0.6,1.1c0.1,0.6,0.1,1.1,0.1,1.7c0,1.3,0,2.2,0,2.6
		c0,0.7-0.1,1.3-0.3,2c-0.4,1.3-1.6,2.2-3,2c-0.6,0-1.2-0.1-1.8-0.4c-0.8-0.4-1.3-1.1-1.5-1.9l-0.1-4.5v-1.9c0-0.3,0.4-0.7,0.6-0.8
		c0.4-0.1,0.8-0.1,1.2-0.2c0-0.1,0.1-0.1,0.1-0.2c0-0.1,0-0.2-0.1-0.2h-0.6h-1.8h-2.3c-0.1,0.1-0.1,0.1-0.1,0.2c0,0.1,0,0.1,0.1,0.2
		c0.5,0.1,0.8,0.1,1,0.1c0.2,0.2,0.4,0.4,0.5,0.7c0,0.2,0,0.7,0,1.6v3.6c0,0.7,0,1.3,0.2,2c0.2,0.8,0.7,1.4,1.3,1.9
		c0.8,0.5,1.8,0.8,2.8,0.7c0.9,0,1.8-0.2,2.6-0.6c0.8-0.4,1.3-1.2,1.5-2c0.2-0.6,0.2-1.2,0.2-1.8v-2.9c0-0.5,0-1.2,0-1.5
		c0-0.6,0.1-1.2,0.5-1.7c0.4-0.1,0.8-0.2,1.3-0.2c0-0.1,0.1-0.1,0.1-0.2"/>
</g>
</svg>
